<svg width="1523" height="802" viewBox="0 0 1523 802" fill="none" xmlns="http://www.w3.org/2000/svg">
<mask id="mask0_1_4667" style="mask-type:alpha" maskUnits="userSpaceOnUse" x="0" y="587" width="1523" height="215">
<ellipse cx="761.5" cy="694.5" rx="761.5" ry="107.5" fill="black"/>
</mask>
<g mask="url(#mask0_1_4667)">
<rect y="587" width="1523" height="215" fill="black"/>
</g>
<path d="M754.13 9.57352C748.82 11.6038 742.574 16.7575 739.45 21.599C735.858 26.9089 735.702 40.9646 738.981 43.7758C740.231 44.869 741.324 46.5869 741.324 47.524C741.324 50.4913 751.632 57.8315 756.005 57.8315C757.098 57.8315 758.503 59.3932 758.972 61.2674C760.221 65.9526 758.503 147.32 757.254 148.569C756.629 149.038 753.35 150.287 749.758 151.224C746.166 152.317 740.699 154.816 737.42 157.002C734.296 159.189 731.017 160.907 730.392 160.594C728.049 159.657 666.36 107.339 666.36 106.246C666.36 105.621 667.453 102.497 668.703 99.5302C669.952 96.4067 671.045 89.3788 671.045 84.0689C671.045 75.9478 670.108 72.8243 666.36 65.9526C663.705 61.5797 660.894 57.8315 660.113 57.8315C659.332 57.8315 657.146 56.5821 655.428 55.0204C650.43 50.8036 639.03 48.9296 628.41 50.6475C620.445 51.8969 618.258 52.9901 612.324 59.0809C599.049 72.9805 597.175 89.8473 607.326 104.372C613.105 112.493 626.223 120.145 634.501 120.301H639.342L643.559 151.849C645.901 169.34 648.869 189.487 649.962 196.827C654.179 223.689 654.179 223.064 648.4 225.876C640.591 229.468 635.125 238.838 635.125 248.365C635.125 256.642 636.687 260.546 642.778 267.418L646.526 271.635L641.372 282.255C638.561 288.033 632.47 300.839 627.941 310.366L619.664 328.014H610.606H601.548L597.331 319.737C594.988 315.364 587.336 299.746 580.464 285.222L567.814 258.828L572.499 253.987C587.492 238.213 589.21 212.757 576.404 195.734C562.816 177.93 535.017 172.776 517.213 184.958C508.155 191.205 499.253 201.981 499.253 206.822C499.253 210.258 495.505 210.102 467.237 204.636C453.806 202.137 442.406 199.951 442.093 199.951C441.781 199.951 441.469 198.389 441.469 196.359C441.312 191.673 436.315 181.053 432.567 177.774C427.1 172.776 416.793 170.121 410.077 171.839C387.588 177.93 382.747 208.072 402.737 218.223C406.485 220.097 410.546 221.971 411.952 222.284C413.982 222.908 414.606 227.125 415.387 247.896C416.012 261.483 416.481 279.131 416.481 286.94V301.464L410.702 304.119C407.579 305.681 402.893 309.585 400.238 312.865C396.178 317.862 395.553 320.049 395.709 327.077C395.866 331.762 396.959 337.54 398.208 340.039L400.551 344.412L380.092 365.964C368.691 377.834 358.696 387.516 357.915 387.36C356.978 387.36 353.542 385.955 350.106 384.237C345.89 382.05 340.892 381.113 333.708 381.113C324.962 381.113 322.307 381.894 316.06 385.798C307.939 390.952 301.848 399.542 299.037 409.849C297.475 415.784 297.632 418.283 299.818 425.155C308.408 452.485 337.925 461.231 358.696 442.49C371.815 430.777 374.47 413.91 365.724 398.449L361.819 391.577L377.125 375.803C385.714 367.214 395.241 357.219 398.521 353.939C403.518 348.473 404.611 348.004 407.422 349.722C413.045 353.158 424.758 353.626 431.161 350.659C451.932 340.82 450.527 309.585 428.975 303.182C425.539 302.245 422.571 300.839 422.571 300.215C421.791 296.467 421.478 287.721 420.385 256.798L419.292 222.44L425.851 219.472C429.755 217.754 434.128 214.162 436.471 210.57C438.501 207.291 441.469 204.636 442.874 204.636C445.529 204.636 463.802 208.072 483.636 212.445L495.349 214.943L496.286 224.938C497.379 237.589 502.533 248.365 511.122 256.017C522.836 266.325 540.952 269.917 555.476 264.763C559.068 263.514 562.66 262.42 563.441 262.42C564.222 262.42 566.408 266.169 568.595 270.542C570.625 275.071 576.872 288.345 582.338 299.902C597.487 331.606 597.175 330.981 593.427 334.105C582.338 342.85 582.494 364.246 593.739 372.992C604.515 381.426 618.727 380.645 628.254 371.118C638.561 360.811 638.717 346.442 628.878 335.823C626.223 333.011 624.193 330.513 624.193 330.2C624.193 329.888 627.317 323.172 631.065 315.208C634.813 307.243 640.748 294.592 644.183 287.252L650.43 273.821L658.864 273.977C673.544 274.134 685.57 262.42 685.414 248.052C685.257 236.027 674.013 223.377 663.549 223.377C661.675 223.377 659.957 222.752 659.332 221.815C658.864 221.034 656.053 203.699 652.929 183.24C649.962 162.781 646.838 141.541 646.057 135.919C643.559 119.364 643.559 119.521 652.773 114.991C657.458 112.805 661.987 110.931 663.081 110.931C664.798 110.931 721.646 158.408 725.707 163.249C727.268 165.124 727.112 166.998 724.301 173.245C719.928 183.552 719.928 197.608 724.301 206.978C739.294 238.682 783.96 238.994 798.796 207.291C803.326 197.764 803.482 183.24 799.109 173.557C797.391 169.809 795.985 166.217 795.985 165.592C795.985 164.187 807.698 153.879 831.905 133.576C839.09 127.485 847.991 119.989 851.583 116.709C857.987 110.931 863.609 109.369 865.639 112.649C866.108 113.586 869.075 115.304 872.042 116.553C874.854 117.803 877.665 119.833 878.289 121.238C879.07 123.269 870.168 188.862 865.795 212.445C864.077 221.815 863.609 222.596 859.236 223.377C845.024 226.344 837.372 236.495 838.465 250.707C839.714 265.232 850.178 274.29 865.171 273.821L872.667 273.665L878.602 286.315C881.881 293.343 887.816 305.993 891.877 314.27C895.781 322.704 899.061 329.732 899.061 330.2C899.061 330.513 897.03 333.011 894.375 335.823C887.972 342.694 885.473 351.284 887.972 359.249C892.814 375.647 910.618 383.768 924.673 375.959C929.515 373.305 934.981 367.214 936.699 362.841C940.291 353.47 936.386 337.853 929.359 333.792C926.86 332.387 926.547 329.107 928.734 325.203C930.608 321.767 953.409 274.29 956.221 267.418C958.719 261.796 960.281 261.483 968.246 264.763C975.742 267.887 990.267 267.574 998.544 264.295C1014.94 257.579 1025.41 243.055 1026.97 224.938L1027.9 214.787L1052.11 209.79C1065.39 207.135 1077.88 204.792 1079.75 204.792C1081.94 204.636 1084.28 206.51 1086.47 210.102C1088.5 213.382 1093.03 217.286 1097.4 219.472C1104.27 222.908 1104.9 223.689 1104.43 228.374C1104.12 231.185 1103.34 248.052 1102.71 265.856C1102.09 283.66 1101.15 298.653 1100.68 299.434C1100.21 300.059 1096.31 302.401 1092.09 304.588C1087.88 306.774 1083.03 310.366 1081.32 312.709C1077.41 317.862 1076.01 331.137 1078.66 337.384C1083.66 349.566 1099.12 355.813 1111.77 350.972C1119.42 347.848 1117.55 346.599 1142.38 371.899L1161.59 391.577L1157.22 399.073C1145.97 419.376 1157.69 445.926 1180.33 451.392C1197.98 455.609 1214.69 446.707 1222.34 428.747C1229.53 412.036 1220.16 390.64 1202.51 383.144C1194.86 380.02 1180.33 380.489 1173.15 384.237C1169.71 385.955 1166.28 387.36 1165.34 387.36C1163.78 387.36 1154.87 378.458 1127.39 349.566C1121.92 343.787 1121.92 343.787 1124.73 339.571C1126.45 336.916 1127.54 332.074 1127.7 327.077C1127.7 320.049 1127.08 317.862 1123.02 312.865C1120.36 309.585 1115.67 305.681 1112.55 304.119L1106.77 301.464V286.94C1106.77 279.131 1107.24 261.483 1107.87 247.896C1108.65 227.125 1109.27 222.908 1111.3 222.44C1120.36 219.785 1127.23 214.787 1130.2 208.696C1137.38 193.547 1130.67 177.93 1114.27 172.464C1106.93 170.121 1106.62 170.121 1098.18 174.026C1088.81 178.242 1083.97 184.489 1082.41 194.016C1081.79 197.296 1081.32 199.951 1081.16 199.951C1081.16 199.951 1070.07 202.137 1056.8 204.636C1025.56 210.727 1025.09 210.727 1022.75 204.011C1020.56 198.076 1013.22 189.643 1006.04 184.958C996.357 178.398 982.302 176.524 970.276 179.96C938.104 189.174 927.484 229.468 950.754 253.987L955.44 258.828L942.79 285.222C935.762 299.746 928.265 315.364 926.079 319.737L922.174 328.014H912.804H903.59L893.438 306.462C887.816 294.749 881.725 282.098 880.007 278.35L876.728 271.635L880.476 267.418C886.567 260.546 888.128 256.642 888.128 248.365C888.128 237.432 883.912 230.873 873.604 225.563C868.919 223.064 869.075 224.47 872.667 200.731C873.448 195.578 875.478 181.21 877.196 168.716C881.257 138.105 883.287 124.518 884.224 122.176C884.536 121.238 887.035 120.301 889.534 120.301C892.033 120.301 894.688 119.521 895.156 118.74C895.625 117.803 897.655 117.178 899.529 117.178C904.995 117.178 914.678 108.12 918.739 99.374C925.61 84.5374 922.487 70.0132 909.993 58.1439C901.872 50.4913 890.315 48.1487 875.947 50.9598C869.231 52.3654 858.611 61.7359 855.176 69.3884C851.583 77.1972 851.271 92.8147 854.551 99.0616C858.611 106.87 862.828 102.341 808.323 147.944C799.89 155.128 792.549 160.907 791.925 160.907C791.456 160.907 788.177 158.877 784.428 156.378C780.836 153.879 775.214 151.224 772.091 150.755C768.811 150.131 766 149.194 765.531 148.569C764.438 146.539 763.189 61.7359 764.438 60.0179C765.063 59.2371 768.03 57.5192 770.997 56.2698C790.207 48.461 792.081 24.2539 774.277 12.5408C767.093 7.6994 760.846 6.76236 754.13 9.57352Z" fill="black"/>
<path d="M757.207 274.169L757.176 274.182L757.144 274.195C756.957 274.272 756.782 274.344 756.616 274.412C754.535 275.263 754.03 275.47 753.496 276.274C752.771 277.366 752.008 279.763 751.498 285.975C750.563 297.351 750.566 319.313 750.57 363.354C750.571 366.535 750.571 369.831 750.571 373.246C750.571 398.869 750.415 422.271 750.18 439.33C750.063 447.857 749.926 454.811 749.779 459.67C749.705 462.095 749.629 464.021 749.549 465.367C749.51 466.033 749.468 466.599 749.42 467.026C749.397 467.23 749.366 467.471 749.319 467.699C749.297 467.805 749.255 467.995 749.18 468.21C749.142 468.317 749.072 468.498 748.956 468.706C748.863 468.873 748.612 469.296 748.121 469.663L747.998 469.756L747.865 469.836C746.704 470.533 745.576 470.204 745.382 470.147L745.371 470.144C745.011 470.04 744.722 469.891 744.56 469.803C744.213 469.613 743.861 469.367 743.554 469.138C742.912 468.662 742.083 467.974 741.119 467.135C739.174 465.443 736.488 462.968 733.266 459.914C726.815 453.796 718.126 445.263 708.744 435.803C693.253 420.312 684.638 411.856 679.314 407.26C673.954 402.632 672.533 402.484 671.358 402.484C670.196 402.484 668.755 402.649 667.383 402.916C666.077 403.171 665.03 403.479 664.447 403.722C663.397 404.374 661.879 406.114 660.551 408.592C659.298 410.932 658.537 413.33 658.439 415.045C658.478 415.119 658.532 415.213 658.603 415.33C658.924 415.855 659.465 416.615 660.291 417.652C661.933 419.714 664.5 422.628 668.146 426.547C675.427 434.371 686.833 446.012 703.308 462.487L703.312 462.491L748.915 508.25L749.786 509.124L749.79 510.358L750.102 602.961C750.102 602.962 750.102 602.963 750.102 602.964C750.415 653.72 750.571 698.861 750.571 702.931C750.571 705.921 750.775 707.547 751.193 708.707C751.569 709.751 752.203 710.647 753.644 711.951L753.657 711.963L753.67 711.974C756.937 715 761.707 715.618 765.805 714.241C769.912 712.861 772.628 709.773 772.683 706.011L772.684 705.933L772.689 705.855L772.689 705.85L772.69 705.836L772.692 705.786C772.694 705.743 772.696 705.687 772.698 705.617C772.703 705.476 772.707 705.292 772.712 705.062C772.722 704.603 772.731 703.983 772.741 703.208C772.761 701.659 772.78 699.511 772.8 696.828C772.839 691.464 772.878 683.981 772.917 674.924C772.995 656.81 773.073 632.409 773.151 606.094V606.093L773.463 510.514L773.467 509.28L774.338 508.406L820.091 462.497C836.255 446.177 847.624 434.496 854.946 426.591C858.613 422.632 861.222 419.667 862.901 417.562C863.745 416.504 864.304 415.724 864.638 415.183C864.714 415.059 864.771 414.959 864.813 414.882C864.709 413.246 863.957 410.9 862.706 408.58C861.377 406.117 859.858 404.375 858.806 403.722C858.223 403.479 857.176 403.171 855.871 402.916C854.498 402.649 853.057 402.484 851.896 402.484C850.724 402.484 849.344 402.628 844.101 407.177C838.891 411.697 830.47 419.998 815.288 435.18C799.932 450.614 790.308 459.969 784.604 464.775C783.17 465.983 781.932 466.949 780.879 467.664C779.886 468.338 778.829 468.952 777.796 469.23C777.263 469.374 776.502 469.495 775.663 469.296C774.717 469.071 773.924 468.496 773.416 467.686C772.966 466.971 772.837 466.233 772.799 465.716C772.762 465.216 772.796 464.725 772.855 464.284C772.855 464.281 772.855 464.278 772.855 464.275C772.859 464.194 772.863 464.068 772.867 463.889C772.875 463.534 772.883 463.023 772.89 462.356C772.904 461.025 772.917 459.112 772.926 456.678C772.946 451.811 772.956 444.88 772.956 436.399C772.956 419.439 772.917 396.289 772.838 371.069L772.838 371.065L772.684 280.519L769.994 277.463L769.984 277.451L769.974 277.44C768.492 275.72 766.263 274.444 763.821 273.846C761.367 273.245 758.977 273.394 757.207 274.169ZM658.351 414.868C658.352 414.868 658.352 414.869 658.352 414.869C658.342 414.84 658.339 414.838 658.351 414.868ZM772.851 464.348C772.851 464.355 772.852 464.351 772.853 464.329C772.852 464.338 772.852 464.344 772.851 464.348Z" fill="#2B2B2B" stroke="#131313" stroke-width="6"/>
<path d="M535.247 321.878L535.233 321.885L535.22 321.893C533.48 322.855 532.542 323.549 531.858 324.471C531.171 325.398 530.534 326.844 530.047 329.657C529.047 335.435 528.882 345.536 528.803 365.033V401.416V404.416H525.803H473.328C451.052 404.416 437.809 404.494 429.59 404.842C421.234 405.196 418.577 405.83 417.041 406.598L417.004 406.616L416.966 406.634C413.256 408.361 411.248 411.173 410.709 414.235C410.161 417.343 411.066 421.091 413.969 424.67L413.98 424.684L413.991 424.698L416.066 427.318L479.128 427.777L543.785 428.245L545.024 428.254L545.896 429.135L603.209 487.073L603.212 487.076L660.681 545.014L661.551 545.891V547.127V624.277L661.551 627.839C661.55 668.047 661.55 687.916 662.667 698.376C663.244 703.78 664.079 706.11 664.964 707.376C665.803 708.578 666.855 709.133 669.436 710.465C671.419 711.456 672.344 711.743 673.103 711.785C673.837 711.825 674.768 711.652 676.785 710.831L676.804 710.823L676.824 710.815C677.521 710.542 678.074 710.341 678.557 710.165C679.185 709.936 679.694 709.75 680.248 709.507C681.061 709.15 681.522 708.84 681.874 708.46C682.627 707.649 683.52 705.837 684.13 700.354C685.238 690.403 685.234 670.967 685.226 631.13C685.225 627.602 685.225 623.915 685.225 620.06V536.188L619.729 470.692L553.355 404.318L552.476 403.439V402.197V365.808C552.476 345.915 552.307 335.439 551.217 329.449C550.685 326.528 549.988 325.037 549.246 324.109C548.515 323.194 547.505 322.525 545.653 321.69L545.645 321.686C543.264 320.604 541.625 320.21 540.209 320.237C538.823 320.263 537.327 320.699 535.247 321.878Z" fill="#2B2B2B" stroke="#131313" stroke-width="6"/>
<path d="M976.367 322.235L976.359 322.241L976.352 322.247C975.088 323.245 974.253 324.148 973.597 325.399C972.91 326.71 972.323 328.592 971.879 331.681C970.979 337.942 970.777 348.238 970.777 366.745V402.041V403.281L969.901 404.159L903.527 470.69L903.524 470.692L838.029 536.188V620.061C838.029 624.127 838.028 628.006 838.027 631.706C838.019 670.758 838.015 689.882 839.047 699.789C839.618 705.265 840.46 707.215 841.234 708.157C841.594 708.595 842.05 708.948 842.812 709.361C843.334 709.645 843.814 709.867 844.406 710.143C844.86 710.353 845.38 710.595 846.037 710.918L846.068 710.933L846.099 710.95C847.759 711.816 848.415 711.934 848.974 711.902C849.706 711.861 850.735 711.537 853.114 710.428C853.23 710.372 853.344 710.318 853.455 710.265C856.063 709.021 857.168 708.493 858.053 707.358C858.975 706.175 859.869 703.967 860.492 698.621C861.703 688.225 861.703 668.259 861.702 627.375C861.702 626.305 861.702 625.22 861.702 624.121V546.815V545.574L862.578 544.696L920.203 486.914L920.206 486.912L977.832 428.974L978.712 428.089H979.959H1041.65C1059.44 428.089 1075.26 427.933 1086.93 427.66C1092.76 427.524 1097.53 427.359 1100.98 427.171C1102.71 427.077 1104.07 426.979 1105.06 426.879C1105.55 426.829 1105.92 426.781 1106.18 426.739C1106.29 426.721 1106.36 426.706 1106.39 426.699C1110.2 425.207 1112.41 421.23 1112.44 416.719C1112.47 412.197 1110.3 408.051 1106.4 406.372C1105.71 406.095 1104.5 405.785 1102.27 405.514C1100.05 405.243 1096.97 405.028 1092.66 404.863C1084.04 404.533 1070.7 404.416 1049.77 404.416H997.451H994.451V401.416V365.496C994.451 346.262 994.246 335.774 993.24 329.61C992.745 326.575 992.097 324.892 991.387 323.814C990.723 322.806 989.855 322.095 988.391 321.293C986.715 320.435 984.455 320.03 982.143 320.209C979.81 320.39 977.737 321.139 976.367 322.235Z" fill="#2B2B2B" stroke="#131313" stroke-width="6"/>
<circle cx="636" cy="86" r="39" fill="#2B2B2B"/>
<circle cx="540" cy="223" r="45" fill="#2B2B2B"/>
<circle cx="982" cy="223" r="45" fill="#2B2B2B"/>
<circle cx="886" cy="86" r="39" fill="#2B2B2B"/>
<circle cx="761" cy="190" r="46" fill="#2B2B2B"/>
<path fill-rule="evenodd" clip-rule="evenodd" d="M768.262 174.028C767.669 174.008 767.049 174.112 766.427 174.313C765.183 174.717 763.88 175.502 762.542 176.59C762.018 177.017 761.489 177.504 760.959 178.021C760.44 177.517 759.921 177.043 759.409 176.626C758.072 175.539 756.773 174.753 755.532 174.35C754.291 173.948 753.056 173.936 752.042 174.521C751.028 175.107 750.421 176.181 750.149 177.457C749.877 178.733 749.907 180.252 750.181 181.953C750.275 182.544 750.411 183.164 750.565 183.795C749.986 183.971 749.423 184.156 748.901 184.36C747.326 184.975 746.023 185.71 745.074 186.586C744.125 187.462 743.513 188.524 743.513 189.691C743.513 190.858 744.125 191.92 745.074 192.795C746.023 193.671 747.326 194.408 748.901 195.023C749.459 195.241 750.063 195.437 750.687 195.623C750.462 196.461 750.281 197.274 750.157 198.045C749.883 199.748 749.854 201.267 750.127 202.546C750.4 203.825 751.006 204.906 752.026 205.494C753.045 206.082 754.285 206.068 755.529 205.665C756.772 205.262 758.074 204.477 759.412 203.389C759.931 202.967 760.457 202.485 760.982 201.973C761.511 202.488 762.038 202.972 762.56 203.397C763.897 204.484 765.198 205.268 766.439 205.671C767.68 206.073 768.915 206.086 769.929 205.5C770.943 204.915 771.548 203.84 771.82 202.564C772.092 201.288 772.062 199.77 771.789 198.069C771.664 197.296 771.483 196.48 771.257 195.639C771.901 195.449 772.525 195.248 773.099 195.023C774.674 194.408 775.977 193.671 776.926 192.795C777.875 191.92 778.488 190.858 778.488 189.691C778.488 188.524 777.875 187.462 776.926 186.586C775.977 185.71 774.674 184.975 773.099 184.36C772.57 184.153 771.999 183.966 771.41 183.788C771.565 183.153 771.703 182.528 771.799 181.934C772.072 180.232 772.101 178.711 771.829 177.432C771.556 176.153 770.948 175.074 769.929 174.485C769.419 174.191 768.854 174.048 768.262 174.028ZM768.192 175.575C768.564 175.585 768.881 175.674 769.152 175.83C769.695 176.144 770.096 176.753 770.31 177.757C770.524 178.761 770.517 180.117 770.264 181.689C770.178 182.228 770.052 182.798 769.909 183.383C768.355 183.009 766.651 182.731 764.836 182.568C763.924 181.305 762.988 180.155 762.044 179.135C762.543 178.647 763.039 178.191 763.524 177.797C764.759 176.792 765.929 176.108 766.905 175.792C767.393 175.634 767.82 175.565 768.192 175.575ZM753.77 175.579C754.144 175.569 754.572 175.638 755.061 175.796C756.04 176.114 757.212 176.797 758.448 177.803C758.923 178.189 759.408 178.636 759.897 179.112C758.946 180.141 758.002 181.301 757.084 182.575C755.276 182.741 753.58 183.021 752.033 183.396C751.891 182.815 751.766 182.247 751.68 181.711C751.427 180.138 751.421 178.781 751.635 177.775C751.85 176.768 752.254 176.154 752.802 175.838C753.076 175.68 753.396 175.59 753.77 175.579ZM760.982 180.229C761.601 180.902 762.221 181.64 762.835 182.433C762.231 182.408 761.62 182.393 761 182.393C760.367 182.393 759.745 182.408 759.13 182.434C759.744 181.64 760.363 180.903 760.982 180.229ZM761 183.928C762.034 183.928 763.041 183.97 764.021 184.042C764.695 185.01 765.354 186.038 765.982 187.125C766.533 188.08 767.032 189.034 767.487 189.976C767.028 190.931 766.52 191.898 765.961 192.867C765.469 193.719 764.955 194.529 764.432 195.31C763.325 195.402 762.178 195.454 761 195.454C759.794 195.454 758.621 195.399 757.49 195.302C756.976 194.533 756.47 193.735 755.986 192.896C755.428 191.93 754.923 190.965 754.464 190.012C754.925 189.054 755.432 188.084 755.993 187.112C756.618 186.03 757.275 185.009 757.945 184.045C758.936 183.971 759.955 183.928 761 183.928ZM765.977 184.232C767.23 184.388 768.406 184.605 769.501 184.866C769.176 185.931 768.776 187.043 768.291 188.191C767.977 187.584 767.651 186.975 767.298 186.365C766.871 185.626 766.427 184.921 765.977 184.232ZM755.941 184.244C755.501 184.92 755.068 185.611 754.65 186.335C754.293 186.953 753.96 187.57 753.642 188.185C753.161 187.044 752.764 185.938 752.441 184.879C753.528 184.618 754.697 184.402 755.941 184.244ZM771.005 185.269C771.544 185.432 772.064 185.603 772.541 185.789C773.993 186.356 775.141 187.027 775.885 187.714C776.63 188.401 776.953 189.056 776.953 189.691C776.953 190.327 776.63 190.982 775.885 191.669C775.141 192.355 773.993 193.027 772.541 193.594C772.011 193.801 771.428 193.989 770.822 194.167C770.39 192.83 769.838 191.436 769.182 190.012C769.937 188.378 770.547 186.784 771.005 185.269ZM750.97 185.277C751.423 186.776 752.025 188.354 752.769 189.972C752.108 191.404 751.554 192.806 751.12 194.15C750.536 193.977 749.973 193.794 749.459 193.594C748.007 193.027 746.859 192.355 746.115 191.669C745.371 190.982 745.048 190.327 745.048 189.691C745.048 189.056 745.371 188.401 746.115 187.714C746.859 187.027 748.007 186.356 749.459 185.789C749.929 185.605 750.441 185.438 750.97 185.277ZM761 186.2C758.91 186.2 757.2 187.911 757.2 190C757.2 192.09 758.91 193.8 761 193.8C763.09 193.8 764.8 192.09 764.8 190C764.8 187.911 763.09 186.2 761 186.2ZM753.66 191.798C753.98 192.415 754.312 193.035 754.671 193.656C754.951 194.142 755.238 194.615 755.529 195.08C754.508 194.938 753.538 194.759 752.627 194.547C752.916 193.659 753.263 192.738 753.66 191.798ZM768.311 191.798C768.709 192.741 769.056 193.663 769.347 194.553C768.433 194.765 767.46 194.943 766.436 195.084C766.731 194.614 767.022 194.135 767.306 193.643C767.662 193.026 767.993 192.411 768.311 191.798ZM752.189 196.022C753.564 196.348 755.055 196.598 756.636 196.762C757.691 198.288 758.791 199.659 759.897 200.858C759.402 201.341 758.912 201.794 758.432 202.184C757.197 203.189 756.025 203.871 755.049 204.188C754.073 204.504 753.345 204.463 752.802 204.149C752.259 203.836 751.86 203.226 751.646 202.223C751.432 201.219 751.437 199.864 751.69 198.292C751.805 197.579 751.976 196.815 752.189 196.022ZM769.786 196.028C770.001 196.825 770.173 197.592 770.288 198.31C770.541 199.884 770.547 201.24 770.332 202.246C770.118 203.253 769.716 203.869 769.169 204.185C768.621 204.501 767.885 204.542 766.906 204.225C765.927 203.908 764.756 203.224 763.519 202.218C763.036 201.825 762.542 201.368 762.044 200.882C763.158 199.678 764.265 198.3 765.327 196.764C766.912 196.602 768.407 196.354 769.786 196.028ZM758.619 196.917C759.4 196.96 760.19 196.989 761 196.989C761.783 196.989 762.548 196.962 763.304 196.922C762.531 197.964 761.744 198.911 760.96 199.764C760.176 198.909 759.391 197.96 758.619 196.917Z" fill="white"/>
<circle cx="333" cy="417" r="39" fill="#2B2B2B"/>
<circle cx="1189" cy="417" r="39" fill="#2B2B2B"/>
<circle cx="420" cy="329" r="31" fill="#2B2B2B"/>
<circle cx="761" cy="31" r="31" fill="#2B2B2B"/>
<circle cx="1102" cy="329" r="31" fill="#2B2B2B"/>
<circle cx="1107.5" cy="196.5" r="27.5" fill="#2B2B2B"/>
<circle cx="913.5" cy="353.5" r="27.5" fill="#2B2B2B"/>
<circle cx="864.5" cy="249.5" r="27.5" fill="#2B2B2B"/>
<circle cx="610.5" cy="353.5" r="27.5" fill="#2B2B2B"/>
<circle cx="416.5" cy="196.5" r="27.5" fill="#2B2B2B"/>
<circle cx="661.5" cy="249.5" r="27.5" fill="#2B2B2B"/>
<g clip-path="url(#clip0_1_4667)">
<path d="M981.523 242.161C971.516 241.916 963.41 234.002 962.862 224.072L962.839 223.472L981.523 242.161ZM982 203.834C985.082 203.831 988.119 204.573 990.853 205.997C993.587 207.42 995.937 209.482 997.703 212.008L994.564 214.208C992.969 211.931 990.784 210.129 988.245 208.997C985.705 207.865 982.905 207.444 980.145 207.78C977.385 208.116 974.768 209.196 972.574 210.905C970.38 212.614 968.692 214.886 967.69 217.48L987.52 237.31C989.795 236.43 991.828 235.02 993.45 233.199C995.073 231.377 996.238 229.195 996.85 226.834H988.708V223H1001.17C1001.17 232.058 994.882 239.648 986.437 241.649L963.349 218.565C965.352 210.12 972.942 203.834 982 203.834Z" fill="white"/>
</g>
<path d="M539.24 205.52C533.792 205.52 529.36 211.822 529.36 219.57C529.36 223.572 530.549 227.176 532.446 229.733C532.374 230.117 532.388 230.512 532.486 230.89C532.585 231.268 532.765 231.619 533.014 231.92C533.264 232.22 533.577 232.462 533.93 232.628C534.283 232.794 534.669 232.88 535.06 232.88C535.765 232.88 536.442 232.6 536.94 232.101C537.439 231.602 537.72 230.925 537.72 230.22C537.72 229.515 537.439 228.838 536.94 228.339C536.442 227.84 535.765 227.56 535.06 227.56C534.915 227.561 534.77 227.574 534.628 227.599C533.269 225.574 532.4 222.705 532.4 219.57C532.4 213.601 535.532 208.56 539.24 208.56C542.37 208.56 545.083 212.161 545.854 216.873C546.935 217.183 548.011 217.602 549.066 218.109C548.551 211.046 544.341 205.52 539.24 205.52ZM538.1 216.92C537.394 216.92 536.718 217.2 536.219 217.699C535.72 218.198 535.44 218.875 535.44 219.58C535.44 220.285 535.72 220.962 536.219 221.461C536.718 221.96 537.394 222.24 538.1 222.24C538.597 222.24 539.084 222.1 539.506 221.837C539.928 221.574 540.268 221.198 540.486 220.751C542.956 220.597 545.811 221.359 548.446 222.938C553.659 226.064 556.494 231.53 554.636 234.874C554.024 235.972 552.924 236.763 551.452 237.157C549.332 237.723 546.733 237.435 544.172 236.405C543.36 237.161 542.466 237.87 541.491 238.522C544.021 239.8 546.696 240.477 549.167 240.477C550.239 240.477 551.273 240.351 552.238 240.093C554.524 239.481 556.272 238.187 557.293 236.35C560.016 231.449 556.817 224.412 550.009 220.331C546.769 218.388 543.181 217.493 540.026 217.751C539.778 217.489 539.48 217.281 539.148 217.138C538.817 216.995 538.46 216.921 538.1 216.92ZM527.961 221.726C522.58 225.884 520.272 231.968 522.708 236.35C523.729 238.187 525.477 239.481 527.762 240.093C528.728 240.351 529.76 240.477 530.834 240.477C533.722 240.477 536.891 239.56 539.777 237.83C543.005 235.895 545.392 233.293 546.746 230.572C548.077 230.427 549.12 229.309 549.12 227.94C549.12 226.473 547.926 225.28 546.46 225.28C544.993 225.28 543.8 226.473 543.8 227.94C543.8 228.351 543.9 228.735 544.067 229.083C542.969 231.344 540.922 233.599 538.214 235.222C534.949 237.18 531.335 237.904 528.548 237.157C527.076 236.763 525.976 235.972 525.365 234.874C523.895 232.229 525.367 228.262 528.622 225.17C528.309 224.076 528.086 222.923 527.961 221.726Z" fill="white"/>
<path d="M521.036 289.112C520.289 289.112 519.617 288.984 519.02 288.728C518.423 288.461 517.953 288.088 517.612 287.608C517.271 287.128 517.1 286.568 517.1 285.928H519.052C519.095 286.408 519.281 286.803 519.612 287.112C519.953 287.421 520.428 287.576 521.036 287.576C521.665 287.576 522.156 287.427 522.508 287.128C522.86 286.819 523.036 286.424 523.036 285.944C523.036 285.571 522.924 285.267 522.7 285.032C522.487 284.797 522.215 284.616 521.884 284.488C521.564 284.36 521.116 284.221 520.54 284.072C519.815 283.88 519.223 283.688 518.764 283.496C518.316 283.293 517.932 282.984 517.612 282.568C517.292 282.152 517.132 281.597 517.132 280.904C517.132 280.264 517.292 279.704 517.612 279.224C517.932 278.744 518.38 278.376 518.956 278.12C519.532 277.864 520.199 277.736 520.956 277.736C522.033 277.736 522.913 278.008 523.596 278.552C524.289 279.085 524.673 279.821 524.748 280.76H522.732C522.7 280.355 522.508 280.008 522.156 279.72C521.804 279.432 521.34 279.288 520.764 279.288C520.241 279.288 519.815 279.421 519.484 279.688C519.153 279.955 518.988 280.339 518.988 280.84C518.988 281.181 519.089 281.464 519.292 281.688C519.505 281.901 519.772 282.072 520.092 282.2C520.412 282.328 520.849 282.467 521.404 282.616C522.14 282.819 522.737 283.021 523.196 283.224C523.665 283.427 524.06 283.741 524.38 284.168C524.711 284.584 524.876 285.144 524.876 285.848C524.876 286.413 524.721 286.947 524.412 287.448C524.113 287.949 523.671 288.355 523.084 288.664C522.508 288.963 521.825 289.112 521.036 289.112ZM529.156 281.672V286.552C529.156 286.883 529.231 287.123 529.38 287.272C529.54 287.411 529.807 287.48 530.18 287.48H531.3V289H529.86C529.039 289 528.409 288.808 527.972 288.424C527.535 288.04 527.316 287.416 527.316 286.552V281.672H526.276V280.184H527.316V277.992H529.156V280.184H531.3V281.672H529.156ZM534.805 281.464C535.072 281.016 535.424 280.669 535.861 280.424C536.309 280.168 536.837 280.04 537.445 280.04V281.928H536.981C536.267 281.928 535.723 282.109 535.349 282.472C534.987 282.835 534.805 283.464 534.805 284.36V289H532.981V280.184H534.805V281.464ZM538.514 284.552C538.514 283.667 538.695 282.883 539.058 282.2C539.431 281.517 539.933 280.989 540.562 280.616C541.202 280.232 541.906 280.04 542.674 280.04C543.367 280.04 543.97 280.179 544.482 280.456C545.005 280.723 545.421 281.059 545.73 281.464V280.184H547.57V289H545.73V287.688C545.421 288.104 544.999 288.451 544.466 288.728C543.933 289.005 543.325 289.144 542.642 289.144C541.885 289.144 541.191 288.952 540.562 288.568C539.933 288.173 539.431 287.629 539.058 286.936C538.695 286.232 538.514 285.437 538.514 284.552ZM545.73 284.584C545.73 283.976 545.602 283.448 545.346 283C545.101 282.552 544.775 282.211 544.37 281.976C543.965 281.741 543.527 281.624 543.058 281.624C542.589 281.624 542.151 281.741 541.746 281.976C541.341 282.2 541.01 282.536 540.754 282.984C540.509 283.421 540.386 283.944 540.386 284.552C540.386 285.16 540.509 285.693 540.754 286.152C541.01 286.611 541.341 286.963 541.746 287.208C542.162 287.443 542.599 287.56 543.058 287.56C543.527 287.56 543.965 287.443 544.37 287.208C544.775 286.973 545.101 286.632 545.346 286.184C545.602 285.725 545.73 285.192 545.73 284.584ZM551.79 281.48C552.099 281.075 552.52 280.733 553.054 280.456C553.587 280.179 554.19 280.04 554.862 280.04C555.63 280.04 556.328 280.232 556.958 280.616C557.598 280.989 558.099 281.517 558.462 282.2C558.824 282.883 559.006 283.667 559.006 284.552C559.006 285.437 558.824 286.232 558.462 286.936C558.099 287.629 557.598 288.173 556.958 288.568C556.328 288.952 555.63 289.144 554.862 289.144C554.19 289.144 553.592 289.011 553.07 288.744C552.547 288.467 552.12 288.125 551.79 287.72V293.192H549.966V280.184H551.79V281.48ZM557.15 284.552C557.15 283.944 557.022 283.421 556.766 282.984C556.52 282.536 556.19 282.2 555.774 281.976C555.368 281.741 554.931 281.624 554.462 281.624C554.003 281.624 553.566 281.741 553.15 281.976C552.744 282.211 552.414 282.552 552.158 283C551.912 283.448 551.79 283.976 551.79 284.584C551.79 285.192 551.912 285.725 552.158 286.184C552.414 286.632 552.744 286.973 553.15 287.208C553.566 287.443 554.003 287.56 554.462 287.56C554.931 287.56 555.368 287.443 555.774 287.208C556.19 286.963 556.52 286.611 556.766 286.152C557.022 285.693 557.15 285.16 557.15 284.552ZM561.737 279.016C561.407 279.016 561.129 278.904 560.905 278.68C560.681 278.456 560.569 278.179 560.569 277.848C560.569 277.517 560.681 277.24 560.905 277.016C561.129 276.792 561.407 276.68 561.737 276.68C562.057 276.68 562.329 276.792 562.553 277.016C562.777 277.24 562.889 277.517 562.889 277.848C562.889 278.179 562.777 278.456 562.553 278.68C562.329 278.904 562.057 279.016 561.737 279.016ZM562.633 280.184V289H560.809V280.184H562.633Z" fill="white"/>
<path d="M966.57 289H964.746L959.258 280.696V289H957.434V277.864H959.258L964.746 286.152V277.864H966.57V289ZM977.046 284.376C977.046 284.707 977.024 285.005 976.982 285.272H970.246C970.299 285.976 970.56 286.541 971.03 286.968C971.499 287.395 972.075 287.608 972.758 287.608C973.739 287.608 974.432 287.197 974.838 286.376H976.806C976.539 287.187 976.054 287.853 975.35 288.376C974.656 288.888 973.792 289.144 972.758 289.144C971.915 289.144 971.158 288.957 970.486 288.584C969.824 288.2 969.302 287.667 968.918 286.984C968.544 286.291 968.358 285.491 968.358 284.584C968.358 283.677 968.539 282.883 968.902 282.2C969.275 281.507 969.792 280.973 970.454 280.6C971.126 280.227 971.894 280.04 972.758 280.04C973.59 280.04 974.331 280.221 974.982 280.584C975.632 280.947 976.139 281.459 976.502 282.12C976.864 282.771 977.046 283.523 977.046 284.376ZM975.142 283.8C975.131 283.128 974.891 282.589 974.422 282.184C973.952 281.779 973.371 281.576 972.678 281.576C972.048 281.576 971.51 281.779 971.062 282.184C970.614 282.579 970.347 283.117 970.262 283.8H975.142ZM982.041 289.144C981.347 289.144 980.723 289.021 980.169 288.776C979.625 288.52 979.193 288.179 978.873 287.752C978.553 287.315 978.382 286.829 978.361 286.296H980.249C980.281 286.669 980.457 286.984 980.777 287.24C981.107 287.485 981.518 287.608 982.009 287.608C982.521 287.608 982.915 287.512 983.193 287.32C983.481 287.117 983.625 286.861 983.625 286.552C983.625 286.221 983.465 285.976 983.145 285.816C982.835 285.656 982.339 285.48 981.657 285.288C980.995 285.107 980.457 284.931 980.041 284.76C979.625 284.589 979.262 284.328 978.953 283.976C978.654 283.624 978.505 283.16 978.505 282.584C978.505 282.115 978.643 281.688 978.921 281.304C979.198 280.909 979.593 280.6 980.105 280.376C980.627 280.152 981.225 280.04 981.897 280.04C982.899 280.04 983.705 280.296 984.313 280.808C984.931 281.309 985.262 281.997 985.305 282.872H983.481C983.449 282.477 983.289 282.163 983.001 281.928C982.713 281.693 982.323 281.576 981.833 281.576C981.353 281.576 980.985 281.667 980.729 281.848C980.473 282.029 980.345 282.269 980.345 282.568C980.345 282.803 980.43 283 980.601 283.16C980.771 283.32 980.979 283.448 981.225 283.544C981.47 283.629 981.833 283.741 982.313 283.88C982.953 284.051 983.475 284.227 983.881 284.408C984.297 284.579 984.654 284.835 984.953 285.176C985.251 285.517 985.406 285.971 985.417 286.536C985.417 287.037 985.278 287.485 985.001 287.88C984.723 288.275 984.329 288.584 983.817 288.808C983.315 289.032 982.723 289.144 982.041 289.144ZM989.516 281.672V286.552C989.516 286.883 989.59 287.123 989.74 287.272C989.9 287.411 990.166 287.48 990.54 287.48H991.66V289H990.22C989.398 289 988.769 288.808 988.332 288.424C987.894 288.04 987.676 287.416 987.676 286.552V281.672H986.636V280.184H987.676V277.992H989.516V280.184H991.66V281.672H989.516ZM994.077 289.112C993.746 289.112 993.469 289 993.245 288.776C993.021 288.552 992.909 288.275 992.909 287.944C992.909 287.613 993.021 287.336 993.245 287.112C993.469 286.888 993.746 286.776 994.077 286.776C994.397 286.776 994.669 286.888 994.893 287.112C995.117 287.336 995.229 287.613 995.229 287.944C995.229 288.275 995.117 288.552 994.893 288.776C994.669 289 994.397 289.112 994.077 289.112ZM998.128 279.016C997.797 279.016 997.52 278.904 997.296 278.68C997.072 278.456 996.96 278.179 996.96 277.848C996.96 277.517 997.072 277.24 997.296 277.016C997.52 276.792 997.797 276.68 998.128 276.68C998.448 276.68 998.72 276.792 998.944 277.016C999.168 277.24 999.28 277.517 999.28 277.848C999.28 278.179 999.168 278.456 998.944 278.68C998.72 278.904 998.448 279.016 998.128 279.016ZM999.024 290.728C999.024 291.592 998.805 292.216 998.368 292.6C997.941 292.995 997.317 293.192 996.496 293.192H995.552V291.656H996.176C996.549 291.656 996.811 291.581 996.96 291.432C997.12 291.293 997.2 291.059 997.2 290.728V280.184H999.024V290.728ZM1004.62 289.144C1003.93 289.144 1003.3 289.021 1002.75 288.776C1002.2 288.52 1001.77 288.179 1001.45 287.752C1001.13 287.315 1000.96 286.829 1000.94 286.296H1002.83C1002.86 286.669 1003.03 286.984 1003.35 287.24C1003.69 287.485 1004.1 287.608 1004.59 287.608C1005.1 287.608 1005.49 287.512 1005.77 287.32C1006.06 287.117 1006.2 286.861 1006.2 286.552C1006.2 286.221 1006.04 285.976 1005.72 285.816C1005.41 285.656 1004.92 285.48 1004.23 285.288C1003.57 285.107 1003.03 284.931 1002.62 284.76C1002.2 284.589 1001.84 284.328 1001.53 283.976C1001.23 283.624 1001.08 283.16 1001.08 282.584C1001.08 282.115 1001.22 281.688 1001.5 281.304C1001.78 280.909 1002.17 280.6 1002.68 280.376C1003.21 280.152 1003.8 280.04 1004.47 280.04C1005.48 280.04 1006.28 280.296 1006.89 280.808C1007.51 281.309 1007.84 281.997 1007.88 282.872H1006.06C1006.03 282.477 1005.87 282.163 1005.58 281.928C1005.29 281.693 1004.9 281.576 1004.41 281.576C1003.93 281.576 1003.56 281.667 1003.31 281.848C1003.05 282.029 1002.92 282.269 1002.92 282.568C1002.92 282.803 1003.01 283 1003.18 283.16C1003.35 283.32 1003.56 283.448 1003.8 283.544C1004.05 283.629 1004.41 283.741 1004.89 283.88C1005.53 284.051 1006.05 284.227 1006.46 284.408C1006.87 284.579 1007.23 284.835 1007.53 285.176C1007.83 285.517 1007.98 285.971 1007.99 286.536C1007.99 287.037 1007.86 287.485 1007.58 287.88C1007.3 288.275 1006.91 288.584 1006.39 288.808C1005.89 289.032 1005.3 289.144 1004.62 289.144Z" fill="white"/>
<path d="M741.797 259H739.973L734.485 250.696V259H732.661V247.864H734.485L739.973 256.152V247.864H741.797V259ZM748.016 259.144C747.184 259.144 746.432 258.957 745.76 258.584C745.088 258.2 744.56 257.667 744.176 256.984C743.792 256.291 743.6 255.491 743.6 254.584C743.6 253.688 743.798 252.893 744.192 252.2C744.587 251.507 745.126 250.973 745.808 250.6C746.491 250.227 747.254 250.04 748.096 250.04C748.939 250.04 749.702 250.227 750.384 250.6C751.067 250.973 751.606 251.507 752 252.2C752.395 252.893 752.592 253.688 752.592 254.584C752.592 255.48 752.39 256.275 751.984 256.968C751.579 257.661 751.024 258.2 750.32 258.584C749.627 258.957 748.859 259.144 748.016 259.144ZM748.016 257.56C748.486 257.56 748.923 257.448 749.328 257.224C749.744 257 750.08 256.664 750.336 256.216C750.592 255.768 750.72 255.224 750.72 254.584C750.72 253.944 750.598 253.405 750.352 252.968C750.107 252.52 749.782 252.184 749.376 251.96C748.971 251.736 748.534 251.624 748.064 251.624C747.595 251.624 747.158 251.736 746.752 251.96C746.358 252.184 746.043 252.52 745.808 252.968C745.574 253.405 745.456 253.944 745.456 254.584C745.456 255.533 745.696 256.269 746.176 256.792C746.667 257.304 747.28 257.56 748.016 257.56ZM753.787 254.552C753.787 253.667 753.969 252.883 754.331 252.2C754.705 251.517 755.206 250.989 755.835 250.616C756.475 250.232 757.185 250.04 757.963 250.04C758.539 250.04 759.105 250.168 759.659 250.424C760.225 250.669 760.673 251 761.003 251.416V247.16H762.843V259H761.003V257.672C760.705 258.099 760.289 258.451 759.755 258.728C759.233 259.005 758.63 259.144 757.947 259.144C757.179 259.144 756.475 258.952 755.835 258.568C755.206 258.173 754.705 257.629 754.331 256.936C753.969 256.232 753.787 255.437 753.787 254.552ZM761.003 254.584C761.003 253.976 760.875 253.448 760.619 253C760.374 252.552 760.049 252.211 759.643 251.976C759.238 251.741 758.801 251.624 758.331 251.624C757.862 251.624 757.425 251.741 757.019 251.976C756.614 252.2 756.283 252.536 756.027 252.984C755.782 253.421 755.659 253.944 755.659 254.552C755.659 255.16 755.782 255.693 756.027 256.152C756.283 256.611 756.614 256.963 757.019 257.208C757.435 257.443 757.873 257.56 758.331 257.56C758.801 257.56 759.238 257.443 759.643 257.208C760.049 256.973 760.374 256.632 760.619 256.184C760.875 255.725 761.003 255.192 761.003 254.584ZM773.319 254.376C773.319 254.707 773.298 255.005 773.255 255.272H766.519C766.572 255.976 766.834 256.541 767.303 256.968C767.772 257.395 768.348 257.608 769.031 257.608C770.012 257.608 770.706 257.197 771.111 256.376H773.079C772.812 257.187 772.327 257.853 771.623 258.376C770.93 258.888 770.066 259.144 769.031 259.144C768.188 259.144 767.431 258.957 766.759 258.584C766.098 258.2 765.575 257.667 765.191 256.984C764.818 256.291 764.631 255.491 764.631 254.584C764.631 253.677 764.812 252.883 765.175 252.2C765.548 251.507 766.066 250.973 766.727 250.6C767.399 250.227 768.167 250.04 769.031 250.04C769.863 250.04 770.604 250.221 771.255 250.584C771.906 250.947 772.412 251.459 772.775 252.12C773.138 252.771 773.319 253.523 773.319 254.376ZM771.415 253.8C771.404 253.128 771.164 252.589 770.695 252.184C770.226 251.779 769.644 251.576 768.951 251.576C768.322 251.576 767.783 251.779 767.335 252.184C766.887 252.579 766.62 253.117 766.535 253.8H771.415ZM775.85 259.112C775.519 259.112 775.242 259 775.018 258.776C774.794 258.552 774.682 258.275 774.682 257.944C774.682 257.613 774.794 257.336 775.018 257.112C775.242 256.888 775.519 256.776 775.85 256.776C776.17 256.776 776.442 256.888 776.666 257.112C776.89 257.336 777.002 257.613 777.002 257.944C777.002 258.275 776.89 258.552 776.666 258.776C776.442 259 776.17 259.112 775.85 259.112ZM779.901 249.016C779.571 249.016 779.293 248.904 779.069 248.68C778.845 248.456 778.733 248.179 778.733 247.848C778.733 247.517 778.845 247.24 779.069 247.016C779.293 246.792 779.571 246.68 779.901 246.68C780.221 246.68 780.493 246.792 780.717 247.016C780.941 247.24 781.053 247.517 781.053 247.848C781.053 248.179 780.941 248.456 780.717 248.68C780.493 248.904 780.221 249.016 779.901 249.016ZM780.797 260.728C780.797 261.592 780.579 262.216 780.141 262.6C779.715 262.995 779.091 263.192 778.269 263.192H777.325V261.656H777.949C778.323 261.656 778.584 261.581 778.733 261.432C778.893 261.293 778.973 261.059 778.973 260.728V250.184H780.797V260.728ZM786.392 259.144C785.699 259.144 785.075 259.021 784.52 258.776C783.976 258.52 783.544 258.179 783.224 257.752C782.904 257.315 782.734 256.829 782.712 256.296H784.6C784.632 256.669 784.808 256.984 785.128 257.24C785.459 257.485 785.87 257.608 786.36 257.608C786.872 257.608 787.267 257.512 787.544 257.32C787.832 257.117 787.976 256.861 787.976 256.552C787.976 256.221 787.816 255.976 787.496 255.816C787.187 255.656 786.691 255.48 786.008 255.288C785.347 255.107 784.808 254.931 784.392 254.76C783.976 254.589 783.614 254.328 783.304 253.976C783.006 253.624 782.856 253.16 782.856 252.584C782.856 252.115 782.995 251.688 783.272 251.304C783.55 250.909 783.944 250.6 784.456 250.376C784.979 250.152 785.576 250.04 786.248 250.04C787.251 250.04 788.056 250.296 788.664 250.808C789.283 251.309 789.614 251.997 789.656 252.872H787.832C787.8 252.477 787.64 252.163 787.352 251.928C787.064 251.693 786.675 251.576 786.184 251.576C785.704 251.576 785.336 251.667 785.08 251.848C784.824 252.029 784.696 252.269 784.696 252.568C784.696 252.803 784.782 253 784.952 253.16C785.123 253.32 785.331 253.448 785.576 253.544C785.822 253.629 786.184 253.741 786.664 253.88C787.304 254.051 787.827 254.227 788.232 254.408C788.648 254.579 789.006 254.835 789.304 255.176C789.603 255.517 789.758 255.971 789.768 256.536C789.768 257.037 789.63 257.485 789.352 257.88C789.075 258.275 788.68 258.584 788.168 258.808C787.667 259.032 787.075 259.144 786.392 259.144Z" fill="white"/>
<defs>
<clipPath id="clip0_1_4667">
<rect width="46" height="46" fill="white" transform="translate(959 200)"/>
</clipPath>
</defs>
</svg>
