<svg width="1523" height="802" viewBox="0 0 1523 802" fill="none" xmlns="http://www.w3.org/2000/svg">
<mask id="mask0_1_4603" style="mask-type:alpha" maskUnits="userSpaceOnUse" x="0" y="587" width="1523" height="215">
<ellipse cx="761.5" cy="694.5" rx="761.5" ry="107.5" fill="black"/>
</mask>
<g mask="url(#mask0_1_4603)">
<rect y="587" width="1523" height="215" fill="black"/>
</g>
<path d="M754.13 9.57352C748.82 11.6038 742.574 16.7575 739.45 21.599C735.858 26.9089 735.702 40.9646 738.981 43.7758C740.231 44.869 741.324 46.5869 741.324 47.524C741.324 50.4913 751.632 57.8315 756.005 57.8315C757.098 57.8315 758.503 59.3932 758.972 61.2674C760.221 65.9526 758.503 147.32 757.254 148.569C756.629 149.038 753.35 150.287 749.758 151.224C746.166 152.317 740.699 154.816 737.42 157.002C734.296 159.189 731.017 160.907 730.392 160.594C728.049 159.657 666.36 107.339 666.36 106.246C666.36 105.621 667.453 102.497 668.703 99.5302C669.952 96.4067 671.045 89.3788 671.045 84.0689C671.045 75.9478 670.108 72.8243 666.36 65.9526C663.705 61.5797 660.894 57.8315 660.113 57.8315C659.332 57.8315 657.146 56.5821 655.428 55.0204C650.43 50.8036 639.03 48.9296 628.41 50.6475C620.445 51.8969 618.258 52.9901 612.324 59.0809C599.049 72.9805 597.175 89.8473 607.326 104.372C613.105 112.493 626.223 120.145 634.501 120.301H639.342L643.559 151.849C645.901 169.34 648.869 189.487 649.962 196.827C654.179 223.689 654.179 223.064 648.4 225.876C640.591 229.468 635.125 238.838 635.125 248.365C635.125 256.642 636.687 260.546 642.778 267.418L646.526 271.635L641.372 282.255C638.561 288.033 632.47 300.839 627.941 310.366L619.664 328.014H610.606H601.548L597.331 319.737C594.988 315.364 587.336 299.746 580.464 285.222L567.814 258.828L572.499 253.987C587.492 238.213 589.21 212.757 576.404 195.734C562.816 177.93 535.017 172.776 517.213 184.958C508.155 191.205 499.253 201.981 499.253 206.822C499.253 210.258 495.505 210.102 467.237 204.636C453.806 202.137 442.406 199.951 442.093 199.951C441.781 199.951 441.469 198.389 441.469 196.359C441.312 191.673 436.315 181.053 432.567 177.774C427.1 172.776 416.793 170.121 410.077 171.839C387.588 177.93 382.747 208.072 402.737 218.223C406.485 220.097 410.546 221.971 411.952 222.284C413.982 222.908 414.606 227.125 415.387 247.896C416.012 261.483 416.481 279.131 416.481 286.94V301.464L410.702 304.119C407.579 305.681 402.893 309.585 400.238 312.865C396.178 317.862 395.553 320.049 395.709 327.077C395.866 331.762 396.959 337.54 398.208 340.039L400.551 344.412L380.092 365.964C368.691 377.834 358.696 387.516 357.915 387.36C356.978 387.36 353.542 385.955 350.106 384.237C345.89 382.05 340.892 381.113 333.708 381.113C324.962 381.113 322.307 381.894 316.06 385.798C307.939 390.952 301.848 399.542 299.037 409.849C297.475 415.784 297.632 418.283 299.818 425.155C308.408 452.485 337.925 461.231 358.696 442.49C371.815 430.777 374.47 413.91 365.724 398.449L361.819 391.577L377.125 375.803C385.714 367.214 395.241 357.219 398.521 353.939C403.518 348.473 404.611 348.004 407.422 349.722C413.045 353.158 424.758 353.626 431.161 350.659C451.932 340.82 450.527 309.585 428.975 303.182C425.539 302.245 422.571 300.839 422.571 300.215C421.791 296.467 421.478 287.721 420.385 256.798L419.292 222.44L425.851 219.472C429.755 217.754 434.128 214.162 436.471 210.57C438.501 207.291 441.469 204.636 442.874 204.636C445.529 204.636 463.802 208.072 483.636 212.445L495.349 214.943L496.286 224.938C497.379 237.589 502.533 248.365 511.122 256.017C522.836 266.325 540.952 269.917 555.476 264.763C559.068 263.514 562.66 262.42 563.441 262.42C564.222 262.42 566.408 266.169 568.595 270.542C570.625 275.071 576.872 288.345 582.338 299.902C597.487 331.606 597.175 330.981 593.427 334.105C582.338 342.85 582.494 364.246 593.739 372.992C604.515 381.426 618.727 380.645 628.254 371.118C638.561 360.811 638.717 346.442 628.878 335.823C626.223 333.011 624.193 330.513 624.193 330.2C624.193 329.888 627.317 323.172 631.065 315.208C634.813 307.243 640.748 294.592 644.183 287.252L650.43 273.821L658.864 273.977C673.544 274.134 685.57 262.42 685.414 248.052C685.257 236.027 674.013 223.377 663.549 223.377C661.675 223.377 659.957 222.752 659.332 221.815C658.864 221.034 656.053 203.699 652.929 183.24C649.962 162.781 646.838 141.541 646.057 135.919C643.559 119.364 643.559 119.521 652.773 114.991C657.458 112.805 661.987 110.931 663.081 110.931C664.798 110.931 721.646 158.408 725.707 163.249C727.268 165.124 727.112 166.998 724.301 173.245C719.928 183.552 719.928 197.608 724.301 206.978C739.294 238.682 783.96 238.994 798.796 207.291C803.326 197.764 803.482 183.24 799.109 173.557C797.391 169.809 795.985 166.217 795.985 165.592C795.985 164.187 807.698 153.879 831.905 133.576C839.09 127.485 847.991 119.989 851.583 116.709C857.987 110.931 863.609 109.369 865.639 112.649C866.108 113.586 869.075 115.304 872.042 116.553C874.854 117.803 877.665 119.833 878.289 121.238C879.07 123.269 870.168 188.862 865.795 212.445C864.077 221.815 863.609 222.596 859.236 223.377C845.024 226.344 837.372 236.495 838.465 250.707C839.714 265.232 850.178 274.29 865.171 273.821L872.667 273.665L878.602 286.315C881.881 293.343 887.816 305.993 891.877 314.27C895.781 322.704 899.061 329.732 899.061 330.2C899.061 330.513 897.03 333.011 894.375 335.823C887.972 342.694 885.473 351.284 887.972 359.249C892.814 375.647 910.618 383.768 924.673 375.959C929.515 373.305 934.981 367.214 936.699 362.841C940.291 353.47 936.386 337.853 929.359 333.792C926.86 332.387 926.547 329.107 928.734 325.203C930.608 321.767 953.409 274.29 956.221 267.418C958.719 261.796 960.281 261.483 968.246 264.763C975.742 267.887 990.267 267.574 998.544 264.295C1014.94 257.579 1025.41 243.055 1026.97 224.938L1027.9 214.787L1052.11 209.79C1065.39 207.135 1077.88 204.792 1079.75 204.792C1081.94 204.636 1084.28 206.51 1086.47 210.102C1088.5 213.382 1093.03 217.286 1097.4 219.472C1104.27 222.908 1104.9 223.689 1104.43 228.374C1104.12 231.185 1103.34 248.052 1102.71 265.856C1102.09 283.66 1101.15 298.653 1100.68 299.434C1100.21 300.059 1096.31 302.401 1092.09 304.588C1087.88 306.774 1083.03 310.366 1081.32 312.709C1077.41 317.862 1076.01 331.137 1078.66 337.384C1083.66 349.566 1099.12 355.813 1111.77 350.972C1119.42 347.848 1117.55 346.599 1142.38 371.899L1161.59 391.577L1157.22 399.073C1145.97 419.376 1157.69 445.926 1180.33 451.392C1197.98 455.609 1214.69 446.707 1222.34 428.747C1229.53 412.036 1220.16 390.64 1202.51 383.144C1194.86 380.02 1180.33 380.489 1173.15 384.237C1169.71 385.955 1166.28 387.36 1165.34 387.36C1163.78 387.36 1154.87 378.458 1127.39 349.566C1121.92 343.787 1121.92 343.787 1124.73 339.571C1126.45 336.916 1127.54 332.074 1127.7 327.077C1127.7 320.049 1127.08 317.862 1123.02 312.865C1120.36 309.585 1115.67 305.681 1112.55 304.119L1106.77 301.464V286.94C1106.77 279.131 1107.24 261.483 1107.87 247.896C1108.65 227.125 1109.27 222.908 1111.3 222.44C1120.36 219.785 1127.23 214.787 1130.2 208.696C1137.38 193.547 1130.67 177.93 1114.27 172.464C1106.93 170.121 1106.62 170.121 1098.18 174.026C1088.81 178.242 1083.97 184.489 1082.41 194.016C1081.79 197.296 1081.32 199.951 1081.16 199.951C1081.16 199.951 1070.07 202.137 1056.8 204.636C1025.56 210.727 1025.09 210.727 1022.75 204.011C1020.56 198.076 1013.22 189.643 1006.04 184.958C996.357 178.398 982.302 176.524 970.276 179.96C938.104 189.174 927.484 229.468 950.754 253.987L955.44 258.828L942.79 285.222C935.762 299.746 928.265 315.364 926.079 319.737L922.174 328.014H912.804H903.59L893.438 306.462C887.816 294.749 881.725 282.098 880.007 278.35L876.728 271.635L880.476 267.418C886.567 260.546 888.128 256.642 888.128 248.365C888.128 237.432 883.912 230.873 873.604 225.563C868.919 223.064 869.075 224.47 872.667 200.731C873.448 195.578 875.478 181.21 877.196 168.716C881.257 138.105 883.287 124.518 884.224 122.176C884.536 121.238 887.035 120.301 889.534 120.301C892.033 120.301 894.688 119.521 895.156 118.74C895.625 117.803 897.655 117.178 899.529 117.178C904.995 117.178 914.678 108.12 918.739 99.374C925.61 84.5374 922.487 70.0132 909.993 58.1439C901.872 50.4913 890.315 48.1487 875.947 50.9598C869.231 52.3654 858.611 61.7359 855.176 69.3884C851.583 77.1972 851.271 92.8147 854.551 99.0616C858.611 106.87 862.828 102.341 808.323 147.944C799.89 155.128 792.549 160.907 791.925 160.907C791.456 160.907 788.177 158.877 784.428 156.378C780.836 153.879 775.214 151.224 772.091 150.755C768.811 150.131 766 149.194 765.531 148.569C764.438 146.539 763.189 61.7359 764.438 60.0179C765.063 59.2371 768.03 57.5192 770.997 56.2698C790.207 48.461 792.081 24.2539 774.277 12.5408C767.093 7.6994 760.846 6.76236 754.13 9.57352Z" fill="black"/>
<path d="M757.207 274.169L757.176 274.182L757.144 274.195C756.957 274.272 756.782 274.344 756.616 274.412C754.535 275.263 754.03 275.47 753.496 276.274C752.771 277.366 752.008 279.763 751.498 285.975C750.563 297.351 750.566 319.313 750.57 363.354C750.571 366.535 750.571 369.831 750.571 373.246C750.571 398.869 750.415 422.271 750.18 439.33C750.063 447.857 749.926 454.811 749.779 459.67C749.705 462.095 749.629 464.021 749.549 465.367C749.51 466.033 749.468 466.599 749.42 467.026C749.397 467.23 749.366 467.471 749.319 467.699C749.297 467.805 749.255 467.995 749.18 468.21C749.142 468.317 749.072 468.498 748.956 468.706C748.863 468.873 748.612 469.296 748.121 469.663L747.998 469.756L747.865 469.836C746.704 470.533 745.576 470.204 745.382 470.147L745.371 470.144C745.011 470.04 744.722 469.891 744.56 469.803C744.213 469.613 743.861 469.367 743.554 469.138C742.912 468.662 742.083 467.974 741.119 467.135C739.174 465.443 736.488 462.968 733.266 459.914C726.815 453.796 718.126 445.263 708.744 435.803C693.253 420.312 684.638 411.856 679.314 407.26C673.954 402.632 672.533 402.484 671.358 402.484C670.196 402.484 668.755 402.649 667.383 402.916C666.077 403.171 665.03 403.479 664.447 403.722C663.397 404.374 661.879 406.114 660.551 408.592C659.298 410.932 658.537 413.33 658.439 415.045C658.478 415.119 658.532 415.213 658.603 415.33C658.924 415.855 659.465 416.615 660.291 417.652C661.933 419.714 664.5 422.628 668.146 426.547C675.427 434.371 686.833 446.012 703.308 462.487L703.312 462.491L748.915 508.25L749.786 509.124L749.79 510.358L750.102 602.961C750.102 602.962 750.102 602.963 750.102 602.964C750.415 653.72 750.571 698.861 750.571 702.931C750.571 705.921 750.775 707.547 751.193 708.707C751.569 709.751 752.203 710.647 753.644 711.951L753.657 711.963L753.67 711.974C756.937 715 761.707 715.618 765.805 714.241C769.912 712.861 772.628 709.773 772.683 706.011L772.684 705.933L772.689 705.855L772.689 705.85L772.69 705.836L772.692 705.786C772.694 705.743 772.696 705.687 772.698 705.617C772.703 705.476 772.707 705.292 772.712 705.062C772.722 704.603 772.731 703.983 772.741 703.208C772.761 701.659 772.78 699.511 772.8 696.828C772.839 691.464 772.878 683.981 772.917 674.924C772.995 656.81 773.073 632.409 773.151 606.094V606.093L773.463 510.514L773.467 509.28L774.338 508.406L820.091 462.497C836.255 446.177 847.624 434.496 854.946 426.591C858.613 422.632 861.222 419.667 862.901 417.562C863.745 416.504 864.304 415.724 864.638 415.183C864.714 415.059 864.771 414.959 864.813 414.882C864.709 413.246 863.957 410.9 862.706 408.58C861.377 406.117 859.858 404.375 858.806 403.722C858.223 403.479 857.176 403.171 855.871 402.916C854.498 402.649 853.057 402.484 851.896 402.484C850.724 402.484 849.344 402.628 844.101 407.177C838.891 411.697 830.47 419.998 815.288 435.18C799.932 450.614 790.308 459.969 784.604 464.775C783.17 465.983 781.932 466.949 780.879 467.664C779.886 468.338 778.829 468.952 777.796 469.23C777.263 469.374 776.502 469.495 775.663 469.296C774.717 469.071 773.924 468.496 773.416 467.686C772.966 466.971 772.837 466.233 772.799 465.716C772.762 465.216 772.796 464.725 772.855 464.284C772.855 464.281 772.855 464.278 772.855 464.275C772.859 464.194 772.863 464.068 772.867 463.889C772.875 463.534 772.883 463.023 772.89 462.356C772.904 461.025 772.917 459.112 772.926 456.678C772.946 451.811 772.956 444.88 772.956 436.399C772.956 419.439 772.917 396.289 772.838 371.069L772.838 371.065L772.684 280.519L769.994 277.463L769.984 277.451L769.974 277.44C768.492 275.72 766.263 274.444 763.821 273.846C761.367 273.245 758.977 273.394 757.207 274.169ZM658.351 414.868C658.352 414.868 658.352 414.869 658.352 414.869C658.342 414.84 658.339 414.838 658.351 414.868ZM772.851 464.348C772.851 464.355 772.852 464.351 772.853 464.329C772.852 464.338 772.852 464.344 772.851 464.348Z" fill="#2B2B2B" stroke="#131313" stroke-width="6"/>
<path d="M535.247 321.878L535.233 321.885L535.22 321.893C533.48 322.855 532.542 323.549 531.858 324.471C531.171 325.398 530.534 326.844 530.047 329.657C529.047 335.435 528.882 345.536 528.803 365.033V401.416V404.416H525.803H473.328C451.052 404.416 437.809 404.494 429.59 404.842C421.234 405.196 418.577 405.83 417.041 406.598L417.004 406.616L416.966 406.634C413.256 408.361 411.248 411.173 410.709 414.235C410.161 417.343 411.066 421.091 413.969 424.67L413.98 424.684L413.991 424.698L416.066 427.318L479.128 427.777L543.785 428.245L545.024 428.254L545.896 429.135L603.209 487.073L603.212 487.076L660.681 545.014L661.551 545.891V547.127V624.277L661.551 627.839C661.55 668.047 661.55 687.916 662.667 698.376C663.244 703.78 664.079 706.11 664.964 707.376C665.803 708.578 666.855 709.133 669.436 710.465C671.419 711.456 672.344 711.743 673.103 711.785C673.837 711.825 674.768 711.652 676.785 710.831L676.804 710.823L676.824 710.815C677.521 710.542 678.074 710.341 678.557 710.165C679.185 709.936 679.694 709.75 680.248 709.507C681.061 709.15 681.522 708.84 681.874 708.46C682.627 707.649 683.52 705.837 684.13 700.354C685.238 690.403 685.234 670.967 685.226 631.13C685.225 627.602 685.225 623.915 685.225 620.06V536.188L619.729 470.692L553.355 404.318L552.476 403.439V402.197V365.808C552.476 345.915 552.307 335.439 551.217 329.449C550.685 326.528 549.988 325.037 549.246 324.109C548.515 323.194 547.505 322.525 545.653 321.69L545.645 321.686C543.264 320.604 541.625 320.21 540.209 320.237C538.823 320.263 537.327 320.699 535.247 321.878Z" fill="#2B2B2B" stroke="#131313" stroke-width="6"/>
<path d="M976.367 322.235L976.359 322.241L976.352 322.247C975.088 323.245 974.253 324.148 973.597 325.399C972.91 326.71 972.323 328.592 971.879 331.681C970.979 337.942 970.777 348.238 970.777 366.745V402.041V403.281L969.901 404.159L903.527 470.69L903.524 470.692L838.029 536.188V620.061C838.029 624.127 838.028 628.006 838.027 631.706C838.019 670.758 838.015 689.882 839.047 699.789C839.618 705.265 840.46 707.215 841.234 708.157C841.594 708.595 842.05 708.948 842.812 709.361C843.334 709.645 843.814 709.867 844.406 710.143C844.86 710.353 845.38 710.595 846.037 710.918L846.068 710.933L846.099 710.95C847.759 711.816 848.415 711.934 848.974 711.902C849.706 711.861 850.735 711.537 853.114 710.428C853.23 710.372 853.344 710.318 853.455 710.265C856.063 709.021 857.168 708.493 858.053 707.358C858.975 706.175 859.869 703.967 860.492 698.621C861.703 688.225 861.703 668.259 861.702 627.375C861.702 626.305 861.702 625.22 861.702 624.121V546.815V545.574L862.578 544.696L920.203 486.914L920.206 486.912L977.832 428.974L978.712 428.089H979.959H1041.65C1059.44 428.089 1075.26 427.933 1086.93 427.66C1092.76 427.524 1097.53 427.359 1100.98 427.171C1102.71 427.077 1104.07 426.979 1105.06 426.879C1105.55 426.829 1105.92 426.781 1106.18 426.739C1106.29 426.721 1106.36 426.706 1106.39 426.699C1110.2 425.207 1112.41 421.23 1112.44 416.719C1112.47 412.197 1110.3 408.051 1106.4 406.372C1105.71 406.095 1104.5 405.785 1102.27 405.514C1100.05 405.243 1096.97 405.028 1092.66 404.863C1084.04 404.533 1070.7 404.416 1049.77 404.416H997.451H994.451V401.416V365.496C994.451 346.262 994.246 335.774 993.24 329.61C992.745 326.575 992.097 324.892 991.387 323.814C990.723 322.806 989.855 322.095 988.391 321.293C986.715 320.435 984.455 320.03 982.143 320.209C979.81 320.39 977.737 321.139 976.367 322.235Z" fill="#2B2B2B" stroke="#131313" stroke-width="6"/>
<circle cx="636" cy="86" r="39" fill="#2B2B2B"/>
<circle cx="540" cy="223" r="45" fill="#2B2B2B"/>
<circle cx="982" cy="223" r="45" fill="#2B2B2B"/>
<circle cx="886" cy="86" r="39" fill="#2B2B2B"/>
<circle cx="761" cy="190" r="46" fill="#2B2B2B"/>
<path d="M766.222 166.681C763.697 163.678 761.557 160.676 761.087 160.032C761.044 159.989 760.958 159.989 760.916 160.032C760.488 160.676 758.305 163.678 755.781 166.681C734.215 194.263 759.161 212.879 759.161 212.879L759.375 213.008C759.546 215.882 760.017 220 760.017 220H760.958H761.9C761.9 220 762.37 215.882 762.542 213.008L762.756 212.836C762.841 212.879 787.788 194.263 766.222 166.681ZM761.001 212.45C761.001 212.45 759.889 211.507 759.589 210.992V210.949L760.958 180.922C760.958 180.836 761.087 180.836 761.087 180.922L762.456 210.949V210.992C762.157 211.507 761.001 212.45 761.001 212.45Z" fill="white"/>
<circle cx="333" cy="417" r="39" fill="#2B2B2B"/>
<circle cx="1189" cy="417" r="39" fill="#2B2B2B"/>
<circle cx="420" cy="329" r="31" fill="#2B2B2B"/>
<circle cx="761" cy="31" r="31" fill="#2B2B2B"/>
<circle cx="1102" cy="329" r="31" fill="#2B2B2B"/>
<circle cx="1107.5" cy="196.5" r="27.5" fill="#2B2B2B"/>
<circle cx="913.5" cy="353.5" r="27.5" fill="#2B2B2B"/>
<circle cx="864.5" cy="249.5" r="27.5" fill="#2B2B2B"/>
<circle cx="610.5" cy="353.5" r="27.5" fill="#2B2B2B"/>
<circle cx="416.5" cy="196.5" r="27.5" fill="#2B2B2B"/>
<circle cx="661.5" cy="249.5" r="27.5" fill="#2B2B2B"/>
<g clip-path="url(#clip0_1_4603)">
<path d="M762.859 15C756.577 15 751.145 18.6213 748.525 23.8893H769.38C770.878 23.8937 772.329 23.3696 773.477 22.4093C774.072 21.9093 774.629 21.3627 775.14 20.752L775.141 20.7493C773.642 18.9482 771.764 17.4993 769.641 16.5057C767.518 15.512 765.203 14.998 762.859 15ZM747.405 26.852C746.677 29.5693 746.677 32.4307 747.405 35.148H767.005C768.106 35.148 769.161 34.711 769.939 33.9331C770.716 33.1552 771.153 32.1001 771.153 31C771.153 29.8999 770.716 28.8448 769.939 28.0669C769.161 27.289 768.106 26.852 767.005 26.852H747.405ZM748.525 38.1107C751.147 43.3773 756.579 47 762.86 47C767.795 47 772.208 44.764 775.143 41.2507L775.141 41.248C774.637 40.6476 774.081 40.0929 773.479 39.5907C772.33 38.6304 770.879 38.1063 769.381 38.1107H748.525Z" fill="white"/>
</g>
<g clip-path="url(#clip1_1_4603)">
<path d="M1006.26 245.824L1005.24 244.856C1004.74 244.194 1004.21 243.608 1003.62 243.074L1003.61 243.066C1003.02 242.523 1002.4 242.007 1001.75 241.518C1001.24 241.163 1000.53 240.736 999.624 240.236C998.882 239.902 998.302 239.316 997.988 238.588L997.98 238.568L997.884 238.52C998.308 238.478 998.696 238.4 999.068 238.29L999.022 238.302L1000.16 237.988C1000.63 237.84 1001.18 237.744 1001.75 237.722H1001.76C1002.35 237.698 1002.92 237.602 1003.45 237.444L1003.4 237.456C1003.66 237.392 1003.93 237.319 1004.2 237.238C1004.47 237.157 1004.71 237.084 1004.9 237.02V236.682C1004.71 236.393 1004.47 236.062 1004.2 235.69C1003.94 235.334 1003.64 235.024 1003.31 234.754L1003.3 234.746C1002.47 234.005 1001.6 233.287 1000.7 232.594C999.906 231.976 999.008 231.346 998.076 230.762L997.94 230.682C997.448 230.358 996.884 230.058 996.29 229.812L996.222 229.788C995.625 229.545 995.036 229.279 994.456 228.99C994.262 228.894 994.036 228.81 993.802 228.752L993.78 228.748C993.546 228.7 993.346 228.58 993.2 228.41L993.198 228.408C992.922 228.044 992.68 227.63 992.488 227.19L992.472 227.15C992.279 226.698 992.07 226.264 991.844 225.848C991.36 224.912 990.892 223.961 990.44 222.994C989.988 222.027 989.554 221.059 989.138 220.09C988.849 219.445 988.583 218.8 988.34 218.156C988.072 217.448 987.77 216.842 987.418 216.272L987.444 216.318C986.58 214.846 985.718 213.59 984.782 212.396L984.838 212.472C983.912 211.304 982.952 210.26 981.92 209.292L981.904 209.278C980.886 208.322 979.79 207.41 978.64 206.566L978.542 206.496C977.348 205.628 976.041 204.773 974.622 203.932C974.052 203.596 973.39 203.322 972.692 203.146L972.64 203.134L970.414 202.578L969.156 202.482C968.738 202.45 968.318 202.434 967.898 202.434C967.602 202.278 967.348 202.092 967.124 201.876C966.904 201.666 966.666 201.468 966.418 201.286L966.398 201.272C965.188 200.566 963.782 199.92 962.312 199.412L962.142 199.36C961.756 199.134 961.292 199.002 960.798 199.002C960.446 199.002 960.108 199.07 959.8 199.192L959.818 199.186C959.058 199.488 958.478 200.102 958.228 200.866L958.222 200.886C958.076 201.23 957.992 201.628 957.992 202.048C957.992 202.784 958.252 203.458 958.686 203.984L958.682 203.978C959.408 204.945 959.964 205.705 960.35 206.258C960.64 206.646 960.938 207.049 961.246 207.468C961.528 207.844 961.778 208.274 961.98 208.728L961.996 208.77C962.108 209.008 962.206 209.292 962.278 209.584L962.284 209.616C962.348 209.891 962.429 210.189 962.526 210.512C962.816 211.253 963.09 212.013 963.348 212.792C963.63 213.642 963.942 214.362 964.304 215.048L964.266 214.968C964.46 215.323 964.654 215.669 964.848 216.008C965.043 216.347 965.252 216.677 965.476 217C965.606 217.196 965.77 217.358 965.958 217.484L965.964 217.488C966.162 217.632 966.292 217.858 966.302 218.114C966.074 218.45 965.92 218.854 965.868 219.288L965.866 219.3C965.796 219.806 965.696 220.256 965.56 220.69L965.576 220.63C965.13 221.962 964.874 223.498 964.874 225.092C964.874 225.608 964.9 226.116 964.954 226.618L964.948 226.556C965.068 228.472 965.646 230.232 966.572 231.756L966.544 231.706C966.938 232.296 967.36 232.81 967.826 233.28C968.162 233.656 968.65 233.892 969.194 233.892C969.498 233.892 969.786 233.818 970.038 233.686L970.028 233.69C970.728 233.438 971.226 232.798 971.262 232.036V232.032C971.358 231.084 971.502 230.236 971.7 229.408L971.674 229.542C971.722 229.416 971.75 229.272 971.75 229.12C971.75 229.09 971.748 229.06 971.746 229.03V229.034C971.73 228.889 971.819 228.751 972.012 228.622V228.718C972.206 229.17 972.407 229.621 972.616 230.072C972.826 230.523 973.043 230.974 973.268 231.426C973.858 232.324 974.484 233.108 975.172 233.83L975.166 233.824C975.856 234.568 976.608 235.236 977.42 235.826L977.464 235.856C977.888 236.18 978.26 236.53 978.596 236.912L978.604 236.92C978.92 237.292 979.298 237.598 979.724 237.828L979.744 237.838V237.79H979.84C979.762 237.616 979.636 237.476 979.48 237.38L979.476 237.378C979.318 237.29 979.182 237.202 979.054 237.106L979.064 237.112C978.775 236.823 978.476 236.5 978.168 236.144C977.86 235.788 977.578 235.449 977.322 235.128C976.645 234.192 975.999 233.214 975.384 232.194C974.77 231.174 974.189 230.137 973.642 229.084C973.384 228.568 973.134 228.036 972.892 227.488C972.651 226.94 972.417 226.408 972.19 225.892C972.092 225.694 972.024 225.466 971.998 225.224V225.214C971.986 224.984 971.854 224.786 971.662 224.684L971.658 224.682C971.416 225.094 971.148 225.45 970.842 225.772L970.844 225.77C970.526 226.104 970.266 226.498 970.08 226.93L970.07 226.956C969.788 227.64 969.582 228.434 969.492 229.264L969.488 229.302C969.392 230.157 969.296 231.035 969.198 231.938L969.102 231.986L969.054 232.034C968.534 231.928 968.106 231.596 967.874 231.148L967.87 231.138C967.628 230.67 967.41 230.21 967.218 229.758C966.722 228.484 966.414 227.01 966.372 225.47V225.452C966.354 225.208 966.346 224.922 966.346 224.636C966.346 223.304 966.556 222.02 966.944 220.816L966.92 220.904C967.016 220.549 967.226 219.952 967.548 219.112C967.871 218.272 967.936 217.691 967.742 217.37C967.642 217.04 967.456 216.762 967.212 216.55L967.21 216.548C966.966 216.336 966.744 216.114 966.54 215.878L966.534 215.87C966.309 215.545 966.092 215.198 965.882 214.83C965.673 214.462 965.488 214.099 965.326 213.742C964.996 212.978 964.658 212.02 964.378 211.036L964.334 210.858C964.016 209.728 963.662 208.772 963.242 207.852L963.294 207.98C963.072 207.476 962.814 207.04 962.514 206.642L962.526 206.658C962.201 206.223 961.91 205.812 961.654 205.424C961.329 205.005 961.006 204.602 960.686 204.214C960.36 203.82 960.07 203.376 959.834 202.9L959.816 202.86C959.72 202.666 959.636 202.44 959.578 202.206L959.574 202.184C959.552 202.114 959.54 202.032 959.54 201.95C959.54 201.786 959.588 201.632 959.672 201.504L959.67 201.508C959.692 201.396 959.744 201.298 959.816 201.218C959.894 201.148 959.994 201.096 960.102 201.074H960.106C960.276 200.964 960.482 200.898 960.706 200.898C960.874 200.898 961.036 200.936 961.178 201.004L961.172 201.002C961.61 201.126 961.964 201.25 962.31 201.392L962.238 201.366C962.85 201.625 963.415 201.875 963.932 202.116C964.528 202.4 965.036 202.7 965.516 203.034L965.48 203.01C965.739 203.171 965.997 203.349 966.254 203.542C966.512 203.735 966.786 203.929 967.076 204.124H967.754C968.27 204.124 968.818 204.149 969.398 204.198C969.984 204.244 970.526 204.354 971.042 204.526L970.994 204.512C971.956 204.798 972.782 205.136 973.566 205.542L973.484 205.504C974.275 205.907 975.025 206.334 975.734 206.786C976.912 207.52 977.93 208.272 978.888 209.094L978.854 209.066C979.854 209.922 980.762 210.8 981.614 211.728L981.634 211.752C982.466 212.66 983.26 213.646 983.986 214.68L984.048 214.774C984.716 215.718 985.39 216.81 985.996 217.942L986.08 218.112C986.242 218.42 986.406 218.798 986.548 219.184L986.57 219.25C986.7 219.621 986.844 220.001 987.004 220.39C987.359 221.197 987.739 222.011 988.144 222.832C988.55 223.653 988.93 224.452 989.284 225.228L990.348 227.55C990.722 228.362 991.14 229.062 991.626 229.708L991.604 229.678C992.01 230.112 992.552 230.416 993.16 230.522L993.176 230.524C993.912 230.708 994.532 230.916 995.132 231.162L995.038 231.128C995.324 231.258 995.692 231.396 996.07 231.518L996.15 231.54C996.574 231.67 996.942 231.842 997.28 232.058L997.262 232.048C997.916 232.414 998.47 232.774 998.998 233.166L998.956 233.136C999.504 233.539 1000.05 233.919 1000.6 234.276C1000.86 234.469 1001.29 234.751 1001.9 235.122C1002.51 235.493 1002.83 235.839 1002.87 236.162C1002.64 236.154 1002.37 236.148 1002.1 236.148C1001.12 236.148 1000.15 236.212 999.202 236.336L999.314 236.324C998.242 236.468 997.27 236.73 996.356 237.104L996.436 237.076C996.21 237.174 995.94 237.264 995.66 237.334L995.622 237.342C995.338 237.384 995.118 237.612 995.09 237.896C995.212 238.048 995.31 238.226 995.376 238.418L995.38 238.43C995.448 238.634 995.53 238.81 995.63 238.974L995.624 238.962C995.862 239.384 996.118 239.748 996.406 240.084L996.398 240.074C996.68 240.422 996.998 240.724 997.35 240.982L997.364 240.992C997.69 241.251 998.028 241.517 998.38 241.79C998.702 242.042 999.066 242.29 999.444 242.514L999.492 242.54C1000.06 242.888 1000.72 243.22 1001.41 243.498L1001.5 243.53C1002.25 243.83 1002.89 244.178 1003.49 244.592L1003.45 244.57C1003.84 244.795 1004.23 245.045 1004.61 245.32C1005 245.595 1005.37 245.861 1005.73 246.118C1005.87 246.262 1006 246.422 1006.11 246.596L1006.11 246.606C1006.3 246.814 1006.55 246.956 1006.83 246.992H1006.84V246.896C1006.66 246.762 1006.53 246.576 1006.47 246.362L1006.47 246.354C1006.42 246.15 1006.35 245.972 1006.25 245.808L1006.25 245.816L1006.26 245.824ZM969.106 207.414C968.848 207.414 968.606 207.422 968.38 207.438C968.15 207.454 967.936 207.496 967.734 207.564L967.752 207.558V207.606H967.848C967.978 207.799 968.14 208.017 968.336 208.258C968.532 208.499 968.71 208.733 968.868 208.96L969.642 210.556L969.738 210.508C969.964 210.344 970.138 210.124 970.242 209.866L970.246 209.856C970.35 209.578 970.41 209.254 970.41 208.918C970.41 208.882 970.41 208.846 970.408 208.81V208.816C970.318 208.728 970.244 208.624 970.192 208.508L970.19 208.502L970.028 208.138C969.922 207.97 969.774 207.838 969.6 207.754L969.594 207.752C969.406 207.662 969.246 207.548 969.106 207.414Z" fill="white"/>
</g>
<path d="M1173 429.8L1201.8 404.2L1205 433L1189 439.4L1173 429.8ZM1173 429.8L1189 401L1195.4 410.6M1173 429.8L1176.2 394.6L1185.8 404.2" stroke="white" stroke-width="2" stroke-linejoin="round"/>
<path d="M330.63 400.011C330.63 400.025 330.837 400.414 331.097 400.891C331.351 401.36 331.539 401.763 331.511 401.783C331.482 401.803 330.763 402.074 329.914 402.371C329.06 402.674 328.373 402.933 328.385 402.945C328.397 402.957 329.366 403.057 330.535 403.163C331.944 403.294 332.685 403.388 332.738 403.44C332.784 403.486 333.105 404.003 333.459 404.577L334.094 405.634L334.207 405.369C334.268 405.229 334.461 404.766 334.64 404.352L334.955 403.592L336.65 403.414C337.577 403.314 338.405 403.237 338.492 403.237C338.572 403.231 338.639 403.211 338.639 403.177C338.639 403.151 338.012 402.894 337.236 402.608C336.468 402.325 335.834 402.08 335.834 402.074C335.834 402.068 336.001 401.665 336.2 401.182C336.4 400.7 336.553 400.291 336.541 400.277C336.527 400.257 335.874 400.454 335.1 400.706L333.685 401.162L332.184 400.574C330.708 399.999 330.63 399.974 330.63 400.011ZM339.957 405.038C338.161 405.744 336.686 406.332 336.672 406.346C336.658 406.36 337.994 406.895 339.643 407.543L342.633 408.712L342.954 408.586C346.285 407.304 349.316 406.109 349.302 406.095C349.256 406.041 343.361 403.757 343.294 403.757C343.248 403.763 341.747 404.336 339.957 405.038ZM322.719 404.352C320.996 404.529 319.549 405.026 318.935 405.654C318.513 406.083 318.447 406.448 318.707 406.889C319.094 407.549 320.363 408.105 322.119 408.389C322.907 408.52 325.223 408.5 326.025 408.363C327.901 408.039 329.116 407.445 329.402 406.697C329.509 406.42 329.509 406.38 329.402 406.109C329.122 405.383 327.927 404.78 326.158 404.477C325.263 404.326 323.594 404.266 322.719 404.352ZM354.804 406.406C354.718 406.518 354.397 406.769 354.091 406.974C353.182 407.555 352.007 408.083 344.717 411.189C339.59 413.369 338.282 413.943 336.507 414.789C334.538 415.72 333.723 415.978 332.734 415.978C331.845 415.978 331.319 415.826 329.662 415.098C329.001 414.807 326.297 413.684 323.655 412.595C312.098 407.838 311.885 407.738 311.264 407.078L311.004 406.795V411.295L311.298 411.572C311.578 411.843 312.534 412.412 312.874 412.509C312.967 412.535 313.596 412.792 314.277 413.084C314.958 413.375 318.276 414.749 321.653 416.143C327.242 418.449 328.516 418.978 330.418 419.803C331.426 420.246 331.986 420.358 332.935 420.326C333.631 420.3 333.836 420.26 334.445 420.055C334.838 419.923 335.519 419.638 335.96 419.42C337.41 418.7 339.165 417.934 346.154 414.955C352.73 412.146 353.585 411.757 354.298 411.269C355.032 410.754 355 410.88 355 408.375C355 407.178 354.994 406.201 354.98 406.201C354.966 406.201 354.891 406.292 354.804 406.406ZM331.785 409.34C329.094 409.749 326.865 410.1 326.825 410.114C326.764 410.134 333.528 412.948 333.814 413.02C333.881 413.04 336.906 408.732 336.906 408.62C336.906 408.56 336.912 408.554 331.785 409.34ZM354.843 413.794C354.782 413.893 354.502 414.137 354.228 414.328C353.353 414.923 352.039 415.517 344.046 418.92C339.447 420.882 338.004 421.511 336.636 422.171C334.419 423.234 333.885 423.405 332.698 423.4C331.777 423.394 331.208 423.248 329.987 422.699C328.812 422.165 327.496 421.616 322.216 419.448C313.029 415.677 311.967 415.206 311.32 414.586L311 414.288V418.714L311.361 419.051C311.949 419.594 311.889 419.566 321.748 423.631C325.366 425.117 328.778 426.537 329.326 426.782C330.781 427.43 331.202 427.582 331.777 427.7C333.119 427.971 334.112 427.752 336.289 426.702C337.704 426.022 339.433 425.262 343.619 423.479C351.576 420.083 353.539 419.211 354.119 418.828C354.327 418.682 354.607 418.451 354.746 418.299L354.994 418.028V415.814C354.994 414.598 354.988 413.6 354.974 413.6C354.968 413.6 354.907 413.686 354.841 413.792L354.843 413.794ZM354.77 421.04C354.242 421.694 353.188 422.197 344.983 425.691C339.628 427.977 338 428.691 336.239 429.523C334.388 430.394 333.782 430.58 332.714 430.58C331.986 430.58 331.244 430.408 330.424 430.051C328.508 429.22 327.246 428.691 321.651 426.385C315.289 423.763 313.253 422.911 312.572 422.574C311.937 422.257 311.29 421.808 311.143 421.576L311.002 421.365V423.619C311.002 426.202 310.956 426.01 311.657 426.479C312.431 426.994 313.58 427.496 321.218 430.634C326.559 432.828 328.481 433.628 329.429 434.05C331.365 434.91 331.879 435.048 332.96 434.988C333.947 434.942 334.596 434.731 336.305 433.925C338.087 433.079 339.403 432.499 345.217 430.019C353.295 426.577 354.169 426.162 354.784 425.46L354.998 425.223V423.017C354.998 421.8 354.992 420.803 354.984 420.803C354.97 420.803 354.877 420.908 354.77 421.04Z" fill="white"/>
<g clip-path="url(#clip2_1_4603)">
<path d="M553.998 212.755C553.981 213.017 553.859 213.248 553.676 213.408L553.674 213.41C553.453 213.651 553.157 213.82 552.823 213.879L552.815 213.881C552.768 213.887 552.712 213.892 552.656 213.892C552.655 213.892 552.651 213.892 552.65 213.892C552.123 213.892 551.671 213.573 551.478 213.116L551.475 213.108C551.424 212.735 552.032 212.453 552.658 212.365C553.284 212.277 553.947 212.384 553.998 212.755ZM537.275 213.622C537.071 214.147 536.569 214.513 535.982 214.513C535.975 214.513 535.97 214.513 535.964 214.513H535.965C535.904 214.513 535.847 214.508 535.788 214.502H535.795C535.354 214.422 534.98 214.179 534.732 213.84L534.728 213.835C534.59 213.676 534.506 213.465 534.506 213.238V213.236C534.526 213.106 534.598 212.995 534.7 212.924L534.701 212.922C534.958 212.78 535.265 212.698 535.592 212.698C535.732 212.698 535.869 212.713 536.001 212.742L535.989 212.74C536.655 212.833 537.344 213.148 537.278 213.622H537.275ZM555.868 226.52L555.687 226.294L555.613 226.201C556.384 224.773 556.836 223.074 556.836 221.272C556.836 220.448 556.742 219.648 556.563 218.879L556.576 218.95C556.458 218.185 556.389 217.303 556.389 216.405C556.389 216.393 556.389 216.381 556.389 216.37C556.428 215.524 556.517 214.734 556.656 213.96L556.639 214.071C556.789 213.288 556.875 212.387 556.875 211.466C556.875 211.38 556.875 211.295 556.873 211.211V211.224C556.894 211.142 556.905 211.049 556.905 210.951C556.905 210.906 556.902 210.862 556.899 210.818V210.823C556.224 208.157 554.956 205.846 553.24 203.95L553.252 203.963C551.715 202.161 549.825 200.708 547.683 199.706L547.582 199.663C548.756 199.412 550.106 199.269 551.49 199.269C551.617 199.269 551.743 199.27 551.87 199.272H551.851C551.927 199.27 552.015 199.269 552.104 199.269C556.117 199.269 559.691 201.14 562.003 204.058L562.024 204.085C562.071 204.145 562.118 204.215 562.159 204.287L562.164 204.296C563.689 207.154 561.581 217.529 555.866 226.523L555.868 226.52ZM555.385 211.731C555.358 212.499 555.277 213.226 555.149 213.936L555.162 213.843C555.031 214.561 554.936 215.415 554.897 216.282L554.896 216.324C554.896 216.353 554.896 216.385 554.896 216.419C554.896 217.375 554.966 218.315 555.105 219.233L555.091 219.13C555.235 219.767 555.317 220.496 555.317 221.247C555.317 222.534 555.074 223.766 554.631 224.895L554.654 224.827C554.526 224.606 554.393 224.34 554.276 224.063L554.258 224.014C554.146 223.746 553.905 223.312 553.573 222.715C552.275 220.386 549.234 214.934 550.79 212.709C551.59 211.565 553.618 211.516 555.383 211.732L555.385 211.731ZM554.185 231.28C554.099 229.527 554.752 229.343 555.444 229.149C555.54 229.123 555.635 229.095 555.729 229.063C555.814 229.137 555.906 229.21 556.003 229.274L556.011 229.279C557.057 229.74 558.276 230.006 559.558 230.006C560.557 230.006 561.517 229.844 562.415 229.544L562.351 229.563C561.77 230.057 561.109 230.481 560.393 230.808L560.341 230.83C559.254 231.275 557.994 231.554 556.674 231.596H556.657C556.457 231.626 556.225 231.645 555.991 231.645C555.339 231.645 554.718 231.51 554.156 231.267L554.187 231.279L554.185 231.28ZM552.307 234.699C552.272 235.072 552.231 235.492 552.177 235.956L551.87 236.881C551.846 236.949 551.833 237.026 551.831 237.107C551.833 237.153 551.833 237.205 551.833 237.258C551.833 237.857 551.743 238.437 551.578 238.982L551.588 238.94C551.392 239.596 551.257 240.357 551.212 241.142L551.21 241.169C551.122 244.011 548.924 246.311 546.134 246.559L546.112 246.561C542.916 247.246 542.349 245.513 541.85 243.984C541.799 243.824 541.745 243.665 541.688 243.506C541.418 242.406 541.262 241.142 541.262 239.843C541.262 239.235 541.296 238.636 541.362 238.046L541.355 238.118C541.365 237.902 541.37 237.647 541.37 237.393C541.37 235.661 541.11 233.991 540.626 232.418L540.658 232.538C540.667 231.919 540.681 231.292 540.699 230.658C540.699 230.653 540.699 230.644 540.699 230.637C540.699 230.56 540.687 230.486 540.665 230.415L540.667 230.42C540.643 230.251 540.611 230.103 540.569 229.959L540.574 229.981C540.336 229.102 539.737 228.393 538.947 228.017L538.928 228.008C538.631 227.86 538.28 227.772 537.908 227.772C537.732 227.772 537.562 227.791 537.398 227.828L537.413 227.824C537.629 227.031 537.852 226.383 538.108 225.752L538.064 225.875L538.176 225.577C538.301 225.239 538.458 224.89 538.625 224.52C539.546 222.624 540.084 220.394 540.084 218.039C540.084 216.456 539.841 214.93 539.391 213.496L539.42 213.602C539.111 211.732 537.504 210.323 535.57 210.323C535.267 210.323 534.97 210.359 534.686 210.425L534.713 210.42C533.37 210.595 532.155 210.99 531.05 211.57L531.109 211.542C530.969 211.613 530.831 211.686 530.695 211.761C530.849 208.138 532.207 204.859 534.376 202.286L534.355 202.309C534.554 202.109 534.764 201.918 534.98 201.739L534.995 201.727C535.111 201.704 535.214 201.656 535.302 201.591L535.3 201.592C536.807 200.489 538.699 199.825 540.746 199.825C540.91 199.825 541.072 199.829 541.232 199.837L541.21 199.836C542.098 199.849 542.955 199.91 543.799 200.018L543.686 200.006C547.133 200.669 550.076 202.475 552.177 205.006L552.196 205.03C553.458 206.496 554.48 208.214 555.176 210.089L555.213 210.205C554.779 210.089 554.281 210.021 553.768 210.021C552.11 210.021 550.616 210.723 549.566 211.845L549.563 211.849C547.471 214.841 550.709 220.649 552.265 223.44C552.55 223.952 552.796 224.394 552.874 224.581C553.313 225.595 553.865 226.468 554.528 227.242L554.516 227.229C554.663 227.413 554.804 227.59 554.914 227.745C554.069 227.988 552.55 228.552 552.688 231.366C552.663 231.696 552.599 232.308 552.513 233.084C552.422 233.538 552.347 234.092 552.305 234.654L552.302 234.701L552.307 234.699ZM536.779 225.057L536.667 225.354C536.436 225.907 536.196 226.611 535.997 227.332L535.965 227.468C534.458 227.446 533.105 226.802 532.15 225.779L532.146 225.776C531.08 224.65 530.425 223.126 530.425 221.449C530.425 221.115 530.45 220.788 530.501 220.467L530.496 220.502C530.66 219.287 530.754 217.885 530.754 216.459C530.754 215.612 530.72 214.773 530.656 213.943L530.663 214.053C530.653 213.872 530.643 213.714 530.638 213.589C531.996 212.558 533.716 211.935 535.58 211.935C535.803 211.935 536.023 211.943 536.24 211.96L536.212 211.959C537.146 212.176 537.85 212.951 537.962 213.904L537.963 213.914C538.365 215.143 538.596 216.557 538.596 218.023C538.596 220.16 538.105 222.181 537.231 223.984L537.266 223.903C537.089 224.296 536.922 224.667 536.779 225.054V225.057ZM532.362 233.467C532.016 233.38 531.713 233.251 531.436 233.084L531.451 233.093C531.741 232.97 532.084 232.867 532.438 232.801L532.47 232.796C535.177 232.239 535.594 231.846 536.507 230.686C536.716 230.421 536.952 230.119 537.281 229.753C537.349 229.677 537.403 229.586 537.435 229.485L537.437 229.48C537.796 229.161 538.01 229.249 538.358 229.392C538.741 229.603 539.025 229.959 539.134 230.383L539.136 230.394C539.175 230.504 539.198 230.629 539.198 230.761C539.198 230.972 539.139 231.169 539.038 231.336L539.042 231.331C537.953 232.819 536.213 233.776 534.251 233.776C533.576 233.776 532.926 233.663 532.32 233.454L532.362 233.467ZM519.694 222.74C518.596 219.39 517.701 215.416 517.173 211.326L517.138 210.99C517.035 210.447 516.977 209.82 516.977 209.183C516.977 206.135 518.309 203.4 520.422 201.526L520.432 201.518C524.305 198.779 530.638 200.377 533.312 201.243L533.292 201.263C530.702 204.422 529.131 208.506 529.131 212.954C529.131 213.106 529.133 213.258 529.136 213.41V213.388C529.136 213.562 529.149 213.808 529.17 214.146C529.225 214.837 529.257 215.644 529.257 216.459C529.257 217.812 529.17 219.146 528.998 220.453L529.014 220.3C528.959 220.647 528.928 221.049 528.928 221.457C528.928 223.535 529.742 225.423 531.07 226.819L531.066 226.815C531.236 226.993 531.413 227.16 531.598 227.316C530.867 228.099 529.278 229.831 527.587 231.866C526.39 233.305 525.563 233.029 525.292 232.939C524.136 232.318 523.23 231.355 522.696 230.187L522.681 230.15C521.527 228.037 520.511 225.58 519.762 223.008L519.696 222.743L519.694 222.74ZM564.376 228.742C564.344 228.646 564.303 228.564 564.254 228.488L564.258 228.493C563.964 227.937 563.252 227.772 562.133 228.003C558.647 228.722 557.297 228.28 556.808 227.963C559.536 223.825 561.732 219.033 563.137 213.913L563.22 213.56C563.792 211.344 564.902 206.13 563.478 203.582C563.379 203.393 563.272 203.231 563.154 203.079L563.159 203.086C560.522 199.787 556.497 197.692 551.983 197.692C551.855 197.692 551.726 197.694 551.6 197.697H551.618C551.548 197.696 551.465 197.696 551.381 197.696C549.116 197.696 546.937 198.067 544.904 198.75L545.047 198.708C544.686 198.641 544.323 198.583 543.959 198.536C543.135 198.379 542.182 198.281 541.207 198.266H541.193C541.053 198.259 540.889 198.256 540.724 198.256C538.505 198.256 536.441 198.921 534.722 200.063L534.762 200.038C532.955 199.361 524.664 196.569 519.532 200.203C517.02 202.347 515.438 205.514 515.438 209.053C515.438 209.736 515.498 210.406 515.611 211.057L515.6 210.988C516.166 215.541 517.084 219.638 518.354 223.579L518.221 223.099C519.053 225.995 520.082 228.501 521.346 230.862L521.243 230.653C521.974 232.313 523.238 233.629 524.814 234.407L524.858 234.428C525.142 234.51 525.467 234.559 525.805 234.559C527.057 234.559 528.154 233.899 528.768 232.907L528.776 232.892C530.466 230.86 532.13 229.041 532.877 228.238C533.724 228.709 534.728 228.999 535.798 229.033H535.808L535.81 229.041C535.632 229.253 535.458 229.467 535.289 229.686C534.573 230.594 534.425 230.781 532.124 231.255C531.47 231.39 529.732 231.748 529.706 232.966C529.706 232.973 529.706 232.98 529.706 232.988C529.706 233.236 529.779 233.467 529.904 233.661L529.9 233.656C530.427 234.323 531.168 234.801 532.016 234.986L532.042 234.991C532.715 235.211 533.491 235.337 534.295 235.337C536.151 235.337 537.848 234.666 539.161 233.552L539.151 233.56C539.111 234.266 539.089 235.092 539.089 235.924C539.089 238.883 539.377 241.775 539.926 244.573L539.88 244.291C540.525 246.608 542.607 248.285 545.084 248.307H545.088C545.711 248.302 546.313 248.23 546.893 248.098L546.838 248.108C550.076 247.82 552.628 245.231 552.857 242.001L552.859 241.981C553.176 240.145 553.706 235.918 553.994 233.332C554.008 233.223 554.052 233.125 554.116 233.044L554.114 233.046C554.116 233.044 554.261 232.946 555.015 233.11L555.108 233.125L555.643 233.172L555.675 233.174C555.836 233.181 556.025 233.186 556.214 233.186C557.942 233.186 559.592 232.848 561.099 232.234L561.013 232.264C562.371 231.635 564.82 230.087 564.376 228.742Z" fill="white"/>
</g>
<path d="M504.257 281.192C504.257 281.757 504.124 282.291 503.857 282.792C503.591 283.293 503.164 283.704 502.577 284.024C501.991 284.333 501.239 284.488 500.321 284.488H498.305V289H496.481V277.88H500.321C501.175 277.88 501.895 278.029 502.481 278.328C503.079 278.616 503.521 279.011 503.809 279.512C504.108 280.013 504.257 280.573 504.257 281.192ZM500.321 283C501.015 283 501.532 282.845 501.873 282.536C502.215 282.216 502.385 281.768 502.385 281.192C502.385 279.976 501.697 279.368 500.321 279.368H498.305V283H500.321ZM509.821 289.144C508.989 289.144 508.237 288.957 507.565 288.584C506.893 288.2 506.365 287.667 505.981 286.984C505.597 286.291 505.405 285.491 505.405 284.584C505.405 283.688 505.602 282.893 505.997 282.2C506.392 281.507 506.93 280.973 507.613 280.6C508.296 280.227 509.058 280.04 509.901 280.04C510.744 280.04 511.506 280.227 512.189 280.6C512.872 280.973 513.41 281.507 513.805 282.2C514.2 282.893 514.397 283.688 514.397 284.584C514.397 285.48 514.194 286.275 513.789 286.968C513.384 287.661 512.829 288.2 512.125 288.584C511.432 288.957 510.664 289.144 509.821 289.144ZM509.821 287.56C510.29 287.56 510.728 287.448 511.133 287.224C511.549 287 511.885 286.664 512.141 286.216C512.397 285.768 512.525 285.224 512.525 284.584C512.525 283.944 512.402 283.405 512.157 282.968C511.912 282.52 511.586 282.184 511.181 281.96C510.776 281.736 510.338 281.624 509.869 281.624C509.4 281.624 508.962 281.736 508.557 281.96C508.162 282.184 507.848 282.52 507.613 282.968C507.378 283.405 507.261 283.944 507.261 284.584C507.261 285.533 507.501 286.269 507.981 286.792C508.472 287.304 509.085 287.56 509.821 287.56ZM519.4 289.144C518.707 289.144 518.083 289.021 517.528 288.776C516.984 288.52 516.552 288.179 516.232 287.752C515.912 287.315 515.741 286.829 515.72 286.296H517.608C517.64 286.669 517.816 286.984 518.136 287.24C518.467 287.485 518.877 287.608 519.368 287.608C519.88 287.608 520.275 287.512 520.552 287.32C520.84 287.117 520.984 286.861 520.984 286.552C520.984 286.221 520.824 285.976 520.504 285.816C520.195 285.656 519.699 285.48 519.016 285.288C518.355 285.107 517.816 284.931 517.4 284.76C516.984 284.589 516.621 284.328 516.312 283.976C516.013 283.624 515.864 283.16 515.864 282.584C515.864 282.115 516.003 281.688 516.28 281.304C516.557 280.909 516.952 280.6 517.464 280.376C517.987 280.152 518.584 280.04 519.256 280.04C520.259 280.04 521.064 280.296 521.672 280.808C522.291 281.309 522.621 281.997 522.664 282.872H520.84C520.808 282.477 520.648 282.163 520.36 281.928C520.072 281.693 519.683 281.576 519.192 281.576C518.712 281.576 518.344 281.667 518.088 281.848C517.832 282.029 517.704 282.269 517.704 282.568C517.704 282.803 517.789 283 517.96 283.16C518.131 283.32 518.339 283.448 518.584 283.544C518.829 283.629 519.192 283.741 519.672 283.88C520.312 284.051 520.835 284.227 521.24 284.408C521.656 284.579 522.013 284.835 522.312 285.176C522.611 285.517 522.765 285.971 522.776 286.536C522.776 287.037 522.637 287.485 522.36 287.88C522.083 288.275 521.688 288.584 521.176 288.808C520.675 289.032 520.083 289.144 519.4 289.144ZM526.875 281.672V286.552C526.875 286.883 526.95 287.123 527.099 287.272C527.259 287.411 527.526 287.48 527.899 287.48H529.019V289H527.579C526.758 289 526.128 288.808 525.691 288.424C525.254 288.04 525.035 287.416 525.035 286.552V281.672H523.995V280.184H525.035V277.992H526.875V280.184H529.019V281.672H526.875ZM534.252 280.04C534.935 280.04 535.537 280.179 536.06 280.456C536.593 280.723 537.009 281.059 537.308 281.464V280.184H539.148V289.144C539.148 289.955 538.977 290.675 538.636 291.304C538.295 291.944 537.799 292.445 537.148 292.808C536.508 293.171 535.74 293.352 534.844 293.352C533.649 293.352 532.657 293.069 531.868 292.504C531.079 291.949 530.631 291.192 530.524 290.232H532.332C532.471 290.691 532.764 291.059 533.212 291.336C533.671 291.624 534.215 291.768 534.844 291.768C535.58 291.768 536.172 291.544 536.62 291.096C537.079 290.648 537.308 289.997 537.308 289.144V287.672C536.999 288.088 536.577 288.44 536.044 288.728C535.521 289.005 534.924 289.144 534.252 289.144C533.484 289.144 532.78 288.952 532.14 288.568C531.511 288.173 531.009 287.629 530.636 286.936C530.273 286.232 530.092 285.437 530.092 284.552C530.092 283.667 530.273 282.883 530.636 282.2C531.009 281.517 531.511 280.989 532.14 280.616C532.78 280.232 533.484 280.04 534.252 280.04ZM537.308 284.584C537.308 283.976 537.18 283.448 536.924 283C536.679 282.552 536.353 282.211 535.948 281.976C535.543 281.741 535.105 281.624 534.636 281.624C534.167 281.624 533.729 281.741 533.324 281.976C532.919 282.2 532.588 282.536 532.332 282.984C532.087 283.421 531.964 283.944 531.964 284.552C531.964 285.16 532.087 285.693 532.332 286.152C532.588 286.611 532.919 286.963 533.324 287.208C533.74 287.443 534.177 287.56 534.636 287.56C535.105 287.56 535.543 287.443 535.948 287.208C536.353 286.973 536.679 286.632 536.924 286.184C537.18 285.725 537.308 285.192 537.308 284.584ZM543.368 281.464C543.634 281.016 543.986 280.669 544.424 280.424C544.872 280.168 545.4 280.04 546.008 280.04V281.928H545.544C544.829 281.928 544.285 282.109 543.912 282.472C543.549 282.835 543.368 283.464 543.368 284.36V289H541.544V280.184H543.368V281.464ZM555.764 284.376C555.764 284.707 555.743 285.005 555.7 285.272H548.964C549.018 285.976 549.279 286.541 549.748 286.968C550.218 287.395 550.794 287.608 551.476 287.608C552.458 287.608 553.151 287.197 553.556 286.376H555.524C555.258 287.187 554.772 287.853 554.068 288.376C553.375 288.888 552.511 289.144 551.476 289.144C550.634 289.144 549.876 288.957 549.204 288.584C548.543 288.2 548.02 287.667 547.636 286.984C547.263 286.291 547.076 285.491 547.076 284.584C547.076 283.677 547.258 282.883 547.62 282.2C547.994 281.507 548.511 280.973 549.172 280.6C549.844 280.227 550.612 280.04 551.476 280.04C552.308 280.04 553.05 280.221 553.7 280.584C554.351 280.947 554.858 281.459 555.22 282.12C555.583 282.771 555.764 283.523 555.764 284.376ZM553.86 283.8C553.85 283.128 553.61 282.589 553.14 282.184C552.671 281.779 552.09 281.576 551.396 281.576C550.767 281.576 550.228 281.779 549.78 282.184C549.332 282.579 549.066 283.117 548.98 283.8H553.86ZM561.223 289.112C560.477 289.112 559.805 288.984 559.207 288.728C558.61 288.461 558.141 288.088 557.799 287.608C557.458 287.128 557.287 286.568 557.287 285.928H559.239C559.282 286.408 559.469 286.803 559.799 287.112C560.141 287.421 560.615 287.576 561.223 287.576C561.853 287.576 562.343 287.427 562.695 287.128C563.047 286.819 563.223 286.424 563.223 285.944C563.223 285.571 563.111 285.267 562.887 285.032C562.674 284.797 562.402 284.616 562.071 284.488C561.751 284.36 561.303 284.221 560.727 284.072C560.002 283.88 559.41 283.688 558.951 283.496C558.503 283.293 558.119 282.984 557.799 282.568C557.479 282.152 557.319 281.597 557.319 280.904C557.319 280.264 557.479 279.704 557.799 279.224C558.119 278.744 558.567 278.376 559.143 278.12C559.719 277.864 560.386 277.736 561.143 277.736C562.221 277.736 563.101 278.008 563.783 278.552C564.477 279.085 564.861 279.821 564.935 280.76H562.919C562.887 280.355 562.695 280.008 562.343 279.72C561.991 279.432 561.527 279.288 560.951 279.288C560.429 279.288 560.002 279.421 559.671 279.688C559.341 279.955 559.175 280.339 559.175 280.84C559.175 281.181 559.277 281.464 559.479 281.688C559.693 281.901 559.959 282.072 560.279 282.2C560.599 282.328 561.037 282.467 561.591 282.616C562.327 282.819 562.925 283.021 563.383 283.224C563.853 283.427 564.247 283.741 564.567 284.168C564.898 284.584 565.063 285.144 565.063 285.848C565.063 286.413 564.909 286.947 564.599 287.448C564.301 287.949 563.858 288.355 563.271 288.664C562.695 288.963 562.013 289.112 561.223 289.112ZM575.824 291.016L573.872 288.904C573.392 289.043 572.864 289.112 572.288 289.112C571.253 289.112 570.298 288.872 569.424 288.392C568.56 287.901 567.872 287.224 567.36 286.36C566.858 285.485 566.608 284.504 566.608 283.416C566.608 282.328 566.858 281.352 567.36 280.488C567.872 279.624 568.56 278.952 569.424 278.472C570.298 277.981 571.253 277.736 572.288 277.736C573.333 277.736 574.288 277.981 575.152 278.472C576.026 278.952 576.714 279.624 577.216 280.488C577.717 281.352 577.968 282.328 577.968 283.416C577.968 284.44 577.744 285.368 577.296 286.2C576.858 287.021 576.25 287.683 575.472 288.184L578.144 291.016H575.824ZM568.48 283.416C568.48 284.237 568.64 284.963 568.96 285.592C569.29 286.211 569.744 286.691 570.32 287.032C570.896 287.363 571.552 287.528 572.288 287.528C573.024 287.528 573.68 287.363 574.256 287.032C574.832 286.691 575.28 286.211 575.6 285.592C575.93 284.963 576.096 284.237 576.096 283.416C576.096 282.595 575.93 281.875 575.6 281.256C575.28 280.637 574.832 280.163 574.256 279.832C573.68 279.501 573.024 279.336 572.288 279.336C571.552 279.336 570.896 279.501 570.32 279.832C569.744 280.163 569.29 280.637 568.96 281.256C568.64 281.875 568.48 282.595 568.48 283.416ZM581.633 287.528H585.393V289H579.809V277.88H581.633V287.528Z" fill="white"/>
<path d="M710.391 74.352V77.616H714.231V79.104H710.391V82.512H714.711V84H708.567V72.864H714.711V74.352H710.391ZM718.782 72.16V84H716.958V72.16H718.782ZM720.569 79.552C720.569 78.6667 720.75 77.8827 721.113 77.2C721.486 76.5173 721.987 75.9893 722.617 75.616C723.257 75.232 723.961 75.04 724.729 75.04C725.422 75.04 726.025 75.1787 726.537 75.456C727.059 75.7227 727.475 76.0587 727.785 76.464V75.184H729.625V84H727.785V82.688C727.475 83.104 727.054 83.4507 726.521 83.728C725.987 84.0053 725.379 84.144 724.697 84.144C723.939 84.144 723.246 83.952 722.617 83.568C721.987 83.1733 721.486 82.6293 721.113 81.936C720.75 81.232 720.569 80.4373 720.569 79.552ZM727.785 79.584C727.785 78.976 727.657 78.448 727.401 78C727.155 77.552 726.83 77.2107 726.425 76.976C726.019 76.7413 725.582 76.624 725.113 76.624C724.643 76.624 724.206 76.7413 723.801 76.976C723.395 77.2 723.065 77.536 722.809 77.984C722.563 78.4213 722.441 78.944 722.441 79.552C722.441 80.16 722.563 80.6933 722.809 81.152C723.065 81.6107 723.395 81.9627 723.801 82.208C724.217 82.4427 724.654 82.56 725.113 82.56C725.582 82.56 726.019 82.4427 726.425 82.208C726.83 81.9733 727.155 81.632 727.401 81.184C727.657 80.7253 727.785 80.192 727.785 79.584ZM735.22 84.144C734.527 84.144 733.903 84.0213 733.348 83.776C732.804 83.52 732.372 83.1787 732.052 82.752C731.732 82.3147 731.562 81.8293 731.54 81.296H733.428C733.46 81.6693 733.636 81.984 733.956 82.24C734.287 82.4853 734.698 82.608 735.188 82.608C735.7 82.608 736.095 82.512 736.372 82.32C736.66 82.1173 736.804 81.8613 736.804 81.552C736.804 81.2213 736.644 80.976 736.324 80.816C736.015 80.656 735.519 80.48 734.836 80.288C734.175 80.1067 733.636 79.9307 733.22 79.76C732.804 79.5893 732.442 79.328 732.132 78.976C731.834 78.624 731.684 78.16 731.684 77.584C731.684 77.1147 731.823 76.688 732.1 76.304C732.378 75.9093 732.772 75.6 733.284 75.376C733.807 75.152 734.404 75.04 735.076 75.04C736.079 75.04 736.884 75.296 737.492 75.808C738.111 76.3093 738.442 76.9973 738.484 77.872H736.66C736.628 77.4773 736.468 77.1627 736.18 76.928C735.892 76.6933 735.503 76.576 735.012 76.576C734.532 76.576 734.164 76.6667 733.908 76.848C733.652 77.0293 733.524 77.2693 733.524 77.568C733.524 77.8027 733.61 78 733.78 78.16C733.951 78.32 734.159 78.448 734.404 78.544C734.65 78.6293 735.012 78.7413 735.492 78.88C736.132 79.0507 736.655 79.2267 737.06 79.408C737.476 79.5787 737.834 79.8347 738.132 80.176C738.431 80.5173 738.586 80.9707 738.596 81.536C738.596 82.0373 738.458 82.4853 738.18 82.88C737.903 83.2747 737.508 83.584 736.996 83.808C736.495 84.032 735.903 84.144 735.22 84.144ZM742.695 76.672V81.552C742.695 81.8827 742.77 82.1227 742.919 82.272C743.079 82.4107 743.346 82.48 743.719 82.48H744.839V84H743.399C742.578 84 741.949 83.808 741.511 83.424C741.074 83.04 740.855 82.416 740.855 81.552V76.672H739.815V75.184H740.855V72.992H742.695V75.184H744.839V76.672H742.695ZM747.448 74.016C747.118 74.016 746.84 73.904 746.616 73.68C746.392 73.456 746.28 73.1787 746.28 72.848C746.28 72.5173 746.392 72.24 746.616 72.016C746.84 71.792 747.118 71.68 747.448 71.68C747.768 71.68 748.04 71.792 748.264 72.016C748.488 72.24 748.6 72.5173 748.6 72.848C748.6 73.1787 748.488 73.456 748.264 73.68C748.04 73.904 747.768 74.016 747.448 74.016ZM748.344 75.184V84H746.52V75.184H748.344ZM750.131 79.584C750.131 78.6773 750.312 77.8827 750.675 77.2C751.048 76.5067 751.56 75.9733 752.211 75.6C752.862 75.2267 753.608 75.04 754.451 75.04C755.518 75.04 756.398 75.296 757.091 75.808C757.795 76.3093 758.27 77.0293 758.515 77.968H756.547C756.387 77.5307 756.131 77.1893 755.779 76.944C755.427 76.6987 754.984 76.576 754.451 76.576C753.704 76.576 753.107 76.8427 752.659 77.376C752.222 77.8987 752.003 78.6347 752.003 79.584C752.003 80.5333 752.222 81.2747 752.659 81.808C753.107 82.3413 753.704 82.608 754.451 82.608C755.507 82.608 756.206 82.144 756.547 81.216H758.515C758.259 82.112 757.779 82.8267 757.075 83.36C756.371 83.8827 755.496 84.144 754.451 84.144C753.608 84.144 752.862 83.9573 752.211 83.584C751.56 83.2 751.048 82.6667 750.675 81.984C750.312 81.2907 750.131 80.4907 750.131 79.584ZM763.997 84.112C763.25 84.112 762.578 83.984 761.981 83.728C761.383 83.4613 760.914 83.088 760.573 82.608C760.231 82.128 760.061 81.568 760.061 80.928H762.013C762.055 81.408 762.242 81.8027 762.573 82.112C762.914 82.4213 763.389 82.576 763.997 82.576C764.626 82.576 765.117 82.4267 765.469 82.128C765.821 81.8187 765.997 81.424 765.997 80.944C765.997 80.5707 765.885 80.2667 765.661 80.032C765.447 79.7973 765.175 79.616 764.845 79.488C764.525 79.36 764.077 79.2213 763.501 79.072C762.775 78.88 762.183 78.688 761.725 78.496C761.277 78.2933 760.893 77.984 760.573 77.568C760.253 77.152 760.093 76.5973 760.093 75.904C760.093 75.264 760.253 74.704 760.573 74.224C760.893 73.744 761.341 73.376 761.917 73.12C762.493 72.864 763.159 72.736 763.917 72.736C764.994 72.736 765.874 73.008 766.557 73.552C767.25 74.0853 767.634 74.8213 767.709 75.76H765.693C765.661 75.3547 765.469 75.008 765.117 74.72C764.765 74.432 764.301 74.288 763.725 74.288C763.202 74.288 762.775 74.4213 762.445 74.688C762.114 74.9547 761.949 75.3387 761.949 75.84C761.949 76.1813 762.05 76.464 762.253 76.688C762.466 76.9013 762.733 77.072 763.053 77.2C763.373 77.328 763.81 77.4667 764.365 77.616C765.101 77.8187 765.698 78.0213 766.157 78.224C766.626 78.4267 767.021 78.7413 767.341 79.168C767.671 79.584 767.837 80.144 767.837 80.848C767.837 81.4133 767.682 81.9467 767.373 82.448C767.074 82.9493 766.631 83.3547 766.045 83.664C765.469 83.9627 764.786 84.112 763.997 84.112ZM778.069 79.376C778.069 79.7067 778.048 80.0053 778.005 80.272H771.269C771.322 80.976 771.584 81.5413 772.053 81.968C772.522 82.3947 773.098 82.608 773.781 82.608C774.762 82.608 775.456 82.1973 775.861 81.376H777.829C777.562 82.1867 777.077 82.8533 776.373 83.376C775.68 83.888 774.816 84.144 773.781 84.144C772.938 84.144 772.181 83.9573 771.509 83.584C770.848 83.2 770.325 82.6667 769.941 81.984C769.568 81.2907 769.381 80.4907 769.381 79.584C769.381 78.6773 769.562 77.8827 769.925 77.2C770.298 76.5067 770.816 75.9733 771.477 75.6C772.149 75.2267 772.917 75.04 773.781 75.04C774.613 75.04 775.354 75.2213 776.005 75.584C776.656 75.9467 777.162 76.4587 777.525 77.12C777.888 77.7707 778.069 78.5227 778.069 79.376ZM776.165 78.8C776.154 78.128 775.914 77.5893 775.445 77.184C774.976 76.7787 774.394 76.576 773.701 76.576C773.072 76.576 772.533 76.7787 772.085 77.184C771.637 77.5787 771.37 78.1173 771.285 78.8H776.165ZM779.256 79.552C779.256 78.6667 779.437 77.8827 779.8 77.2C780.173 76.5173 780.675 75.9893 781.304 75.616C781.944 75.232 782.648 75.04 783.416 75.04C784.109 75.04 784.712 75.1787 785.224 75.456C785.747 75.7227 786.163 76.0587 786.472 76.464V75.184H788.312V84H786.472V82.688C786.163 83.104 785.741 83.4507 785.208 83.728C784.675 84.0053 784.067 84.144 783.384 84.144C782.627 84.144 781.933 83.952 781.304 83.568C780.675 83.1733 780.173 82.6293 779.8 81.936C779.437 81.232 779.256 80.4373 779.256 79.552ZM786.472 79.584C786.472 78.976 786.344 78.448 786.088 78C785.843 77.552 785.517 77.2107 785.112 76.976C784.707 76.7413 784.269 76.624 783.8 76.624C783.331 76.624 782.893 76.7413 782.488 76.976C782.083 77.2 781.752 77.536 781.496 77.984C781.251 78.4213 781.128 78.944 781.128 79.552C781.128 80.16 781.251 80.6933 781.496 81.152C781.752 81.6107 782.083 81.9627 782.488 82.208C782.904 82.4427 783.341 82.56 783.8 82.56C784.269 82.56 784.707 82.4427 785.112 82.208C785.517 81.9733 785.843 81.632 786.088 81.184C786.344 80.7253 786.472 80.192 786.472 79.584ZM792.532 76.464C792.798 76.016 793.15 75.6693 793.588 75.424C794.036 75.168 794.564 75.04 795.172 75.04V76.928H794.708C793.993 76.928 793.449 77.1093 793.076 77.472C792.713 77.8347 792.532 78.464 792.532 79.36V84H790.708V75.184H792.532V76.464ZM796.24 79.584C796.24 78.6773 796.422 77.8827 796.784 77.2C797.158 76.5067 797.67 75.9733 798.32 75.6C798.971 75.2267 799.718 75.04 800.56 75.04C801.627 75.04 802.507 75.296 803.2 75.808C803.904 76.3093 804.379 77.0293 804.624 77.968H802.656C802.496 77.5307 802.24 77.1893 801.888 76.944C801.536 76.6987 801.094 76.576 800.56 76.576C799.814 76.576 799.216 76.8427 798.768 77.376C798.331 77.8987 798.112 78.6347 798.112 79.584C798.112 80.5333 798.331 81.2747 798.768 81.808C799.216 82.3413 799.814 82.608 800.56 82.608C801.616 82.608 802.315 82.144 802.656 81.216H804.624C804.368 82.112 803.888 82.8267 803.184 83.36C802.48 83.8827 801.606 84.144 800.56 84.144C799.718 84.144 798.971 83.9573 798.32 83.584C797.67 83.2 797.158 82.6667 796.784 81.984C796.422 81.2907 796.24 80.4907 796.24 79.584ZM811.002 75.04C811.674 75.04 812.272 75.184 812.794 75.472C813.328 75.76 813.744 76.1867 814.042 76.752C814.352 77.3173 814.506 78 814.506 78.8V84H812.698V79.072C812.698 78.2827 812.501 77.68 812.106 77.264C811.712 76.8373 811.173 76.624 810.49 76.624C809.808 76.624 809.264 76.8373 808.858 77.264C808.464 77.68 808.266 78.2827 808.266 79.072V84H806.442V72.16H808.266V76.208C808.576 75.8347 808.965 75.5467 809.434 75.344C809.914 75.1413 810.437 75.04 811.002 75.04Z" fill="white"/>
<path d="M969.021 277.88V289H967.197V281.384L963.805 289H962.541L959.133 281.384V289H957.309V277.88H959.277L963.181 286.6L967.069 277.88H969.021ZM979.355 280.184L973.947 293.144H972.059L973.851 288.856L970.379 280.184H972.411L974.891 286.904L977.467 280.184H979.355ZM984.395 289.112C983.649 289.112 982.977 288.984 982.379 288.728C981.782 288.461 981.313 288.088 980.971 287.608C980.63 287.128 980.459 286.568 980.459 285.928H982.411C982.454 286.408 982.641 286.803 982.971 287.112C983.313 287.421 983.787 287.576 984.395 287.576C985.025 287.576 985.515 287.427 985.867 287.128C986.219 286.819 986.395 286.424 986.395 285.944C986.395 285.571 986.283 285.267 986.059 285.032C985.846 284.797 985.574 284.616 985.243 284.488C984.923 284.36 984.475 284.221 983.899 284.072C983.174 283.88 982.582 283.688 982.123 283.496C981.675 283.293 981.291 282.984 980.971 282.568C980.651 282.152 980.491 281.597 980.491 280.904C980.491 280.264 980.651 279.704 980.971 279.224C981.291 278.744 981.739 278.376 982.315 278.12C982.891 277.864 983.558 277.736 984.315 277.736C985.393 277.736 986.273 278.008 986.955 278.552C987.649 279.085 988.033 279.821 988.107 280.76H986.091C986.059 280.355 985.867 280.008 985.515 279.72C985.163 279.432 984.699 279.288 984.123 279.288C983.601 279.288 983.174 279.421 982.843 279.688C982.513 279.955 982.347 280.339 982.347 280.84C982.347 281.181 982.449 281.464 982.651 281.688C982.865 281.901 983.131 282.072 983.451 282.2C983.771 282.328 984.209 282.467 984.763 282.616C985.499 282.819 986.097 283.021 986.555 283.224C987.025 283.427 987.419 283.741 987.739 284.168C988.07 284.584 988.235 285.144 988.235 285.848C988.235 286.413 988.081 286.947 987.771 287.448C987.473 287.949 987.03 288.355 986.443 288.664C985.867 288.963 985.185 289.112 984.395 289.112ZM998.996 291.016L997.044 288.904C996.564 289.043 996.036 289.112 995.46 289.112C994.425 289.112 993.47 288.872 992.596 288.392C991.732 287.901 991.044 287.224 990.532 286.36C990.03 285.485 989.78 284.504 989.78 283.416C989.78 282.328 990.03 281.352 990.532 280.488C991.044 279.624 991.732 278.952 992.596 278.472C993.47 277.981 994.425 277.736 995.46 277.736C996.505 277.736 997.46 277.981 998.324 278.472C999.198 278.952 999.886 279.624 1000.39 280.488C1000.89 281.352 1001.14 282.328 1001.14 283.416C1001.14 284.44 1000.92 285.368 1000.47 286.2C1000.03 287.021 999.422 287.683 998.644 288.184L1001.32 291.016H998.996ZM991.652 283.416C991.652 284.237 991.812 284.963 992.132 285.592C992.462 286.211 992.916 286.691 993.492 287.032C994.068 287.363 994.724 287.528 995.46 287.528C996.196 287.528 996.852 287.363 997.428 287.032C998.004 286.691 998.452 286.211 998.772 285.592C999.102 284.963 999.268 284.237 999.268 283.416C999.268 282.595 999.102 281.875 998.772 281.256C998.452 280.637 998.004 280.163 997.428 279.832C996.852 279.501 996.196 279.336 995.46 279.336C994.724 279.336 994.068 279.501 993.492 279.832C992.916 280.163 992.462 280.637 992.132 281.256C991.812 281.875 991.652 282.595 991.652 283.416ZM1004.81 287.528H1008.57V289H1002.98V277.88H1004.81V287.528Z" fill="white"/>
<path d="M1162.95 466.88V468.368H1158.23V471.648H1161.91V473.136H1158.23V478H1156.41V466.88H1162.95ZM1165.57 468.016C1165.24 468.016 1164.97 467.904 1164.74 467.68C1164.52 467.456 1164.41 467.179 1164.41 466.848C1164.41 466.517 1164.52 466.24 1164.74 466.016C1164.97 465.792 1165.24 465.68 1165.57 465.68C1165.89 465.68 1166.17 465.792 1166.39 466.016C1166.61 466.24 1166.73 466.517 1166.73 466.848C1166.73 467.179 1166.61 467.456 1166.39 467.68C1166.17 467.904 1165.89 468.016 1165.57 468.016ZM1166.47 469.184V478H1164.65V469.184H1166.47ZM1170.69 470.464C1170.95 470.016 1171.31 469.669 1171.74 469.424C1172.19 469.168 1172.72 469.04 1173.33 469.04V470.928H1172.86C1172.15 470.928 1171.61 471.109 1171.23 471.472C1170.87 471.835 1170.69 472.464 1170.69 473.36V478H1168.86V469.184H1170.69V470.464ZM1183.08 473.376C1183.08 473.707 1183.06 474.005 1183.02 474.272H1176.28C1176.34 474.976 1176.6 475.541 1177.07 475.968C1177.54 476.395 1178.11 476.608 1178.8 476.608C1179.78 476.608 1180.47 476.197 1180.88 475.376H1182.84C1182.58 476.187 1182.09 476.853 1181.39 477.376C1180.7 477.888 1179.83 478.144 1178.8 478.144C1177.95 478.144 1177.2 477.957 1176.52 477.584C1175.86 477.2 1175.34 476.667 1174.96 475.984C1174.58 475.291 1174.4 474.491 1174.4 473.584C1174.4 472.677 1174.58 471.883 1174.94 471.2C1175.31 470.507 1175.83 469.973 1176.49 469.6C1177.16 469.227 1177.93 469.04 1178.8 469.04C1179.63 469.04 1180.37 469.221 1181.02 469.584C1181.67 469.947 1182.18 470.459 1182.54 471.12C1182.9 471.771 1183.08 472.523 1183.08 473.376ZM1181.18 472.8C1181.17 472.128 1180.93 471.589 1180.46 471.184C1179.99 470.779 1179.41 470.576 1178.72 470.576C1178.09 470.576 1177.55 470.779 1177.1 471.184C1176.65 471.579 1176.39 472.117 1176.3 472.8H1181.18ZM1186.7 470.496C1187.01 470.069 1187.43 469.723 1187.97 469.456C1188.51 469.179 1189.11 469.04 1189.78 469.04C1190.55 469.04 1191.26 469.227 1191.89 469.6C1192.52 469.973 1193.01 470.507 1193.38 471.2C1193.74 471.883 1193.92 472.667 1193.92 473.552C1193.92 474.437 1193.74 475.232 1193.38 475.936C1193.01 476.629 1192.51 477.173 1191.87 477.568C1191.24 477.952 1190.54 478.144 1189.78 478.144C1189.09 478.144 1188.49 478.011 1187.95 477.744C1187.43 477.477 1187.01 477.136 1186.7 476.72V478H1184.88V466.16H1186.7V470.496ZM1192.06 473.552C1192.06 472.944 1191.94 472.421 1191.68 471.984C1191.43 471.536 1191.1 471.2 1190.69 470.976C1190.28 470.741 1189.85 470.624 1189.38 470.624C1188.92 470.624 1188.48 470.741 1188.06 470.976C1187.66 471.211 1187.33 471.552 1187.07 472C1186.83 472.448 1186.7 472.976 1186.7 473.584C1186.7 474.192 1186.83 474.725 1187.07 475.184C1187.33 475.632 1187.66 475.973 1188.06 476.208C1188.48 476.443 1188.92 476.56 1189.38 476.56C1189.85 476.56 1190.28 476.443 1190.69 476.208C1191.1 475.963 1191.43 475.611 1191.68 475.152C1191.94 474.693 1192.06 474.16 1192.06 473.552ZM1195.12 473.552C1195.12 472.667 1195.3 471.883 1195.66 471.2C1196.03 470.517 1196.53 469.989 1197.16 469.616C1197.8 469.232 1198.51 469.04 1199.28 469.04C1199.97 469.04 1200.57 469.179 1201.08 469.456C1201.61 469.723 1202.02 470.059 1202.33 470.464V469.184H1204.17V478H1202.33V476.688C1202.02 477.104 1201.6 477.451 1201.07 477.728C1200.53 478.005 1199.93 478.144 1199.24 478.144C1198.49 478.144 1197.79 477.952 1197.16 477.568C1196.53 477.173 1196.03 476.629 1195.66 475.936C1195.3 475.232 1195.12 474.437 1195.12 473.552ZM1202.33 473.584C1202.33 472.976 1202.2 472.448 1201.95 472C1201.7 471.552 1201.38 471.211 1200.97 470.976C1200.57 470.741 1200.13 470.624 1199.66 470.624C1199.19 470.624 1198.75 470.741 1198.35 470.976C1197.94 471.2 1197.61 471.536 1197.36 471.984C1197.11 472.421 1196.99 472.944 1196.99 473.552C1196.99 474.16 1197.11 474.693 1197.36 475.152C1197.61 475.611 1197.94 475.963 1198.35 476.208C1198.76 476.443 1199.2 476.56 1199.66 476.56C1200.13 476.56 1200.57 476.443 1200.97 476.208C1201.38 475.973 1201.7 475.632 1201.95 475.184C1202.2 474.725 1202.33 474.192 1202.33 473.584ZM1209.77 478.144C1209.07 478.144 1208.45 478.021 1207.9 477.776C1207.35 477.52 1206.92 477.179 1206.6 476.752C1206.28 476.315 1206.11 475.829 1206.09 475.296H1207.98C1208.01 475.669 1208.18 475.984 1208.5 476.24C1208.83 476.485 1209.24 476.608 1209.74 476.608C1210.25 476.608 1210.64 476.512 1210.92 476.32C1211.21 476.117 1211.35 475.861 1211.35 475.552C1211.35 475.221 1211.19 474.976 1210.87 474.816C1210.56 474.656 1210.07 474.48 1209.38 474.288C1208.72 474.107 1208.18 473.931 1207.77 473.76C1207.35 473.589 1206.99 473.328 1206.68 472.976C1206.38 472.624 1206.23 472.16 1206.23 471.584C1206.23 471.115 1206.37 470.688 1206.65 470.304C1206.92 469.909 1207.32 469.6 1207.83 469.376C1208.35 469.152 1208.95 469.04 1209.62 469.04C1210.63 469.04 1211.43 469.296 1212.04 469.808C1212.66 470.309 1212.99 470.997 1213.03 471.872H1211.21C1211.18 471.477 1211.02 471.163 1210.73 470.928C1210.44 470.693 1210.05 470.576 1209.56 470.576C1209.08 470.576 1208.71 470.667 1208.46 470.848C1208.2 471.029 1208.07 471.269 1208.07 471.568C1208.07 471.803 1208.16 472 1208.33 472.16C1208.5 472.32 1208.71 472.448 1208.95 472.544C1209.2 472.629 1209.56 472.741 1210.04 472.88C1210.68 473.051 1211.2 473.227 1211.61 473.408C1212.02 473.579 1212.38 473.835 1212.68 474.176C1212.98 474.517 1213.13 474.971 1213.14 475.536C1213.14 476.037 1213 476.485 1212.73 476.88C1212.45 477.275 1212.06 477.584 1211.54 477.808C1211.04 478.032 1210.45 478.144 1209.77 478.144ZM1223.19 473.376C1223.19 473.707 1223.17 474.005 1223.13 474.272H1216.39C1216.45 474.976 1216.71 475.541 1217.18 475.968C1217.65 476.395 1218.22 476.608 1218.91 476.608C1219.89 476.608 1220.58 476.197 1220.99 475.376H1222.95C1222.69 476.187 1222.2 476.853 1221.5 477.376C1220.8 477.888 1219.94 478.144 1218.91 478.144C1218.06 478.144 1217.31 477.957 1216.63 477.584C1215.97 477.2 1215.45 476.667 1215.07 475.984C1214.69 475.291 1214.51 474.491 1214.51 473.584C1214.51 472.677 1214.69 471.883 1215.05 471.2C1215.42 470.507 1215.94 469.973 1216.6 469.6C1217.27 469.227 1218.04 469.04 1218.91 469.04C1219.74 469.04 1220.48 469.221 1221.13 469.584C1221.78 469.947 1222.29 470.459 1222.65 471.12C1223.01 471.771 1223.19 472.523 1223.19 473.376ZM1221.29 472.8C1221.28 472.128 1221.04 471.589 1220.57 471.184C1220.1 470.779 1219.52 470.576 1218.83 470.576C1218.2 470.576 1217.66 470.779 1217.21 471.184C1216.76 471.579 1216.5 472.117 1216.41 472.8H1221.29Z" fill="white"/>
<path d="M317.179 478L314.619 473.552H313.227V478H311.403V466.88H315.243C316.096 466.88 316.816 467.029 317.403 467.328C318 467.627 318.443 468.027 318.731 468.528C319.03 469.029 319.179 469.589 319.179 470.208C319.179 470.933 318.966 471.595 318.539 472.192C318.123 472.779 317.478 473.179 316.603 473.392L319.355 478H317.179ZM313.227 472.096H315.243C315.926 472.096 316.438 471.925 316.779 471.584C317.131 471.243 317.307 470.784 317.307 470.208C317.307 469.632 317.136 469.184 316.795 468.864C316.454 468.533 315.936 468.368 315.243 468.368H313.227V472.096ZM329.593 473.376C329.593 473.707 329.571 474.005 329.529 474.272H322.793C322.846 474.976 323.107 475.541 323.577 475.968C324.046 476.395 324.622 476.608 325.305 476.608C326.286 476.608 326.979 476.197 327.385 475.376H329.352C329.086 476.187 328.601 476.853 327.897 477.376C327.203 477.888 326.339 478.144 325.305 478.144C324.462 478.144 323.705 477.957 323.033 477.584C322.371 477.2 321.849 476.667 321.465 475.984C321.091 475.291 320.905 474.491 320.905 473.584C320.905 472.677 321.086 471.883 321.449 471.2C321.822 470.507 322.339 469.973 323.001 469.6C323.673 469.227 324.441 469.04 325.305 469.04C326.137 469.04 326.878 469.221 327.529 469.584C328.179 469.947 328.686 470.459 329.049 471.12C329.411 471.771 329.593 472.523 329.593 473.376ZM327.689 472.8C327.678 472.128 327.438 471.589 326.969 471.184C326.499 470.779 325.918 470.576 325.225 470.576C324.595 470.576 324.057 470.779 323.609 471.184C323.161 471.579 322.894 472.117 322.809 472.8H327.689ZM330.78 473.552C330.78 472.667 330.961 471.883 331.324 471.2C331.697 470.517 332.198 469.989 332.828 469.616C333.468 469.232 334.177 469.04 334.956 469.04C335.532 469.04 336.097 469.168 336.652 469.424C337.217 469.669 337.665 470 337.996 470.416V466.16H339.836V478H337.996V476.672C337.697 477.099 337.281 477.451 336.748 477.728C336.225 478.005 335.622 478.144 334.94 478.144C334.172 478.144 333.468 477.952 332.828 477.568C332.198 477.173 331.697 476.629 331.324 475.936C330.961 475.232 330.78 474.437 330.78 473.552ZM337.996 473.584C337.996 472.976 337.868 472.448 337.612 472C337.366 471.552 337.041 471.211 336.636 470.976C336.23 470.741 335.793 470.624 335.324 470.624C334.854 470.624 334.417 470.741 334.012 470.976C333.606 471.2 333.276 471.536 333.02 471.984C332.774 472.421 332.652 472.944 332.652 473.552C332.652 474.16 332.774 474.693 333.02 475.152C333.276 475.611 333.606 475.963 334.012 476.208C334.428 476.443 334.865 476.56 335.324 476.56C335.793 476.56 336.23 476.443 336.636 476.208C337.041 475.973 337.366 475.632 337.612 475.184C337.868 474.725 337.996 474.192 337.996 473.584ZM343.159 468.016C342.829 468.016 342.551 467.904 342.327 467.68C342.103 467.456 341.991 467.179 341.991 466.848C341.991 466.517 342.103 466.24 342.327 466.016C342.551 465.792 342.829 465.68 343.159 465.68C343.479 465.68 343.751 465.792 343.975 466.016C344.199 466.24 344.311 466.517 344.311 466.848C344.311 467.179 344.199 467.456 343.975 467.68C343.751 467.904 343.479 468.016 343.159 468.016ZM344.055 469.184V478H342.231V469.184H344.055ZM349.65 478.144C348.957 478.144 348.333 478.021 347.778 477.776C347.234 477.52 346.802 477.179 346.482 476.752C346.162 476.315 345.991 475.829 345.97 475.296H347.858C347.89 475.669 348.066 475.984 348.386 476.24C348.717 476.485 349.127 476.608 349.618 476.608C350.13 476.608 350.525 476.512 350.802 476.32C351.09 476.117 351.234 475.861 351.234 475.552C351.234 475.221 351.074 474.976 350.754 474.816C350.445 474.656 349.949 474.48 349.266 474.288C348.605 474.107 348.066 473.931 347.65 473.76C347.234 473.589 346.871 473.328 346.562 472.976C346.263 472.624 346.114 472.16 346.114 471.584C346.114 471.115 346.253 470.688 346.53 470.304C346.807 469.909 347.202 469.6 347.714 469.376C348.237 469.152 348.834 469.04 349.506 469.04C350.509 469.04 351.314 469.296 351.922 469.808C352.541 470.309 352.871 470.997 352.914 471.872H351.09C351.058 471.477 350.898 471.163 350.61 470.928C350.322 470.693 349.933 470.576 349.442 470.576C348.962 470.576 348.594 470.667 348.338 470.848C348.082 471.029 347.954 471.269 347.954 471.568C347.954 471.803 348.039 472 348.21 472.16C348.381 472.32 348.589 472.448 348.834 472.544C349.079 472.629 349.442 472.741 349.922 472.88C350.562 473.051 351.085 473.227 351.49 473.408C351.906 473.579 352.263 473.835 352.562 474.176C352.861 474.517 353.015 474.971 353.026 475.536C353.026 476.037 352.887 476.485 352.61 476.88C352.333 477.275 351.938 477.584 351.426 477.808C350.925 478.032 350.333 478.144 349.65 478.144Z" fill="white"/>
<path d="M733.248 247.88V259H731.424V251.384L728.032 259H726.768L723.36 251.384V259H721.536V247.88H723.504L727.408 256.6L731.296 247.88H733.248ZM739.469 259.144C738.637 259.144 737.885 258.957 737.213 258.584C736.541 258.2 736.013 257.667 735.629 256.984C735.245 256.291 735.053 255.491 735.053 254.584C735.053 253.688 735.251 252.893 735.645 252.2C736.04 251.507 736.579 250.973 737.261 250.6C737.944 250.227 738.707 250.04 739.549 250.04C740.392 250.04 741.155 250.227 741.837 250.6C742.52 250.973 743.059 251.507 743.453 252.2C743.848 252.893 744.045 253.688 744.045 254.584C744.045 255.48 743.843 256.275 743.437 256.968C743.032 257.661 742.477 258.2 741.773 258.584C741.08 258.957 740.312 259.144 739.469 259.144ZM739.469 257.56C739.939 257.56 740.376 257.448 740.781 257.224C741.197 257 741.533 256.664 741.789 256.216C742.045 255.768 742.173 255.224 742.173 254.584C742.173 253.944 742.051 253.405 741.805 252.968C741.56 252.52 741.235 252.184 740.829 251.96C740.424 251.736 739.987 251.624 739.517 251.624C739.048 251.624 738.611 251.736 738.205 251.96C737.811 252.184 737.496 252.52 737.261 252.968C737.027 253.405 736.909 253.944 736.909 254.584C736.909 255.533 737.149 256.269 737.629 256.792C738.12 257.304 738.733 257.56 739.469 257.56ZM750.296 250.04C750.99 250.04 751.608 250.184 752.152 250.472C752.707 250.76 753.139 251.187 753.448 251.752C753.758 252.317 753.912 253 753.912 253.8V259H752.104V254.072C752.104 253.283 751.907 252.68 751.512 252.264C751.118 251.837 750.579 251.624 749.896 251.624C749.214 251.624 748.67 251.837 748.264 252.264C747.87 252.68 747.672 253.283 747.672 254.072V259H745.848V250.184H747.672V251.192C747.971 250.829 748.35 250.547 748.808 250.344C749.278 250.141 749.774 250.04 750.296 250.04ZM759.791 250.04C760.474 250.04 761.076 250.179 761.599 250.456C762.132 250.723 762.548 251.059 762.847 251.464V250.184H764.687V259.144C764.687 259.955 764.516 260.675 764.175 261.304C763.834 261.944 763.338 262.445 762.687 262.808C762.047 263.171 761.279 263.352 760.383 263.352C759.188 263.352 758.196 263.069 757.407 262.504C756.618 261.949 756.17 261.192 756.063 260.232H757.871C758.01 260.691 758.303 261.059 758.751 261.336C759.21 261.624 759.754 261.768 760.383 261.768C761.119 261.768 761.711 261.544 762.159 261.096C762.618 260.648 762.847 259.997 762.847 259.144V257.672C762.538 258.088 762.116 258.44 761.583 258.728C761.06 259.005 760.463 259.144 759.791 259.144C759.023 259.144 758.319 258.952 757.679 258.568C757.05 258.173 756.548 257.629 756.175 256.936C755.812 256.232 755.631 255.437 755.631 254.552C755.631 253.667 755.812 252.883 756.175 252.2C756.548 251.517 757.05 250.989 757.679 250.616C758.319 250.232 759.023 250.04 759.791 250.04ZM762.847 254.584C762.847 253.976 762.719 253.448 762.463 253C762.218 252.552 761.892 252.211 761.487 251.976C761.082 251.741 760.644 251.624 760.175 251.624C759.706 251.624 759.268 251.741 758.863 251.976C758.458 252.2 758.127 252.536 757.871 252.984C757.626 253.421 757.503 253.944 757.503 254.552C757.503 255.16 757.626 255.693 757.871 256.152C758.127 256.611 758.458 256.963 758.863 257.208C759.279 257.443 759.716 257.56 760.175 257.56C760.644 257.56 761.082 257.443 761.487 257.208C761.892 256.973 762.218 256.632 762.463 256.184C762.719 255.725 762.847 255.192 762.847 254.584ZM770.907 259.144C770.075 259.144 769.323 258.957 768.651 258.584C767.979 258.2 767.451 257.667 767.067 256.984C766.683 256.291 766.491 255.491 766.491 254.584C766.491 253.688 766.688 252.893 767.083 252.2C767.477 251.507 768.016 250.973 768.699 250.6C769.381 250.227 770.144 250.04 770.987 250.04C771.829 250.04 772.592 250.227 773.275 250.6C773.957 250.973 774.496 251.507 774.891 252.2C775.285 252.893 775.483 253.688 775.483 254.584C775.483 255.48 775.28 256.275 774.875 256.968C774.469 257.661 773.915 258.2 773.211 258.584C772.517 258.957 771.749 259.144 770.907 259.144ZM770.907 257.56C771.376 257.56 771.813 257.448 772.219 257.224C772.635 257 772.971 256.664 773.227 256.216C773.483 255.768 773.611 255.224 773.611 254.584C773.611 253.944 773.488 253.405 773.243 252.968C772.997 252.52 772.672 252.184 772.267 251.96C771.861 251.736 771.424 251.624 770.955 251.624C770.485 251.624 770.048 251.736 769.643 251.96C769.248 252.184 768.933 252.52 768.699 252.968C768.464 253.405 768.347 253.944 768.347 254.584C768.347 255.533 768.587 256.269 769.067 256.792C769.557 257.304 770.171 257.56 770.907 257.56ZM785.074 247.88C786.258 247.88 787.293 248.109 788.178 248.568C789.074 249.016 789.762 249.667 790.242 250.52C790.733 251.363 790.978 252.349 790.978 253.48C790.978 254.611 790.733 255.592 790.242 256.424C789.762 257.256 789.074 257.896 788.178 258.344C787.293 258.781 786.258 259 785.074 259H781.442V247.88H785.074ZM785.074 257.512C786.376 257.512 787.373 257.16 788.066 256.456C788.76 255.752 789.106 254.76 789.106 253.48C789.106 252.189 788.76 251.181 788.066 250.456C787.373 249.731 786.376 249.368 785.074 249.368H783.266V257.512H785.074ZM798.738 253.288C799.335 253.395 799.842 253.709 800.258 254.232C800.674 254.755 800.882 255.347 800.882 256.008C800.882 256.573 800.733 257.085 800.434 257.544C800.146 257.992 799.725 258.349 799.17 258.616C798.615 258.872 797.97 259 797.234 259H792.786V247.88H797.026C797.783 247.88 798.434 248.008 798.978 248.264C799.522 248.52 799.933 248.867 800.21 249.304C800.487 249.731 800.626 250.211 800.626 250.744C800.626 251.384 800.455 251.917 800.114 252.344C799.773 252.771 799.314 253.085 798.738 253.288ZM794.61 252.552H796.866C797.463 252.552 797.927 252.419 798.258 252.152C798.599 251.875 798.77 251.48 798.77 250.968C798.77 250.467 798.599 250.077 798.258 249.8C797.927 249.512 797.463 249.368 796.866 249.368H794.61V252.552ZM797.074 257.512C797.693 257.512 798.178 257.363 798.53 257.064C798.882 256.765 799.058 256.349 799.058 255.816C799.058 255.272 798.871 254.84 798.498 254.52C798.125 254.2 797.629 254.04 797.01 254.04H794.61V257.512H797.074Z" fill="white"/>
<defs>
<clipPath id="clip0_1_4603">
<rect width="32" height="32" fill="white" transform="translate(745 15)"/>
</clipPath>
<clipPath id="clip1_1_4603">
<rect width="48" height="48" fill="white" transform="translate(958 199)"/>
</clipPath>
<clipPath id="clip2_1_4603">
<rect width="54" height="54" fill="white" transform="translate(513 196)"/>
</clipPath>
</defs>
</svg>
