<svg width="1523" height="802" viewBox="0 0 1523 802" fill="none" xmlns="http://www.w3.org/2000/svg">
<mask id="mask0_1_4718" style="mask-type:alpha" maskUnits="userSpaceOnUse" x="0" y="587" width="1523" height="215">
<ellipse cx="761.5" cy="694.5" rx="761.5" ry="107.5" fill="black"/>
</mask>
<g mask="url(#mask0_1_4718)">
<rect y="587" width="1523" height="215" fill="black"/>
</g>
<path d="M754.13 9.57352C748.82 11.6038 742.574 16.7575 739.45 21.599C735.858 26.9089 735.702 40.9646 738.981 43.7758C740.231 44.869 741.324 46.5869 741.324 47.524C741.324 50.4913 751.632 57.8315 756.005 57.8315C757.098 57.8315 758.503 59.3932 758.972 61.2674C760.221 65.9526 758.503 147.32 757.254 148.569C756.629 149.038 753.35 150.287 749.758 151.224C746.166 152.317 740.699 154.816 737.42 157.002C734.296 159.189 731.017 160.907 730.392 160.594C728.049 159.657 666.36 107.339 666.36 106.246C666.36 105.621 667.453 102.497 668.703 99.5302C669.952 96.4067 671.045 89.3788 671.045 84.0689C671.045 75.9478 670.108 72.8243 666.36 65.9526C663.705 61.5797 660.894 57.8315 660.113 57.8315C659.332 57.8315 657.146 56.5821 655.428 55.0204C650.43 50.8036 639.03 48.9296 628.41 50.6475C620.445 51.8969 618.258 52.9901 612.324 59.0809C599.049 72.9805 597.175 89.8473 607.326 104.372C613.105 112.493 626.223 120.145 634.501 120.301H639.342L643.559 151.849C645.901 169.34 648.869 189.487 649.962 196.827C654.179 223.689 654.179 223.064 648.4 225.876C640.591 229.468 635.125 238.838 635.125 248.365C635.125 256.642 636.687 260.546 642.778 267.418L646.526 271.635L641.372 282.255C638.561 288.033 632.47 300.839 627.941 310.366L619.664 328.014H610.606H601.548L597.331 319.737C594.988 315.364 587.336 299.746 580.464 285.222L567.814 258.828L572.499 253.987C587.492 238.213 589.21 212.757 576.404 195.734C562.816 177.93 535.017 172.776 517.213 184.958C508.155 191.205 499.253 201.981 499.253 206.822C499.253 210.258 495.505 210.102 467.237 204.636C453.806 202.137 442.406 199.951 442.093 199.951C441.781 199.951 441.469 198.389 441.469 196.359C441.312 191.673 436.315 181.053 432.567 177.774C427.1 172.776 416.793 170.121 410.077 171.839C387.588 177.93 382.747 208.072 402.737 218.223C406.485 220.097 410.546 221.971 411.952 222.284C413.982 222.908 414.606 227.125 415.387 247.896C416.012 261.483 416.481 279.131 416.481 286.94V301.464L410.702 304.119C407.579 305.681 402.893 309.585 400.238 312.865C396.178 317.862 395.553 320.049 395.709 327.077C395.866 331.762 396.959 337.54 398.208 340.039L400.551 344.412L380.092 365.964C368.691 377.834 358.696 387.516 357.915 387.36C356.978 387.36 353.542 385.955 350.106 384.237C345.89 382.05 340.892 381.113 333.708 381.113C324.962 381.113 322.307 381.894 316.06 385.798C307.939 390.952 301.848 399.542 299.037 409.849C297.475 415.784 297.632 418.283 299.818 425.155C308.408 452.485 337.925 461.231 358.696 442.49C371.815 430.777 374.47 413.91 365.724 398.449L361.819 391.577L377.125 375.803C385.714 367.214 395.241 357.219 398.521 353.939C403.518 348.473 404.611 348.004 407.422 349.722C413.045 353.158 424.758 353.626 431.161 350.659C451.932 340.82 450.527 309.585 428.975 303.182C425.539 302.245 422.571 300.839 422.571 300.215C421.791 296.467 421.478 287.721 420.385 256.798L419.292 222.44L425.851 219.472C429.755 217.754 434.128 214.162 436.471 210.57C438.501 207.291 441.469 204.636 442.874 204.636C445.529 204.636 463.802 208.072 483.636 212.445L495.349 214.943L496.286 224.938C497.379 237.589 502.533 248.365 511.122 256.017C522.836 266.325 540.952 269.917 555.476 264.763C559.068 263.514 562.66 262.42 563.441 262.42C564.222 262.42 566.408 266.169 568.595 270.542C570.625 275.071 576.872 288.345 582.338 299.902C597.487 331.606 597.175 330.981 593.427 334.105C582.338 342.85 582.494 364.246 593.739 372.992C604.515 381.426 618.727 380.645 628.254 371.118C638.561 360.811 638.717 346.442 628.878 335.823C626.223 333.011 624.193 330.513 624.193 330.2C624.193 329.888 627.317 323.172 631.065 315.208C634.813 307.243 640.748 294.592 644.183 287.252L650.43 273.821L658.864 273.977C673.544 274.134 685.57 262.42 685.414 248.052C685.257 236.027 674.013 223.377 663.549 223.377C661.675 223.377 659.957 222.752 659.332 221.815C658.864 221.034 656.053 203.699 652.929 183.24C649.962 162.781 646.838 141.541 646.057 135.919C643.559 119.364 643.559 119.521 652.773 114.991C657.458 112.805 661.987 110.931 663.081 110.931C664.798 110.931 721.646 158.408 725.707 163.249C727.268 165.124 727.112 166.998 724.301 173.245C719.928 183.552 719.928 197.608 724.301 206.978C739.294 238.682 783.96 238.994 798.796 207.291C803.326 197.764 803.482 183.24 799.109 173.557C797.391 169.809 795.985 166.217 795.985 165.592C795.985 164.187 807.698 153.879 831.905 133.576C839.09 127.485 847.991 119.989 851.583 116.709C857.987 110.931 863.609 109.369 865.639 112.649C866.108 113.586 869.075 115.304 872.042 116.553C874.854 117.803 877.665 119.833 878.289 121.238C879.07 123.269 870.168 188.862 865.795 212.445C864.077 221.815 863.609 222.596 859.236 223.377C845.024 226.344 837.372 236.495 838.465 250.707C839.714 265.232 850.178 274.29 865.171 273.821L872.667 273.665L878.602 286.315C881.881 293.343 887.816 305.993 891.877 314.27C895.781 322.704 899.061 329.732 899.061 330.2C899.061 330.513 897.03 333.011 894.375 335.823C887.972 342.694 885.473 351.284 887.972 359.249C892.814 375.647 910.618 383.768 924.673 375.959C929.515 373.305 934.981 367.214 936.699 362.841C940.291 353.47 936.386 337.853 929.359 333.792C926.86 332.387 926.547 329.107 928.734 325.203C930.608 321.767 953.409 274.29 956.221 267.418C958.719 261.796 960.281 261.483 968.246 264.763C975.742 267.887 990.267 267.574 998.544 264.295C1014.94 257.579 1025.41 243.055 1026.97 224.938L1027.9 214.787L1052.11 209.79C1065.39 207.135 1077.88 204.792 1079.75 204.792C1081.94 204.636 1084.28 206.51 1086.47 210.102C1088.5 213.382 1093.03 217.286 1097.4 219.472C1104.27 222.908 1104.9 223.689 1104.43 228.374C1104.12 231.185 1103.34 248.052 1102.71 265.856C1102.09 283.66 1101.15 298.653 1100.68 299.434C1100.21 300.059 1096.31 302.401 1092.09 304.588C1087.88 306.774 1083.03 310.366 1081.32 312.709C1077.41 317.862 1076.01 331.137 1078.66 337.384C1083.66 349.566 1099.12 355.813 1111.77 350.972C1119.42 347.848 1117.55 346.599 1142.38 371.899L1161.59 391.577L1157.22 399.073C1145.97 419.376 1157.69 445.926 1180.33 451.392C1197.98 455.609 1214.69 446.707 1222.34 428.747C1229.53 412.036 1220.16 390.64 1202.51 383.144C1194.86 380.02 1180.33 380.489 1173.15 384.237C1169.71 385.955 1166.28 387.36 1165.34 387.36C1163.78 387.36 1154.87 378.458 1127.39 349.566C1121.92 343.787 1121.92 343.787 1124.73 339.571C1126.45 336.916 1127.54 332.074 1127.7 327.077C1127.7 320.049 1127.08 317.862 1123.02 312.865C1120.36 309.585 1115.67 305.681 1112.55 304.119L1106.77 301.464V286.94C1106.77 279.131 1107.24 261.483 1107.87 247.896C1108.65 227.125 1109.27 222.908 1111.3 222.44C1120.36 219.785 1127.23 214.787 1130.2 208.696C1137.38 193.547 1130.67 177.93 1114.27 172.464C1106.93 170.121 1106.62 170.121 1098.18 174.026C1088.81 178.242 1083.97 184.489 1082.41 194.016C1081.79 197.296 1081.32 199.951 1081.16 199.951C1081.16 199.951 1070.07 202.137 1056.8 204.636C1025.56 210.727 1025.09 210.727 1022.75 204.011C1020.56 198.076 1013.22 189.643 1006.04 184.958C996.357 178.398 982.302 176.524 970.276 179.96C938.104 189.174 927.484 229.468 950.754 253.987L955.44 258.828L942.79 285.222C935.762 299.746 928.265 315.364 926.079 319.737L922.174 328.014H912.804H903.59L893.438 306.462C887.816 294.749 881.725 282.098 880.007 278.35L876.728 271.635L880.476 267.418C886.567 260.546 888.128 256.642 888.128 248.365C888.128 237.432 883.912 230.873 873.604 225.563C868.919 223.064 869.075 224.47 872.667 200.731C873.448 195.578 875.478 181.21 877.196 168.716C881.257 138.105 883.287 124.518 884.224 122.176C884.536 121.238 887.035 120.301 889.534 120.301C892.033 120.301 894.688 119.521 895.156 118.74C895.625 117.803 897.655 117.178 899.529 117.178C904.995 117.178 914.678 108.12 918.739 99.374C925.61 84.5374 922.487 70.0132 909.993 58.1439C901.872 50.4913 890.315 48.1487 875.947 50.9598C869.231 52.3654 858.611 61.7359 855.176 69.3884C851.583 77.1972 851.271 92.8147 854.551 99.0616C858.611 106.87 862.828 102.341 808.323 147.944C799.89 155.128 792.549 160.907 791.925 160.907C791.456 160.907 788.177 158.877 784.428 156.378C780.836 153.879 775.214 151.224 772.091 150.755C768.811 150.131 766 149.194 765.531 148.569C764.438 146.539 763.189 61.7359 764.438 60.0179C765.063 59.2371 768.03 57.5192 770.997 56.2698C790.207 48.461 792.081 24.2539 774.277 12.5408C767.093 7.6994 760.846 6.76236 754.13 9.57352Z" fill="black"/>
<path d="M757.207 274.169L757.176 274.182L757.144 274.195C756.957 274.272 756.782 274.344 756.616 274.412C754.535 275.263 754.03 275.47 753.496 276.274C752.771 277.366 752.008 279.763 751.498 285.975C750.563 297.351 750.566 319.313 750.57 363.354C750.571 366.535 750.571 369.831 750.571 373.246C750.571 398.869 750.415 422.271 750.18 439.33C750.063 447.857 749.926 454.811 749.779 459.67C749.705 462.095 749.629 464.021 749.549 465.367C749.51 466.033 749.468 466.599 749.42 467.026C749.397 467.23 749.366 467.471 749.319 467.699C749.297 467.805 749.255 467.995 749.18 468.21C749.142 468.317 749.072 468.498 748.956 468.706C748.863 468.873 748.612 469.296 748.121 469.663L747.998 469.756L747.865 469.836C746.704 470.533 745.576 470.204 745.382 470.147L745.371 470.144C745.011 470.04 744.722 469.891 744.56 469.803C744.213 469.613 743.861 469.367 743.554 469.138C742.912 468.662 742.083 467.974 741.119 467.135C739.174 465.443 736.488 462.968 733.266 459.914C726.815 453.796 718.126 445.263 708.744 435.803C693.253 420.312 684.638 411.856 679.314 407.26C673.954 402.632 672.533 402.484 671.358 402.484C670.196 402.484 668.755 402.649 667.383 402.916C666.077 403.171 665.03 403.479 664.447 403.722C663.397 404.374 661.879 406.114 660.551 408.592C659.298 410.932 658.537 413.33 658.439 415.045C658.478 415.119 658.532 415.213 658.603 415.33C658.924 415.855 659.465 416.615 660.291 417.652C661.933 419.714 664.5 422.628 668.146 426.547C675.427 434.371 686.833 446.012 703.308 462.487L703.312 462.491L748.915 508.25L749.786 509.124L749.79 510.358L750.102 602.961C750.102 602.962 750.102 602.963 750.102 602.964C750.415 653.72 750.571 698.861 750.571 702.931C750.571 705.921 750.775 707.547 751.193 708.707C751.569 709.751 752.203 710.647 753.644 711.951L753.657 711.963L753.67 711.974C756.937 715 761.707 715.618 765.805 714.241C769.912 712.861 772.628 709.773 772.683 706.011L772.684 705.933L772.689 705.855L772.689 705.85L772.69 705.836L772.692 705.786C772.694 705.743 772.696 705.687 772.698 705.617C772.703 705.476 772.707 705.292 772.712 705.062C772.722 704.603 772.731 703.983 772.741 703.208C772.761 701.659 772.78 699.511 772.8 696.828C772.839 691.464 772.878 683.981 772.917 674.924C772.995 656.81 773.073 632.409 773.151 606.094V606.093L773.463 510.514L773.467 509.28L774.338 508.406L820.091 462.497C836.255 446.177 847.624 434.496 854.946 426.591C858.613 422.632 861.222 419.667 862.901 417.562C863.745 416.504 864.304 415.724 864.638 415.183C864.714 415.059 864.771 414.959 864.813 414.882C864.709 413.246 863.957 410.9 862.706 408.58C861.377 406.117 859.858 404.375 858.806 403.722C858.223 403.479 857.176 403.171 855.871 402.916C854.498 402.649 853.057 402.484 851.896 402.484C850.724 402.484 849.344 402.628 844.101 407.177C838.891 411.697 830.47 419.998 815.288 435.18C799.932 450.614 790.308 459.969 784.604 464.775C783.17 465.983 781.932 466.949 780.879 467.664C779.886 468.338 778.829 468.952 777.796 469.23C777.263 469.374 776.502 469.495 775.663 469.296C774.717 469.071 773.924 468.496 773.416 467.686C772.966 466.971 772.837 466.233 772.799 465.716C772.762 465.216 772.796 464.725 772.855 464.284C772.855 464.281 772.855 464.278 772.855 464.275C772.859 464.194 772.863 464.068 772.867 463.889C772.875 463.534 772.883 463.023 772.89 462.356C772.904 461.025 772.917 459.112 772.926 456.678C772.946 451.811 772.956 444.88 772.956 436.399C772.956 419.439 772.917 396.289 772.838 371.069L772.838 371.065L772.684 280.519L769.994 277.463L769.984 277.451L769.974 277.44C768.492 275.72 766.263 274.444 763.821 273.846C761.367 273.245 758.977 273.394 757.207 274.169ZM658.351 414.868C658.352 414.868 658.352 414.869 658.352 414.869C658.342 414.84 658.339 414.838 658.351 414.868ZM772.851 464.348C772.851 464.355 772.852 464.351 772.853 464.329C772.852 464.338 772.852 464.344 772.851 464.348Z" fill="#2B2B2B" stroke="#131313" stroke-width="6"/>
<path d="M535.247 321.878L535.233 321.885L535.22 321.893C533.48 322.855 532.542 323.549 531.858 324.471C531.171 325.398 530.534 326.844 530.047 329.657C529.047 335.435 528.882 345.536 528.803 365.033V401.416V404.416H525.803H473.328C451.052 404.416 437.809 404.494 429.59 404.842C421.234 405.196 418.577 405.83 417.041 406.598L417.004 406.616L416.966 406.634C413.256 408.361 411.248 411.173 410.709 414.235C410.161 417.343 411.066 421.091 413.969 424.67L413.98 424.684L413.991 424.698L416.066 427.318L479.128 427.777L543.785 428.245L545.024 428.254L545.896 429.135L603.209 487.073L603.212 487.076L660.681 545.014L661.551 545.891V547.127V624.277L661.551 627.839C661.55 668.047 661.55 687.916 662.667 698.376C663.244 703.78 664.079 706.11 664.964 707.376C665.803 708.578 666.855 709.133 669.436 710.465C671.419 711.456 672.344 711.743 673.103 711.785C673.837 711.825 674.768 711.652 676.785 710.831L676.804 710.823L676.824 710.815C677.521 710.542 678.074 710.341 678.557 710.165C679.185 709.936 679.694 709.75 680.248 709.507C681.061 709.15 681.522 708.84 681.874 708.46C682.627 707.649 683.52 705.837 684.13 700.354C685.238 690.403 685.234 670.967 685.226 631.13C685.225 627.602 685.225 623.915 685.225 620.06V536.188L619.729 470.692L553.355 404.318L552.476 403.439V402.197V365.808C552.476 345.915 552.307 335.439 551.217 329.449C550.685 326.528 549.988 325.037 549.246 324.109C548.515 323.194 547.505 322.525 545.653 321.69L545.645 321.686C543.264 320.604 541.625 320.21 540.209 320.237C538.823 320.263 537.327 320.699 535.247 321.878Z" fill="#2B2B2B" stroke="#131313" stroke-width="6"/>
<path d="M976.367 322.235L976.359 322.241L976.352 322.247C975.088 323.245 974.253 324.148 973.597 325.399C972.91 326.71 972.323 328.592 971.879 331.681C970.979 337.942 970.777 348.238 970.777 366.745V402.041V403.281L969.901 404.159L903.527 470.69L903.524 470.692L838.029 536.188V620.061C838.029 624.127 838.028 628.006 838.027 631.706C838.019 670.758 838.015 689.882 839.047 699.789C839.618 705.265 840.46 707.215 841.234 708.157C841.594 708.595 842.05 708.948 842.812 709.361C843.334 709.645 843.814 709.867 844.406 710.143C844.86 710.353 845.38 710.595 846.037 710.918L846.068 710.933L846.099 710.95C847.759 711.816 848.415 711.934 848.974 711.902C849.706 711.861 850.735 711.537 853.114 710.428C853.23 710.372 853.344 710.318 853.455 710.265C856.063 709.021 857.168 708.493 858.053 707.358C858.975 706.175 859.869 703.967 860.492 698.621C861.703 688.225 861.703 668.259 861.702 627.375C861.702 626.305 861.702 625.22 861.702 624.121V546.815V545.574L862.578 544.696L920.203 486.914L920.206 486.912L977.832 428.974L978.712 428.089H979.959H1041.65C1059.44 428.089 1075.26 427.933 1086.93 427.66C1092.76 427.524 1097.53 427.359 1100.98 427.171C1102.71 427.077 1104.07 426.979 1105.06 426.879C1105.55 426.829 1105.92 426.781 1106.18 426.739C1106.29 426.721 1106.36 426.706 1106.39 426.699C1110.2 425.207 1112.41 421.23 1112.44 416.719C1112.47 412.197 1110.3 408.051 1106.4 406.372C1105.71 406.095 1104.5 405.785 1102.27 405.514C1100.05 405.243 1096.97 405.028 1092.66 404.863C1084.04 404.533 1070.7 404.416 1049.77 404.416H997.451H994.451V401.416V365.496C994.451 346.262 994.246 335.774 993.24 329.61C992.745 326.575 992.097 324.892 991.387 323.814C990.723 322.806 989.855 322.095 988.391 321.293C986.715 320.435 984.455 320.03 982.143 320.209C979.81 320.39 977.737 321.139 976.367 322.235Z" fill="#2B2B2B" stroke="#131313" stroke-width="6"/>
<circle cx="636" cy="86" r="39" fill="#2B2B2B"/>
<circle cx="540" cy="223" r="45" fill="#2B2B2B"/>
<circle cx="982" cy="223" r="45" fill="#2B2B2B"/>
<circle cx="886" cy="86" r="39" fill="#2B2B2B"/>
<circle cx="761" cy="190" r="46" fill="#2B2B2B"/>
<circle cx="333" cy="417" r="39" fill="#2B2B2B"/>
<circle cx="1189" cy="417" r="39" fill="#2B2B2B"/>
<circle cx="420" cy="329" r="31" fill="#2B2B2B"/>
<circle cx="761" cy="31" r="31" fill="#2B2B2B"/>
<circle cx="1102" cy="329" r="31" fill="#2B2B2B"/>
<circle cx="1107.5" cy="196.5" r="27.5" fill="#2B2B2B"/>
<circle cx="913.5" cy="353.5" r="27.5" fill="#2B2B2B"/>
<path fill-rule="evenodd" clip-rule="evenodd" d="M902.501 340.077C901.405 340.311 900.539 341.085 900.156 342.17L900.023 342.543L900.011 345.6C899.995 349.044 899.998 349.1 900.327 349.777C900.534 350.204 900.802 350.544 901.159 350.834C901.293 350.946 902.9 351.868 904.729 352.883L908.05 354.731L908.076 358.763C908.101 362.384 908.111 362.827 908.183 363.1C908.362 363.768 908.783 364.421 909.287 364.81C909.541 365.004 913.811 367.401 914.445 367.704C914.907 367.925 915.372 368.016 915.89 367.984C916.69 367.939 917.406 367.62 917.964 367.064C918.328 366.7 918.576 366.294 918.75 365.783L918.876 365.41L918.891 362.307L918.907 359.203L922.201 357.197C924.012 356.093 925.611 355.101 925.755 354.99C926.108 354.721 926.427 354.331 926.646 353.897C926.976 353.24 926.98 353.2 926.964 350.127L926.95 347.397L926.819 347.024C926.402 345.848 925.424 345.056 924.194 344.9C923.769 344.846 923.21 344.909 922.804 345.056C922.645 345.113 921.41 345.775 920.06 346.524C918.711 347.273 917.586 347.887 917.56 347.887C917.535 347.887 914.649 346.216 911.148 344.172C907.648 342.13 904.662 340.397 904.515 340.322C903.939 340.028 903.164 339.935 902.501 340.077ZM905.67 344.102L908.05 345.493L908.062 348.563C908.073 351.417 908.069 351.629 907.996 351.601C907.76 351.51 902.856 348.753 902.788 348.673C902.713 348.584 902.707 348.375 902.707 345.778V342.98L902.844 342.844C902.94 342.746 903.024 342.707 903.134 342.709C903.252 342.711 903.873 343.052 905.67 344.102ZM913.596 348.725L916.193 350.243V353.195C916.193 354.819 916.186 356.147 916.177 356.147C916.168 356.147 914.956 355.477 913.482 354.66L910.803 353.172L910.791 350.131L910.78 347.089L910.89 347.15C910.95 347.184 912.168 347.892 913.596 348.725ZM924.035 347.63C924.11 347.668 924.192 347.742 924.218 347.791C924.25 347.849 924.267 348.724 924.267 350.281C924.267 352.502 924.26 352.691 924.185 352.778C924.14 352.831 923.011 353.54 921.677 354.353C920.342 355.167 919.171 355.883 919.075 355.944L918.9 356.054L918.902 353.149L918.904 350.243L921.009 349.077C924.11 347.359 923.797 347.507 924.035 347.63ZM913.521 357.768L916.191 359.25L916.193 362.087C916.193 364.558 916.184 364.943 916.121 365.063C916.048 365.205 915.894 365.293 915.717 365.293C915.612 365.293 911.111 362.813 910.922 362.648L910.803 362.549L910.791 359.418C910.784 357.696 910.794 356.287 910.813 356.287C910.833 356.287 912.051 356.954 913.521 357.768Z" fill="white"/>
<circle cx="864.5" cy="249.5" r="27.5" fill="#2B2B2B"/>
<circle cx="610.5" cy="353.5" r="27.5" fill="#2B2B2B"/>
<circle cx="416.5" cy="196.5" r="27.5" fill="#2B2B2B"/>
<circle cx="661.5" cy="249.5" r="27.5" fill="#2B2B2B"/>
<path fill-rule="evenodd" clip-rule="evenodd" d="M763.403 37.1858C760.603 38.4899 757.997 38.4738 756.247 38.3498C754.16 38.1986 752.482 37.6283 751.745 37.1296C751.291 36.8214 750.674 36.941 750.364 37.397C750.055 37.8524 750.176 38.4679 750.632 38.7773C751.817 39.5802 753.914 40.1771 756.107 40.3354C756.479 40.3618 756.886 40.3792 757.326 40.3792C759.234 40.3792 761.655 40.1971 764.245 38.9924C764.744 38.7612 764.959 38.1695 764.727 37.6715C764.495 37.1729 763.904 36.9578 763.406 37.1903L763.403 37.1858ZM774.452 35.7143C774.549 27.0777 775.435 10.7563 758.901 12.0753C742.575 13.3898 746.904 30.6342 746.662 36.4094C746.445 39.4653 745.433 43.2 744 46.9993L748.412 47C748.864 45.3904 749.2 43.7968 749.341 42.2776C749.617 42.4699 749.903 42.6486 750.196 42.8131C750.691 43.1044 751.115 43.4913 751.566 43.9002C752.616 44.8588 753.808 45.9433 756.136 46.0789C756.291 46.088 756.448 46.0925 756.603 46.0925C758.96 46.0925 760.569 45.0622 761.862 44.2328C762.482 43.8369 763.017 43.4933 763.523 43.3292C764.956 42.8809 766.207 42.1568 767.144 41.2357C767.286 41.0945 767.423 40.9471 767.552 40.7939C768.074 42.7039 768.786 44.8542 769.578 46.998L779 46.9974C776.738 43.5042 774.404 40.0808 774.452 35.7117V35.7143ZM748.241 31.0153V31.0133C748.079 28.1951 749.427 25.824 751.253 25.7167C753.08 25.6088 754.69 27.8102 754.852 30.6277V30.6303C754.861 30.7814 754.865 30.9319 754.865 31.0805C754.286 31.2252 753.765 31.4371 753.296 31.6825C753.294 31.6612 753.294 31.6412 753.292 31.6192C753.137 30.0199 752.281 28.8107 751.382 28.9199C750.483 29.0284 749.882 30.4159 750.039 32.0152C750.107 32.7128 750.308 33.3361 750.588 33.807C750.517 33.8612 750.32 34.0059 750.096 34.17C749.925 34.2947 749.72 34.4451 749.47 34.6292C748.79 33.7366 748.324 32.4576 748.241 31.0088L748.241 31.0153ZM766.739 37.9829C766.674 39.473 764.727 40.8753 762.926 41.4373L762.915 41.4411C762.167 41.6847 761.499 42.1111 760.793 42.5632C759.606 43.3221 758.378 44.1076 756.607 44.1076C756.491 44.1076 756.37 44.1037 756.255 44.0972C754.631 44.0029 753.87 43.3092 752.91 42.4327C752.402 41.9715 751.878 41.4922 751.202 41.0956L751.186 41.0866C749.727 40.2623 748.822 39.2379 748.762 38.3459C748.734 37.9021 748.931 37.5191 749.348 37.2039C750.258 36.5212 750.869 36.0755 751.271 35.7803C751.72 35.4522 751.855 35.354 751.956 35.2578C752.034 35.1838 752.112 35.1087 752.188 35.0323C753.024 34.2204 754.421 32.8601 756.567 32.8601C757.88 32.8601 759.332 33.3652 760.879 34.3605C761.607 34.8353 762.242 35.0543 763.044 35.332C763.596 35.5226 764.223 35.7389 765.061 36.0981L765.074 36.1045C765.855 36.4262 766.781 37.0121 766.737 37.9816L766.739 37.9829ZM766.308 34.482C766.155 34.4035 765.998 34.3321 765.838 34.2681C765.083 33.9439 764.477 33.7256 763.974 33.5506C764.252 33.0079 764.425 32.3304 764.44 31.5953C764.48 29.8061 763.577 28.3508 762.424 28.3489C761.271 28.3476 760.306 29.7951 760.267 31.5843C760.264 31.6426 760.264 31.701 760.267 31.7594C759.558 31.4338 758.861 31.1948 758.176 31.0508C758.174 30.983 758.169 30.9177 758.167 30.8499V30.848C758.101 27.586 760.101 24.8867 762.636 24.8189C765.171 24.7511 767.277 27.3387 767.345 30.5981V30.6006C767.376 32.0746 766.98 33.433 766.306 34.4859L766.308 34.4821V34.482Z" fill="white"/>
<path fill-rule="evenodd" clip-rule="evenodd" d="M973.566 243.179C976.243 244.273 979.11 244.824 982.001 244.799C987.745 244.783 993.251 242.499 997.321 238.446C1001.39 234.392 1003.7 228.896 1003.74 223.151C1003.78 217.407 1001.55 211.879 997.533 207.77C993.52 203.66 988.046 201.301 982.302 201.205C979.412 201.14 976.537 201.651 973.846 202.708C971.155 203.765 968.701 205.346 966.627 207.361C964.553 209.375 962.9 211.782 961.765 214.441C960.63 217.1 960.035 219.958 960.015 222.849C959.995 225.74 960.55 228.606 961.649 231.281C962.747 233.955 964.366 236.384 966.412 238.427C968.458 240.47 970.89 242.085 973.566 243.179ZM978.706 224.429C978.66 224.413 978.623 224.376 978.53 224.283C978.529 224.287 978.527 224.291 978.525 224.294C978.225 225.12 977.887 225.946 977.549 226.772C977.231 227.55 976.912 228.328 976.625 229.106C976.607 229.161 976.589 229.215 976.571 229.269C976.268 229.949 976.003 230.667 975.738 231.386C975.475 232.099 975.212 232.812 974.912 233.488C974.87 233.528 974.839 233.569 974.811 233.608C974.737 233.708 974.677 233.79 974.459 233.79H971.441C971.441 233.738 971.459 233.687 971.483 233.636H971.44C971.44 233.558 971.48 233.482 971.519 233.406C971.558 233.332 971.597 233.258 971.597 233.183C973.174 229.501 974.715 225.781 976.256 222.061C977.808 218.314 979.36 214.566 980.95 210.857C981.403 209.952 982.006 209.499 982.911 209.8C983.124 209.865 983.318 209.982 983.476 210.14C983.634 210.297 983.75 210.492 983.815 210.705C984.265 211.756 984.716 212.843 985.166 213.931C985.621 215.03 986.076 216.13 986.531 217.191L992.414 231.221C992.533 231.663 992.585 232.121 992.57 232.578C992.533 232.84 992.43 233.088 992.271 233.299C992.111 233.509 991.9 233.675 991.658 233.781C991.416 233.887 991.151 233.929 990.888 233.904C990.625 233.878 990.373 233.785 990.156 233.635C989.475 233.169 988.82 232.666 988.195 232.127C987.058 231.207 985.921 230.305 984.791 229.41C982.773 227.81 980.776 226.228 978.842 224.585L978.842 224.585C978.81 224.525 978.784 224.477 978.763 224.438C978.741 224.437 978.723 224.435 978.706 224.429Z" fill="white"/>
<path d="M982.453 214.478C984.264 219.155 986.225 223.68 988.034 228.206C987.581 227.905 987.13 227.451 986.677 227.15C984.414 225.339 982.145 223.68 979.889 221.87C979.733 221.714 979.587 221.714 979.733 221.417C980.492 219.155 981.397 216.892 982.453 214.478Z" fill="white"/>
<path d="M1181.2 395L1197.04 403.929C1200.17 405.706 1202.75 409.663 1202.75 412.729V426.377C1202.75 429.466 1200.18 430.508 1197.05 428.737L1191.98 425.882V407.29L1181.2 401.196V395Z" fill="white"/>
<path d="M1189.82 408.621L1175.25 400.379V430.758L1189.82 439V408.621Z" fill="white"/>
<path d="M345.065 399.781L337.569 404.127V406.795L333 417.582L328.431 406.795V404.127L320.935 399.781L316.375 402.427V405.498L326.531 430.469L333 434.219L339.469 430.469L349.625 405.498V402.427L345.065 399.781Z" fill="white"/>
<g clip-path="url(#clip0_1_4718)">
<path d="M566.442 218.369C566.296 218.248 564.968 217.24 562.12 217.24C561.383 217.24 560.62 217.313 559.883 217.438C559.344 213.68 556.224 211.861 556.099 211.766L555.336 211.322L554.844 212.034C554.232 212.99 553.763 214.072 553.496 215.175C552.978 217.313 553.297 219.326 554.379 221.045C553.077 221.782 550.966 221.955 550.522 221.981H515.642C514.733 221.981 513.996 222.718 513.996 223.627C513.948 226.674 514.461 229.717 515.517 232.592C516.72 235.733 518.512 238.069 520.822 239.492C523.426 241.086 527.675 241.996 532.463 241.996C534.623 241.996 536.786 241.797 538.924 241.405C541.898 240.867 544.747 239.832 547.371 238.337C549.535 237.082 551.474 235.488 553.121 233.622C555.896 230.501 557.542 227.015 558.745 223.92C558.917 223.92 559.064 223.92 559.236 223.92C562.257 223.92 564.124 222.718 565.154 221.683C565.843 221.045 566.356 220.257 566.727 219.373L566.947 218.735L566.442 218.369ZM544.854 220.972H549.522C549.742 220.972 549.94 220.8 549.94 220.554V216.378C549.94 216.158 549.767 215.96 549.522 215.96H544.854C544.634 215.96 544.436 216.132 544.436 216.378V220.554C544.462 220.8 544.634 220.972 544.854 220.972ZM538.346 209.012H543.014C543.234 209.012 543.432 208.84 543.432 208.594V204.418C543.432 204.198 543.234 204 543.014 204H538.346C538.127 204 537.928 204.172 537.928 204.418V208.594C537.928 208.814 538.122 209.012 538.346 209.012ZM538.346 215.003H543.014C543.234 215.003 543.432 214.805 543.432 214.585V210.409C543.432 210.189 543.234 209.991 543.014 209.991H538.346C538.127 209.991 537.928 210.163 537.928 210.409V214.585C537.928 214.809 538.122 215.003 538.346 215.003ZM531.886 215.003H536.553C536.773 215.003 536.972 214.805 536.972 214.585V210.409C536.972 210.189 536.799 209.991 536.553 209.991H531.886C531.666 209.991 531.468 210.163 531.468 210.409V214.585C531.468 214.809 531.64 215.003 531.886 215.003ZM525.326 215.003H529.994C530.214 215.003 530.412 214.805 530.412 214.585V210.409C530.412 210.189 530.24 209.991 529.994 209.991H525.326C525.106 209.991 524.908 210.163 524.908 210.409V214.585C524.934 214.809 525.106 215.003 525.326 215.003ZM538.346 220.972H543.014C543.234 220.972 543.432 220.8 543.432 220.554V216.378C543.432 216.158 543.26 215.96 543.014 215.96H538.346C538.127 215.96 537.928 216.132 537.928 216.378V220.554C537.928 220.8 538.122 220.972 538.346 220.972ZM531.886 220.972H536.553C536.773 220.972 536.972 220.8 536.972 220.554V216.378C536.972 216.158 536.799 215.96 536.553 215.96H531.886C531.666 215.96 531.468 216.132 531.468 216.378V220.554C531.468 220.8 531.64 220.972 531.886 220.972ZM525.326 220.972H529.994C530.214 220.972 530.412 220.8 530.412 220.554V216.378C530.412 216.158 530.24 215.96 529.994 215.96H525.326C525.106 215.96 524.908 216.132 524.908 216.378V220.554C524.934 220.8 525.106 220.972 525.326 220.972ZM518.892 220.972H523.559C523.779 220.972 523.977 220.8 523.977 220.554V216.378C523.977 216.158 523.805 215.96 523.559 215.96H518.892C518.672 215.96 518.474 216.132 518.474 216.378V220.554C518.499 220.8 518.672 220.972 518.892 220.972Z" fill="white"/>
</g>
<g clip-path="url(#clip1_1_4718)">
<path d="M599.67 336.431C599.335 336.432 599.008 336.538 598.737 336.735C598.465 336.931 598.263 337.209 598.158 337.527L594.152 349.85C594.152 349.861 594.144 349.869 594.141 349.882L592.111 356.114C591.962 356.571 591.962 357.063 592.111 357.52C592.259 357.977 592.549 358.376 592.938 358.658L610.468 371.396C610.623 371.508 610.809 371.568 611 371.567C611.19 371.566 611.376 371.504 611.529 371.39L629.063 358.66C629.453 358.377 629.743 357.978 629.892 357.52C630.04 357.062 630.039 356.568 629.889 356.111L627.894 349.988C627.884 349.931 627.867 349.876 627.845 349.823L623.846 337.513C623.739 337.196 623.535 336.921 623.263 336.726C622.991 336.532 622.665 336.428 622.331 336.43C621.996 336.427 621.67 336.532 621.399 336.728C621.129 336.925 620.929 337.203 620.828 337.522L617.018 349.252H604.988L601.172 337.522C601.072 337.205 600.874 336.928 600.605 336.731C600.336 336.535 600.012 336.429 599.679 336.43L599.67 336.431ZM599.66 338.68L603.103 349.253H596.234L599.66 338.68ZM622.346 338.68L625.779 349.253H618.904L622.346 338.68ZM605.573 351.045H616.437L613.033 361.524L611 367.764L605.573 351.047V351.045ZM596.84 351.053H603.684L608.57 366.095L596.84 351.053ZM618.323 351.053H625.173L614.56 364.651L613.437 366.098L618.122 351.677L618.323 351.053ZM595.325 352.04L606.374 366.206L593.995 357.209C593.912 357.15 593.851 357.065 593.819 356.968C593.787 356.871 593.787 356.767 593.818 356.669L595.325 352.04ZM626.675 352.04L628.183 356.666C628.214 356.763 628.214 356.868 628.183 356.965C628.152 357.062 628.091 357.146 628.008 357.206V357.209L615.627 366.203L615.666 366.147L626.675 352.04Z" fill="white"/>
</g>
<path d="M882.728 392.88V394.368H879.768V404H877.944V394.368H874.968V392.88H882.728ZM892.655 399.376C892.655 399.707 892.634 400.005 892.591 400.272H885.855C885.908 400.976 886.17 401.541 886.639 401.968C887.108 402.395 887.684 402.608 888.367 402.608C889.348 402.608 890.042 402.197 890.447 401.376H892.415C892.148 402.187 891.663 402.853 890.959 403.376C890.266 403.888 889.402 404.144 888.367 404.144C887.524 404.144 886.767 403.957 886.095 403.584C885.434 403.2 884.911 402.667 884.527 401.984C884.154 401.291 883.967 400.491 883.967 399.584C883.967 398.677 884.148 397.883 884.511 397.2C884.884 396.507 885.402 395.973 886.063 395.6C886.735 395.227 887.503 395.04 888.367 395.04C889.199 395.04 889.94 395.221 890.591 395.584C891.242 395.947 891.748 396.459 892.111 397.12C892.474 397.771 892.655 398.523 892.655 399.376ZM890.751 398.8C890.74 398.128 890.5 397.589 890.031 397.184C889.562 396.779 888.98 396.576 888.287 396.576C887.658 396.576 887.119 396.779 886.671 397.184C886.223 397.579 885.956 398.117 885.871 398.8H890.751ZM896.274 396.464C896.541 396.016 896.893 395.669 897.33 395.424C897.778 395.168 898.306 395.04 898.914 395.04V396.928H898.45C897.735 396.928 897.191 397.109 896.818 397.472C896.455 397.835 896.274 398.464 896.274 399.36V404H894.45V395.184H896.274V396.464ZM902.415 396.464C902.681 396.016 903.033 395.669 903.471 395.424C903.919 395.168 904.447 395.04 905.055 395.04V396.928H904.591C903.876 396.928 903.332 397.109 902.959 397.472C902.596 397.835 902.415 398.464 902.415 399.36V404H900.591V395.184H902.415V396.464ZM906.123 399.552C906.123 398.667 906.305 397.883 906.667 397.2C907.041 396.517 907.542 395.989 908.171 395.616C908.811 395.232 909.515 395.04 910.283 395.04C910.977 395.04 911.579 395.179 912.091 395.456C912.614 395.723 913.03 396.059 913.339 396.464V395.184H915.179V404H913.339V402.688C913.03 403.104 912.609 403.451 912.075 403.728C911.542 404.005 910.934 404.144 910.251 404.144C909.494 404.144 908.801 403.952 908.171 403.568C907.542 403.173 907.041 402.629 906.667 401.936C906.305 401.232 906.123 400.437 906.123 399.552ZM913.339 399.584C913.339 398.976 913.211 398.448 912.955 398C912.71 397.552 912.385 397.211 911.979 396.976C911.574 396.741 911.137 396.624 910.667 396.624C910.198 396.624 909.761 396.741 909.355 396.976C908.95 397.2 908.619 397.536 908.363 397.984C908.118 398.421 907.995 398.944 907.995 399.552C907.995 400.16 908.118 400.693 908.363 401.152C908.619 401.611 908.95 401.963 909.355 402.208C909.771 402.443 910.209 402.56 910.667 402.56C911.137 402.56 911.574 402.443 911.979 402.208C912.385 401.973 912.71 401.632 912.955 401.184C913.211 400.725 913.339 400.192 913.339 399.584ZM921.271 396.672H919.639V404H917.799V396.672H916.759V395.184H917.799V394.56C917.799 393.547 918.066 392.811 918.599 392.352C919.143 391.883 919.991 391.648 921.143 391.648V393.168C920.588 393.168 920.199 393.275 919.975 393.488C919.751 393.691 919.639 394.048 919.639 394.56V395.184H921.271V396.672ZM926.712 404.144C925.88 404.144 925.128 403.957 924.456 403.584C923.784 403.2 923.256 402.667 922.872 401.984C922.488 401.291 922.296 400.491 922.296 399.584C922.296 398.688 922.493 397.893 922.888 397.2C923.282 396.507 923.821 395.973 924.504 395.6C925.186 395.227 925.949 395.04 926.792 395.04C927.634 395.04 928.397 395.227 929.08 395.6C929.762 395.973 930.301 396.507 930.696 397.2C931.09 397.893 931.288 398.688 931.288 399.584C931.288 400.48 931.085 401.275 930.68 401.968C930.274 402.661 929.72 403.2 929.016 403.584C928.322 403.957 927.554 404.144 926.712 404.144ZM926.712 402.56C927.181 402.56 927.618 402.448 928.024 402.224C928.44 402 928.776 401.664 929.032 401.216C929.288 400.768 929.416 400.224 929.416 399.584C929.416 398.944 929.293 398.405 929.048 397.968C928.802 397.52 928.477 397.184 928.072 396.96C927.666 396.736 927.229 396.624 926.76 396.624C926.29 396.624 925.853 396.736 925.448 396.96C925.053 397.184 924.738 397.52 924.504 397.968C924.269 398.405 924.152 398.944 924.152 399.584C924.152 400.533 924.392 401.269 924.872 401.792C925.362 402.304 925.976 402.56 926.712 402.56ZM934.915 396.464C935.181 396.016 935.533 395.669 935.971 395.424C936.419 395.168 936.947 395.04 937.555 395.04V396.928H937.091C936.376 396.928 935.832 397.109 935.459 397.472C935.096 397.835 934.915 398.464 934.915 399.36V404H933.091V395.184H934.915V396.464ZM949.903 395.04C950.597 395.04 951.215 395.184 951.759 395.472C952.314 395.76 952.746 396.187 953.055 396.752C953.375 397.317 953.535 398 953.535 398.8V404H951.727V399.072C951.727 398.283 951.53 397.68 951.135 397.264C950.741 396.837 950.202 396.624 949.519 396.624C948.837 396.624 948.293 396.837 947.887 397.264C947.493 397.68 947.295 398.283 947.295 399.072V404H945.487V399.072C945.487 398.283 945.29 397.68 944.895 397.264C944.501 396.837 943.962 396.624 943.279 396.624C942.597 396.624 942.053 396.837 941.647 397.264C941.253 397.68 941.055 398.283 941.055 399.072V404H939.231V395.184H941.055V396.192C941.354 395.829 941.733 395.547 942.191 395.344C942.65 395.141 943.141 395.04 943.663 395.04C944.367 395.04 944.997 395.189 945.551 395.488C946.106 395.787 946.533 396.219 946.831 396.784C947.098 396.251 947.514 395.829 948.079 395.52C948.645 395.2 949.253 395.04 949.903 395.04Z" fill="white"/>
<path d="M517.324 277.88C518.508 277.88 519.543 278.109 520.428 278.568C521.324 279.016 522.012 279.667 522.492 280.52C522.983 281.363 523.228 282.349 523.228 283.48C523.228 284.611 522.983 285.592 522.492 286.424C522.012 287.256 521.324 287.896 520.428 288.344C519.543 288.781 518.508 289 517.324 289H513.692V277.88H517.324ZM517.324 287.512C518.626 287.512 519.623 287.16 520.316 286.456C521.01 285.752 521.356 284.76 521.356 283.48C521.356 282.189 521.01 281.181 520.316 280.456C519.623 279.731 518.626 279.368 517.324 279.368H515.516V287.512H517.324ZM528.86 289.144C528.028 289.144 527.276 288.957 526.604 288.584C525.932 288.2 525.404 287.667 525.02 286.984C524.636 286.291 524.444 285.491 524.444 284.584C524.444 283.688 524.641 282.893 525.036 282.2C525.431 281.507 525.969 280.973 526.652 280.6C527.335 280.227 528.097 280.04 528.94 280.04C529.783 280.04 530.545 280.227 531.228 280.6C531.911 280.973 532.449 281.507 532.844 282.2C533.239 282.893 533.436 283.688 533.436 284.584C533.436 285.48 533.233 286.275 532.828 286.968C532.423 287.661 531.868 288.2 531.164 288.584C530.471 288.957 529.703 289.144 528.86 289.144ZM528.86 287.56C529.329 287.56 529.767 287.448 530.172 287.224C530.588 287 530.924 286.664 531.18 286.216C531.436 285.768 531.564 285.224 531.564 284.584C531.564 283.944 531.441 283.405 531.196 282.968C530.951 282.52 530.625 282.184 530.22 281.96C529.815 281.736 529.377 281.624 528.908 281.624C528.439 281.624 528.001 281.736 527.596 281.96C527.201 282.184 526.887 282.52 526.652 282.968C526.417 283.405 526.3 283.944 526.3 284.584C526.3 285.533 526.54 286.269 527.02 286.792C527.511 287.304 528.124 287.56 528.86 287.56ZM534.631 284.584C534.631 283.677 534.812 282.883 535.175 282.2C535.548 281.507 536.06 280.973 536.711 280.6C537.362 280.227 538.108 280.04 538.951 280.04C540.018 280.04 540.898 280.296 541.591 280.808C542.295 281.309 542.77 282.029 543.015 282.968H541.047C540.887 282.531 540.631 282.189 540.279 281.944C539.927 281.699 539.484 281.576 538.951 281.576C538.204 281.576 537.607 281.843 537.159 282.376C536.722 282.899 536.503 283.635 536.503 284.584C536.503 285.533 536.722 286.275 537.159 286.808C537.607 287.341 538.204 287.608 538.951 287.608C540.007 287.608 540.706 287.144 541.047 286.216H543.015C542.759 287.112 542.279 287.827 541.575 288.36C540.871 288.883 539.996 289.144 538.951 289.144C538.108 289.144 537.362 288.957 536.711 288.584C536.06 288.2 535.548 287.667 535.175 286.984C534.812 286.291 534.631 285.491 534.631 284.584ZM548.321 284.6L552.385 289H549.921L546.657 285.208V289H544.833V277.16H546.657V284.04L549.857 280.184H552.385L548.321 284.6ZM561.772 284.376C561.772 284.707 561.751 285.005 561.708 285.272H554.972C555.026 285.976 555.287 286.541 555.756 286.968C556.226 287.395 556.802 287.608 557.484 287.608C558.466 287.608 559.159 287.197 559.564 286.376H561.532C561.266 287.187 560.78 287.853 560.076 288.376C559.383 288.888 558.519 289.144 557.484 289.144C556.642 289.144 555.884 288.957 555.212 288.584C554.551 288.2 554.028 287.667 553.644 286.984C553.271 286.291 553.084 285.491 553.084 284.584C553.084 283.677 553.266 282.883 553.628 282.2C554.002 281.507 554.519 280.973 555.18 280.6C555.852 280.227 556.62 280.04 557.484 280.04C558.316 280.04 559.058 280.221 559.708 280.584C560.359 280.947 560.866 281.459 561.228 282.12C561.591 282.771 561.772 283.523 561.772 284.376ZM559.868 283.8C559.858 283.128 559.618 282.589 559.148 282.184C558.679 281.779 558.098 281.576 557.404 281.576C556.775 281.576 556.236 281.779 555.788 282.184C555.34 282.579 555.074 283.117 554.988 283.8H559.868ZM565.391 281.464C565.658 281.016 566.01 280.669 566.447 280.424C566.895 280.168 567.423 280.04 568.031 280.04V281.928H567.567C566.853 281.928 566.309 282.109 565.935 282.472C565.573 282.835 565.391 283.464 565.391 284.36V289H563.567V280.184H565.391V281.464Z" fill="white"/>
<path d="M585.646 396.08C585.358 395.525 584.958 395.109 584.446 394.832C583.934 394.544 583.342 394.4 582.67 394.4C581.934 394.4 581.278 394.565 580.702 394.896C580.126 395.227 579.673 395.696 579.342 396.304C579.022 396.912 578.862 397.616 578.862 398.416C578.862 399.216 579.022 399.925 579.342 400.544C579.673 401.152 580.126 401.621 580.702 401.952C581.278 402.283 581.934 402.448 582.67 402.448C583.662 402.448 584.468 402.171 585.086 401.616C585.705 401.061 586.084 400.309 586.222 399.36H582.046V397.904H588.174V399.328C588.057 400.192 587.748 400.987 587.246 401.712C586.756 402.437 586.11 403.019 585.31 403.456C584.521 403.883 583.641 404.096 582.67 404.096C581.625 404.096 580.67 403.856 579.806 403.376C578.942 402.885 578.254 402.208 577.742 401.344C577.241 400.48 576.99 399.504 576.99 398.416C576.99 397.328 577.241 396.352 577.742 395.488C578.254 394.624 578.942 393.952 579.806 393.472C580.681 392.981 581.636 392.736 582.67 392.736C583.854 392.736 584.905 393.029 585.822 393.616C586.75 394.192 587.422 395.013 587.838 396.08H585.646ZM590.901 394.016C590.571 394.016 590.293 393.904 590.069 393.68C589.845 393.456 589.733 393.179 589.733 392.848C589.733 392.517 589.845 392.24 590.069 392.016C590.293 391.792 590.571 391.68 590.901 391.68C591.221 391.68 591.493 391.792 591.717 392.016C591.941 392.24 592.053 392.517 592.053 392.848C592.053 393.179 591.941 393.456 591.717 393.68C591.493 393.904 591.221 394.016 590.901 394.016ZM591.797 395.184V404H589.973V395.184H591.797ZM596.32 396.672V401.552C596.32 401.883 596.395 402.123 596.544 402.272C596.704 402.411 596.971 402.48 597.344 402.48H598.464V404H597.024C596.203 404 595.574 403.808 595.136 403.424C594.699 403.04 594.48 402.416 594.48 401.552V396.672H593.44V395.184H594.48V392.992H596.32V395.184H598.464V396.672H596.32ZM601.969 392.16V404H600.145V392.16H601.969ZM603.756 399.552C603.756 398.667 603.937 397.883 604.3 397.2C604.673 396.517 605.175 395.989 605.804 395.616C606.444 395.232 607.148 395.04 607.916 395.04C608.609 395.04 609.212 395.179 609.724 395.456C610.247 395.723 610.663 396.059 610.972 396.464V395.184H612.812V404H610.972V402.688C610.663 403.104 610.241 403.451 609.708 403.728C609.175 404.005 608.567 404.144 607.884 404.144C607.127 404.144 606.433 403.952 605.804 403.568C605.175 403.173 604.673 402.629 604.3 401.936C603.937 401.232 603.756 400.437 603.756 399.552ZM610.972 399.584C610.972 398.976 610.844 398.448 610.588 398C610.343 397.552 610.017 397.211 609.612 396.976C609.207 396.741 608.769 396.624 608.3 396.624C607.831 396.624 607.393 396.741 606.988 396.976C606.583 397.2 606.252 397.536 605.996 397.984C605.751 398.421 605.628 398.944 605.628 399.552C605.628 400.16 605.751 400.693 605.996 401.152C606.252 401.611 606.583 401.963 606.988 402.208C607.404 402.443 607.841 402.56 608.3 402.56C608.769 402.56 609.207 402.443 609.612 402.208C610.017 401.973 610.343 401.632 610.588 401.184C610.844 400.725 610.972 400.192 610.972 399.584ZM617.032 396.496C617.341 396.069 617.762 395.723 618.296 395.456C618.84 395.179 619.442 395.04 620.104 395.04C620.882 395.04 621.586 395.227 622.216 395.6C622.845 395.973 623.341 396.507 623.704 397.2C624.066 397.883 624.248 398.667 624.248 399.552C624.248 400.437 624.066 401.232 623.704 401.936C623.341 402.629 622.84 403.173 622.2 403.568C621.57 403.952 620.872 404.144 620.104 404.144C619.421 404.144 618.813 404.011 618.28 403.744C617.757 403.477 617.341 403.136 617.032 402.72V404H615.208V392.16H617.032V396.496ZM622.392 399.552C622.392 398.944 622.264 398.421 622.008 397.984C621.762 397.536 621.432 397.2 621.016 396.976C620.61 396.741 620.173 396.624 619.704 396.624C619.245 396.624 618.808 396.741 618.392 396.976C617.986 397.211 617.656 397.552 617.4 398C617.154 398.448 617.032 398.976 617.032 399.584C617.032 400.192 617.154 400.725 617.4 401.184C617.656 401.632 617.986 401.973 618.392 402.208C618.808 402.443 619.245 402.56 619.704 402.56C620.173 402.56 620.61 402.443 621.016 402.208C621.432 401.963 621.762 401.611 622.008 401.152C622.264 400.693 622.392 400.16 622.392 399.552ZM629.6 398.416C629.6 397.328 629.85 396.352 630.352 395.488C630.864 394.624 631.552 393.952 632.416 393.472C633.29 392.981 634.245 392.736 635.28 392.736C636.464 392.736 637.514 393.029 638.432 393.616C639.36 394.192 640.032 395.013 640.448 396.08H638.256C637.968 395.493 637.568 395.056 637.056 394.768C636.544 394.48 635.952 394.336 635.28 394.336C634.544 394.336 633.888 394.501 633.312 394.832C632.736 395.163 632.282 395.637 631.952 396.256C631.632 396.875 631.472 397.595 631.472 398.416C631.472 399.237 631.632 399.957 631.952 400.576C632.282 401.195 632.736 401.675 633.312 402.016C633.888 402.347 634.544 402.512 635.28 402.512C635.952 402.512 636.544 402.368 637.056 402.08C637.568 401.792 637.968 401.355 638.256 400.768H640.448C640.032 401.835 639.36 402.656 638.432 403.232C637.514 403.808 636.464 404.096 635.28 404.096C634.234 404.096 633.28 403.856 632.416 403.376C631.552 402.885 630.864 402.208 630.352 401.344C629.85 400.48 629.6 399.504 629.6 398.416ZM644.407 392.88V404H642.583V392.88H644.407Z" fill="white"/>
<path d="M744.477 82.528H748.237V84H742.653V72.88H744.477V82.528ZM750.691 74.016C750.36 74.016 750.083 73.904 749.859 73.68C749.635 73.456 749.523 73.1787 749.523 72.848C749.523 72.5173 749.635 72.24 749.859 72.016C750.083 71.792 750.36 71.68 750.691 71.68C751.011 71.68 751.283 71.792 751.507 72.016C751.731 72.24 751.843 72.5173 751.843 72.848C751.843 73.1787 751.731 73.456 751.507 73.68C751.283 73.904 751.011 74.016 750.691 74.016ZM751.587 75.184V84H749.763V75.184H751.587ZM758.429 75.04C759.123 75.04 759.741 75.184 760.285 75.472C760.84 75.76 761.272 76.1867 761.581 76.752C761.891 77.3173 762.045 78 762.045 78.8V84H760.237V79.072C760.237 78.2827 760.04 77.68 759.645 77.264C759.251 76.8373 758.712 76.624 758.029 76.624C757.347 76.624 756.803 76.8373 756.397 77.264C756.003 77.68 755.805 78.2827 755.805 79.072V84H753.981V75.184H755.805V76.192C756.104 75.8293 756.483 75.5467 756.941 75.344C757.411 75.1413 757.907 75.04 758.429 75.04ZM772.356 75.184V84H770.532V82.96C770.244 83.3227 769.865 83.6107 769.396 83.824C768.937 84.0267 768.447 84.128 767.924 84.128C767.231 84.128 766.607 83.984 766.052 83.696C765.508 83.408 765.076 82.9813 764.756 82.416C764.447 81.8507 764.292 81.168 764.292 80.368V75.184H766.1V80.096C766.1 80.8853 766.297 81.4933 766.692 81.92C767.087 82.336 767.625 82.544 768.308 82.544C768.991 82.544 769.529 82.336 769.924 81.92C770.329 81.4933 770.532 80.8853 770.532 80.096V75.184H772.356ZM778.539 79.536L781.387 84H779.323L777.419 81.008L775.627 84H773.723L776.571 79.664L773.723 75.184H775.787L777.691 78.176L779.483 75.184H781.387L778.539 79.536Z" fill="white"/>
<path d="M960.279 286.728H955.623L954.823 289H952.919L956.903 277.864H959.015L962.999 289H961.079L960.279 286.728ZM959.767 285.24L957.959 280.072L956.135 285.24H959.767ZM969.179 280.04C969.873 280.04 970.491 280.184 971.035 280.472C971.59 280.76 972.022 281.187 972.331 281.752C972.641 282.317 972.795 283 972.795 283.8V289H970.987V284.072C970.987 283.283 970.79 282.68 970.395 282.264C970.001 281.837 969.462 281.624 968.779 281.624C968.097 281.624 967.553 281.837 967.147 282.264C966.753 282.68 966.555 283.283 966.555 284.072V289H964.731V280.184H966.555V281.192C966.854 280.829 967.233 280.547 967.691 280.344C968.161 280.141 968.657 280.04 969.179 280.04ZM978.322 289.144C977.629 289.144 977.005 289.021 976.45 288.776C975.906 288.52 975.474 288.179 975.154 287.752C974.834 287.315 974.663 286.829 974.642 286.296H976.53C976.562 286.669 976.738 286.984 977.058 287.24C977.389 287.485 977.799 287.608 978.29 287.608C978.802 287.608 979.197 287.512 979.474 287.32C979.762 287.117 979.906 286.861 979.906 286.552C979.906 286.221 979.746 285.976 979.426 285.816C979.117 285.656 978.621 285.48 977.938 285.288C977.277 285.107 976.738 284.931 976.322 284.76C975.906 284.589 975.543 284.328 975.234 283.976C974.935 283.624 974.786 283.16 974.786 282.584C974.786 282.115 974.925 281.688 975.202 281.304C975.479 280.909 975.874 280.6 976.386 280.376C976.909 280.152 977.506 280.04 978.178 280.04C979.181 280.04 979.986 280.296 980.594 280.808C981.213 281.309 981.543 281.997 981.586 282.872H979.762C979.73 282.477 979.57 282.163 979.282 281.928C978.994 281.693 978.605 281.576 978.114 281.576C977.634 281.576 977.266 281.667 977.01 281.848C976.754 282.029 976.626 282.269 976.626 282.568C976.626 282.803 976.711 283 976.882 283.16C977.053 283.32 977.261 283.448 977.506 283.544C977.751 283.629 978.114 283.741 978.594 283.88C979.234 284.051 979.757 284.227 980.162 284.408C980.578 284.579 980.935 284.835 981.234 285.176C981.533 285.517 981.687 285.971 981.698 286.536C981.698 287.037 981.559 287.485 981.282 287.88C981.005 288.275 980.61 288.584 980.098 288.808C979.597 289.032 979.005 289.144 978.322 289.144ZM984.597 279.016C984.266 279.016 983.989 278.904 983.765 278.68C983.541 278.456 983.429 278.179 983.429 277.848C983.429 277.517 983.541 277.24 983.765 277.016C983.989 276.792 984.266 276.68 984.597 276.68C984.917 276.68 985.189 276.792 985.413 277.016C985.637 277.24 985.749 277.517 985.749 277.848C985.749 278.179 985.637 278.456 985.413 278.68C985.189 278.904 984.917 279.016 984.597 279.016ZM985.493 280.184V289H983.669V280.184H985.493ZM989.712 281.496C990.021 281.069 990.442 280.723 990.976 280.456C991.52 280.179 992.122 280.04 992.784 280.04C993.562 280.04 994.266 280.227 994.896 280.6C995.525 280.973 996.021 281.507 996.384 282.2C996.746 282.883 996.928 283.667 996.928 284.552C996.928 285.437 996.746 286.232 996.384 286.936C996.021 287.629 995.52 288.173 994.88 288.568C994.25 288.952 993.552 289.144 992.784 289.144C992.101 289.144 991.493 289.011 990.96 288.744C990.437 288.477 990.021 288.136 989.712 287.72V289H987.888V277.16H989.712V281.496ZM995.072 284.552C995.072 283.944 994.944 283.421 994.688 282.984C994.442 282.536 994.112 282.2 993.696 281.976C993.29 281.741 992.853 281.624 992.384 281.624C991.925 281.624 991.488 281.741 991.072 281.976C990.666 282.211 990.336 282.552 990.08 283C989.834 283.448 989.712 283.976 989.712 284.584C989.712 285.192 989.834 285.725 990.08 286.184C990.336 286.632 990.666 286.973 991.072 287.208C991.488 287.443 991.925 287.56 992.384 287.56C992.853 287.56 993.29 287.443 993.696 287.208C994.112 286.963 994.442 286.611 994.688 286.152C994.944 285.693 995.072 285.16 995.072 284.552ZM1000.56 277.16V289H998.731V277.16H1000.56ZM1011.03 284.376C1011.03 284.707 1011.01 285.005 1010.97 285.272H1004.23C1004.28 285.976 1004.54 286.541 1005.01 286.968C1005.48 287.395 1006.06 287.608 1006.74 287.608C1007.72 287.608 1008.42 287.197 1008.82 286.376H1010.79C1010.52 287.187 1010.04 287.853 1009.33 288.376C1008.64 288.888 1007.78 289.144 1006.74 289.144C1005.9 289.144 1005.14 288.957 1004.47 288.584C1003.81 288.2 1003.29 287.667 1002.9 286.984C1002.53 286.291 1002.34 285.491 1002.34 284.584C1002.34 283.677 1002.52 282.883 1002.89 282.2C1003.26 281.507 1003.78 280.973 1004.44 280.6C1005.11 280.227 1005.88 280.04 1006.74 280.04C1007.57 280.04 1008.32 280.221 1008.97 280.584C1009.62 280.947 1010.12 281.459 1010.49 282.12C1010.85 282.771 1011.03 283.523 1011.03 284.376ZM1009.13 283.8C1009.12 283.128 1008.88 282.589 1008.41 282.184C1007.94 281.779 1007.36 281.576 1006.66 281.576C1006.03 281.576 1005.49 281.779 1005.05 282.184C1004.6 282.579 1004.33 283.117 1004.25 283.8H1009.13Z" fill="white"/>
<path d="M1171.06 470.192C1171.06 470.757 1170.93 471.291 1170.66 471.792C1170.4 472.293 1169.97 472.704 1169.38 473.024C1168.8 473.333 1168.04 473.488 1167.13 473.488H1165.11V478H1163.29V466.88H1167.13C1167.98 466.88 1168.7 467.029 1169.29 467.328C1169.88 467.616 1170.33 468.011 1170.61 468.512C1170.91 469.013 1171.06 469.573 1171.06 470.192ZM1167.13 472C1167.82 472 1168.34 471.845 1168.68 471.536C1169.02 471.216 1169.19 470.768 1169.19 470.192C1169.19 468.976 1168.5 468.368 1167.13 468.368H1165.11V472H1167.13ZM1172.19 473.552C1172.19 472.667 1172.37 471.883 1172.74 471.2C1173.11 470.517 1173.61 469.989 1174.24 469.616C1174.88 469.232 1175.59 469.04 1176.35 469.04C1177.05 469.04 1177.65 469.179 1178.16 469.456C1178.68 469.723 1179.1 470.059 1179.41 470.464V469.184H1181.25V478H1179.41V476.688C1179.1 477.104 1178.68 477.451 1178.15 477.728C1177.61 478.005 1177 478.144 1176.32 478.144C1175.56 478.144 1174.87 477.952 1174.24 477.568C1173.61 477.173 1173.11 476.629 1172.74 475.936C1172.37 475.232 1172.19 474.437 1172.19 473.552ZM1179.41 473.584C1179.41 472.976 1179.28 472.448 1179.03 472C1178.78 471.552 1178.45 471.211 1178.05 470.976C1177.64 470.741 1177.21 470.624 1176.74 470.624C1176.27 470.624 1175.83 470.741 1175.43 470.976C1175.02 471.2 1174.69 471.536 1174.43 471.984C1174.19 472.421 1174.07 472.944 1174.07 473.552C1174.07 474.16 1174.19 474.693 1174.43 475.152C1174.69 475.611 1175.02 475.963 1175.43 476.208C1175.84 476.443 1176.28 476.56 1176.74 476.56C1177.21 476.56 1177.64 476.443 1178.05 476.208C1178.45 475.973 1178.78 475.632 1179.03 475.184C1179.28 474.725 1179.41 474.192 1179.41 473.584ZM1183.04 473.584C1183.04 472.677 1183.22 471.883 1183.58 471.2C1183.95 470.507 1184.47 469.973 1185.12 469.6C1185.77 469.227 1186.51 469.04 1187.36 469.04C1188.42 469.04 1189.3 469.296 1190 469.808C1190.7 470.309 1191.18 471.029 1191.42 471.968H1189.45C1189.29 471.531 1189.04 471.189 1188.69 470.944C1188.33 470.699 1187.89 470.576 1187.36 470.576C1186.61 470.576 1186.01 470.843 1185.57 471.376C1185.13 471.899 1184.91 472.635 1184.91 473.584C1184.91 474.533 1185.13 475.275 1185.57 475.808C1186.01 476.341 1186.61 476.608 1187.36 476.608C1188.41 476.608 1189.11 476.144 1189.45 475.216H1191.42C1191.17 476.112 1190.69 476.827 1189.98 477.36C1189.28 477.883 1188.4 478.144 1187.36 478.144C1186.51 478.144 1185.77 477.957 1185.12 477.584C1184.47 477.2 1183.95 476.667 1183.58 475.984C1183.22 475.291 1183.04 474.491 1183.04 473.584ZM1196.73 473.6L1200.79 478H1198.33L1195.06 474.208V478H1193.24V466.16H1195.06V473.04L1198.26 469.184H1200.79L1196.73 473.6ZM1210.18 473.376C1210.18 473.707 1210.16 474.005 1210.11 474.272H1203.38C1203.43 474.976 1203.69 475.541 1204.16 475.968C1204.63 476.395 1205.21 476.608 1205.89 476.608C1206.87 476.608 1207.57 476.197 1207.97 475.376H1209.94C1209.67 476.187 1209.19 476.853 1208.48 477.376C1207.79 477.888 1206.93 478.144 1205.89 478.144C1205.05 478.144 1204.29 477.957 1203.62 477.584C1202.96 477.2 1202.43 476.667 1202.05 475.984C1201.68 475.291 1201.49 474.491 1201.49 473.584C1201.49 472.677 1201.67 471.883 1202.03 471.2C1202.41 470.507 1202.93 469.973 1203.59 469.6C1204.26 469.227 1205.03 469.04 1205.89 469.04C1206.72 469.04 1207.46 469.221 1208.11 469.584C1208.77 469.947 1209.27 470.459 1209.63 471.12C1210 471.771 1210.18 472.523 1210.18 473.376ZM1208.27 472.8C1208.26 472.128 1208.02 471.589 1207.55 471.184C1207.09 470.779 1206.5 470.576 1205.81 470.576C1205.18 470.576 1204.64 470.779 1204.19 471.184C1203.75 471.579 1203.48 472.117 1203.39 472.8H1208.27ZM1213.8 470.464C1214.06 470.016 1214.42 469.669 1214.85 469.424C1215.3 469.168 1215.83 469.04 1216.44 469.04V470.928H1215.97C1215.26 470.928 1214.71 471.109 1214.34 471.472C1213.98 471.835 1213.8 472.464 1213.8 473.36V478H1211.97V469.184H1213.8V470.464Z" fill="white"/>
<path d="M310.222 466.88L306.046 478H303.934L299.742 466.88H301.694L304.99 476.128L308.302 466.88H310.222ZM311.139 473.552C311.139 472.667 311.32 471.883 311.683 471.2C312.056 470.517 312.558 469.989 313.187 469.616C313.827 469.232 314.531 469.04 315.299 469.04C315.992 469.04 316.595 469.179 317.107 469.456C317.63 469.723 318.046 470.059 318.355 470.464V469.184H320.195V478H318.355V476.688C318.046 477.104 317.624 477.451 317.091 477.728C316.558 478.005 315.95 478.144 315.267 478.144C314.51 478.144 313.816 477.952 313.187 477.568C312.558 477.173 312.056 476.629 311.683 475.936C311.32 475.232 311.139 474.437 311.139 473.552ZM318.355 473.584C318.355 472.976 318.227 472.448 317.971 472C317.726 471.552 317.4 471.211 316.995 470.976C316.59 470.741 316.152 470.624 315.683 470.624C315.214 470.624 314.776 470.741 314.371 470.976C313.966 471.2 313.635 471.536 313.379 471.984C313.134 472.421 313.011 472.944 313.011 473.552C313.011 474.16 313.134 474.693 313.379 475.152C313.635 475.611 313.966 475.963 314.371 476.208C314.787 476.443 315.224 476.56 315.683 476.56C316.152 476.56 316.59 476.443 316.995 476.208C317.4 475.973 317.726 475.632 317.971 475.184C318.227 474.725 318.355 474.192 318.355 473.584ZM326.143 469.04C326.825 469.04 327.428 469.179 327.951 469.456C328.484 469.723 328.9 470.059 329.199 470.464V469.184H331.039V478.144C331.039 478.955 330.868 479.675 330.527 480.304C330.185 480.944 329.689 481.445 329.039 481.808C328.399 482.171 327.631 482.352 326.735 482.352C325.54 482.352 324.548 482.069 323.759 481.504C322.969 480.949 322.521 480.192 322.415 479.232H324.223C324.361 479.691 324.655 480.059 325.103 480.336C325.561 480.624 326.105 480.768 326.735 480.768C327.471 480.768 328.063 480.544 328.511 480.096C328.969 479.648 329.199 478.997 329.199 478.144V476.672C328.889 477.088 328.468 477.44 327.935 477.728C327.412 478.005 326.815 478.144 326.143 478.144C325.375 478.144 324.671 477.952 324.031 477.568C323.401 477.173 322.9 476.629 322.527 475.936C322.164 475.232 321.983 474.437 321.983 473.552C321.983 472.667 322.164 471.883 322.527 471.2C322.9 470.517 323.401 469.989 324.031 469.616C324.671 469.232 325.375 469.04 326.143 469.04ZM329.199 473.584C329.199 472.976 329.071 472.448 328.815 472C328.569 471.552 328.244 471.211 327.839 470.976C327.433 470.741 326.996 470.624 326.527 470.624C326.057 470.624 325.62 470.741 325.215 470.976C324.809 471.2 324.479 471.536 324.223 471.984C323.977 472.421 323.855 472.944 323.855 473.552C323.855 474.16 323.977 474.693 324.223 475.152C324.479 475.611 324.809 475.963 325.215 476.208C325.631 476.443 326.068 476.56 326.527 476.56C326.996 476.56 327.433 476.443 327.839 476.208C328.244 475.973 328.569 475.632 328.815 475.184C329.071 474.725 329.199 474.192 329.199 473.584ZM335.258 470.464C335.525 470.016 335.877 469.669 336.314 469.424C336.762 469.168 337.29 469.04 337.898 469.04V470.928H337.434C336.72 470.928 336.176 471.109 335.802 471.472C335.44 471.835 335.258 472.464 335.258 473.36V478H333.434V469.184H335.258V470.464ZM338.967 473.552C338.967 472.667 339.148 471.883 339.511 471.2C339.884 470.517 340.386 469.989 341.015 469.616C341.655 469.232 342.359 469.04 343.127 469.04C343.82 469.04 344.423 469.179 344.935 469.456C345.458 469.723 345.874 470.059 346.183 470.464V469.184H348.023V478H346.183V476.688C345.874 477.104 345.452 477.451 344.919 477.728C344.386 478.005 343.778 478.144 343.095 478.144C342.338 478.144 341.644 477.952 341.015 477.568C340.386 477.173 339.884 476.629 339.511 475.936C339.148 475.232 338.967 474.437 338.967 473.552ZM346.183 473.584C346.183 472.976 346.055 472.448 345.799 472C345.554 471.552 345.228 471.211 344.823 470.976C344.418 470.741 343.98 470.624 343.511 470.624C343.042 470.624 342.604 470.741 342.199 470.976C341.794 471.2 341.463 471.536 341.207 471.984C340.962 472.421 340.839 472.944 340.839 473.552C340.839 474.16 340.962 474.693 341.207 475.152C341.463 475.611 341.794 475.963 342.199 476.208C342.615 476.443 343.052 476.56 343.511 476.56C343.98 476.56 344.418 476.443 344.823 476.208C345.228 475.973 345.554 475.632 345.799 475.184C346.055 474.725 346.183 474.192 346.183 473.584ZM354.867 469.04C355.56 469.04 356.179 469.184 356.723 469.472C357.277 469.76 357.709 470.187 358.019 470.752C358.328 471.317 358.483 472 358.483 472.8V478H356.675V473.072C356.675 472.283 356.477 471.68 356.083 471.264C355.688 470.837 355.149 470.624 354.467 470.624C353.784 470.624 353.24 470.837 352.835 471.264C352.44 471.68 352.243 472.283 352.243 473.072V478H350.419V469.184H352.243V470.192C352.541 469.829 352.92 469.547 353.379 469.344C353.848 469.141 354.344 469.04 354.867 469.04ZM362.937 470.672V475.552C362.937 475.883 363.012 476.123 363.161 476.272C363.321 476.411 363.588 476.48 363.961 476.48H365.081V478H363.641C362.82 478 362.191 477.808 361.753 477.424C361.316 477.04 361.097 476.416 361.097 475.552V470.672H360.057V469.184H361.097V466.992H362.937V469.184H365.081V470.672H362.937Z" fill="white"/>
<defs>
<clipPath id="clip0_1_4718">
<rect width="52.9595" height="38" fill="white" transform="translate(514 204)"/>
</clipPath>
<clipPath id="clip1_1_4718">
<rect width="38" height="38" fill="white" transform="translate(592 335)"/>
</clipPath>
</defs>
</svg>
