<svg width="1523" height="802" viewBox="0 0 1523 802" fill="none" xmlns="http://www.w3.org/2000/svg">
<mask id="mask0_1_4311" style="mask-type:alpha" maskUnits="userSpaceOnUse" x="0" y="587" width="1523" height="215">
<ellipse cx="761.5" cy="694.5" rx="761.5" ry="107.5" fill="black"/>
</mask>
<g mask="url(#mask0_1_4311)">
<rect y="587" width="1523" height="215" fill="black"/>
</g>
<path d="M754.13 9.57352C748.82 11.6038 742.574 16.7575 739.45 21.599C735.858 26.9089 735.702 40.9646 738.981 43.7758C740.231 44.869 741.324 46.5869 741.324 47.524C741.324 50.4913 751.632 57.8315 756.005 57.8315C757.098 57.8315 758.503 59.3932 758.972 61.2674C760.221 65.9526 758.503 147.32 757.254 148.569C756.629 149.038 753.35 150.287 749.758 151.224C746.166 152.317 740.699 154.816 737.42 157.002C734.296 159.189 731.017 160.907 730.392 160.594C728.049 159.657 666.36 107.339 666.36 106.246C666.36 105.621 667.453 102.497 668.703 99.5302C669.952 96.4067 671.045 89.3788 671.045 84.0689C671.045 75.9478 670.108 72.8243 666.36 65.9526C663.705 61.5797 660.894 57.8315 660.113 57.8315C659.332 57.8315 657.146 56.5821 655.428 55.0204C650.43 50.8036 639.03 48.9296 628.41 50.6475C620.445 51.8969 618.258 52.9901 612.324 59.0809C599.049 72.9805 597.175 89.8473 607.326 104.372C613.105 112.493 626.223 120.145 634.501 120.301H639.342L643.559 151.849C645.901 169.34 648.869 189.487 649.962 196.827C654.179 223.689 654.179 223.064 648.4 225.876C640.591 229.468 635.125 238.838 635.125 248.365C635.125 256.642 636.687 260.546 642.778 267.418L646.526 271.635L641.372 282.255C638.561 288.033 632.47 300.839 627.941 310.366L619.664 328.014H610.606H601.548L597.331 319.737C594.988 315.364 587.336 299.746 580.464 285.222L567.814 258.828L572.499 253.987C587.492 238.213 589.21 212.757 576.404 195.734C562.816 177.93 535.017 172.776 517.213 184.958C508.155 191.205 499.253 201.981 499.253 206.822C499.253 210.258 495.505 210.102 467.237 204.636C453.806 202.137 442.406 199.951 442.093 199.951C441.781 199.951 441.469 198.389 441.469 196.359C441.312 191.673 436.315 181.053 432.567 177.774C427.1 172.776 416.793 170.121 410.077 171.839C387.588 177.93 382.747 208.072 402.737 218.223C406.485 220.097 410.546 221.971 411.952 222.284C413.982 222.908 414.606 227.125 415.387 247.896C416.012 261.483 416.481 279.131 416.481 286.94V301.464L410.702 304.119C407.579 305.681 402.893 309.585 400.238 312.865C396.178 317.862 395.553 320.049 395.709 327.077C395.866 331.762 396.959 337.54 398.208 340.039L400.551 344.412L380.092 365.964C368.691 377.834 358.696 387.516 357.915 387.36C356.978 387.36 353.542 385.955 350.106 384.237C345.89 382.05 340.892 381.113 333.708 381.113C324.962 381.113 322.307 381.894 316.06 385.798C307.939 390.952 301.848 399.542 299.037 409.849C297.475 415.784 297.632 418.283 299.818 425.155C308.408 452.485 337.925 461.231 358.696 442.49C371.815 430.777 374.47 413.91 365.724 398.449L361.819 391.577L377.125 375.803C385.714 367.214 395.241 357.219 398.521 353.939C403.518 348.473 404.611 348.004 407.422 349.722C413.045 353.158 424.758 353.626 431.161 350.659C451.932 340.82 450.527 309.585 428.975 303.182C425.539 302.245 422.571 300.839 422.571 300.215C421.791 296.467 421.478 287.721 420.385 256.798L419.292 222.44L425.851 219.472C429.755 217.754 434.128 214.162 436.471 210.57C438.501 207.291 441.469 204.636 442.874 204.636C445.529 204.636 463.802 208.072 483.636 212.445L495.349 214.943L496.286 224.938C497.379 237.589 502.533 248.365 511.122 256.017C522.836 266.325 540.952 269.917 555.476 264.763C559.068 263.514 562.66 262.42 563.441 262.42C564.222 262.42 566.408 266.169 568.595 270.542C570.625 275.071 576.872 288.345 582.338 299.902C597.487 331.606 597.175 330.981 593.427 334.105C582.338 342.85 582.494 364.246 593.739 372.992C604.515 381.426 618.727 380.645 628.254 371.118C638.561 360.811 638.717 346.442 628.878 335.823C626.223 333.011 624.193 330.513 624.193 330.2C624.193 329.888 627.317 323.172 631.065 315.208C634.813 307.243 640.748 294.592 644.183 287.252L650.43 273.821L658.864 273.977C673.544 274.134 685.57 262.42 685.414 248.052C685.257 236.027 674.013 223.377 663.549 223.377C661.675 223.377 659.957 222.752 659.332 221.815C658.864 221.034 656.053 203.699 652.929 183.24C649.962 162.781 646.838 141.541 646.057 135.919C643.559 119.364 643.559 119.521 652.773 114.991C657.458 112.805 661.987 110.931 663.081 110.931C664.798 110.931 721.646 158.408 725.707 163.249C727.268 165.124 727.112 166.998 724.301 173.245C719.928 183.552 719.928 197.608 724.301 206.978C739.294 238.682 783.96 238.994 798.796 207.291C803.326 197.764 803.482 183.24 799.109 173.557C797.391 169.809 795.985 166.217 795.985 165.592C795.985 164.187 807.698 153.879 831.905 133.576C839.09 127.485 847.991 119.989 851.583 116.709C857.987 110.931 863.609 109.369 865.639 112.649C866.108 113.586 869.075 115.304 872.042 116.553C874.854 117.803 877.665 119.833 878.289 121.238C879.07 123.269 870.168 188.862 865.795 212.445C864.077 221.815 863.609 222.596 859.236 223.377C845.024 226.344 837.372 236.495 838.465 250.707C839.714 265.232 850.178 274.29 865.171 273.821L872.667 273.665L878.602 286.315C881.881 293.343 887.816 305.993 891.877 314.27C895.781 322.704 899.061 329.732 899.061 330.2C899.061 330.513 897.03 333.011 894.375 335.823C887.972 342.694 885.473 351.284 887.972 359.249C892.814 375.647 910.618 383.768 924.673 375.959C929.515 373.305 934.981 367.214 936.699 362.841C940.291 353.47 936.386 337.853 929.359 333.792C926.86 332.387 926.547 329.107 928.734 325.203C930.608 321.767 953.409 274.29 956.221 267.418C958.719 261.796 960.281 261.483 968.246 264.763C975.742 267.887 990.267 267.574 998.544 264.295C1014.94 257.579 1025.41 243.055 1026.97 224.938L1027.9 214.787L1052.11 209.79C1065.39 207.135 1077.88 204.792 1079.75 204.792C1081.94 204.636 1084.28 206.51 1086.47 210.102C1088.5 213.382 1093.03 217.286 1097.4 219.472C1104.27 222.908 1104.9 223.689 1104.43 228.374C1104.12 231.185 1103.34 248.052 1102.71 265.856C1102.09 283.66 1101.15 298.653 1100.68 299.434C1100.21 300.059 1096.31 302.401 1092.09 304.588C1087.88 306.774 1083.03 310.366 1081.32 312.709C1077.41 317.862 1076.01 331.137 1078.66 337.384C1083.66 349.566 1099.12 355.813 1111.77 350.972C1119.42 347.848 1117.55 346.599 1142.38 371.899L1161.59 391.577L1157.22 399.073C1145.97 419.376 1157.69 445.926 1180.33 451.392C1197.98 455.609 1214.69 446.707 1222.34 428.747C1229.53 412.036 1220.16 390.64 1202.51 383.144C1194.86 380.02 1180.33 380.489 1173.15 384.237C1169.71 385.955 1166.28 387.36 1165.34 387.36C1163.78 387.36 1154.87 378.458 1127.39 349.566C1121.92 343.787 1121.92 343.787 1124.73 339.571C1126.45 336.916 1127.54 332.074 1127.7 327.077C1127.7 320.049 1127.08 317.862 1123.02 312.865C1120.36 309.585 1115.67 305.681 1112.55 304.119L1106.77 301.464V286.94C1106.77 279.131 1107.24 261.483 1107.87 247.896C1108.65 227.125 1109.27 222.908 1111.3 222.44C1120.36 219.785 1127.23 214.787 1130.2 208.696C1137.38 193.547 1130.67 177.93 1114.27 172.464C1106.93 170.121 1106.62 170.121 1098.18 174.026C1088.81 178.242 1083.97 184.489 1082.41 194.016C1081.79 197.296 1081.32 199.951 1081.16 199.951C1081.16 199.951 1070.07 202.137 1056.8 204.636C1025.56 210.727 1025.09 210.727 1022.75 204.011C1020.56 198.076 1013.22 189.643 1006.04 184.958C996.357 178.398 982.302 176.524 970.276 179.96C938.104 189.174 927.484 229.468 950.754 253.987L955.44 258.828L942.79 285.222C935.762 299.746 928.265 315.364 926.079 319.737L922.174 328.014H912.804H903.59L893.438 306.462C887.816 294.749 881.725 282.098 880.007 278.35L876.728 271.635L880.476 267.418C886.567 260.546 888.128 256.642 888.128 248.365C888.128 237.432 883.912 230.873 873.604 225.563C868.919 223.064 869.075 224.47 872.667 200.731C873.448 195.578 875.478 181.21 877.196 168.716C881.257 138.105 883.287 124.518 884.224 122.176C884.536 121.238 887.035 120.301 889.534 120.301C892.033 120.301 894.688 119.521 895.156 118.74C895.625 117.803 897.655 117.178 899.529 117.178C904.995 117.178 914.678 108.12 918.739 99.374C925.61 84.5374 922.487 70.0132 909.993 58.1439C901.872 50.4913 890.315 48.1487 875.947 50.9598C869.231 52.3654 858.611 61.7359 855.176 69.3884C851.583 77.1972 851.271 92.8147 854.551 99.0616C858.611 106.87 862.828 102.341 808.323 147.944C799.89 155.128 792.549 160.907 791.925 160.907C791.456 160.907 788.177 158.877 784.428 156.378C780.836 153.879 775.214 151.224 772.091 150.755C768.811 150.131 766 149.194 765.531 148.569C764.438 146.539 763.189 61.7359 764.438 60.0179C765.063 59.2371 768.03 57.5192 770.997 56.2698C790.207 48.461 792.081 24.2539 774.277 12.5408C767.093 7.6994 760.846 6.76236 754.13 9.57352Z" fill="black"/>
<path d="M757.207 274.169L757.176 274.182L757.144 274.195C756.957 274.272 756.782 274.344 756.616 274.412C754.535 275.263 754.03 275.47 753.496 276.274C752.771 277.366 752.008 279.763 751.498 285.975C750.563 297.351 750.566 319.313 750.57 363.354C750.571 366.535 750.571 369.831 750.571 373.246C750.571 398.869 750.415 422.271 750.18 439.33C750.063 447.857 749.926 454.811 749.779 459.67C749.705 462.095 749.629 464.021 749.549 465.367C749.51 466.033 749.468 466.599 749.42 467.026C749.397 467.23 749.366 467.471 749.319 467.699C749.297 467.805 749.255 467.995 749.18 468.21C749.142 468.317 749.072 468.498 748.956 468.706C748.863 468.873 748.612 469.296 748.121 469.663L747.998 469.756L747.865 469.836C746.704 470.533 745.576 470.204 745.382 470.147L745.371 470.144C745.011 470.04 744.722 469.891 744.56 469.803C744.213 469.613 743.861 469.367 743.554 469.138C742.912 468.662 742.083 467.974 741.119 467.135C739.174 465.443 736.488 462.968 733.266 459.914C726.815 453.796 718.126 445.263 708.744 435.803C693.253 420.312 684.638 411.856 679.314 407.26C673.954 402.632 672.533 402.484 671.358 402.484C670.196 402.484 668.755 402.649 667.383 402.916C666.077 403.171 665.03 403.479 664.447 403.722C663.397 404.374 661.879 406.114 660.551 408.592C659.298 410.932 658.537 413.33 658.439 415.045C658.478 415.119 658.532 415.213 658.603 415.33C658.924 415.855 659.465 416.615 660.291 417.652C661.933 419.714 664.5 422.628 668.146 426.547C675.427 434.371 686.833 446.012 703.308 462.487L703.312 462.491L748.915 508.25L749.786 509.124L749.79 510.358L750.102 602.961C750.102 602.962 750.102 602.963 750.102 602.964C750.415 653.72 750.571 698.861 750.571 702.931C750.571 705.921 750.775 707.547 751.193 708.707C751.569 709.751 752.203 710.647 753.644 711.951L753.657 711.963L753.67 711.974C756.937 715 761.707 715.618 765.805 714.241C769.912 712.861 772.628 709.773 772.683 706.011L772.684 705.933L772.689 705.855L772.689 705.85L772.69 705.836L772.692 705.786C772.694 705.743 772.696 705.687 772.698 705.617C772.703 705.476 772.707 705.292 772.712 705.062C772.722 704.603 772.731 703.983 772.741 703.208C772.761 701.659 772.78 699.511 772.8 696.828C772.839 691.464 772.878 683.981 772.917 674.924C772.995 656.81 773.073 632.409 773.151 606.094V606.093L773.463 510.514L773.467 509.28L774.338 508.406L820.091 462.497C836.255 446.177 847.624 434.496 854.946 426.591C858.613 422.632 861.222 419.667 862.901 417.562C863.745 416.504 864.304 415.724 864.638 415.183C864.714 415.059 864.771 414.959 864.813 414.882C864.709 413.246 863.957 410.9 862.706 408.58C861.377 406.117 859.858 404.375 858.806 403.722C858.223 403.479 857.176 403.171 855.871 402.916C854.498 402.649 853.057 402.484 851.896 402.484C850.724 402.484 849.344 402.628 844.101 407.177C838.891 411.697 830.47 419.998 815.288 435.18C799.932 450.614 790.308 459.969 784.604 464.775C783.17 465.983 781.932 466.949 780.879 467.664C779.886 468.338 778.829 468.952 777.796 469.23C777.263 469.374 776.502 469.495 775.663 469.296C774.717 469.071 773.924 468.496 773.416 467.686C772.966 466.971 772.837 466.233 772.799 465.716C772.762 465.216 772.796 464.725 772.855 464.284C772.855 464.281 772.855 464.278 772.855 464.275C772.859 464.194 772.863 464.068 772.867 463.889C772.875 463.534 772.883 463.023 772.89 462.356C772.904 461.025 772.917 459.112 772.926 456.678C772.946 451.811 772.956 444.88 772.956 436.399C772.956 419.439 772.917 396.289 772.838 371.069L772.838 371.065L772.684 280.519L769.994 277.463L769.984 277.451L769.974 277.44C768.492 275.72 766.263 274.444 763.821 273.846C761.367 273.245 758.977 273.394 757.207 274.169ZM658.351 414.868C658.352 414.868 658.352 414.869 658.352 414.869C658.342 414.84 658.339 414.838 658.351 414.868ZM772.851 464.348C772.851 464.355 772.852 464.351 772.853 464.329C772.852 464.338 772.852 464.344 772.851 464.348Z" fill="#2B2B2B" stroke="#131313" stroke-width="6"/>
<path d="M535.247 321.878L535.233 321.885L535.22 321.893C533.48 322.855 532.542 323.549 531.858 324.471C531.171 325.398 530.534 326.844 530.047 329.657C529.047 335.435 528.882 345.536 528.803 365.033V401.416V404.416H525.803H473.328C451.052 404.416 437.809 404.494 429.59 404.842C421.234 405.196 418.577 405.83 417.041 406.598L417.004 406.616L416.966 406.634C413.256 408.361 411.248 411.173 410.709 414.235C410.161 417.343 411.066 421.091 413.969 424.67L413.98 424.684L413.991 424.698L416.066 427.318L479.128 427.777L543.785 428.245L545.024 428.254L545.896 429.135L603.209 487.073L603.212 487.076L660.681 545.014L661.551 545.891V547.127V624.277L661.551 627.839C661.55 668.047 661.55 687.916 662.667 698.376C663.244 703.78 664.079 706.11 664.964 707.376C665.803 708.578 666.855 709.133 669.436 710.465C671.419 711.456 672.344 711.743 673.103 711.785C673.837 711.825 674.768 711.652 676.785 710.831L676.804 710.823L676.824 710.815C677.521 710.542 678.074 710.341 678.557 710.165C679.185 709.936 679.694 709.75 680.248 709.507C681.061 709.15 681.522 708.84 681.874 708.46C682.627 707.649 683.52 705.837 684.13 700.354C685.238 690.403 685.234 670.967 685.226 631.13C685.225 627.602 685.225 623.915 685.225 620.06V536.188L619.729 470.692L553.355 404.318L552.476 403.439V402.197V365.808C552.476 345.915 552.307 335.439 551.217 329.449C550.685 326.528 549.988 325.037 549.246 324.109C548.515 323.194 547.505 322.525 545.653 321.69L545.645 321.686C543.264 320.604 541.625 320.21 540.209 320.237C538.823 320.263 537.327 320.699 535.247 321.878Z" fill="#2B2B2B" stroke="#131313" stroke-width="6"/>
<path d="M976.367 322.235L976.359 322.241L976.352 322.247C975.088 323.245 974.253 324.148 973.597 325.399C972.91 326.71 972.323 328.592 971.879 331.681C970.979 337.942 970.777 348.238 970.777 366.745V402.041V403.281L969.901 404.159L903.527 470.69L903.524 470.692L838.029 536.188V620.061C838.029 624.127 838.028 628.006 838.027 631.706C838.019 670.758 838.015 689.882 839.047 699.789C839.618 705.265 840.46 707.215 841.234 708.157C841.594 708.595 842.05 708.948 842.812 709.361C843.334 709.645 843.814 709.867 844.406 710.143C844.86 710.353 845.38 710.595 846.037 710.918L846.068 710.933L846.099 710.95C847.759 711.816 848.415 711.934 848.974 711.902C849.706 711.861 850.735 711.537 853.114 710.428C853.23 710.372 853.344 710.318 853.455 710.265C856.063 709.021 857.168 708.493 858.053 707.358C858.975 706.175 859.869 703.967 860.492 698.621C861.703 688.225 861.703 668.259 861.702 627.375C861.702 626.305 861.702 625.22 861.702 624.121V546.815V545.574L862.578 544.696L920.203 486.914L920.206 486.912L977.832 428.974L978.712 428.089H979.959H1041.65C1059.44 428.089 1075.26 427.933 1086.93 427.66C1092.76 427.524 1097.53 427.359 1100.98 427.171C1102.71 427.077 1104.07 426.979 1105.06 426.879C1105.55 426.829 1105.92 426.781 1106.18 426.739C1106.29 426.721 1106.36 426.706 1106.39 426.699C1110.2 425.207 1112.41 421.23 1112.44 416.719C1112.47 412.197 1110.3 408.051 1106.4 406.372C1105.71 406.095 1104.5 405.785 1102.27 405.514C1100.05 405.243 1096.97 405.028 1092.66 404.863C1084.04 404.533 1070.7 404.416 1049.77 404.416H997.451H994.451V401.416V365.496C994.451 346.262 994.246 335.774 993.24 329.61C992.745 326.575 992.097 324.892 991.387 323.814C990.723 322.806 989.855 322.095 988.391 321.293C986.715 320.435 984.455 320.03 982.143 320.209C979.81 320.39 977.737 321.139 976.367 322.235Z" fill="#2B2B2B" stroke="#131313" stroke-width="6"/>
<circle cx="636" cy="86" r="39" fill="#2B2B2B"/>
<circle cx="540" cy="223" r="45" fill="#2B2B2B"/>
<circle cx="982" cy="223" r="45" fill="#2B2B2B"/>
<circle cx="886" cy="86" r="39" fill="#2B2B2B"/>
<circle cx="761" cy="190" r="46" fill="#2B2B2B"/>
<path fill-rule="evenodd" clip-rule="evenodd" d="M768.262 174.028C767.669 174.008 767.049 174.112 766.427 174.313C765.183 174.717 763.88 175.502 762.542 176.59C762.018 177.017 761.489 177.504 760.959 178.021C760.44 177.517 759.921 177.043 759.409 176.626C758.072 175.539 756.773 174.753 755.532 174.35C754.291 173.948 753.056 173.936 752.042 174.521C751.028 175.107 750.421 176.181 750.149 177.457C749.877 178.733 749.907 180.252 750.181 181.953C750.275 182.544 750.411 183.164 750.565 183.795C749.986 183.971 749.423 184.156 748.901 184.36C747.326 184.975 746.023 185.71 745.074 186.586C744.125 187.462 743.513 188.524 743.513 189.691C743.513 190.858 744.125 191.92 745.074 192.795C746.023 193.671 747.326 194.408 748.901 195.023C749.459 195.241 750.063 195.437 750.687 195.623C750.462 196.461 750.281 197.274 750.157 198.045C749.883 199.748 749.854 201.267 750.127 202.546C750.4 203.825 751.006 204.906 752.026 205.494C753.045 206.082 754.285 206.068 755.529 205.665C756.772 205.262 758.074 204.477 759.412 203.389C759.931 202.967 760.457 202.485 760.982 201.973C761.511 202.488 762.038 202.972 762.56 203.397C763.897 204.484 765.198 205.268 766.439 205.671C767.68 206.073 768.915 206.086 769.929 205.5C770.943 204.915 771.548 203.84 771.82 202.564C772.092 201.288 772.062 199.77 771.789 198.069C771.664 197.296 771.483 196.48 771.257 195.639C771.901 195.449 772.525 195.248 773.099 195.023C774.674 194.408 775.977 193.671 776.926 192.795C777.875 191.92 778.488 190.858 778.488 189.691C778.488 188.524 777.875 187.462 776.926 186.586C775.977 185.71 774.674 184.975 773.099 184.36C772.57 184.153 771.999 183.966 771.41 183.788C771.565 183.153 771.703 182.528 771.799 181.934C772.072 180.232 772.101 178.711 771.829 177.432C771.556 176.153 770.948 175.074 769.929 174.485C769.419 174.191 768.854 174.048 768.262 174.028ZM768.192 175.575C768.564 175.585 768.881 175.674 769.152 175.83C769.695 176.144 770.096 176.753 770.31 177.757C770.524 178.761 770.517 180.117 770.264 181.689C770.178 182.228 770.052 182.798 769.909 183.383C768.355 183.009 766.651 182.731 764.836 182.568C763.924 181.305 762.988 180.155 762.044 179.135C762.543 178.647 763.039 178.191 763.524 177.797C764.759 176.792 765.929 176.108 766.905 175.792C767.393 175.634 767.82 175.565 768.192 175.575ZM753.77 175.579C754.144 175.569 754.572 175.638 755.061 175.796C756.04 176.114 757.212 176.797 758.448 177.803C758.923 178.189 759.408 178.636 759.897 179.112C758.946 180.141 758.002 181.301 757.084 182.575C755.276 182.741 753.58 183.021 752.033 183.396C751.891 182.815 751.766 182.247 751.68 181.711C751.427 180.138 751.421 178.781 751.635 177.775C751.85 176.768 752.254 176.154 752.802 175.838C753.076 175.68 753.396 175.59 753.77 175.579ZM760.982 180.229C761.601 180.902 762.221 181.64 762.835 182.433C762.231 182.408 761.62 182.393 761 182.393C760.367 182.393 759.745 182.408 759.13 182.434C759.744 181.64 760.363 180.903 760.982 180.229ZM761 183.928C762.034 183.928 763.041 183.97 764.021 184.042C764.695 185.01 765.354 186.038 765.982 187.125C766.533 188.08 767.032 189.034 767.487 189.976C767.028 190.931 766.52 191.898 765.961 192.867C765.469 193.719 764.955 194.529 764.432 195.31C763.325 195.402 762.178 195.454 761 195.454C759.794 195.454 758.621 195.399 757.49 195.302C756.976 194.533 756.47 193.735 755.986 192.896C755.428 191.93 754.923 190.965 754.464 190.012C754.925 189.054 755.432 188.084 755.993 187.112C756.618 186.03 757.275 185.009 757.945 184.045C758.936 183.971 759.955 183.928 761 183.928ZM765.977 184.232C767.23 184.388 768.406 184.605 769.501 184.866C769.176 185.931 768.776 187.043 768.291 188.191C767.977 187.584 767.651 186.975 767.298 186.365C766.871 185.626 766.427 184.921 765.977 184.232ZM755.941 184.244C755.501 184.92 755.068 185.611 754.65 186.335C754.293 186.953 753.96 187.57 753.642 188.185C753.161 187.044 752.764 185.938 752.441 184.879C753.528 184.618 754.697 184.402 755.941 184.244ZM771.005 185.269C771.544 185.432 772.064 185.603 772.541 185.789C773.993 186.356 775.141 187.027 775.885 187.714C776.63 188.401 776.953 189.056 776.953 189.691C776.953 190.327 776.63 190.982 775.885 191.669C775.141 192.355 773.993 193.027 772.541 193.594C772.011 193.801 771.428 193.989 770.822 194.167C770.39 192.83 769.838 191.436 769.182 190.012C769.937 188.378 770.547 186.784 771.005 185.269ZM750.97 185.277C751.423 186.776 752.025 188.354 752.769 189.972C752.108 191.404 751.554 192.806 751.12 194.15C750.536 193.977 749.973 193.794 749.459 193.594C748.007 193.027 746.859 192.355 746.115 191.669C745.371 190.982 745.048 190.327 745.048 189.691C745.048 189.056 745.371 188.401 746.115 187.714C746.859 187.027 748.007 186.356 749.459 185.789C749.929 185.605 750.441 185.438 750.97 185.277ZM761 186.2C758.91 186.2 757.2 187.911 757.2 190C757.2 192.09 758.91 193.8 761 193.8C763.09 193.8 764.8 192.09 764.8 190C764.8 187.911 763.09 186.2 761 186.2ZM753.66 191.798C753.98 192.415 754.312 193.035 754.671 193.656C754.951 194.142 755.238 194.615 755.529 195.08C754.508 194.938 753.538 194.759 752.627 194.547C752.916 193.659 753.263 192.738 753.66 191.798ZM768.311 191.798C768.709 192.741 769.056 193.663 769.347 194.553C768.433 194.765 767.46 194.943 766.436 195.084C766.731 194.614 767.022 194.135 767.306 193.643C767.662 193.026 767.993 192.411 768.311 191.798ZM752.189 196.022C753.564 196.348 755.055 196.598 756.636 196.762C757.691 198.288 758.791 199.659 759.897 200.858C759.402 201.341 758.912 201.794 758.432 202.184C757.197 203.189 756.025 203.871 755.049 204.188C754.073 204.504 753.345 204.463 752.802 204.149C752.259 203.836 751.86 203.226 751.646 202.223C751.432 201.219 751.437 199.864 751.69 198.292C751.805 197.579 751.976 196.815 752.189 196.022ZM769.786 196.028C770.001 196.825 770.173 197.592 770.288 198.31C770.541 199.884 770.547 201.24 770.332 202.246C770.118 203.253 769.716 203.869 769.169 204.185C768.621 204.501 767.885 204.542 766.906 204.225C765.927 203.908 764.756 203.224 763.519 202.218C763.036 201.825 762.542 201.368 762.044 200.882C763.158 199.678 764.265 198.3 765.327 196.764C766.912 196.602 768.407 196.354 769.786 196.028ZM758.619 196.917C759.4 196.96 760.19 196.989 761 196.989C761.783 196.989 762.548 196.962 763.304 196.922C762.531 197.964 761.744 198.911 760.96 199.764C760.176 198.909 759.391 197.96 758.619 196.917Z" fill="white"/>
<circle cx="333" cy="417" r="39" fill="#2B2B2B"/>
<circle cx="1189" cy="417" r="39" fill="#2B2B2B"/>
<circle cx="420" cy="329" r="31" fill="#2B2B2B"/>
<circle cx="761" cy="31" r="31" fill="#2B2B2B"/>
<circle cx="1102" cy="329" r="31" fill="#2B2B2B"/>
<circle cx="1107.5" cy="196.5" r="27.5" fill="#2B2B2B"/>
<circle cx="913.5" cy="353.5" r="27.5" fill="#2B2B2B"/>
<path d="M904.104 339.75C901.715 339.75 899.75 341.715 899.75 344.104V357.609C899.748 357.766 899.777 357.922 899.836 358.069C899.894 358.215 899.981 358.347 900.092 358.459C900.202 358.572 900.334 358.661 900.479 358.721C900.624 358.782 900.78 358.813 900.938 358.813C901.095 358.813 901.251 358.782 901.396 358.721C901.541 358.661 901.673 358.572 901.783 358.459C901.894 358.347 901.981 358.215 902.04 358.069C902.098 357.922 902.127 357.766 902.125 357.609V344.104C902.125 343.01 903.01 342.125 904.104 342.125H923.896C924.99 342.125 925.875 343.01 925.875 344.104V345.089C925.873 345.246 925.902 345.403 925.961 345.549C926.019 345.695 926.106 345.828 926.217 345.94C926.327 346.052 926.459 346.141 926.604 346.202C926.749 346.262 926.905 346.294 927.063 346.294C927.22 346.294 927.376 346.262 927.521 346.202C927.666 346.141 927.798 346.052 927.908 345.94C928.019 345.828 928.106 345.695 928.165 345.549C928.223 345.403 928.252 345.246 928.25 345.089V344.104C928.25 341.715 926.285 339.75 923.896 339.75H904.104ZM927.044 348.534C926.729 348.539 926.43 348.669 926.21 348.894C925.991 349.12 925.871 349.424 925.875 349.739V363.896C925.875 364.99 924.99 365.875 923.896 365.875H904.104C903.01 365.875 902.125 364.99 902.125 363.896V362.506C902.127 362.348 902.098 362.192 902.04 362.046C901.981 361.9 901.894 361.767 901.783 361.655C901.673 361.543 901.541 361.454 901.396 361.393C901.251 361.333 901.095 361.301 900.938 361.301C900.78 361.301 900.624 361.333 900.479 361.393C900.334 361.454 900.202 361.543 900.092 361.655C899.981 361.767 899.894 361.9 899.836 362.046C899.777 362.192 899.748 362.348 899.75 362.506V363.896C899.75 366.285 901.715 368.25 904.104 368.25H923.896C926.285 368.25 928.25 366.285 928.25 363.896V349.739C928.252 349.58 928.223 349.422 928.163 349.275C928.103 349.127 928.014 348.994 927.902 348.881C927.789 348.769 927.656 348.68 927.508 348.621C927.361 348.561 927.203 348.532 927.044 348.534ZM912.698 352.734V360.383C912.698 361.557 912.253 361.858 911.481 361.858C910.675 361.858 910.112 361.356 909.743 360.701L907.831 361.858C908.384 363.03 909.743 364.292 911.624 364.292C913.706 364.292 915.132 363.184 915.132 360.752V352.734H912.698ZM920.275 352.734C918.201 352.734 916.875 354.059 916.875 355.8C916.875 357.69 917.988 358.584 919.662 359.297L920.244 359.546C921.302 360.009 921.824 360.291 921.824 361.086C921.824 361.751 921.319 362.232 920.357 362.232C919.212 362.232 918.671 361.453 918.173 360.641L916.349 361.858C917.03 363.205 918.255 364.292 920.411 364.292C922.616 364.292 924.256 363.147 924.256 361.057C924.256 359.118 923.144 358.256 921.172 357.411L920.59 357.162C919.594 356.731 919.163 356.45 919.163 355.753C919.163 355.191 919.595 354.759 920.275 354.759C920.941 354.759 921.37 355.04 921.768 355.753L923.576 354.592C922.811 353.247 921.75 352.734 920.275 352.734Z" fill="white"/>
<circle cx="864.5" cy="249.5" r="27.5" fill="#2B2B2B"/>
<circle cx="610.5" cy="353.5" r="27.5" fill="#2B2B2B"/>
<circle cx="416.5" cy="196.5" r="27.5" fill="#2B2B2B"/>
<circle cx="661.5" cy="249.5" r="27.5" fill="#2B2B2B"/>
<g clip-path="url(#clip0_1_4311)">
<path d="M759.756 12.0102C759.674 12.0177 759.414 12.0437 759.18 12.0622C753.783 12.5488 748.727 15.4606 745.525 19.9359C743.742 22.4243 742.602 25.247 742.171 28.2368C742.019 29.2804 742 29.5887 742 31.0037C742 32.4188 742.019 32.727 742.171 33.7707C743.204 40.9053 748.281 46.8997 755.168 49.1207C756.401 49.5181 757.701 49.7892 759.18 49.9526C759.756 50.0158 762.244 50.0158 762.82 49.9526C765.372 49.6704 767.534 49.039 769.666 47.9508C769.993 47.7837 770.056 47.7391 770.012 47.702C769.982 47.6797 768.589 45.8115 766.917 43.5534L763.879 39.4494L760.071 33.8152C757.976 30.7177 756.253 28.1848 756.238 28.1848C756.223 28.1811 756.208 30.6843 756.201 33.741C756.19 39.0929 756.186 39.3083 756.119 39.4345C756.022 39.6165 755.948 39.6908 755.792 39.7725C755.673 39.8319 755.569 39.8431 755.008 39.8431H754.366L754.195 39.7354C754.083 39.6648 754.002 39.572 753.946 39.4643L753.868 39.2971L753.875 31.8505L753.887 24.4002L754.002 24.2553C754.061 24.1774 754.187 24.0771 754.277 24.0288C754.429 23.9545 754.488 23.9471 755.131 23.9471C755.889 23.9471 756.015 23.9768 756.212 24.1922C756.268 24.2516 758.329 27.3566 760.796 31.0966C763.262 34.8366 766.635 39.9434 768.292 42.4503L771.3 47.0074L771.453 46.9072C772.801 46.0306 774.228 44.7827 775.357 43.4828C777.76 40.7233 779.309 37.3584 779.829 33.7707C779.981 32.727 780 32.4188 780 31.0037C780 29.5887 779.981 29.2804 779.829 28.2368C778.796 21.1021 773.719 15.1077 766.832 12.8867C765.617 12.493 764.325 12.2219 762.876 12.0585C762.519 12.0214 760.064 11.9805 759.756 12.0102ZM767.534 23.5014C767.712 23.5905 767.857 23.7614 767.909 23.9397C767.939 24.0362 767.946 26.1012 767.939 30.7549L767.928 37.4327L766.75 35.6277L765.569 33.8227V28.9684C765.569 25.8301 765.584 24.0659 765.606 23.9805C765.665 23.7725 765.796 23.6091 765.974 23.5125C766.126 23.4345 766.182 23.4271 766.765 23.4271C767.315 23.4271 767.411 23.4345 767.534 23.5014Z" fill="white"/>
</g>
<g clip-path="url(#clip1_1_4311)">
<path d="M981.606 238.828C973.34 238.626 966.644 232.088 966.191 223.885L966.172 223.389L981.606 238.828ZM982 207.167C984.547 207.165 987.056 207.778 989.314 208.953C991.573 210.129 993.514 211.833 994.973 213.919L992.379 215.737C991.062 213.855 989.257 212.367 987.159 211.432C985.061 210.497 982.748 210.149 980.468 210.427C978.188 210.705 976.026 211.597 974.214 213.008C972.401 214.42 971.007 216.297 970.179 218.44L986.56 234.821C988.44 234.094 990.119 232.93 991.459 231.425C992.8 229.92 993.763 228.117 994.268 226.167H987.542V223H997.834C997.834 230.483 992.642 236.753 985.666 238.406L966.593 219.336C968.248 212.36 974.518 207.167 982 207.167Z" fill="white"/>
</g>
<path d="M1182.67 405.917C1182.18 405.917 1181.72 406.141 1181.42 406.525C1181.12 406.91 1181.01 407.411 1181.13 407.884L1182.71 414.217C1182.89 414.922 1183.52 415.417 1184.25 415.417H1191.85C1192.02 415.417 1192.17 415.558 1192.17 415.733V419.379C1192.17 419.464 1192.13 419.544 1192.07 419.603L1189.22 422.453C1189.1 422.577 1188.9 422.577 1188.78 422.453L1185.37 419.047C1184.75 418.429 1183.75 418.429 1183.13 419.047C1182.51 419.665 1182.51 420.668 1183.13 421.286L1187.88 426.036C1188.5 426.654 1189.5 426.654 1190.12 426.036L1194.87 421.286C1195.17 420.989 1195.33 420.586 1195.33 420.167V413.833C1195.33 412.959 1194.62 412.25 1193.75 412.25H1185.73C1185.59 412.25 1185.46 412.151 1185.43 412.01L1184.79 409.477C1184.74 409.277 1184.89 409.083 1185.1 409.083H1195.33C1196.21 409.083 1196.92 408.374 1196.92 407.5C1196.92 406.625 1196.21 405.917 1195.33 405.917H1182.67Z" fill="white"/>
<path fill-rule="evenodd" clip-rule="evenodd" d="M1176.82 399.583C1173.93 399.583 1171.71 402.144 1172.12 405.005L1174.6 422.395C1174.76 423.52 1175.32 424.55 1176.17 425.298L1185.87 433.784C1187.66 435.351 1190.34 435.351 1192.13 433.784L1201.83 425.298C1202.68 424.55 1203.24 423.52 1203.4 422.395L1205.88 405.005C1206.29 402.144 1204.07 399.583 1201.18 399.583H1176.82ZM1175.25 404.557C1175.11 403.604 1175.85 402.75 1176.82 402.75H1201.18C1202.15 402.75 1202.89 403.604 1202.75 404.557L1200.27 421.947C1200.21 422.322 1200.03 422.666 1199.74 422.915L1190.04 431.401C1189.45 431.923 1188.55 431.923 1187.96 431.401L1178.26 422.915C1177.97 422.666 1177.79 422.322 1177.74 421.947L1175.25 404.557Z" fill="white"/>
<g clip-path="url(#clip2_1_4311)">
<path d="M333 434.417L320.571 431.012L317.958 401.167H348.041L345.429 431.012L333 434.417ZM323.5 428.558L333 431.171L342.5 428.558L344.558 404.333H321.441L323.5 428.558Z" fill="white"/>
<path d="M325.083 408.292H340.916L339.491 425.154L332.921 427.292L326.271 425.629L325.558 419.929H329.121V422.779L332.921 423.492L336.404 422.779V418.504H325.558L325.321 414.942C325.646 414.645 326.068 414.476 326.508 414.467C331.971 414.467 336.404 414.942 336.404 414.942V412.092H325.558L325.083 408.292Z" fill="white"/>
</g>
<path d="M539.24 205.52C533.792 205.52 529.36 211.822 529.36 219.57C529.36 223.572 530.549 227.176 532.446 229.733C532.374 230.117 532.388 230.512 532.486 230.89C532.585 231.268 532.765 231.619 533.014 231.92C533.264 232.22 533.577 232.462 533.93 232.628C534.283 232.794 534.669 232.88 535.06 232.88C535.765 232.88 536.442 232.6 536.94 232.101C537.439 231.602 537.72 230.925 537.72 230.22C537.72 229.515 537.439 228.838 536.94 228.339C536.442 227.84 535.765 227.56 535.06 227.56C534.915 227.561 534.77 227.574 534.628 227.599C533.269 225.574 532.4 222.705 532.4 219.57C532.4 213.601 535.532 208.56 539.24 208.56C542.37 208.56 545.083 212.161 545.854 216.873C546.935 217.183 548.011 217.602 549.066 218.109C548.551 211.046 544.341 205.52 539.24 205.52ZM538.1 216.92C537.394 216.92 536.718 217.2 536.219 217.699C535.72 218.198 535.44 218.875 535.44 219.58C535.44 220.285 535.72 220.962 536.219 221.461C536.718 221.96 537.394 222.24 538.1 222.24C538.597 222.24 539.084 222.1 539.506 221.837C539.928 221.574 540.268 221.198 540.486 220.751C542.956 220.597 545.811 221.359 548.446 222.938C553.659 226.064 556.494 231.53 554.636 234.874C554.024 235.972 552.924 236.763 551.452 237.157C549.332 237.723 546.733 237.435 544.172 236.405C543.36 237.161 542.466 237.87 541.491 238.522C544.021 239.8 546.696 240.477 549.167 240.477C550.239 240.477 551.273 240.351 552.238 240.093C554.524 239.481 556.272 238.187 557.293 236.35C560.016 231.449 556.817 224.412 550.009 220.331C546.769 218.388 543.181 217.493 540.026 217.751C539.778 217.489 539.48 217.281 539.148 217.138C538.817 216.995 538.46 216.921 538.1 216.92ZM527.961 221.726C522.58 225.884 520.272 231.968 522.708 236.35C523.729 238.187 525.477 239.481 527.762 240.093C528.728 240.351 529.76 240.477 530.834 240.477C533.722 240.477 536.891 239.56 539.777 237.83C543.005 235.895 545.392 233.293 546.746 230.572C548.077 230.427 549.12 229.309 549.12 227.94C549.12 226.473 547.926 225.28 546.46 225.28C544.993 225.28 543.8 226.473 543.8 227.94C543.8 228.351 543.9 228.735 544.067 229.083C542.969 231.344 540.922 233.599 538.214 235.222C534.949 237.18 531.335 237.904 528.548 237.157C527.076 236.763 525.976 235.972 525.365 234.874C523.895 232.229 525.367 228.262 528.622 225.17C528.309 224.076 528.086 222.923 527.961 221.726Z" fill="white"/>
<path d="M595.8 338.04C595.598 338.04 595.405 338.12 595.263 338.263C595.12 338.405 595.04 338.598 595.04 338.8V369.2C595.04 369.402 595.12 369.595 595.263 369.737C595.405 369.88 595.598 369.96 595.8 369.96H626.2C626.402 369.96 626.595 369.88 626.737 369.737C626.88 369.595 626.96 369.402 626.96 369.2V338.8C626.96 338.598 626.88 338.405 626.737 338.263C626.595 338.12 626.402 338.04 626.2 338.04H595.8ZM596.56 339.56H625.44V368.44H596.56V339.56ZM603.4 352.48V355.098H607.2V366.92H610.24V355.098H614.04V352.48H603.4ZM619.886 352.487C617.518 352.478 614.813 353.195 614.813 356.526C614.813 360.881 620.681 360.882 620.681 362.847C620.681 363.033 620.76 364.386 618.689 364.386C616.618 364.386 614.892 363.084 614.892 363.084V366.245C614.892 366.245 623.922 369.165 623.922 362.58C623.921 358.305 617.999 358.519 617.999 356.394C617.999 355.571 618.584 354.802 620.203 354.802C621.823 354.802 623.257 355.758 623.257 355.758L623.363 352.942C623.363 352.942 621.727 352.495 619.886 352.487Z" fill="white"/>
<path d="M878.592 392.88V400.896C878.592 401.888 878.288 402.672 877.68 403.248C877.083 403.824 876.293 404.112 875.312 404.112C874.331 404.112 873.536 403.824 872.928 403.248C872.331 402.672 872.032 401.888 872.032 400.896H873.872C873.883 401.387 874.005 401.776 874.24 402.064C874.485 402.352 874.843 402.496 875.312 402.496C875.781 402.496 876.139 402.352 876.384 402.064C876.629 401.765 876.752 401.376 876.752 400.896V392.88H878.592ZM880.951 399.552C880.951 398.667 881.133 397.883 881.495 397.2C881.869 396.517 882.37 395.989 882.999 395.616C883.639 395.232 884.343 395.04 885.111 395.04C885.805 395.04 886.407 395.179 886.919 395.456C887.442 395.723 887.858 396.059 888.167 396.464V395.184H890.007V404H888.167V402.688C887.858 403.104 887.437 403.451 886.903 403.728C886.37 404.005 885.762 404.144 885.079 404.144C884.322 404.144 883.629 403.952 882.999 403.568C882.37 403.173 881.869 402.629 881.495 401.936C881.133 401.232 880.951 400.437 880.951 399.552ZM888.167 399.584C888.167 398.976 888.039 398.448 887.783 398C887.538 397.552 887.213 397.211 886.807 396.976C886.402 396.741 885.965 396.624 885.495 396.624C885.026 396.624 884.589 396.741 884.183 396.976C883.778 397.2 883.447 397.536 883.191 397.984C882.946 398.421 882.823 398.944 882.823 399.552C882.823 400.16 882.946 400.693 883.191 401.152C883.447 401.611 883.778 401.963 884.183 402.208C884.599 402.443 885.037 402.56 885.495 402.56C885.965 402.56 886.402 402.443 886.807 402.208C887.213 401.973 887.538 401.632 887.783 401.184C888.039 400.725 888.167 400.192 888.167 399.584ZM895.811 402.368L898.307 395.184H900.243L896.883 404H894.707L891.363 395.184H893.315L895.811 402.368ZM901.014 399.552C901.014 398.667 901.195 397.883 901.558 397.2C901.931 396.517 902.433 395.989 903.062 395.616C903.702 395.232 904.406 395.04 905.174 395.04C905.867 395.04 906.47 395.179 906.982 395.456C907.505 395.723 907.921 396.059 908.23 396.464V395.184H910.07V404H908.23V402.688C907.921 403.104 907.499 403.451 906.966 403.728C906.433 404.005 905.825 404.144 905.142 404.144C904.385 404.144 903.691 403.952 903.062 403.568C902.433 403.173 901.931 402.629 901.558 401.936C901.195 401.232 901.014 400.437 901.014 399.552ZM908.23 399.584C908.23 398.976 908.102 398.448 907.846 398C907.601 397.552 907.275 397.211 906.87 396.976C906.465 396.741 906.027 396.624 905.558 396.624C905.089 396.624 904.651 396.741 904.246 396.976C903.841 397.2 903.51 397.536 903.254 397.984C903.009 398.421 902.886 398.944 902.886 399.552C902.886 400.16 903.009 400.693 903.254 401.152C903.51 401.611 903.841 401.963 904.246 402.208C904.662 402.443 905.099 402.56 905.558 402.56C906.027 402.56 906.465 402.443 906.87 402.208C907.275 401.973 907.601 401.632 907.846 401.184C908.102 400.725 908.23 400.192 908.23 399.584ZM916.13 404.112C915.383 404.112 914.711 403.984 914.114 403.728C913.516 403.461 913.047 403.088 912.706 402.608C912.364 402.128 912.194 401.568 912.194 400.928H914.146C914.188 401.408 914.375 401.803 914.706 402.112C915.047 402.421 915.522 402.576 916.13 402.576C916.759 402.576 917.25 402.427 917.602 402.128C917.954 401.819 918.13 401.424 918.13 400.944C918.13 400.571 918.018 400.267 917.794 400.032C917.58 399.797 917.308 399.616 916.978 399.488C916.658 399.36 916.21 399.221 915.634 399.072C914.908 398.88 914.316 398.688 913.858 398.496C913.41 398.293 913.026 397.984 912.706 397.568C912.386 397.152 912.226 396.597 912.226 395.904C912.226 395.264 912.386 394.704 912.706 394.224C913.026 393.744 913.474 393.376 914.05 393.12C914.626 392.864 915.292 392.736 916.05 392.736C917.127 392.736 918.007 393.008 918.69 393.552C919.383 394.085 919.767 394.821 919.842 395.76H917.826C917.794 395.355 917.602 395.008 917.25 394.72C916.898 394.432 916.434 394.288 915.858 394.288C915.335 394.288 914.908 394.421 914.578 394.688C914.247 394.955 914.082 395.339 914.082 395.84C914.082 396.181 914.183 396.464 914.386 396.688C914.599 396.901 914.866 397.072 915.186 397.2C915.506 397.328 915.943 397.467 916.498 397.616C917.234 397.819 917.831 398.021 918.29 398.224C918.759 398.427 919.154 398.741 919.474 399.168C919.804 399.584 919.97 400.144 919.97 400.848C919.97 401.413 919.815 401.947 919.506 402.448C919.207 402.949 918.764 403.355 918.178 403.664C917.602 403.963 916.919 404.112 916.13 404.112ZM921.514 399.584C921.514 398.677 921.695 397.883 922.058 397.2C922.431 396.507 922.943 395.973 923.594 395.6C924.245 395.227 924.991 395.04 925.834 395.04C926.901 395.04 927.781 395.296 928.474 395.808C929.178 396.309 929.653 397.029 929.898 397.968H927.93C927.77 397.531 927.514 397.189 927.162 396.944C926.81 396.699 926.367 396.576 925.834 396.576C925.087 396.576 924.49 396.843 924.042 397.376C923.605 397.899 923.386 398.635 923.386 399.584C923.386 400.533 923.605 401.275 924.042 401.808C924.49 402.341 925.087 402.608 925.834 402.608C926.89 402.608 927.589 402.144 927.93 401.216H929.898C929.642 402.112 929.162 402.827 928.458 403.36C927.754 403.883 926.879 404.144 925.834 404.144C924.991 404.144 924.245 403.957 923.594 403.584C922.943 403.2 922.431 402.667 922.058 401.984C921.695 401.291 921.514 400.491 921.514 399.584ZM933.54 396.464C933.806 396.016 934.158 395.669 934.596 395.424C935.044 395.168 935.572 395.04 936.18 395.04V396.928H935.716C935.001 396.928 934.457 397.109 934.084 397.472C933.721 397.835 933.54 398.464 933.54 399.36V404H931.716V395.184H933.54V396.464ZM938.784 394.016C938.454 394.016 938.176 393.904 937.952 393.68C937.728 393.456 937.616 393.179 937.616 392.848C937.616 392.517 937.728 392.24 937.952 392.016C938.176 391.792 938.454 391.68 938.784 391.68C939.104 391.68 939.376 391.792 939.6 392.016C939.824 392.24 939.936 392.517 939.936 392.848C939.936 393.179 939.824 393.456 939.6 393.68C939.376 393.904 939.104 394.016 938.784 394.016ZM939.68 395.184V404H937.856V395.184H939.68ZM943.899 396.48C944.208 396.075 944.63 395.733 945.163 395.456C945.696 395.179 946.299 395.04 946.971 395.04C947.739 395.04 948.438 395.232 949.067 395.616C949.707 395.989 950.208 396.517 950.571 397.2C950.934 397.883 951.115 398.667 951.115 399.552C951.115 400.437 950.934 401.232 950.571 401.936C950.208 402.629 949.707 403.173 949.067 403.568C948.438 403.952 947.739 404.144 946.971 404.144C946.299 404.144 945.702 404.011 945.179 403.744C944.656 403.467 944.23 403.125 943.899 402.72V408.192H942.075V395.184H943.899V396.48ZM949.259 399.552C949.259 398.944 949.131 398.421 948.875 397.984C948.63 397.536 948.299 397.2 947.883 396.976C947.478 396.741 947.04 396.624 946.571 396.624C946.112 396.624 945.675 396.741 945.259 396.976C944.854 397.211 944.523 397.552 944.267 398C944.022 398.448 943.899 398.976 943.899 399.584C943.899 400.192 944.022 400.725 944.267 401.184C944.523 401.632 944.854 401.973 945.259 402.208C945.675 402.443 946.112 402.56 946.571 402.56C947.04 402.56 947.478 402.443 947.883 402.208C948.299 401.963 948.63 401.611 948.875 401.152C949.131 400.693 949.259 400.16 949.259 399.552ZM955.047 396.672V401.552C955.047 401.883 955.121 402.123 955.271 402.272C955.431 402.411 955.697 402.48 956.071 402.48H957.191V404H955.751C954.929 404 954.3 403.808 953.863 403.424C953.425 403.04 953.207 402.416 953.207 401.552V396.672H952.167V395.184H953.207V392.992H955.047V395.184H957.191V396.672H955.047Z" fill="white"/>
<path d="M872.784 141.88L868.608 153H866.496L862.304 141.88H864.256L867.552 151.128L870.864 141.88H872.784ZM882.293 144.184V153H880.469V151.96C880.181 152.323 879.803 152.611 879.333 152.824C878.875 153.027 878.384 153.128 877.861 153.128C877.168 153.128 876.544 152.984 875.989 152.696C875.445 152.408 875.013 151.981 874.693 151.416C874.384 150.851 874.229 150.168 874.229 149.368V144.184H876.037V149.096C876.037 149.885 876.235 150.493 876.629 150.92C877.024 151.336 877.563 151.544 878.245 151.544C878.928 151.544 879.467 151.336 879.861 150.92C880.267 150.493 880.469 149.885 880.469 149.096V144.184H882.293ZM892.78 148.376C892.78 148.707 892.759 149.005 892.716 149.272H885.98C886.033 149.976 886.295 150.541 886.764 150.968C887.233 151.395 887.809 151.608 888.492 151.608C889.473 151.608 890.167 151.197 890.572 150.376H892.54C892.273 151.187 891.788 151.853 891.084 152.376C890.391 152.888 889.527 153.144 888.492 153.144C887.649 153.144 886.892 152.957 886.22 152.584C885.559 152.2 885.036 151.667 884.652 150.984C884.279 150.291 884.092 149.491 884.092 148.584C884.092 147.677 884.273 146.883 884.636 146.2C885.009 145.507 885.527 144.973 886.188 144.6C886.86 144.227 887.628 144.04 888.492 144.04C889.324 144.04 890.065 144.221 890.716 144.584C891.367 144.947 891.873 145.459 892.236 146.12C892.599 146.771 892.78 147.523 892.78 148.376ZM890.876 147.8C890.865 147.128 890.625 146.589 890.156 146.184C889.687 145.779 889.105 145.576 888.412 145.576C887.783 145.576 887.244 145.779 886.796 146.184C886.348 146.579 886.081 147.117 885.996 147.8H890.876ZM895.311 153.112C894.98 153.112 894.703 153 894.479 152.776C894.255 152.552 894.143 152.275 894.143 151.944C894.143 151.613 894.255 151.336 894.479 151.112C894.703 150.888 894.98 150.776 895.311 150.776C895.631 150.776 895.903 150.888 896.127 151.112C896.351 151.336 896.463 151.613 896.463 151.944C896.463 152.275 896.351 152.552 896.127 152.776C895.903 153 895.631 153.112 895.311 153.112ZM899.362 143.016C899.032 143.016 898.754 142.904 898.53 142.68C898.306 142.456 898.194 142.179 898.194 141.848C898.194 141.517 898.306 141.24 898.53 141.016C898.754 140.792 899.032 140.68 899.362 140.68C899.682 140.68 899.954 140.792 900.178 141.016C900.402 141.24 900.514 141.517 900.514 141.848C900.514 142.179 900.402 142.456 900.178 142.68C899.954 142.904 899.682 143.016 899.362 143.016ZM900.258 154.728C900.258 155.592 900.04 156.216 899.602 156.6C899.176 156.995 898.552 157.192 897.73 157.192H896.786V155.656H897.41C897.784 155.656 898.045 155.581 898.194 155.432C898.354 155.293 898.434 155.059 898.434 154.728V144.184H900.258V154.728ZM905.853 153.144C905.16 153.144 904.536 153.021 903.981 152.776C903.437 152.52 903.005 152.179 902.685 151.752C902.365 151.315 902.194 150.829 902.173 150.296H904.061C904.093 150.669 904.269 150.984 904.589 151.24C904.92 151.485 905.33 151.608 905.821 151.608C906.333 151.608 906.728 151.512 907.005 151.32C907.293 151.117 907.437 150.861 907.437 150.552C907.437 150.221 907.277 149.976 906.957 149.816C906.648 149.656 906.152 149.48 905.469 149.288C904.808 149.107 904.269 148.931 903.853 148.76C903.437 148.589 903.074 148.328 902.765 147.976C902.466 147.624 902.317 147.16 902.317 146.584C902.317 146.115 902.456 145.688 902.733 145.304C903.01 144.909 903.405 144.6 903.917 144.376C904.44 144.152 905.037 144.04 905.709 144.04C906.712 144.04 907.517 144.296 908.125 144.808C908.744 145.309 909.074 145.997 909.117 146.872H907.293C907.261 146.477 907.101 146.163 906.813 145.928C906.525 145.693 906.136 145.576 905.645 145.576C905.165 145.576 904.797 145.667 904.541 145.848C904.285 146.029 904.157 146.269 904.157 146.568C904.157 146.803 904.242 147 904.413 147.16C904.584 147.32 904.792 147.448 905.037 147.544C905.282 147.629 905.645 147.741 906.125 147.88C906.765 148.051 907.288 148.227 907.693 148.408C908.109 148.579 908.466 148.835 908.765 149.176C909.064 149.517 909.218 149.971 909.229 150.536C909.229 151.037 909.09 151.485 908.813 151.88C908.536 152.275 908.141 152.584 907.629 152.808C907.128 153.032 906.536 153.144 905.853 153.144Z" fill="white"/>
<path d="M522.374 289L519.814 284.552H518.422V289H516.598V277.88H520.438C521.292 277.88 522.012 278.029 522.598 278.328C523.196 278.627 523.638 279.027 523.926 279.528C524.225 280.029 524.374 280.589 524.374 281.208C524.374 281.933 524.161 282.595 523.734 283.192C523.318 283.779 522.673 284.179 521.798 284.392L524.55 289H522.374ZM518.422 283.096H520.438C521.121 283.096 521.633 282.925 521.974 282.584C522.326 282.243 522.502 281.784 522.502 281.208C522.502 280.632 522.332 280.184 521.99 279.864C521.649 279.533 521.132 279.368 520.438 279.368H518.422V283.096ZM534.788 284.376C534.788 284.707 534.766 285.005 534.724 285.272H527.988C528.041 285.976 528.302 286.541 528.772 286.968C529.241 287.395 529.817 287.608 530.5 287.608C531.481 287.608 532.174 287.197 532.58 286.376H534.548C534.281 287.187 533.796 287.853 533.092 288.376C532.398 288.888 531.534 289.144 530.5 289.144C529.657 289.144 528.9 288.957 528.228 288.584C527.566 288.2 527.044 287.667 526.66 286.984C526.286 286.291 526.1 285.491 526.1 284.584C526.1 283.677 526.281 282.883 526.644 282.2C527.017 281.507 527.534 280.973 528.196 280.6C528.868 280.227 529.636 280.04 530.5 280.04C531.332 280.04 532.073 280.221 532.724 280.584C533.374 280.947 533.881 281.459 534.244 282.12C534.606 282.771 534.788 283.523 534.788 284.376ZM532.884 283.8C532.873 283.128 532.633 282.589 532.164 282.184C531.694 281.779 531.113 281.576 530.42 281.576C529.79 281.576 529.252 281.779 528.804 282.184C528.356 282.579 528.089 283.117 528.004 283.8H532.884ZM535.975 284.552C535.975 283.667 536.156 282.883 536.519 282.2C536.892 281.517 537.393 280.989 538.023 280.616C538.663 280.232 539.372 280.04 540.151 280.04C540.727 280.04 541.292 280.168 541.847 280.424C542.412 280.669 542.86 281 543.191 281.416V277.16H545.031V289H543.191V287.672C542.892 288.099 542.476 288.451 541.943 288.728C541.42 289.005 540.817 289.144 540.135 289.144C539.367 289.144 538.663 288.952 538.023 288.568C537.393 288.173 536.892 287.629 536.519 286.936C536.156 286.232 535.975 285.437 535.975 284.552ZM543.191 284.584C543.191 283.976 543.063 283.448 542.807 283C542.561 282.552 542.236 282.211 541.831 281.976C541.425 281.741 540.988 281.624 540.519 281.624C540.049 281.624 539.612 281.741 539.207 281.976C538.801 282.2 538.471 282.536 538.215 282.984C537.969 283.421 537.847 283.944 537.847 284.552C537.847 285.16 537.969 285.693 538.215 286.152C538.471 286.611 538.801 286.963 539.207 287.208C539.623 287.443 540.06 287.56 540.519 287.56C540.988 287.56 541.425 287.443 541.831 287.208C542.236 286.973 542.561 286.632 542.807 286.184C543.063 285.725 543.191 285.192 543.191 284.584ZM555.411 280.184V289H553.587V287.96C553.299 288.323 552.92 288.611 552.451 288.824C551.992 289.027 551.501 289.128 550.979 289.128C550.285 289.128 549.661 288.984 549.107 288.696C548.563 288.408 548.131 287.981 547.811 287.416C547.501 286.851 547.347 286.168 547.347 285.368V280.184H549.155V285.096C549.155 285.885 549.352 286.493 549.747 286.92C550.141 287.336 550.68 287.544 551.363 287.544C552.045 287.544 552.584 287.336 552.979 286.92C553.384 286.493 553.587 285.885 553.587 285.096V280.184H555.411ZM561.593 284.536L564.441 289H562.377L560.473 286.008L558.681 289H556.777L559.625 284.664L556.777 280.184H558.841L560.745 283.176L562.537 280.184H564.441L561.593 284.536Z" fill="white"/>
<path d="M576.65 392.88V394.368H573.69V404H571.866V394.368H568.89V392.88H576.65ZM586.433 395.184L581.025 408.144H579.137L580.929 403.856L577.457 395.184H579.489L581.969 401.904L584.545 395.184H586.433ZM589.633 396.48C589.943 396.075 590.364 395.733 590.897 395.456C591.431 395.179 592.033 395.04 592.705 395.04C593.473 395.04 594.172 395.232 594.801 395.616C595.441 395.989 595.943 396.517 596.305 397.2C596.668 397.883 596.849 398.667 596.849 399.552C596.849 400.437 596.668 401.232 596.305 401.936C595.943 402.629 595.441 403.173 594.801 403.568C594.172 403.952 593.473 404.144 592.705 404.144C592.033 404.144 591.436 404.011 590.913 403.744C590.391 403.467 589.964 403.125 589.633 402.72V408.192H587.809V395.184H589.633V396.48ZM594.993 399.552C594.993 398.944 594.865 398.421 594.609 397.984C594.364 397.536 594.033 397.2 593.617 396.976C593.212 396.741 592.775 396.624 592.305 396.624C591.847 396.624 591.409 396.741 590.993 396.976C590.588 397.211 590.257 397.552 590.001 398C589.756 398.448 589.633 398.976 589.633 399.584C589.633 400.192 589.756 400.725 590.001 401.184C590.257 401.632 590.588 401.973 590.993 402.208C591.409 402.443 591.847 402.56 592.305 402.56C592.775 402.56 593.212 402.443 593.617 402.208C594.033 401.963 594.364 401.611 594.609 401.152C594.865 400.693 594.993 400.16 594.993 399.552ZM606.733 399.376C606.733 399.707 606.712 400.005 606.669 400.272H599.933C599.986 400.976 600.248 401.541 600.717 401.968C601.186 402.395 601.762 402.608 602.445 402.608C603.426 402.608 604.12 402.197 604.525 401.376H606.493C606.226 402.187 605.741 402.853 605.037 403.376C604.344 403.888 603.48 404.144 602.445 404.144C601.602 404.144 600.845 403.957 600.173 403.584C599.512 403.2 598.989 402.667 598.605 401.984C598.232 401.291 598.045 400.491 598.045 399.584C598.045 398.677 598.226 397.883 598.589 397.2C598.962 396.507 599.48 395.973 600.141 395.6C600.813 395.227 601.581 395.04 602.445 395.04C603.277 395.04 604.018 395.221 604.669 395.584C605.32 395.947 605.826 396.459 606.189 397.12C606.552 397.771 606.733 398.523 606.733 399.376ZM604.829 398.8C604.818 398.128 604.578 397.589 604.109 397.184C603.64 396.779 603.058 396.576 602.365 396.576C601.736 396.576 601.197 396.779 600.749 397.184C600.301 397.579 600.034 398.117 599.949 398.8H604.829ZM612.192 404.112C611.445 404.112 610.773 403.984 610.176 403.728C609.579 403.461 609.109 403.088 608.768 402.608C608.427 402.128 608.256 401.568 608.256 400.928H610.208C610.251 401.408 610.437 401.803 610.768 402.112C611.109 402.421 611.584 402.576 612.192 402.576C612.821 402.576 613.312 402.427 613.664 402.128C614.016 401.819 614.192 401.424 614.192 400.944C614.192 400.571 614.08 400.267 613.856 400.032C613.643 399.797 613.371 399.616 613.04 399.488C612.72 399.36 612.272 399.221 611.696 399.072C610.971 398.88 610.379 398.688 609.92 398.496C609.472 398.293 609.088 397.984 608.768 397.568C608.448 397.152 608.288 396.597 608.288 395.904C608.288 395.264 608.448 394.704 608.768 394.224C609.088 393.744 609.536 393.376 610.112 393.12C610.688 392.864 611.355 392.736 612.112 392.736C613.189 392.736 614.069 393.008 614.752 393.552C615.445 394.085 615.829 394.821 615.904 395.76H613.888C613.856 395.355 613.664 395.008 613.312 394.72C612.96 394.432 612.496 394.288 611.92 394.288C611.397 394.288 610.971 394.421 610.64 394.688C610.309 394.955 610.144 395.339 610.144 395.84C610.144 396.181 610.245 396.464 610.448 396.688C610.661 396.901 610.928 397.072 611.248 397.2C611.568 397.328 612.005 397.467 612.56 397.616C613.296 397.819 613.893 398.021 614.352 398.224C614.821 398.427 615.216 398.741 615.536 399.168C615.867 399.584 616.032 400.144 616.032 400.848C616.032 401.413 615.877 401.947 615.568 402.448C615.269 402.949 614.827 403.355 614.24 403.664C613.664 403.963 612.981 404.112 612.192 404.112ZM617.576 399.584C617.576 398.677 617.758 397.883 618.12 397.2C618.494 396.507 619.006 395.973 619.656 395.6C620.307 395.227 621.054 395.04 621.896 395.04C622.963 395.04 623.843 395.296 624.536 395.808C625.24 396.309 625.715 397.029 625.96 397.968H623.992C623.832 397.531 623.576 397.189 623.224 396.944C622.872 396.699 622.43 396.576 621.896 396.576C621.15 396.576 620.552 396.843 620.104 397.376C619.667 397.899 619.448 398.635 619.448 399.584C619.448 400.533 619.667 401.275 620.104 401.808C620.552 402.341 621.15 402.608 621.896 402.608C622.952 402.608 623.651 402.144 623.992 401.216H625.96C625.704 402.112 625.224 402.827 624.52 403.36C623.816 403.883 622.942 404.144 621.896 404.144C621.054 404.144 620.307 403.957 619.656 403.584C619.006 403.2 618.494 402.667 618.12 401.984C617.758 401.291 617.576 400.491 617.576 399.584ZM629.602 396.464C629.869 396.016 630.221 395.669 630.658 395.424C631.106 395.168 631.634 395.04 632.242 395.04V396.928H631.778C631.063 396.928 630.519 397.109 630.146 397.472C629.783 397.835 629.602 398.464 629.602 399.36V404H627.778V395.184H629.602V396.464ZM634.847 394.016C634.516 394.016 634.239 393.904 634.015 393.68C633.791 393.456 633.679 393.179 633.679 392.848C633.679 392.517 633.791 392.24 634.015 392.016C634.239 391.792 634.516 391.68 634.847 391.68C635.167 391.68 635.439 391.792 635.663 392.016C635.887 392.24 635.999 392.517 635.999 392.848C635.999 393.179 635.887 393.456 635.663 393.68C635.439 393.904 635.167 394.016 634.847 394.016ZM635.743 395.184V404H633.919V395.184H635.743ZM639.962 396.48C640.271 396.075 640.692 395.733 641.226 395.456C641.759 395.179 642.362 395.04 643.034 395.04C643.802 395.04 644.5 395.232 645.13 395.616C645.77 395.989 646.271 396.517 646.634 397.2C646.996 397.883 647.178 398.667 647.178 399.552C647.178 400.437 646.996 401.232 646.634 401.936C646.271 402.629 645.77 403.173 645.13 403.568C644.5 403.952 643.802 404.144 643.034 404.144C642.362 404.144 641.764 404.011 641.242 403.744C640.719 403.467 640.292 403.125 639.962 402.72V408.192H638.138V395.184H639.962V396.48ZM645.322 399.552C645.322 398.944 645.194 398.421 644.938 397.984C644.692 397.536 644.362 397.2 643.946 396.976C643.54 396.741 643.103 396.624 642.634 396.624C642.175 396.624 641.738 396.741 641.322 396.976C640.916 397.211 640.586 397.552 640.33 398C640.084 398.448 639.962 398.976 639.962 399.584C639.962 400.192 640.084 400.725 640.33 401.184C640.586 401.632 640.916 401.973 641.322 402.208C641.738 402.443 642.175 402.56 642.634 402.56C643.103 402.56 643.54 402.443 643.946 402.208C644.362 401.963 644.692 401.611 644.938 401.152C645.194 400.693 645.322 400.16 645.322 399.552ZM651.109 396.672V401.552C651.109 401.883 651.184 402.123 651.333 402.272C651.493 402.411 651.76 402.48 652.133 402.48H653.253V404H651.813C650.992 404 650.363 403.808 649.925 403.424C649.488 403.04 649.269 402.416 649.269 401.552V396.672H648.229V395.184H649.269V392.992H651.109V395.184H653.253V396.672H651.109Z" fill="white"/>
<path d="M745.352 84H743.528L738.04 75.696V84H736.216V72.864H738.04L743.528 81.152V72.864H745.352V84ZM755.827 79.376C755.827 79.7067 755.806 80.0053 755.763 80.272H749.027C749.08 80.976 749.342 81.5413 749.811 81.968C750.28 82.3947 750.856 82.608 751.539 82.608C752.52 82.608 753.214 82.1973 753.619 81.376H755.587C755.32 82.1867 754.835 82.8533 754.131 83.376C753.438 83.888 752.574 84.144 751.539 84.144C750.696 84.144 749.939 83.9573 749.267 83.584C748.606 83.2 748.083 82.6667 747.699 81.984C747.326 81.2907 747.139 80.4907 747.139 79.584C747.139 78.6773 747.32 77.8827 747.683 77.2C748.056 76.5067 748.574 75.9733 749.235 75.6C749.907 75.2267 750.675 75.04 751.539 75.04C752.371 75.04 753.112 75.2213 753.763 75.584C754.414 75.9467 754.92 76.4587 755.283 77.12C755.646 77.7707 755.827 78.5227 755.827 79.376ZM753.923 78.8C753.912 78.128 753.672 77.5893 753.203 77.184C752.734 76.7787 752.152 76.576 751.459 76.576C750.83 76.576 750.291 76.7787 749.843 77.184C749.395 77.5787 749.128 78.1173 749.043 78.8H753.923ZM761.398 79.536L764.246 84H762.182L760.278 81.008L758.486 84H756.582L759.43 79.664L756.582 75.184H758.646L760.55 78.176L762.342 75.184H764.246L761.398 79.536ZM767.734 76.672V81.552C767.734 81.8827 767.809 82.1227 767.958 82.272C768.118 82.4107 768.385 82.48 768.758 82.48H769.878V84H768.438C767.617 84 766.988 83.808 766.55 83.424C766.113 83.04 765.894 82.416 765.894 81.552V76.672H764.854V75.184H765.894V72.992H767.734V75.184H769.878V76.672H767.734ZM772.295 84.112C771.965 84.112 771.687 84 771.463 83.776C771.239 83.552 771.127 83.2747 771.127 82.944C771.127 82.6133 771.239 82.336 771.463 82.112C771.687 81.888 771.965 81.776 772.295 81.776C772.615 81.776 772.887 81.888 773.111 82.112C773.335 82.336 773.447 82.6133 773.447 82.944C773.447 83.2747 773.335 83.552 773.111 83.776C772.887 84 772.615 84.112 772.295 84.112ZM776.347 74.016C776.016 74.016 775.739 73.904 775.515 73.68C775.291 73.456 775.179 73.1787 775.179 72.848C775.179 72.5173 775.291 72.24 775.515 72.016C775.739 71.792 776.016 71.68 776.347 71.68C776.667 71.68 776.939 71.792 777.163 72.016C777.387 72.24 777.499 72.5173 777.499 72.848C777.499 73.1787 777.387 73.456 777.163 73.68C776.939 73.904 776.667 74.016 776.347 74.016ZM777.243 85.728C777.243 86.592 777.024 87.216 776.587 87.6C776.16 87.9947 775.536 88.192 774.715 88.192H773.771V86.656H774.395C774.768 86.656 775.029 86.5813 775.179 86.432C775.339 86.2933 775.419 86.0587 775.419 85.728V75.184H777.243V85.728ZM782.838 84.144C782.144 84.144 781.52 84.0213 780.966 83.776C780.422 83.52 779.99 83.1787 779.67 82.752C779.35 82.3147 779.179 81.8293 779.158 81.296H781.046C781.078 81.6693 781.254 81.984 781.574 82.24C781.904 82.4853 782.315 82.608 782.806 82.608C783.318 82.608 783.712 82.512 783.99 82.32C784.278 82.1173 784.422 81.8613 784.422 81.552C784.422 81.2213 784.262 80.976 783.942 80.816C783.632 80.656 783.136 80.48 782.454 80.288C781.792 80.1067 781.254 79.9307 780.838 79.76C780.422 79.5893 780.059 79.328 779.75 78.976C779.451 78.624 779.302 78.16 779.302 77.584C779.302 77.1147 779.44 76.688 779.718 76.304C779.995 75.9093 780.39 75.6 780.902 75.376C781.424 75.152 782.022 75.04 782.694 75.04C783.696 75.04 784.502 75.296 785.11 75.808C785.728 76.3093 786.059 76.9973 786.102 77.872H784.278C784.246 77.4773 784.086 77.1627 783.798 76.928C783.51 76.6933 783.12 76.576 782.63 76.576C782.15 76.576 781.782 76.6667 781.526 76.848C781.27 77.0293 781.142 77.2693 781.142 77.568C781.142 77.8027 781.227 78 781.398 78.16C781.568 78.32 781.776 78.448 782.022 78.544C782.267 78.6293 782.63 78.7413 783.11 78.88C783.75 79.0507 784.272 79.2267 784.678 79.408C785.094 79.5787 785.451 79.8347 785.75 80.176C786.048 80.5173 786.203 80.9707 786.214 81.536C786.214 82.0373 786.075 82.4853 785.798 82.88C785.52 83.2747 785.126 83.584 784.614 83.808C784.112 84.032 783.52 84.144 782.838 84.144Z" fill="white"/>
<path d="M962.311 281.08C962.023 280.525 961.623 280.109 961.111 279.832C960.599 279.544 960.007 279.4 959.335 279.4C958.599 279.4 957.943 279.565 957.367 279.896C956.791 280.227 956.337 280.696 956.007 281.304C955.687 281.912 955.527 282.616 955.527 283.416C955.527 284.216 955.687 284.925 956.007 285.544C956.337 286.152 956.791 286.621 957.367 286.952C957.943 287.283 958.599 287.448 959.335 287.448C960.327 287.448 961.132 287.171 961.751 286.616C962.369 286.061 962.748 285.309 962.887 284.36H958.711V282.904H964.839V284.328C964.721 285.192 964.412 285.987 963.911 286.712C963.42 287.437 962.775 288.019 961.975 288.456C961.185 288.883 960.305 289.096 959.335 289.096C958.289 289.096 957.335 288.856 956.471 288.376C955.607 287.885 954.919 287.208 954.407 286.344C953.905 285.48 953.655 284.504 953.655 283.416C953.655 282.328 953.905 281.352 954.407 280.488C954.919 279.624 955.607 278.952 956.471 278.472C957.345 277.981 958.3 277.736 959.335 277.736C960.519 277.736 961.569 278.029 962.487 278.616C963.415 279.192 964.087 280.013 964.503 281.08H962.311ZM966.03 284.552C966.03 283.667 966.211 282.883 966.574 282.2C966.947 281.517 967.448 280.989 968.078 280.616C968.718 280.232 969.422 280.04 970.19 280.04C970.883 280.04 971.486 280.179 971.998 280.456C972.52 280.723 972.936 281.059 973.246 281.464V280.184H975.086V289H973.246V287.688C972.936 288.104 972.515 288.451 971.982 288.728C971.448 289.005 970.84 289.144 970.158 289.144C969.4 289.144 968.707 288.952 968.078 288.568C967.448 288.173 966.947 287.629 966.574 286.936C966.211 286.232 966.03 285.437 966.03 284.552ZM973.246 284.584C973.246 283.976 973.118 283.448 972.862 283C972.616 282.552 972.291 282.211 971.886 281.976C971.48 281.741 971.043 281.624 970.574 281.624C970.104 281.624 969.667 281.741 969.262 281.976C968.856 282.2 968.526 282.536 968.27 282.984C968.024 283.421 967.902 283.944 967.902 284.552C967.902 285.16 968.024 285.693 968.27 286.152C968.526 286.611 968.856 286.963 969.262 287.208C969.678 287.443 970.115 287.56 970.574 287.56C971.043 287.56 971.48 287.443 971.886 287.208C972.291 286.973 972.616 286.632 972.862 286.184C973.118 285.725 973.246 285.192 973.246 284.584ZM979.609 281.672V286.552C979.609 286.883 979.684 287.123 979.833 287.272C979.993 287.411 980.26 287.48 980.633 287.48H981.753V289H980.313C979.492 289 978.863 288.808 978.425 288.424C977.988 288.04 977.769 287.416 977.769 286.552V281.672H976.729V280.184H977.769V277.992H979.609V280.184H981.753V281.672H979.609ZM986.634 289.144C985.941 289.144 985.317 289.021 984.762 288.776C984.218 288.52 983.786 288.179 983.466 287.752C983.146 287.315 982.976 286.829 982.954 286.296H984.842C984.874 286.669 985.05 286.984 985.37 287.24C985.701 287.485 986.112 287.608 986.602 287.608C987.114 287.608 987.509 287.512 987.786 287.32C988.074 287.117 988.218 286.861 988.218 286.552C988.218 286.221 988.058 285.976 987.738 285.816C987.429 285.656 986.933 285.48 986.25 285.288C985.589 285.107 985.05 284.931 984.634 284.76C984.218 284.589 983.856 284.328 983.546 283.976C983.248 283.624 983.098 283.16 983.098 282.584C983.098 282.115 983.237 281.688 983.514 281.304C983.792 280.909 984.186 280.6 984.698 280.376C985.221 280.152 985.818 280.04 986.49 280.04C987.493 280.04 988.298 280.296 988.906 280.808C989.525 281.309 989.856 281.997 989.898 282.872H988.074C988.042 282.477 987.882 282.163 987.594 281.928C987.306 281.693 986.917 281.576 986.426 281.576C985.946 281.576 985.578 281.667 985.322 281.848C985.066 282.029 984.938 282.269 984.938 282.568C984.938 282.803 985.024 283 985.194 283.16C985.365 283.32 985.573 283.448 985.818 283.544C986.064 283.629 986.426 283.741 986.906 283.88C987.546 284.051 988.069 284.227 988.474 284.408C988.89 284.579 989.248 284.835 989.546 285.176C989.845 285.517 990 285.971 990.01 286.536C990.01 287.037 989.872 287.485 989.594 287.88C989.317 288.275 988.922 288.584 988.41 288.808C987.909 289.032 987.317 289.144 986.634 289.144ZM993.805 281.496C994.115 281.069 994.536 280.723 995.069 280.456C995.613 280.179 996.216 280.04 996.877 280.04C997.656 280.04 998.36 280.227 998.989 280.6C999.619 280.973 1000.11 281.507 1000.48 282.2C1000.84 282.883 1001.02 283.667 1001.02 284.552C1001.02 285.437 1000.84 286.232 1000.48 286.936C1000.11 287.629 999.613 288.173 998.973 288.568C998.344 288.952 997.645 289.144 996.877 289.144C996.195 289.144 995.587 289.011 995.053 288.744C994.531 288.477 994.115 288.136 993.805 287.72V289H991.981V277.16H993.805V281.496ZM999.165 284.552C999.165 283.944 999.037 283.421 998.781 282.984C998.536 282.536 998.205 282.2 997.789 281.976C997.384 281.741 996.947 281.624 996.477 281.624C996.019 281.624 995.581 281.741 995.165 281.976C994.76 282.211 994.429 282.552 994.173 283C993.928 283.448 993.805 283.976 993.805 284.584C993.805 285.192 993.928 285.725 994.173 286.184C994.429 286.632 994.76 286.973 995.165 287.208C995.581 287.443 996.019 287.56 996.477 287.56C996.947 287.56 997.384 287.443 997.789 287.208C998.205 286.963 998.536 286.611 998.781 286.152C999.037 285.693 999.165 285.16 999.165 284.552ZM1010.76 280.184L1005.35 293.144H1003.47L1005.26 288.856L1001.79 280.184H1003.82L1006.3 286.904L1008.87 280.184H1010.76Z" fill="white"/>
<path d="M1173.21 466.88V478H1171.38V473.136H1166.15V478H1164.33V466.88H1166.15V471.648H1171.38V466.88H1173.21ZM1182.79 466.88V468.368H1179.83V478H1178.01V468.368H1175.03V466.88H1182.79ZM1196.35 466.88V478H1194.53V470.384L1191.13 478H1189.87L1186.46 470.384V478H1184.64V466.88H1186.61L1190.51 475.6L1194.4 466.88H1196.35ZM1200.57 476.528H1204.33V478H1198.75V466.88H1200.57V476.528ZM1213.14 467.904H1207.78V471.088C1208 470.789 1208.33 470.539 1208.77 470.336C1209.22 470.133 1209.69 470.032 1210.19 470.032C1211.09 470.032 1211.81 470.224 1212.37 470.608C1212.93 470.992 1213.33 471.477 1213.57 472.064C1213.81 472.651 1213.94 473.269 1213.94 473.92C1213.94 474.709 1213.78 475.413 1213.47 476.032C1213.17 476.64 1212.72 477.12 1212.11 477.472C1211.51 477.824 1210.78 478 1209.9 478C1208.74 478 1207.81 477.712 1207.1 477.136C1206.4 476.56 1205.98 475.797 1205.84 474.848H1207.62C1207.73 475.349 1207.99 475.749 1208.4 476.048C1208.81 476.336 1209.31 476.48 1209.92 476.48C1210.68 476.48 1211.24 476.251 1211.62 475.792C1212 475.333 1212.19 474.725 1212.19 473.968C1212.19 473.2 1212 472.613 1211.62 472.208C1211.23 471.792 1210.67 471.584 1209.92 471.584C1209.4 471.584 1208.95 471.717 1208.59 471.984C1208.24 472.24 1207.98 472.592 1207.82 473.04H1206.1V466.304H1213.14V467.904Z" fill="white"/>
<path d="M311.998 472.416C311.998 471.328 312.249 470.352 312.75 469.488C313.262 468.624 313.95 467.952 314.814 467.472C315.689 466.981 316.644 466.736 317.678 466.736C318.862 466.736 319.913 467.029 320.83 467.616C321.758 468.192 322.43 469.013 322.846 470.08H320.654C320.366 469.493 319.966 469.056 319.454 468.768C318.942 468.48 318.35 468.336 317.678 468.336C316.942 468.336 316.286 468.501 315.71 468.832C315.134 469.163 314.681 469.637 314.35 470.256C314.03 470.875 313.87 471.595 313.87 472.416C313.87 473.237 314.03 473.957 314.35 474.576C314.681 475.195 315.134 475.675 315.71 476.016C316.286 476.347 316.942 476.512 317.678 476.512C318.35 476.512 318.942 476.368 319.454 476.08C319.966 475.792 320.366 475.355 320.654 474.768H322.846C322.43 475.835 321.758 476.656 320.83 477.232C319.913 477.808 318.862 478.096 317.678 478.096C316.633 478.096 315.678 477.856 314.814 477.376C313.95 476.885 313.262 476.208 312.75 475.344C312.249 474.48 311.998 473.504 311.998 472.416ZM328.645 478.112C327.899 478.112 327.227 477.984 326.629 477.728C326.032 477.461 325.563 477.088 325.221 476.608C324.88 476.128 324.709 475.568 324.709 474.928H326.661C326.704 475.408 326.891 475.803 327.221 476.112C327.563 476.421 328.037 476.576 328.645 476.576C329.275 476.576 329.765 476.427 330.117 476.128C330.469 475.819 330.645 475.424 330.645 474.944C330.645 474.571 330.533 474.267 330.309 474.032C330.096 473.797 329.824 473.616 329.493 473.488C329.173 473.36 328.725 473.221 328.149 473.072C327.424 472.88 326.832 472.688 326.373 472.496C325.925 472.293 325.541 471.984 325.221 471.568C324.901 471.152 324.741 470.597 324.741 469.904C324.741 469.264 324.901 468.704 325.221 468.224C325.541 467.744 325.989 467.376 326.565 467.12C327.141 466.864 327.808 466.736 328.565 466.736C329.643 466.736 330.523 467.008 331.205 467.552C331.899 468.085 332.283 468.821 332.357 469.76H330.341C330.309 469.355 330.117 469.008 329.765 468.72C329.413 468.432 328.949 468.288 328.373 468.288C327.851 468.288 327.424 468.421 327.093 468.688C326.763 468.955 326.597 469.339 326.597 469.84C326.597 470.181 326.699 470.464 326.901 470.688C327.115 470.901 327.381 471.072 327.701 471.2C328.021 471.328 328.459 471.467 329.013 471.616C329.749 471.819 330.347 472.021 330.805 472.224C331.275 472.427 331.669 472.741 331.989 473.168C332.32 473.584 332.485 474.144 332.485 474.848C332.485 475.413 332.331 475.947 332.021 476.448C331.723 476.949 331.28 477.355 330.693 477.664C330.117 477.963 329.435 478.112 328.645 478.112ZM338.302 478.112C337.555 478.112 336.883 477.984 336.286 477.728C335.688 477.461 335.219 477.088 334.878 476.608C334.536 476.128 334.366 475.568 334.366 474.928H336.318C336.36 475.408 336.547 475.803 336.878 476.112C337.219 476.421 337.694 476.576 338.302 476.576C338.931 476.576 339.422 476.427 339.774 476.128C340.126 475.819 340.302 475.424 340.302 474.944C340.302 474.571 340.19 474.267 339.966 474.032C339.752 473.797 339.48 473.616 339.15 473.488C338.83 473.36 338.382 473.221 337.806 473.072C337.08 472.88 336.488 472.688 336.03 472.496C335.582 472.293 335.198 471.984 334.878 471.568C334.558 471.152 334.398 470.597 334.398 469.904C334.398 469.264 334.558 468.704 334.878 468.224C335.198 467.744 335.646 467.376 336.222 467.12C336.798 466.864 337.464 466.736 338.222 466.736C339.299 466.736 340.179 467.008 340.862 467.552C341.555 468.085 341.939 468.821 342.014 469.76H339.998C339.966 469.355 339.774 469.008 339.422 468.72C339.07 468.432 338.606 468.288 338.03 468.288C337.507 468.288 337.08 468.421 336.75 468.688C336.419 468.955 336.254 469.339 336.254 469.84C336.254 470.181 336.355 470.464 336.558 470.688C336.771 470.901 337.038 471.072 337.358 471.2C337.678 471.328 338.115 471.467 338.67 471.616C339.406 471.819 340.003 472.021 340.462 472.224C340.931 472.427 341.326 472.741 341.646 473.168C341.976 473.584 342.142 474.144 342.142 474.848C342.142 475.413 341.987 475.947 341.678 476.448C341.379 476.949 340.936 477.355 340.35 477.664C339.774 477.963 339.091 478.112 338.302 478.112ZM344.022 469.216C344.086 468.224 344.464 467.451 345.158 466.896C345.862 466.341 346.758 466.064 347.846 466.064C348.592 466.064 349.238 466.197 349.782 466.464C350.326 466.731 350.736 467.093 351.014 467.552C351.291 468.011 351.43 468.528 351.43 469.104C351.43 469.765 351.254 470.331 350.902 470.8C350.55 471.269 350.128 471.584 349.638 471.744V471.808C350.267 472 350.758 472.352 351.11 472.864C351.462 473.365 351.638 474.011 351.638 474.8C351.638 475.429 351.494 475.989 351.206 476.48C350.918 476.971 350.491 477.36 349.926 477.648C349.36 477.925 348.683 478.064 347.894 478.064C346.742 478.064 345.792 477.771 345.046 477.184C344.31 476.587 343.915 475.733 343.862 474.624H345.622C345.664 475.189 345.883 475.653 346.278 476.016C346.672 476.368 347.206 476.544 347.878 476.544C348.528 476.544 349.03 476.368 349.382 476.016C349.734 475.653 349.91 475.189 349.91 474.624C349.91 473.877 349.67 473.349 349.19 473.04C348.72 472.72 347.995 472.56 347.014 472.56H346.598V471.056H347.03C347.894 471.045 348.55 470.901 348.998 470.624C349.456 470.347 349.686 469.909 349.686 469.312C349.686 468.8 349.52 468.395 349.19 468.096C348.859 467.787 348.39 467.632 347.782 467.632C347.184 467.632 346.72 467.787 346.39 468.096C346.059 468.395 345.862 468.768 345.798 469.216H344.022Z" fill="white"/>
<path d="M745.289 259L742.729 254.552H741.337V259H739.513V247.88H743.353C744.206 247.88 744.926 248.029 745.513 248.328C746.11 248.627 746.553 249.027 746.841 249.528C747.139 250.029 747.289 250.589 747.289 251.208C747.289 251.933 747.075 252.595 746.649 253.192C746.233 253.779 745.587 254.179 744.713 254.392L747.465 259H745.289ZM741.337 253.096H743.353C744.035 253.096 744.547 252.925 744.889 252.584C745.241 252.243 745.417 251.784 745.417 251.208C745.417 250.632 745.246 250.184 744.905 249.864C744.563 249.533 744.046 249.368 743.353 249.368H741.337V253.096ZM757.702 254.376C757.702 254.707 757.681 255.005 757.638 255.272H750.902C750.955 255.976 751.217 256.541 751.686 256.968C752.155 257.395 752.731 257.608 753.414 257.608C754.395 257.608 755.089 257.197 755.494 256.376H757.462C757.195 257.187 756.71 257.853 756.006 258.376C755.313 258.888 754.449 259.144 753.414 259.144C752.571 259.144 751.814 258.957 751.142 258.584C750.481 258.2 749.958 257.667 749.574 256.984C749.201 256.291 749.014 255.491 749.014 254.584C749.014 253.677 749.195 252.883 749.558 252.2C749.931 251.507 750.449 250.973 751.11 250.6C751.782 250.227 752.55 250.04 753.414 250.04C754.246 250.04 754.987 250.221 755.638 250.584C756.289 250.947 756.795 251.459 757.158 252.12C757.521 252.771 757.702 253.523 757.702 254.376ZM755.798 253.8C755.787 253.128 755.547 252.589 755.078 252.184C754.609 251.779 754.027 251.576 753.334 251.576C752.705 251.576 752.166 251.779 751.718 252.184C751.27 252.579 751.003 253.117 750.918 253.8H755.798ZM758.889 254.552C758.889 253.667 759.07 252.883 759.433 252.2C759.806 251.517 760.308 250.989 760.937 250.616C761.577 250.232 762.281 250.04 763.049 250.04C763.742 250.04 764.345 250.179 764.857 250.456C765.38 250.723 765.796 251.059 766.105 251.464V250.184H767.945V259H766.105V257.688C765.796 258.104 765.374 258.451 764.841 258.728C764.308 259.005 763.7 259.144 763.017 259.144C762.26 259.144 761.566 258.952 760.937 258.568C760.308 258.173 759.806 257.629 759.433 256.936C759.07 256.232 758.889 255.437 758.889 254.552ZM766.105 254.584C766.105 253.976 765.977 253.448 765.721 253C765.476 252.552 765.15 252.211 764.745 251.976C764.34 251.741 763.902 251.624 763.433 251.624C762.964 251.624 762.526 251.741 762.121 251.976C761.716 252.2 761.385 252.536 761.129 252.984C760.884 253.421 760.761 253.944 760.761 254.552C760.761 255.16 760.884 255.693 761.129 256.152C761.385 256.611 761.716 256.963 762.121 257.208C762.537 257.443 762.974 257.56 763.433 257.56C763.902 257.56 764.34 257.443 764.745 257.208C765.15 256.973 765.476 256.632 765.721 256.184C765.977 255.725 766.105 255.192 766.105 254.584ZM769.733 254.584C769.733 253.677 769.914 252.883 770.277 252.2C770.65 251.507 771.162 250.973 771.813 250.6C772.463 250.227 773.21 250.04 774.053 250.04C775.119 250.04 775.999 250.296 776.693 250.808C777.397 251.309 777.871 252.029 778.117 252.968H776.149C775.989 252.531 775.733 252.189 775.381 251.944C775.029 251.699 774.586 251.576 774.053 251.576C773.306 251.576 772.709 251.843 772.261 252.376C771.823 252.899 771.605 253.635 771.605 254.584C771.605 255.533 771.823 256.275 772.261 256.808C772.709 257.341 773.306 257.608 774.053 257.608C775.109 257.608 775.807 257.144 776.149 256.216H778.117C777.861 257.112 777.381 257.827 776.677 258.36C775.973 258.883 775.098 259.144 774.053 259.144C773.21 259.144 772.463 258.957 771.813 258.584C771.162 258.2 770.65 257.667 770.277 256.984C769.914 256.291 769.733 255.491 769.733 254.584ZM782.062 251.672V256.552C782.062 256.883 782.137 257.123 782.286 257.272C782.446 257.411 782.713 257.48 783.086 257.48H784.206V259H782.766C781.945 259 781.316 258.808 780.878 258.424C780.441 258.04 780.222 257.416 780.222 256.552V251.672H779.182V250.184H780.222V247.992H782.062V250.184H784.206V251.672H782.062Z" fill="white"/>
<path d="M895.863 76.7725H890.156L886 83.3476L882.438 76.7725H869.375L886 105.25L902.625 76.7725H895.863ZM873.509 79.1475H877.502L886 93.857L894.491 79.1475H898.484L886.001 100.537L873.509 79.1475Z" fill="white"/>
<defs>
<clipPath id="clip0_1_4311">
<rect width="38" height="38" fill="white" transform="translate(742 12)"/>
</clipPath>
<clipPath id="clip1_1_4311">
<rect width="38" height="38" fill="white" transform="translate(963 204)"/>
</clipPath>
<clipPath id="clip2_1_4311">
<rect width="38" height="38" fill="white" transform="translate(314 398)"/>
</clipPath>
</defs>
</svg>
