<svg width="1523" height="802" viewBox="0 0 1523 802" fill="none" xmlns="http://www.w3.org/2000/svg">
<mask id="mask0_1_4542" style="mask-type:alpha" maskUnits="userSpaceOnUse" x="0" y="587" width="1523" height="215">
<ellipse cx="761.5" cy="694.5" rx="761.5" ry="107.5" fill="black"/>
</mask>
<g mask="url(#mask0_1_4542)">
<rect y="587" width="1523" height="215" fill="black"/>
</g>
<path d="M754.13 9.57352C748.82 11.6038 742.574 16.7575 739.45 21.599C735.858 26.9089 735.702 40.9646 738.981 43.7758C740.231 44.869 741.324 46.5869 741.324 47.524C741.324 50.4913 751.632 57.8315 756.005 57.8315C757.098 57.8315 758.503 59.3932 758.972 61.2674C760.221 65.9526 758.503 147.32 757.254 148.569C756.629 149.038 753.35 150.287 749.758 151.224C746.166 152.317 740.699 154.816 737.42 157.002C734.296 159.189 731.017 160.907 730.392 160.594C728.049 159.657 666.36 107.339 666.36 106.246C666.36 105.621 667.453 102.497 668.703 99.5302C669.952 96.4067 671.045 89.3788 671.045 84.0689C671.045 75.9478 670.108 72.8243 666.36 65.9526C663.705 61.5797 660.894 57.8315 660.113 57.8315C659.332 57.8315 657.146 56.5821 655.428 55.0204C650.43 50.8036 639.03 48.9296 628.41 50.6475C620.445 51.8969 618.258 52.9901 612.324 59.0809C599.049 72.9805 597.175 89.8473 607.326 104.372C613.105 112.493 626.223 120.145 634.501 120.301H639.342L643.559 151.849C645.901 169.34 648.869 189.487 649.962 196.827C654.179 223.689 654.179 223.064 648.4 225.876C640.591 229.468 635.125 238.838 635.125 248.365C635.125 256.642 636.687 260.546 642.778 267.418L646.526 271.635L641.372 282.255C638.561 288.033 632.47 300.839 627.941 310.366L619.664 328.014H610.606H601.548L597.331 319.737C594.988 315.364 587.336 299.746 580.464 285.222L567.814 258.828L572.499 253.987C587.492 238.213 589.21 212.757 576.404 195.734C562.816 177.93 535.017 172.776 517.213 184.958C508.155 191.205 499.253 201.981 499.253 206.822C499.253 210.258 495.505 210.102 467.237 204.636C453.806 202.137 442.406 199.951 442.093 199.951C441.781 199.951 441.469 198.389 441.469 196.359C441.312 191.673 436.315 181.053 432.567 177.774C427.1 172.776 416.793 170.121 410.077 171.839C387.588 177.93 382.747 208.072 402.737 218.223C406.485 220.097 410.546 221.971 411.952 222.284C413.982 222.908 414.606 227.125 415.387 247.896C416.012 261.483 416.481 279.131 416.481 286.94V301.464L410.702 304.119C407.579 305.681 402.893 309.585 400.238 312.865C396.178 317.862 395.553 320.049 395.709 327.077C395.866 331.762 396.959 337.54 398.208 340.039L400.551 344.412L380.092 365.964C368.691 377.834 358.696 387.516 357.915 387.36C356.978 387.36 353.542 385.955 350.106 384.237C345.89 382.05 340.892 381.113 333.708 381.113C324.962 381.113 322.307 381.894 316.06 385.798C307.939 390.952 301.848 399.542 299.037 409.849C297.475 415.784 297.632 418.283 299.818 425.155C308.408 452.485 337.925 461.231 358.696 442.49C371.815 430.777 374.47 413.91 365.724 398.449L361.819 391.577L377.125 375.803C385.714 367.214 395.241 357.219 398.521 353.939C403.518 348.473 404.611 348.004 407.422 349.722C413.045 353.158 424.758 353.626 431.161 350.659C451.932 340.82 450.527 309.585 428.975 303.182C425.539 302.245 422.571 300.839 422.571 300.215C421.791 296.467 421.478 287.721 420.385 256.798L419.292 222.44L425.851 219.472C429.755 217.754 434.128 214.162 436.471 210.57C438.501 207.291 441.469 204.636 442.874 204.636C445.529 204.636 463.802 208.072 483.636 212.445L495.349 214.943L496.286 224.938C497.379 237.589 502.533 248.365 511.122 256.017C522.836 266.325 540.952 269.917 555.476 264.763C559.068 263.514 562.66 262.42 563.441 262.42C564.222 262.42 566.408 266.169 568.595 270.542C570.625 275.071 576.872 288.345 582.338 299.902C597.487 331.606 597.175 330.981 593.427 334.105C582.338 342.85 582.494 364.246 593.739 372.992C604.515 381.426 618.727 380.645 628.254 371.118C638.561 360.811 638.717 346.442 628.878 335.823C626.223 333.011 624.193 330.513 624.193 330.2C624.193 329.888 627.317 323.172 631.065 315.208C634.813 307.243 640.748 294.592 644.183 287.252L650.43 273.821L658.864 273.977C673.544 274.134 685.57 262.42 685.414 248.052C685.257 236.027 674.013 223.377 663.549 223.377C661.675 223.377 659.957 222.752 659.332 221.815C658.864 221.034 656.053 203.699 652.929 183.24C649.962 162.781 646.838 141.541 646.057 135.919C643.559 119.364 643.559 119.521 652.773 114.991C657.458 112.805 661.987 110.931 663.081 110.931C664.798 110.931 721.646 158.408 725.707 163.249C727.268 165.124 727.112 166.998 724.301 173.245C719.928 183.552 719.928 197.608 724.301 206.978C739.294 238.682 783.96 238.994 798.796 207.291C803.326 197.764 803.482 183.24 799.109 173.557C797.391 169.809 795.985 166.217 795.985 165.592C795.985 164.187 807.698 153.879 831.905 133.576C839.09 127.485 847.991 119.989 851.583 116.709C857.987 110.931 863.609 109.369 865.639 112.649C866.108 113.586 869.075 115.304 872.042 116.553C874.854 117.803 877.665 119.833 878.289 121.238C879.07 123.269 870.168 188.862 865.795 212.445C864.077 221.815 863.609 222.596 859.236 223.377C845.024 226.344 837.372 236.495 838.465 250.707C839.714 265.232 850.178 274.29 865.171 273.821L872.667 273.665L878.602 286.315C881.881 293.343 887.816 305.993 891.877 314.27C895.781 322.704 899.061 329.732 899.061 330.2C899.061 330.513 897.03 333.011 894.375 335.823C887.972 342.694 885.473 351.284 887.972 359.249C892.814 375.647 910.618 383.768 924.673 375.959C929.515 373.305 934.981 367.214 936.699 362.841C940.291 353.47 936.386 337.853 929.359 333.792C926.86 332.387 926.547 329.107 928.734 325.203C930.608 321.767 953.409 274.29 956.221 267.418C958.719 261.796 960.281 261.483 968.246 264.763C975.742 267.887 990.267 267.574 998.544 264.295C1014.94 257.579 1025.41 243.055 1026.97 224.938L1027.9 214.787L1052.11 209.79C1065.39 207.135 1077.88 204.792 1079.75 204.792C1081.94 204.636 1084.28 206.51 1086.47 210.102C1088.5 213.382 1093.03 217.286 1097.4 219.472C1104.27 222.908 1104.9 223.689 1104.43 228.374C1104.12 231.185 1103.34 248.052 1102.71 265.856C1102.09 283.66 1101.15 298.653 1100.68 299.434C1100.21 300.059 1096.31 302.401 1092.09 304.588C1087.88 306.774 1083.03 310.366 1081.32 312.709C1077.41 317.862 1076.01 331.137 1078.66 337.384C1083.66 349.566 1099.12 355.813 1111.77 350.972C1119.42 347.848 1117.55 346.599 1142.38 371.899L1161.59 391.577L1157.22 399.073C1145.97 419.376 1157.69 445.926 1180.33 451.392C1197.98 455.609 1214.69 446.707 1222.34 428.747C1229.53 412.036 1220.16 390.64 1202.51 383.144C1194.86 380.02 1180.33 380.489 1173.15 384.237C1169.71 385.955 1166.28 387.36 1165.34 387.36C1163.78 387.36 1154.87 378.458 1127.39 349.566C1121.92 343.787 1121.92 343.787 1124.73 339.571C1126.45 336.916 1127.54 332.074 1127.7 327.077C1127.7 320.049 1127.08 317.862 1123.02 312.865C1120.36 309.585 1115.67 305.681 1112.55 304.119L1106.77 301.464V286.94C1106.77 279.131 1107.24 261.483 1107.87 247.896C1108.65 227.125 1109.27 222.908 1111.3 222.44C1120.36 219.785 1127.23 214.787 1130.2 208.696C1137.38 193.547 1130.67 177.93 1114.27 172.464C1106.93 170.121 1106.62 170.121 1098.18 174.026C1088.81 178.242 1083.97 184.489 1082.41 194.016C1081.79 197.296 1081.32 199.951 1081.16 199.951C1081.16 199.951 1070.07 202.137 1056.8 204.636C1025.56 210.727 1025.09 210.727 1022.75 204.011C1020.56 198.076 1013.22 189.643 1006.04 184.958C996.357 178.398 982.302 176.524 970.276 179.96C938.104 189.174 927.484 229.468 950.754 253.987L955.44 258.828L942.79 285.222C935.762 299.746 928.265 315.364 926.079 319.737L922.174 328.014H912.804H903.59L893.438 306.462C887.816 294.749 881.725 282.098 880.007 278.35L876.728 271.635L880.476 267.418C886.567 260.546 888.128 256.642 888.128 248.365C888.128 237.432 883.912 230.873 873.604 225.563C868.919 223.064 869.075 224.47 872.667 200.731C873.448 195.578 875.478 181.21 877.196 168.716C881.257 138.105 883.287 124.518 884.224 122.176C884.536 121.238 887.035 120.301 889.534 120.301C892.033 120.301 894.688 119.521 895.156 118.74C895.625 117.803 897.655 117.178 899.529 117.178C904.995 117.178 914.678 108.12 918.739 99.374C925.61 84.5374 922.487 70.0132 909.993 58.1439C901.872 50.4913 890.315 48.1487 875.947 50.9598C869.231 52.3654 858.611 61.7359 855.176 69.3884C851.583 77.1972 851.271 92.8147 854.551 99.0616C858.611 106.87 862.828 102.341 808.323 147.944C799.89 155.128 792.549 160.907 791.925 160.907C791.456 160.907 788.177 158.877 784.428 156.378C780.836 153.879 775.214 151.224 772.091 150.755C768.811 150.131 766 149.194 765.531 148.569C764.438 146.539 763.189 61.7359 764.438 60.0179C765.063 59.2371 768.03 57.5192 770.997 56.2698C790.207 48.461 792.081 24.2539 774.277 12.5408C767.093 7.6994 760.846 6.76236 754.13 9.57352Z" fill="black"/>
<path d="M757.207 274.169L757.176 274.182L757.144 274.195C756.957 274.272 756.782 274.344 756.616 274.412C754.535 275.263 754.03 275.47 753.496 276.274C752.771 277.366 752.008 279.763 751.498 285.975C750.563 297.351 750.566 319.313 750.57 363.354C750.571 366.535 750.571 369.831 750.571 373.246C750.571 398.869 750.415 422.271 750.18 439.33C750.063 447.857 749.926 454.811 749.779 459.67C749.705 462.095 749.629 464.021 749.549 465.367C749.51 466.033 749.468 466.599 749.42 467.026C749.397 467.23 749.366 467.471 749.319 467.699C749.297 467.805 749.255 467.995 749.18 468.21C749.142 468.317 749.072 468.498 748.956 468.706C748.863 468.873 748.612 469.296 748.121 469.663L747.998 469.756L747.865 469.836C746.704 470.533 745.576 470.204 745.382 470.147L745.371 470.144C745.011 470.04 744.722 469.891 744.56 469.803C744.213 469.613 743.861 469.367 743.554 469.138C742.912 468.662 742.083 467.974 741.119 467.135C739.174 465.443 736.488 462.968 733.266 459.914C726.815 453.796 718.126 445.263 708.744 435.803C693.253 420.312 684.638 411.856 679.314 407.26C673.954 402.632 672.533 402.484 671.358 402.484C670.196 402.484 668.755 402.649 667.383 402.916C666.077 403.171 665.03 403.479 664.447 403.722C663.397 404.374 661.879 406.114 660.551 408.592C659.298 410.932 658.537 413.33 658.439 415.045C658.478 415.119 658.532 415.213 658.603 415.33C658.924 415.855 659.465 416.615 660.291 417.652C661.933 419.714 664.5 422.628 668.146 426.547C675.427 434.371 686.833 446.012 703.308 462.487L703.312 462.491L748.915 508.25L749.786 509.124L749.79 510.358L750.102 602.961C750.102 602.962 750.102 602.963 750.102 602.964C750.415 653.72 750.571 698.861 750.571 702.931C750.571 705.921 750.775 707.547 751.193 708.707C751.569 709.751 752.203 710.647 753.644 711.951L753.657 711.963L753.67 711.974C756.937 715 761.707 715.618 765.805 714.241C769.912 712.861 772.628 709.773 772.683 706.011L772.684 705.933L772.689 705.855L772.689 705.85L772.69 705.836L772.692 705.786C772.694 705.743 772.696 705.687 772.698 705.617C772.703 705.476 772.707 705.292 772.712 705.062C772.722 704.603 772.731 703.983 772.741 703.208C772.761 701.659 772.78 699.511 772.8 696.828C772.839 691.464 772.878 683.981 772.917 674.924C772.995 656.81 773.073 632.409 773.151 606.094V606.093L773.463 510.514L773.467 509.28L774.338 508.406L820.091 462.497C836.255 446.177 847.624 434.496 854.946 426.591C858.613 422.632 861.222 419.667 862.901 417.562C863.745 416.504 864.304 415.724 864.638 415.183C864.714 415.059 864.771 414.959 864.813 414.882C864.709 413.246 863.957 410.9 862.706 408.58C861.377 406.117 859.858 404.375 858.806 403.722C858.223 403.479 857.176 403.171 855.871 402.916C854.498 402.649 853.057 402.484 851.896 402.484C850.724 402.484 849.344 402.628 844.101 407.177C838.891 411.697 830.47 419.998 815.288 435.18C799.932 450.614 790.308 459.969 784.604 464.775C783.17 465.983 781.932 466.949 780.879 467.664C779.886 468.338 778.829 468.952 777.796 469.23C777.263 469.374 776.502 469.495 775.663 469.296C774.717 469.071 773.924 468.496 773.416 467.686C772.966 466.971 772.837 466.233 772.799 465.716C772.762 465.216 772.796 464.725 772.855 464.284C772.855 464.281 772.855 464.278 772.855 464.275C772.859 464.194 772.863 464.068 772.867 463.889C772.875 463.534 772.883 463.023 772.89 462.356C772.904 461.025 772.917 459.112 772.926 456.678C772.946 451.811 772.956 444.88 772.956 436.399C772.956 419.439 772.917 396.289 772.838 371.069L772.838 371.065L772.684 280.519L769.994 277.463L769.984 277.451L769.974 277.44C768.492 275.72 766.263 274.444 763.821 273.846C761.367 273.245 758.977 273.394 757.207 274.169ZM658.351 414.868C658.352 414.868 658.352 414.869 658.352 414.869C658.342 414.84 658.339 414.838 658.351 414.868ZM772.851 464.348C772.851 464.355 772.852 464.351 772.853 464.329C772.852 464.338 772.852 464.344 772.851 464.348Z" fill="#2B2B2B" stroke="#131313" stroke-width="6"/>
<path d="M535.247 321.878L535.233 321.885L535.22 321.893C533.48 322.855 532.542 323.549 531.858 324.471C531.171 325.398 530.534 326.844 530.047 329.657C529.047 335.435 528.882 345.536 528.803 365.033V401.416V404.416H525.803H473.328C451.052 404.416 437.809 404.494 429.59 404.842C421.234 405.196 418.577 405.83 417.041 406.598L417.004 406.616L416.966 406.634C413.256 408.361 411.248 411.173 410.709 414.235C410.161 417.343 411.066 421.091 413.969 424.67L413.98 424.684L413.991 424.698L416.066 427.318L479.128 427.777L543.785 428.245L545.024 428.254L545.896 429.135L603.209 487.073L603.212 487.076L660.681 545.014L661.551 545.891V547.127V624.277L661.551 627.839C661.55 668.047 661.55 687.916 662.667 698.376C663.244 703.78 664.079 706.11 664.964 707.376C665.803 708.578 666.855 709.133 669.436 710.465C671.419 711.456 672.344 711.743 673.103 711.785C673.837 711.825 674.768 711.652 676.785 710.831L676.804 710.823L676.824 710.815C677.521 710.542 678.074 710.341 678.557 710.165C679.185 709.936 679.694 709.75 680.248 709.507C681.061 709.15 681.522 708.84 681.874 708.46C682.627 707.649 683.52 705.837 684.13 700.354C685.238 690.403 685.234 670.967 685.226 631.13C685.225 627.602 685.225 623.915 685.225 620.06V536.188L619.729 470.692L553.355 404.318L552.476 403.439V402.197V365.808C552.476 345.915 552.307 335.439 551.217 329.449C550.685 326.528 549.988 325.037 549.246 324.109C548.515 323.194 547.505 322.525 545.653 321.69L545.645 321.686C543.264 320.604 541.625 320.21 540.209 320.237C538.823 320.263 537.327 320.699 535.247 321.878Z" fill="#2B2B2B" stroke="#131313" stroke-width="6"/>
<path d="M976.367 322.235L976.359 322.241L976.352 322.247C975.088 323.245 974.253 324.148 973.597 325.399C972.91 326.71 972.323 328.592 971.879 331.681C970.979 337.942 970.777 348.238 970.777 366.745V402.041V403.281L969.901 404.159L903.527 470.69L903.524 470.692L838.029 536.188V620.061C838.029 624.127 838.028 628.006 838.027 631.706C838.019 670.758 838.015 689.882 839.047 699.789C839.618 705.265 840.46 707.215 841.234 708.157C841.594 708.595 842.05 708.948 842.812 709.361C843.334 709.645 843.814 709.867 844.406 710.143C844.86 710.353 845.38 710.595 846.037 710.918L846.068 710.933L846.099 710.95C847.759 711.816 848.415 711.934 848.974 711.902C849.706 711.861 850.735 711.537 853.114 710.428C853.23 710.372 853.344 710.318 853.455 710.265C856.063 709.021 857.168 708.493 858.053 707.358C858.975 706.175 859.869 703.967 860.492 698.621C861.703 688.225 861.703 668.259 861.702 627.375C861.702 626.305 861.702 625.22 861.702 624.121V546.815V545.574L862.578 544.696L920.203 486.914L920.206 486.912L977.832 428.974L978.712 428.089H979.959H1041.65C1059.44 428.089 1075.26 427.933 1086.93 427.66C1092.76 427.524 1097.53 427.359 1100.98 427.171C1102.71 427.077 1104.07 426.979 1105.06 426.879C1105.55 426.829 1105.92 426.781 1106.18 426.739C1106.29 426.721 1106.36 426.706 1106.39 426.699C1110.2 425.207 1112.41 421.23 1112.44 416.719C1112.47 412.197 1110.3 408.051 1106.4 406.372C1105.71 406.095 1104.5 405.785 1102.27 405.514C1100.05 405.243 1096.97 405.028 1092.66 404.863C1084.04 404.533 1070.7 404.416 1049.77 404.416H997.451H994.451V401.416V365.496C994.451 346.262 994.246 335.774 993.24 329.61C992.745 326.575 992.097 324.892 991.387 323.814C990.723 322.806 989.855 322.095 988.391 321.293C986.715 320.435 984.455 320.03 982.143 320.209C979.81 320.39 977.737 321.139 976.367 322.235Z" fill="#2B2B2B" stroke="#131313" stroke-width="6"/>
<circle cx="636" cy="86" r="39" fill="#2B2B2B"/>
<circle cx="540" cy="223" r="45" fill="#2B2B2B"/>
<circle cx="982" cy="223" r="45" fill="#2B2B2B"/>
<circle cx="886" cy="86" r="39" fill="#2B2B2B"/>
<circle cx="761" cy="190" r="46" fill="#2B2B2B"/>
<path d="M749.658 188.983C749.658 189.623 749.723 190.143 749.846 190.526C749.983 190.907 750.158 191.323 750.399 191.774C750.475 191.894 750.517 192.032 750.519 192.174C750.519 192.346 750.415 192.522 750.194 192.694L749.102 193.422C748.971 193.517 748.815 193.571 748.653 193.578C748.478 193.578 748.306 193.494 748.133 193.338C747.9 193.086 747.691 192.813 747.509 192.522C747.317 192.188 747.139 191.847 746.976 191.498C745.624 193.094 743.931 193.893 741.89 193.893C740.437 193.893 739.277 193.474 738.432 192.642C737.584 191.81 737.152 190.699 737.152 189.311C737.152 187.835 737.672 186.639 738.725 185.736C739.781 184.832 741.182 184.384 742.963 184.384C743.548 184.384 744.155 184.436 744.796 184.52C745.436 184.608 746.096 184.748 746.785 184.904V183.636C746.785 182.317 746.508 181.397 745.972 180.861C745.42 180.321 744.484 180.061 743.151 180.061C742.547 180.061 741.926 180.133 741.286 180.289C740.649 180.44 740.025 180.637 739.417 180.877C739.221 180.966 739.019 181.042 738.812 181.105C738.723 181.134 738.63 181.152 738.536 181.157C738.292 181.157 738.172 180.981 738.172 180.617V179.766C738.172 179.489 738.205 179.278 738.292 179.161C738.423 179.002 738.59 178.876 738.78 178.794C739.381 178.482 740.109 178.222 740.957 178.014C741.802 177.786 742.703 177.686 743.655 177.686C745.712 177.686 747.217 178.154 748.185 179.09C749.138 180.026 749.622 181.449 749.622 183.36V188.983H749.654H749.658ZM742.634 191.618C743.203 191.618 743.791 191.514 744.415 191.306C745.039 191.098 745.592 190.715 746.057 190.195C746.335 189.876 746.537 189.496 746.645 189.087C746.749 188.667 746.82 188.167 746.82 187.575V186.847C746.295 186.72 745.764 186.622 745.228 186.555C744.689 186.485 744.146 186.449 743.603 186.448C742.443 186.448 741.598 186.675 741.026 187.143C740.454 187.611 740.181 188.271 740.181 189.139C740.181 189.951 740.385 190.559 740.818 190.978C741.234 191.41 741.838 191.618 742.634 191.618ZM756.522 193.494C756.21 193.494 756.002 193.442 755.865 193.318C755.725 193.214 755.605 192.974 755.501 192.642L751.439 179.229C751.36 179.004 751.307 178.771 751.283 178.534C751.283 178.258 751.419 178.102 751.695 178.102H753.392C753.717 178.102 753.944 178.154 754.065 178.274C754.204 178.378 754.308 178.622 754.412 178.95L757.318 190.439L760.015 178.95C760.1 178.605 760.204 178.378 760.344 178.274C760.551 178.147 760.793 178.087 761.036 178.102H762.42C762.745 178.102 762.973 178.154 763.109 178.274C763.249 178.378 763.369 178.622 763.441 178.95L766.171 190.578L769.161 178.95C769.216 178.698 769.336 178.465 769.509 178.274C769.71 178.146 769.947 178.086 770.185 178.102H771.793C772.07 178.102 772.226 178.241 772.226 178.534C772.226 178.622 772.206 178.709 772.193 178.813C772.165 178.961 772.124 179.106 772.07 179.246L767.9 192.658C767.799 193.006 767.676 193.234 767.539 193.338C767.343 193.463 767.112 193.523 766.879 193.51H765.394C765.066 193.51 764.842 193.458 764.702 193.338C764.562 193.214 764.442 192.99 764.374 192.642L761.692 181.452L759.027 192.629C758.943 192.977 758.839 193.201 758.702 193.321C758.563 193.445 758.319 193.497 758.01 193.497H756.522V193.494ZM778.745 193.962C777.848 193.963 776.953 193.858 776.08 193.65C775.216 193.442 774.543 193.214 774.091 192.954C773.815 192.798 773.626 192.626 773.555 192.467C773.489 192.314 773.455 192.149 773.454 191.982V191.098C773.454 190.734 773.591 190.559 773.851 190.559C773.957 190.559 774.062 190.577 774.163 190.611C774.267 190.647 774.423 190.715 774.595 190.786C775.18 191.046 775.823 191.254 776.496 191.394C777.188 191.531 777.861 191.602 778.553 191.602C779.645 191.602 780.49 191.41 781.079 191.03C781.361 190.859 781.593 190.616 781.752 190.326C781.91 190.036 781.988 189.709 781.979 189.379C781.985 189.156 781.946 188.934 781.866 188.726C781.786 188.518 781.665 188.328 781.511 188.167C781.202 187.835 780.614 187.54 779.766 187.263L777.257 186.483C775.996 186.084 775.06 185.492 774.491 184.712C773.934 183.991 773.63 183.107 773.626 182.197C773.626 181.469 773.782 180.825 774.091 180.269C774.403 179.717 774.819 179.229 775.339 178.846C775.859 178.449 776.444 178.154 777.136 177.946C777.829 177.738 778.553 177.65 779.314 177.65C779.697 177.65 780.094 177.666 780.474 177.718C780.871 177.77 781.235 177.842 781.599 177.913C781.943 177.998 782.275 178.082 782.583 178.189C782.895 178.293 783.136 178.397 783.311 178.501C783.515 178.604 783.693 178.752 783.831 178.934C783.943 179.103 783.996 179.304 783.984 179.506V180.321C783.984 180.685 783.848 180.877 783.588 180.877C783.357 180.851 783.134 180.78 782.931 180.669C781.886 180.206 780.753 179.975 779.61 179.993C778.625 179.993 777.845 180.149 777.309 180.481C776.772 180.806 776.496 181.313 776.496 182.024C776.496 182.509 776.668 182.925 777.016 183.256C777.361 183.584 778.001 183.913 778.917 184.208L781.374 184.988C782.619 185.388 783.519 185.944 784.056 186.656C784.592 187.367 784.849 188.183 784.849 189.087C784.849 189.834 784.696 190.507 784.4 191.098C784.094 191.692 783.664 192.213 783.139 192.626C782.603 193.058 781.963 193.373 781.218 193.598C780.438 193.841 779.626 193.962 778.745 193.962Z" fill="white"/>
<path fill-rule="evenodd" clip-rule="evenodd" d="M782.011 202.392C776.324 206.607 768.056 208.847 760.948 208.847C750.987 208.847 742.01 205.151 735.231 199.009C734.695 198.521 735.179 197.862 735.816 198.245C743.151 202.512 752.196 205.099 761.556 205.099C767.864 205.099 774.8 203.78 781.183 201.073C782.135 200.64 782.947 201.697 782.011 202.392Z" fill="white"/>
<path fill-rule="evenodd" clip-rule="evenodd" d="M784.38 199.685C783.656 198.752 779.574 199.236 777.724 199.46C777.172 199.532 777.084 199.044 777.585 198.68C780.835 196.389 786.181 197.049 786.802 197.813C787.426 198.593 786.629 203.955 783.584 206.523C783.119 206.922 782.671 206.718 782.879 206.198C783.568 204.475 785.108 200.608 784.38 199.688V199.685Z" fill="white"/>
<circle cx="333" cy="417" r="39" fill="#2B2B2B"/>
<circle cx="1189" cy="417" r="39" fill="#2B2B2B"/>
<circle cx="420" cy="329" r="31" fill="#2B2B2B"/>
<circle cx="761" cy="31" r="31" fill="#2B2B2B"/>
<circle cx="1102" cy="329" r="31" fill="#2B2B2B"/>
<circle cx="1107.5" cy="196.5" r="27.5" fill="#2B2B2B"/>
<circle cx="913.5" cy="353.5" r="27.5" fill="#2B2B2B"/>
<circle cx="864.5" cy="249.5" r="27.5" fill="#2B2B2B"/>
<circle cx="610.5" cy="353.5" r="27.5" fill="#2B2B2B"/>
<circle cx="416.5" cy="196.5" r="27.5" fill="#2B2B2B"/>
<circle cx="661.5" cy="249.5" r="27.5" fill="#2B2B2B"/>
<g clip-path="url(#clip0_1_4542)">
<path d="M776.843 28.9163C776.85 28.8702 776.843 28.8231 776.823 28.7809C776.803 28.7387 776.772 28.7032 776.732 28.6788L771.569 25.7956C771.535 25.7761 771.497 25.7659 771.458 25.7659C771.419 25.7659 771.381 25.7761 771.347 25.7956L766.96 28.4714C766.927 28.4952 766.9 28.526 766.881 28.5617C766.862 28.5973 766.851 28.6368 766.849 28.6772V30.9747L765.06 29.803C765.024 29.7805 764.983 29.7685 764.941 29.7685C764.899 29.7685 764.858 29.7805 764.822 29.803L762.257 31.3863L762.145 28.7897C762.133 28.7146 762.094 28.6467 762.034 28.5997L759.421 26.8738L761.812 25.6372C761.851 25.6148 761.883 25.5825 761.906 25.5435C761.928 25.5046 761.939 25.4604 761.939 25.4156L761.511 15.4849C761.509 15.4428 761.496 15.4019 761.474 15.3659C761.452 15.33 761.421 15.3001 761.385 15.2791L754.667 12H754.508L745.293 14.8658C745.24 14.893 745.198 14.9381 745.175 14.9931C745.152 15.0482 745.149 15.1096 745.167 15.1667L747.178 25.0356C747.17 25.0774 747.17 25.1204 747.178 25.1622L750.075 27.3472L748.08 28.2972C748.033 28.323 747.996 28.3629 747.973 28.4113C747.95 28.4596 747.943 28.5139 747.953 28.5664L749.537 36.0112C749.529 36.0478 749.529 36.0855 749.537 36.1221L751.5 37.9271L750.233 38.7029C750.194 38.7305 750.163 38.7695 750.146 38.8147C750.129 38.86 750.127 38.9094 750.138 38.9562L751.326 44.7227C751.314 44.7587 751.314 44.7976 751.326 44.8336L756.079 49.9335C756.1 49.9546 756.124 49.9713 756.151 49.9827C756.179 49.9941 756.208 50 756.237 50C756.267 50 756.296 49.9941 756.323 49.9827C756.35 49.9713 756.375 49.9546 756.396 49.9335L762.604 44.9919C762.633 44.969 762.656 44.9402 762.672 44.9074C762.689 44.8745 762.698 44.8386 762.699 44.8019L762.588 41.4452L764.678 43.1869C764.718 43.2204 764.768 43.2388 764.821 43.2388C764.873 43.2388 764.923 43.2204 764.963 43.1869L769.938 39.2112C769.984 39.1625 770.017 39.1024 770.033 39.037L770.175 36.5512L771.759 37.612C771.797 37.6415 771.845 37.6575 771.893 37.6575C771.942 37.6575 771.989 37.6415 772.028 37.612L776.099 34.4437C776.122 34.4242 776.141 34.4001 776.155 34.3728C776.168 34.3456 776.176 34.3158 776.178 34.2854L776.843 28.9163ZM761.606 29.1538L761.717 31.6397L761.907 36.0429L755.208 40.5887L754.163 33.413L761.606 29.1538ZM761.052 15.8174L761.448 25.1781L753.528 29.2789L752.103 19.2707L761.052 15.8174ZM747.605 24.8614L745.689 15.5783L751.611 19.2517L753.085 29.0731L750.583 27.1731L747.605 24.8614ZM749.917 35.8371L748.523 29.0905L753.718 33.4288L754.668 40.367L752.008 37.802L749.917 35.8371ZM751.722 44.5644L750.693 39.5912L755.272 44.1037L756.016 49.1102L751.722 44.5644ZM756.475 49.3144L755.699 44.0419L762.034 39.4962L762.256 44.6895L756.475 49.3144ZM762.588 40.8277V39.1162C762.586 39.05 762.557 38.9875 762.509 38.942L760.72 37.4853L762.303 36.377C762.334 36.3558 762.358 36.3273 762.375 36.2941C762.391 36.2609 762.399 36.2241 762.398 36.187V35.7737L764.599 37.4521V42.5362L762.588 40.8277ZM769.621 38.9262L765.091 42.5362V37.4378L769.952 33.9529L769.621 38.9262ZM771.664 37.0103L770.239 36.0112L770.381 33.4937C770.39 33.4627 770.39 33.4298 770.381 33.3988C770.388 33.3728 770.388 33.3455 770.381 33.3196L767.325 31.3087V29.1063L772.075 32.0988L771.664 37.0103ZM775.701 34.0637L772.091 36.9296L772.503 32.0846L776.352 29.423L775.701 34.0637Z" fill="white"/>
</g>
<path d="M982.5 235.335V242.794C995.142 242.794 1004.97 230.587 1000.83 217.332C999.928 214.472 998.349 211.871 996.228 209.749C994.107 207.628 991.506 206.049 988.645 205.145C975.413 201.011 963.206 210.855 963.206 223.477H970.665C970.665 215.56 978.518 209.435 986.854 212.452C988.385 213.011 989.775 213.897 990.928 215.05C992.08 216.202 992.967 217.593 993.525 219.124C996.563 227.451 990.431 235.295 982.523 235.312V227.896H975.083V235.335H982.5Z" fill="white"/>
<path d="M975.084 241.064H969.352V235.335H975.084V241.064ZM964.562 235.335H969.352V230.542H964.562V235.335Z" fill="white"/>
<path d="M529.146 214.899C529.146 219.561 529.273 223.377 529.442 223.377C529.57 223.377 531.773 222.698 534.359 221.894C537.876 220.707 539.572 220.411 541.395 220.495L543.768 220.622L543.895 230.455L543.981 240.33H549.067V229.988C549.067 219.943 549.025 219.647 548.092 218.248C546.396 215.704 542.03 215.153 536.605 216.764L534.654 217.358V206.422H529.144L529.146 214.899ZM543.769 209.517C542.836 211.171 542.032 212.696 541.946 212.865C541.861 213.076 543.006 213.204 544.49 213.204H547.16L548.685 210.745C551.609 206.167 551.652 206.422 548.346 206.422H545.464L543.768 209.516L543.769 209.517ZM529.146 235.032C529.146 237.701 529.315 239.906 529.484 239.906C529.654 239.906 530.883 238.805 532.239 237.448L534.655 234.99L532.197 232.574C530.841 231.26 529.612 230.157 529.442 230.157C529.273 230.157 529.146 232.361 529.146 235.032Z" fill="white"/>
<path d="M522.205 277.88V289H520.381V284.136H515.149V289H513.325V277.88H515.149V282.648H520.381V277.88H522.205ZM532.686 284.376C532.686 284.707 532.665 285.005 532.622 285.272H525.886C525.94 285.976 526.201 286.541 526.67 286.968C527.14 287.395 527.716 287.608 528.398 287.608C529.38 287.608 530.073 287.197 530.478 286.376H532.446C532.18 287.187 531.694 287.853 530.99 288.376C530.297 288.888 529.433 289.144 528.398 289.144C527.556 289.144 526.798 288.957 526.126 288.584C525.465 288.2 524.942 287.667 524.558 286.984C524.185 286.291 523.998 285.491 523.998 284.584C523.998 283.677 524.18 282.883 524.542 282.2C524.916 281.507 525.433 280.973 526.094 280.6C526.766 280.227 527.534 280.04 528.398 280.04C529.23 280.04 529.972 280.221 530.622 280.584C531.273 280.947 531.78 281.459 532.142 282.12C532.505 282.771 532.686 283.523 532.686 284.376ZM530.782 283.8C530.772 283.128 530.532 282.589 530.062 282.184C529.593 281.779 529.012 281.576 528.318 281.576C527.689 281.576 527.15 281.779 526.702 282.184C526.254 282.579 525.988 283.117 525.902 283.8H530.782ZM536.305 281.464C536.572 281.016 536.924 280.669 537.361 280.424C537.809 280.168 538.337 280.04 538.945 280.04V281.928H538.481C537.767 281.928 537.223 282.109 536.849 282.472C536.487 282.835 536.305 283.464 536.305 284.36V289H534.481V280.184H536.305V281.464ZM544.446 289.144C543.614 289.144 542.862 288.957 542.19 288.584C541.518 288.2 540.99 287.667 540.606 286.984C540.222 286.291 540.03 285.491 540.03 284.584C540.03 283.688 540.227 282.893 540.622 282.2C541.017 281.507 541.555 280.973 542.238 280.6C542.921 280.227 543.683 280.04 544.526 280.04C545.369 280.04 546.131 280.227 546.814 280.6C547.497 280.973 548.035 281.507 548.43 282.2C548.825 282.893 549.022 283.688 549.022 284.584C549.022 285.48 548.819 286.275 548.414 286.968C548.009 287.661 547.454 288.2 546.75 288.584C546.057 288.957 545.289 289.144 544.446 289.144ZM544.446 287.56C544.915 287.56 545.353 287.448 545.758 287.224C546.174 287 546.51 286.664 546.766 286.216C547.022 285.768 547.15 285.224 547.15 284.584C547.15 283.944 547.027 283.405 546.782 282.968C546.537 282.52 546.211 282.184 545.806 281.96C545.401 281.736 544.963 281.624 544.494 281.624C544.025 281.624 543.587 281.736 543.182 281.96C542.787 282.184 542.473 282.52 542.238 282.968C542.003 283.405 541.886 283.944 541.886 284.584C541.886 285.533 542.126 286.269 542.606 286.792C543.097 287.304 543.71 287.56 544.446 287.56ZM554.313 284.6L558.377 289H555.913L552.649 285.208V289H550.825V277.16H552.649V284.04L555.849 280.184H558.377L554.313 284.6ZM567.668 280.184V289H565.844V287.96C565.556 288.323 565.178 288.611 564.708 288.824C564.25 289.027 563.759 289.128 563.236 289.128C562.543 289.128 561.919 288.984 561.364 288.696C560.82 288.408 560.388 287.981 560.068 287.416C559.759 286.851 559.604 286.168 559.604 285.368V280.184H561.412V285.096C561.412 285.885 561.61 286.493 562.004 286.92C562.399 287.336 562.938 287.544 563.62 287.544C564.303 287.544 564.842 287.336 565.236 286.92C565.642 286.493 565.844 285.885 565.844 285.096V280.184H567.668Z" fill="white"/>
<path d="M738.204 82.528H741.964V84H736.38V72.88H738.204V82.528ZM744.417 74.016C744.086 74.016 743.809 73.904 743.585 73.68C743.361 73.456 743.249 73.1787 743.249 72.848C743.249 72.5173 743.361 72.24 743.585 72.016C743.809 71.792 744.086 71.68 744.417 71.68C744.737 71.68 745.009 71.792 745.233 72.016C745.457 72.24 745.569 72.5173 745.569 72.848C745.569 73.1787 745.457 73.456 745.233 73.68C745.009 73.904 744.737 74.016 744.417 74.016ZM745.313 75.184V84H743.489V75.184H745.313ZM752.156 75.04C752.849 75.04 753.468 75.184 754.012 75.472C754.566 75.76 754.998 76.1867 755.308 76.752C755.617 77.3173 755.772 78 755.772 78.8V84H753.964V79.072C753.964 78.2827 753.766 77.68 753.372 77.264C752.977 76.8373 752.438 76.624 751.756 76.624C751.073 76.624 750.529 76.8373 750.124 77.264C749.729 77.68 749.532 78.2827 749.532 79.072V84H747.708V75.184H749.532V76.192C749.83 75.8293 750.209 75.5467 750.668 75.344C751.137 75.1413 751.633 75.04 752.156 75.04ZM761.922 84.144C761.09 84.144 760.338 83.9573 759.666 83.584C758.994 83.2 758.466 82.6667 758.082 81.984C757.698 81.2907 757.506 80.4907 757.506 79.584C757.506 78.688 757.704 77.8933 758.098 77.2C758.493 76.5067 759.032 75.9733 759.714 75.6C760.397 75.2267 761.16 75.04 762.002 75.04C762.845 75.04 763.608 75.2267 764.29 75.6C764.973 75.9733 765.512 76.5067 765.906 77.2C766.301 77.8933 766.498 78.688 766.498 79.584C766.498 80.48 766.296 81.2747 765.89 81.968C765.485 82.6613 764.93 83.2 764.226 83.584C763.533 83.9573 762.765 84.144 761.922 84.144ZM761.922 82.56C762.392 82.56 762.829 82.448 763.234 82.224C763.65 82 763.986 81.664 764.242 81.216C764.498 80.768 764.626 80.224 764.626 79.584C764.626 78.944 764.504 78.4053 764.258 77.968C764.013 77.52 763.688 77.184 763.282 76.96C762.877 76.736 762.44 76.624 761.97 76.624C761.501 76.624 761.064 76.736 760.658 76.96C760.264 77.184 759.949 77.52 759.714 77.968C759.48 78.4053 759.362 78.944 759.362 79.584C759.362 80.5333 759.602 81.2693 760.082 81.792C760.573 82.304 761.186 82.56 761.922 82.56ZM767.694 79.552C767.694 78.6667 767.875 77.8827 768.238 77.2C768.611 76.5173 769.112 75.9893 769.742 75.616C770.382 75.232 771.091 75.04 771.87 75.04C772.446 75.04 773.011 75.168 773.566 75.424C774.131 75.6693 774.579 76 774.91 76.416V72.16H776.75V84H774.91V82.672C774.611 83.0987 774.195 83.4507 773.662 83.728C773.139 84.0053 772.536 84.144 771.854 84.144C771.086 84.144 770.382 83.952 769.742 83.568C769.112 83.1733 768.611 82.6293 768.238 81.936C767.875 81.232 767.694 80.4373 767.694 79.552ZM774.91 79.584C774.91 78.976 774.782 78.448 774.526 78C774.28 77.552 773.955 77.2107 773.55 76.976C773.144 76.7413 772.707 76.624 772.238 76.624C771.768 76.624 771.331 76.7413 770.926 76.976C770.52 77.2 770.19 77.536 769.934 77.984C769.688 78.4213 769.566 78.944 769.566 79.552C769.566 80.16 769.688 80.6933 769.934 81.152C770.19 81.6107 770.52 81.9627 770.926 82.208C771.342 82.4427 771.779 82.56 772.238 82.56C772.707 82.56 773.144 82.4427 773.55 82.208C773.955 81.9733 774.28 81.632 774.526 81.184C774.782 80.7253 774.91 80.192 774.91 79.584ZM787.225 79.376C787.225 79.7067 787.204 80.0053 787.161 80.272H780.425C780.479 80.976 780.74 81.5413 781.209 81.968C781.679 82.3947 782.255 82.608 782.937 82.608C783.919 82.608 784.612 82.1973 785.017 81.376H786.985C786.719 82.1867 786.233 82.8533 785.529 83.376C784.836 83.888 783.972 84.144 782.937 84.144C782.095 84.144 781.337 83.9573 780.665 83.584C780.004 83.2 779.481 82.6667 779.097 81.984C778.724 81.2907 778.537 80.4907 778.537 79.584C778.537 78.6773 778.719 77.8827 779.081 77.2C779.455 76.5067 779.972 75.9733 780.633 75.6C781.305 75.2267 782.073 75.04 782.937 75.04C783.769 75.04 784.511 75.2213 785.161 75.584C785.812 75.9467 786.319 76.4587 786.681 77.12C787.044 77.7707 787.225 78.5227 787.225 79.376ZM785.321 78.8C785.311 78.128 785.071 77.5893 784.601 77.184C784.132 76.7787 783.551 76.576 782.857 76.576C782.228 76.576 781.689 76.7787 781.241 77.184C780.793 77.5787 780.527 78.1173 780.441 78.8H785.321Z" fill="white"/>
<path d="M932.309 277.88C933.493 277.88 934.527 278.109 935.413 278.568C936.309 279.016 936.997 279.667 937.477 280.52C937.967 281.363 938.213 282.349 938.213 283.48C938.213 284.611 937.967 285.592 937.477 286.424C936.997 287.256 936.309 287.896 935.413 288.344C934.527 288.781 933.493 289 932.309 289H928.677V277.88H932.309ZM932.309 287.512C933.61 287.512 934.607 287.16 935.301 286.456C935.994 285.752 936.341 284.76 936.341 283.48C936.341 282.189 935.994 281.181 935.301 280.456C934.607 279.731 933.61 279.368 932.309 279.368H930.501V287.512H932.309ZM940.948 279.016C940.618 279.016 940.34 278.904 940.116 278.68C939.892 278.456 939.78 278.179 939.78 277.848C939.78 277.517 939.892 277.24 940.116 277.016C940.34 276.792 940.618 276.68 940.948 276.68C941.268 276.68 941.54 276.792 941.764 277.016C941.988 277.24 942.1 277.517 942.1 277.848C942.1 278.179 941.988 278.456 941.764 278.68C941.54 278.904 941.268 279.016 940.948 279.016ZM941.844 280.184V289H940.02V280.184H941.844ZM947.791 280.04C948.474 280.04 949.076 280.179 949.599 280.456C950.132 280.723 950.548 281.059 950.847 281.464V280.184H952.687V289.144C952.687 289.955 952.516 290.675 952.175 291.304C951.834 291.944 951.338 292.445 950.687 292.808C950.047 293.171 949.279 293.352 948.383 293.352C947.188 293.352 946.196 293.069 945.407 292.504C944.618 291.949 944.17 291.192 944.063 290.232H945.871C946.01 290.691 946.303 291.059 946.751 291.336C947.21 291.624 947.754 291.768 948.383 291.768C949.119 291.768 949.711 291.544 950.159 291.096C950.618 290.648 950.847 289.997 950.847 289.144V287.672C950.538 288.088 950.116 288.44 949.583 288.728C949.06 289.005 948.463 289.144 947.791 289.144C947.023 289.144 946.319 288.952 945.679 288.568C945.05 288.173 944.548 287.629 944.175 286.936C943.812 286.232 943.631 285.437 943.631 284.552C943.631 283.667 943.812 282.883 944.175 282.2C944.548 281.517 945.05 280.989 945.679 280.616C946.319 280.232 947.023 280.04 947.791 280.04ZM950.847 284.584C950.847 283.976 950.719 283.448 950.463 283C950.218 282.552 949.892 282.211 949.487 281.976C949.082 281.741 948.644 281.624 948.175 281.624C947.706 281.624 947.268 281.741 946.863 281.976C946.458 282.2 946.127 282.536 945.871 282.984C945.626 283.421 945.503 283.944 945.503 284.552C945.503 285.16 945.626 285.693 945.871 286.152C946.127 286.611 946.458 286.963 946.863 287.208C947.279 287.443 947.716 287.56 948.175 287.56C948.644 287.56 949.082 287.443 949.487 287.208C949.892 286.973 950.218 286.632 950.463 286.184C950.719 285.725 950.847 285.192 950.847 284.584ZM956.011 279.016C955.68 279.016 955.403 278.904 955.179 278.68C954.955 278.456 954.843 278.179 954.843 277.848C954.843 277.517 954.955 277.24 955.179 277.016C955.403 276.792 955.68 276.68 956.011 276.68C956.331 276.68 956.603 276.792 956.827 277.016C957.051 277.24 957.163 277.517 957.163 277.848C957.163 278.179 957.051 278.456 956.827 278.68C956.603 278.904 956.331 279.016 956.011 279.016ZM956.907 280.184V289H955.083V280.184H956.907ZM961.43 281.672V286.552C961.43 286.883 961.504 287.123 961.654 287.272C961.814 287.411 962.08 287.48 962.454 287.48H963.574V289H962.134C961.312 289 960.683 288.808 960.246 288.424C959.808 288.04 959.59 287.416 959.59 286.552V281.672H958.55V280.184H959.59V277.992H961.43V280.184H963.574V281.672H961.43ZM964.647 284.552C964.647 283.667 964.828 282.883 965.191 282.2C965.564 281.517 966.065 280.989 966.695 280.616C967.335 280.232 968.039 280.04 968.807 280.04C969.5 280.04 970.103 280.179 970.615 280.456C971.137 280.723 971.553 281.059 971.863 281.464V280.184H973.703V289H971.863V287.688C971.553 288.104 971.132 288.451 970.599 288.728C970.065 289.005 969.457 289.144 968.775 289.144C968.017 289.144 967.324 288.952 966.695 288.568C966.065 288.173 965.564 287.629 965.191 286.936C964.828 286.232 964.647 285.437 964.647 284.552ZM971.863 284.584C971.863 283.976 971.735 283.448 971.479 283C971.233 282.552 970.908 282.211 970.503 281.976C970.097 281.741 969.66 281.624 969.191 281.624C968.721 281.624 968.284 281.741 967.879 281.976C967.473 282.2 967.143 282.536 966.887 282.984C966.641 283.421 966.519 283.944 966.519 284.552C966.519 285.16 966.641 285.693 966.887 286.152C967.143 286.611 967.473 286.963 967.879 287.208C968.295 287.443 968.732 287.56 969.191 287.56C969.66 287.56 970.097 287.443 970.503 287.208C970.908 286.973 971.233 286.632 971.479 286.184C971.735 285.725 971.863 285.192 971.863 284.584ZM977.922 277.16V289H976.098V277.16H977.922ZM989.545 289.112C988.511 289.112 987.556 288.872 986.681 288.392C985.817 287.901 985.129 287.224 984.617 286.36C984.116 285.485 983.865 284.504 983.865 283.416C983.865 282.328 984.116 281.352 984.617 280.488C985.129 279.624 985.817 278.952 986.681 278.472C987.556 277.981 988.511 277.736 989.545 277.736C990.591 277.736 991.545 277.981 992.409 278.472C993.284 278.952 993.972 279.624 994.473 280.488C994.975 281.352 995.225 282.328 995.225 283.416C995.225 284.504 994.975 285.485 994.473 286.36C993.972 287.224 993.284 287.901 992.409 288.392C991.545 288.872 990.591 289.112 989.545 289.112ZM989.545 287.528C990.281 287.528 990.937 287.363 991.513 287.032C992.089 286.691 992.537 286.211 992.857 285.592C993.188 284.963 993.353 284.237 993.353 283.416C993.353 282.595 993.188 281.875 992.857 281.256C992.537 280.637 992.089 280.163 991.513 279.832C990.937 279.501 990.281 279.336 989.545 279.336C988.809 279.336 988.153 279.501 987.577 279.832C987.001 280.163 986.548 280.637 986.217 281.256C985.897 281.875 985.737 282.595 985.737 283.416C985.737 284.237 985.897 284.963 986.217 285.592C986.548 286.211 987.001 286.691 987.577 287.032C988.153 287.363 988.809 287.528 989.545 287.528ZM996.412 284.584C996.412 283.677 996.594 282.883 996.956 282.2C997.33 281.507 997.842 280.973 998.492 280.6C999.143 280.227 999.89 280.04 1000.73 280.04C1001.8 280.04 1002.68 280.296 1003.37 280.808C1004.08 281.309 1004.55 282.029 1004.8 282.968H1002.83C1002.67 282.531 1002.41 282.189 1002.06 281.944C1001.71 281.699 1001.27 281.576 1000.73 281.576C999.986 281.576 999.388 281.843 998.94 282.376C998.503 282.899 998.284 283.635 998.284 284.584C998.284 285.533 998.503 286.275 998.94 286.808C999.388 287.341 999.986 287.608 1000.73 287.608C1001.79 287.608 1002.49 287.144 1002.83 286.216H1004.8C1004.54 287.112 1004.06 287.827 1003.36 288.36C1002.65 288.883 1001.78 289.144 1000.73 289.144C999.89 289.144 999.143 288.957 998.492 288.584C997.842 288.2 997.33 287.667 996.956 286.984C996.594 286.291 996.412 285.491 996.412 284.584ZM1014.69 284.376C1014.69 284.707 1014.67 285.005 1014.63 285.272H1007.89C1007.95 285.976 1008.21 286.541 1008.68 286.968C1009.15 287.395 1009.72 287.608 1010.41 287.608C1011.39 287.608 1012.08 287.197 1012.49 286.376H1014.45C1014.19 287.187 1013.7 287.853 1013 288.376C1012.3 288.888 1011.44 289.144 1010.41 289.144C1009.56 289.144 1008.81 288.957 1008.13 288.584C1007.47 288.2 1006.95 287.667 1006.57 286.984C1006.19 286.291 1006.01 285.491 1006.01 284.584C1006.01 283.677 1006.19 282.883 1006.55 282.2C1006.92 281.507 1007.44 280.973 1008.1 280.6C1008.77 280.227 1009.54 280.04 1010.41 280.04C1011.24 280.04 1011.98 280.221 1012.63 280.584C1013.28 280.947 1013.79 281.459 1014.15 282.12C1014.51 282.771 1014.69 283.523 1014.69 284.376ZM1012.79 283.8C1012.78 283.128 1012.54 282.589 1012.07 282.184C1011.6 281.779 1011.02 281.576 1010.33 281.576C1009.7 281.576 1009.16 281.779 1008.71 282.184C1008.26 282.579 1008 283.117 1007.91 283.8H1012.79ZM1015.88 284.552C1015.88 283.667 1016.06 282.883 1016.43 282.2C1016.8 281.517 1017.3 280.989 1017.93 280.616C1018.57 280.232 1019.27 280.04 1020.04 280.04C1020.73 280.04 1021.34 280.179 1021.85 280.456C1022.37 280.723 1022.79 281.059 1023.1 281.464V280.184H1024.94V289H1023.1V287.688C1022.79 288.104 1022.37 288.451 1021.83 288.728C1021.3 289.005 1020.69 289.144 1020.01 289.144C1019.25 289.144 1018.56 288.952 1017.93 288.568C1017.3 288.173 1016.8 287.629 1016.43 286.936C1016.06 286.232 1015.88 285.437 1015.88 284.552ZM1023.1 284.584C1023.1 283.976 1022.97 283.448 1022.71 283C1022.47 282.552 1022.14 282.211 1021.74 281.976C1021.33 281.741 1020.89 281.624 1020.43 281.624C1019.96 281.624 1019.52 281.741 1019.11 281.976C1018.71 282.2 1018.38 282.536 1018.12 282.984C1017.88 283.421 1017.75 283.944 1017.75 284.552C1017.75 285.16 1017.88 285.693 1018.12 286.152C1018.38 286.611 1018.71 286.963 1019.11 287.208C1019.53 287.443 1019.97 287.56 1020.43 287.56C1020.89 287.56 1021.33 287.443 1021.74 287.208C1022.14 286.973 1022.47 286.632 1022.71 286.184C1022.97 285.725 1023.1 285.192 1023.1 284.584ZM1031.78 280.04C1032.47 280.04 1033.09 280.184 1033.64 280.472C1034.19 280.76 1034.62 281.187 1034.93 281.752C1035.24 282.317 1035.4 283 1035.4 283.8V289H1033.59V284.072C1033.59 283.283 1033.39 282.68 1033 282.264C1032.6 281.837 1032.06 281.624 1031.38 281.624C1030.7 281.624 1030.15 281.837 1029.75 282.264C1029.35 282.68 1029.16 283.283 1029.16 284.072V289H1027.33V280.184H1029.16V281.192C1029.46 280.829 1029.83 280.547 1030.29 280.344C1030.76 280.141 1031.26 280.04 1031.78 280.04Z" fill="white"/>
<path d="M751.006 256.728H746.35L745.55 259H743.646L747.63 247.864H749.742L753.726 259H751.806L751.006 256.728ZM750.494 255.24L748.686 250.072L746.862 255.24H750.494ZM769.938 247.88L766.642 259H764.578L762.242 250.584L759.762 259L757.714 259.016L754.562 247.88H756.498L758.802 256.936L761.298 247.88H763.346L765.666 256.888L767.986 247.88H769.938ZM775.106 259.112C774.36 259.112 773.688 258.984 773.09 258.728C772.493 258.461 772.024 258.088 771.682 257.608C771.341 257.128 771.17 256.568 771.17 255.928H773.122C773.165 256.408 773.352 256.803 773.682 257.112C774.024 257.421 774.498 257.576 775.106 257.576C775.736 257.576 776.226 257.427 776.578 257.128C776.93 256.819 777.106 256.424 777.106 255.944C777.106 255.571 776.994 255.267 776.77 255.032C776.557 254.797 776.285 254.616 775.954 254.488C775.634 254.36 775.186 254.221 774.61 254.072C773.885 253.88 773.293 253.688 772.834 253.496C772.386 253.293 772.002 252.984 771.682 252.568C771.362 252.152 771.202 251.597 771.202 250.904C771.202 250.264 771.362 249.704 771.682 249.224C772.002 248.744 772.45 248.376 773.026 248.12C773.602 247.864 774.269 247.736 775.026 247.736C776.104 247.736 776.984 248.008 777.666 248.552C778.36 249.085 778.744 249.821 778.818 250.76H776.802C776.77 250.355 776.578 250.008 776.226 249.72C775.874 249.432 775.41 249.288 774.834 249.288C774.312 249.288 773.885 249.421 773.554 249.688C773.224 249.955 773.058 250.339 773.058 250.84C773.058 251.181 773.16 251.464 773.362 251.688C773.576 251.901 773.842 252.072 774.162 252.2C774.482 252.328 774.92 252.467 775.474 252.616C776.21 252.819 776.808 253.021 777.266 253.224C777.736 253.427 778.13 253.741 778.45 254.168C778.781 254.584 778.946 255.144 778.946 255.848C778.946 256.413 778.792 256.947 778.482 257.448C778.184 257.949 777.741 258.355 777.154 258.664C776.578 258.963 775.896 259.112 775.106 259.112Z" fill="white"/>
<defs>
<clipPath id="clip0_1_4542">
<rect width="38" height="38" fill="white" transform="translate(742 12)"/>
</clipPath>
</defs>
</svg>
