<svg width="1523" height="802" viewBox="0 0 1523 802" fill="none" xmlns="http://www.w3.org/2000/svg">
<mask id="mask0_1_1805" style="mask-type:alpha" maskUnits="userSpaceOnUse" x="0" y="587" width="1523" height="215">
<ellipse cx="761.5" cy="694.5" rx="761.5" ry="107.5" fill="black"/>
</mask>
<g mask="url(#mask0_1_1805)">
<rect y="587" width="1523" height="215" fill="black"/>
</g>
<path d="M754.13 9.57303C748.82 11.6033 742.574 16.757 739.45 21.5985C735.858 26.9084 735.702 40.9641 738.981 43.7753C740.231 44.8685 741.324 46.5865 741.324 47.5235C741.324 50.4908 751.632 57.831 756.005 57.831C757.098 57.831 758.503 59.3928 758.972 61.2669C760.221 65.9521 758.503 147.319 757.254 148.569C756.629 149.037 753.35 150.286 749.758 151.224C746.166 152.317 740.699 154.816 737.42 157.002C734.296 159.188 731.017 160.906 730.392 160.594C728.049 159.657 666.36 107.338 666.36 106.245C666.36 105.62 667.453 102.497 668.703 99.5297C669.952 96.4062 671.045 89.3783 671.045 84.0684C671.045 75.9473 670.108 72.8238 666.36 65.9521C663.705 61.5792 660.894 57.831 660.113 57.831C659.332 57.831 657.146 56.5816 655.428 55.0199C650.43 50.8032 639.03 48.9291 628.41 50.647C620.445 51.8964 618.258 52.9896 612.324 59.0804C599.049 72.98 597.175 89.8468 607.326 104.371C613.105 112.492 626.223 120.145 634.501 120.301H639.342L643.559 151.848C645.901 169.34 648.869 189.486 649.962 196.827C654.179 223.689 654.179 223.064 648.4 225.875C640.591 229.467 635.125 238.838 635.125 248.364C635.125 256.641 636.687 260.546 642.778 267.418L646.526 271.634L641.372 282.254C638.561 288.033 632.47 300.839 627.941 310.366L619.664 328.013H610.606H601.548L597.331 319.736C594.988 315.363 587.336 299.746 580.464 285.221L567.814 258.828L572.499 253.987C587.492 238.213 589.21 212.756 576.404 195.733C562.816 177.929 535.017 172.776 517.213 184.957C508.155 191.204 499.253 201.98 499.253 206.822C499.253 210.258 495.505 210.101 467.237 204.635C453.806 202.136 442.406 199.95 442.093 199.95C441.781 199.95 441.469 198.388 441.469 196.358C441.312 191.673 436.315 181.053 432.567 177.773C427.1 172.776 416.793 170.121 410.077 171.839C387.588 177.929 382.747 208.071 402.737 218.222C406.485 220.097 410.546 221.971 411.952 222.283C413.982 222.908 414.606 227.124 415.387 247.896C416.012 261.483 416.481 279.131 416.481 286.939V301.464L410.702 304.119C407.579 305.68 402.893 309.585 400.238 312.864C396.178 317.862 395.553 320.048 395.709 327.076C395.866 331.762 396.959 337.54 398.208 340.039L400.551 344.412L380.092 365.964C368.691 377.833 358.696 387.516 357.915 387.36C356.978 387.36 353.542 385.954 350.106 384.236C345.89 382.05 340.892 381.113 333.708 381.113C324.962 381.113 322.307 381.894 316.06 385.798C307.939 390.952 301.848 399.541 299.037 409.849C297.475 415.784 297.632 418.282 299.818 425.154C308.408 452.485 337.925 461.23 358.696 442.489C371.815 430.776 374.47 413.909 365.724 398.448L361.819 391.576L377.125 375.803C385.714 367.213 395.241 357.218 398.521 353.938C403.518 348.472 404.611 348.004 407.422 349.722C413.045 353.157 424.758 353.626 431.161 350.659C451.932 340.82 450.527 309.585 428.975 303.182C425.539 302.245 422.571 300.839 422.571 300.214C421.791 296.466 421.478 287.72 420.385 256.798L419.292 222.439L425.851 219.472C429.755 217.754 434.128 214.162 436.471 210.57C438.501 207.29 441.469 204.635 442.874 204.635C445.529 204.635 463.802 208.071 483.636 212.444L495.349 214.943L496.286 224.938C497.379 237.588 502.533 248.364 511.122 256.017C522.836 266.324 540.952 269.916 555.476 264.763C559.068 263.513 562.66 262.42 563.441 262.42C564.222 262.42 566.408 266.168 568.595 270.541C570.625 275.07 576.872 288.345 582.338 299.902C597.487 331.605 597.175 330.981 593.427 334.104C582.338 342.85 582.494 364.246 593.739 372.992C604.515 381.425 618.727 380.644 628.254 371.118C638.561 360.81 638.717 346.442 628.878 335.822C626.223 333.011 624.193 330.512 624.193 330.2C624.193 329.887 627.317 323.172 631.065 315.207C634.813 307.242 640.748 294.592 644.183 287.252L650.43 273.821L658.864 273.977C673.544 274.133 685.57 262.42 685.414 248.052C685.257 236.026 674.013 223.376 663.549 223.376C661.675 223.376 659.957 222.752 659.332 221.815C658.864 221.034 656.053 203.698 652.929 183.239C649.962 162.78 646.838 141.541 646.057 135.918C643.559 119.364 643.559 119.52 652.773 114.991C657.458 112.805 661.987 110.93 663.081 110.93C664.798 110.93 721.646 158.408 725.707 163.249C727.268 165.123 727.112 166.997 724.301 173.244C719.928 183.552 719.928 197.607 724.301 206.978C739.294 238.681 783.96 238.994 798.796 207.29C803.326 197.764 803.482 183.239 799.109 173.557C797.391 169.808 795.985 166.216 795.985 165.592C795.985 164.186 807.698 153.878 831.905 133.576C839.09 127.485 847.991 119.989 851.583 116.709C857.987 110.93 863.609 109.369 865.639 112.648C866.108 113.585 869.075 115.303 872.042 116.553C874.854 117.802 877.665 119.832 878.289 121.238C879.07 123.268 870.168 188.862 865.795 212.444C864.077 221.815 863.609 222.595 859.236 223.376C845.024 226.344 837.372 236.495 838.465 250.707C839.714 265.231 850.178 274.289 865.171 273.821L872.667 273.665L878.602 286.315C881.881 293.343 887.816 305.993 891.877 314.27C895.781 322.703 899.061 329.731 899.061 330.2C899.061 330.512 897.03 333.011 894.375 335.822C887.972 342.694 885.473 351.283 887.972 359.248C892.814 375.647 910.618 383.768 924.673 375.959C929.515 373.304 934.981 367.213 936.699 362.84C940.291 353.47 936.386 337.852 929.359 333.792C926.86 332.386 926.547 329.107 928.734 325.202C930.608 321.766 953.409 274.289 956.221 267.418C958.719 261.795 960.281 261.483 968.246 264.763C975.742 267.886 990.267 267.574 998.544 264.294C1014.94 257.579 1025.41 243.054 1026.97 224.938L1027.9 214.787L1052.11 209.789C1065.39 207.134 1077.88 204.791 1079.75 204.791C1081.94 204.635 1084.28 206.509 1086.47 210.101C1088.5 213.381 1093.03 217.285 1097.4 219.472C1104.27 222.908 1104.9 223.689 1104.43 228.374C1104.12 231.185 1103.34 248.052 1102.71 265.856C1102.09 283.66 1101.15 298.652 1100.68 299.433C1100.21 300.058 1096.31 302.401 1092.09 304.587C1087.88 306.774 1083.03 310.366 1081.32 312.708C1077.41 317.862 1076.01 331.137 1078.66 337.384C1083.66 349.565 1099.12 355.812 1111.77 350.971C1119.42 347.848 1117.55 346.598 1142.38 371.898L1161.59 391.576L1157.22 399.073C1145.97 419.376 1157.69 445.925 1180.33 451.391C1197.98 455.608 1214.69 446.706 1222.34 428.746C1229.53 412.035 1220.16 390.639 1202.51 383.143C1194.86 380.02 1180.33 380.488 1173.15 384.236C1169.71 385.954 1166.28 387.36 1165.34 387.36C1163.78 387.36 1154.87 378.458 1127.39 349.565C1121.92 343.787 1121.92 343.787 1124.73 339.57C1126.45 336.915 1127.54 332.074 1127.7 327.076C1127.7 320.048 1127.08 317.862 1123.02 312.864C1120.36 309.585 1115.67 305.68 1112.55 304.119L1106.77 301.464V286.939C1106.77 279.131 1107.24 261.483 1107.87 247.896C1108.65 227.124 1109.27 222.908 1111.3 222.439C1120.36 219.784 1127.23 214.787 1130.2 208.696C1137.38 193.547 1130.67 177.929 1114.27 172.463C1106.93 170.121 1106.62 170.121 1098.18 174.025C1088.81 178.242 1083.97 184.489 1082.41 194.015C1081.79 197.295 1081.32 199.95 1081.16 199.95C1081.16 199.95 1070.07 202.136 1056.8 204.635C1025.56 210.726 1025.09 210.726 1022.75 204.011C1020.56 198.076 1013.22 189.643 1006.04 184.957C996.357 178.398 982.302 176.524 970.276 179.96C938.104 189.174 927.484 229.467 950.754 253.987L955.44 258.828L942.79 285.221C935.762 299.746 928.265 315.363 926.079 319.736L922.174 328.013H912.804H903.59L893.438 306.461C887.816 294.748 881.725 282.098 880.007 278.35L876.728 271.634L880.476 267.418C886.567 260.546 888.128 256.641 888.128 248.364C888.128 237.432 883.912 230.873 873.604 225.563C868.919 223.064 869.075 224.469 872.667 200.731C873.448 195.577 875.478 181.209 877.196 168.715C881.257 138.105 883.287 124.518 884.224 122.175C884.536 121.238 887.035 120.301 889.534 120.301C892.033 120.301 894.688 119.52 895.156 118.739C895.625 117.802 897.655 117.177 899.529 117.177C904.995 117.177 914.678 108.119 918.739 99.3735C925.61 84.5369 922.487 70.0127 909.993 58.1434C901.872 50.4908 890.315 48.1482 875.947 50.9593C869.231 52.3649 858.611 61.7354 855.176 69.3879C851.583 77.1967 851.271 92.8142 854.551 99.0612C858.611 106.87 862.828 102.341 808.323 147.944C799.89 155.128 792.549 160.906 791.925 160.906C791.456 160.906 788.177 158.876 784.428 156.377C780.836 153.878 775.214 151.224 772.091 150.755C768.811 150.13 766 149.193 765.531 148.569C764.438 146.538 763.189 61.7354 764.438 60.0175C765.063 59.2366 768.03 57.5187 770.997 56.2693C790.207 48.4605 792.081 24.2534 774.277 12.5403C767.093 7.69891 760.846 6.76187 754.13 9.57303Z" fill="black"/>
<path d="M757.207 274.169L757.176 274.182L757.144 274.195C756.957 274.272 756.782 274.344 756.616 274.411C754.535 275.263 754.03 275.469 753.496 276.274C752.771 277.366 752.008 279.763 751.498 285.975C750.563 297.35 750.566 319.312 750.57 363.354C750.571 366.535 750.571 369.831 750.571 373.246C750.571 398.869 750.415 422.27 750.18 439.33C750.063 447.857 749.926 454.811 749.779 459.67C749.705 462.095 749.629 464.021 749.549 465.367C749.51 466.033 749.468 466.599 749.42 467.026C749.397 467.23 749.366 467.471 749.319 467.699C749.297 467.805 749.255 467.995 749.18 468.21C749.142 468.317 749.072 468.498 748.956 468.705C748.863 468.873 748.612 469.296 748.121 469.663L747.998 469.756L747.865 469.836C746.704 470.532 745.576 470.203 745.382 470.147L745.371 470.144C745.011 470.04 744.722 469.891 744.56 469.803C744.213 469.612 743.861 469.367 743.554 469.138C742.912 468.662 742.083 467.974 741.119 467.135C739.174 465.443 736.488 462.968 733.266 459.913C726.815 453.796 718.126 445.263 708.744 435.802C693.253 420.312 684.638 411.855 679.314 407.259C673.954 402.632 672.533 402.483 671.358 402.483C670.196 402.483 668.755 402.649 667.383 402.916C666.077 403.17 665.03 403.479 664.447 403.722C663.397 404.374 661.879 406.114 660.551 408.592C659.298 410.931 658.537 413.33 658.439 415.045C658.478 415.118 658.532 415.213 658.603 415.33C658.924 415.855 659.465 416.615 660.291 417.652C661.933 419.714 664.5 422.628 668.146 426.547C675.427 434.371 686.833 446.011 703.308 462.487L703.312 462.491L748.915 508.25L749.786 509.124L749.79 510.357L750.102 602.961C750.102 602.962 750.102 602.963 750.102 602.964C750.415 653.72 750.571 698.86 750.571 702.931C750.571 705.921 750.775 707.547 751.193 708.707C751.569 709.75 752.203 710.647 753.644 711.951L753.657 711.963L753.67 711.974C756.937 715 761.707 715.617 765.805 714.24C769.912 712.861 772.628 709.772 772.683 706.011L772.684 705.933L772.689 705.855L772.689 705.85L772.69 705.836L772.692 705.786C772.694 705.743 772.696 705.687 772.698 705.617C772.703 705.476 772.707 705.292 772.712 705.062C772.722 704.603 772.731 703.983 772.741 703.208C772.761 701.659 772.78 699.511 772.8 696.828C772.839 691.464 772.878 683.981 772.917 674.924C772.995 656.81 773.073 632.409 773.151 606.094V606.093L773.463 510.514L773.467 509.28L774.338 508.406L820.091 462.497C836.255 446.177 847.624 434.495 854.946 426.591C858.613 422.632 861.222 419.667 862.901 417.562C863.745 416.503 864.304 415.724 864.638 415.182C864.714 415.058 864.771 414.959 864.813 414.882C864.709 413.246 863.957 410.9 862.706 408.58C861.377 406.117 859.858 404.375 858.806 403.722C858.223 403.479 857.176 403.17 855.871 402.916C854.498 402.649 853.057 402.483 851.896 402.483C850.724 402.483 849.344 402.627 844.101 407.176C838.891 411.697 830.47 419.998 815.288 435.18C799.932 450.614 790.308 459.968 784.604 464.774C783.17 465.983 781.932 466.948 780.879 467.664C779.886 468.338 778.829 468.952 777.796 469.23C777.263 469.374 776.502 469.495 775.663 469.295C774.717 469.071 773.924 468.495 773.416 467.686C772.966 466.97 772.837 466.232 772.799 465.716C772.762 465.216 772.796 464.724 772.855 464.283C772.855 464.281 772.855 464.278 772.855 464.275C772.859 464.194 772.863 464.067 772.867 463.889C772.875 463.534 772.883 463.023 772.89 462.356C772.904 461.025 772.917 459.112 772.926 456.678C772.946 451.81 772.956 444.88 772.956 436.399C772.956 419.439 772.917 396.289 772.838 371.069L772.838 371.065L772.684 280.519L769.994 277.462L769.984 277.451L769.974 277.439C768.492 275.72 766.263 274.444 763.821 273.846C761.367 273.244 758.977 273.394 757.207 274.169ZM658.351 414.868C658.352 414.868 658.352 414.869 658.352 414.869C658.342 414.84 658.339 414.838 658.351 414.868ZM772.851 464.347C772.851 464.355 772.852 464.35 772.853 464.329C772.852 464.338 772.852 464.344 772.851 464.347Z" fill="#2B2B2B" stroke="#131313" stroke-width="6"/>
<path d="M535.247 321.878L535.233 321.885L535.22 321.893C533.48 322.855 532.542 323.549 531.858 324.471C531.171 325.398 530.534 326.844 530.047 329.657C529.047 335.435 528.882 345.536 528.803 365.033V401.416V404.416H525.803H473.328C451.052 404.416 437.809 404.494 429.59 404.842C421.234 405.196 418.577 405.83 417.041 406.598L417.004 406.616L416.966 406.634C413.256 408.361 411.248 411.173 410.709 414.235C410.161 417.343 411.066 421.091 413.969 424.67L413.98 424.684L413.991 424.698L416.066 427.318L479.128 427.777L543.785 428.245L545.024 428.254L545.896 429.135L603.209 487.073L603.212 487.076L660.681 545.014L661.551 545.891V547.127V624.277L661.551 627.839C661.55 668.047 661.55 687.916 662.667 698.376C663.244 703.78 664.079 706.11 664.964 707.376C665.803 708.578 666.855 709.133 669.436 710.465C671.419 711.456 672.344 711.743 673.103 711.785C673.837 711.825 674.768 711.652 676.785 710.831L676.804 710.823L676.824 710.815C677.521 710.542 678.074 710.341 678.557 710.165C679.185 709.936 679.694 709.75 680.248 709.507C681.061 709.15 681.522 708.84 681.874 708.46C682.627 707.649 683.52 705.837 684.13 700.354C685.238 690.403 685.234 670.967 685.226 631.13C685.225 627.602 685.225 623.915 685.225 620.06V536.188L619.729 470.692L553.355 404.318L552.476 403.439V402.197V365.808C552.476 345.915 552.307 335.439 551.217 329.449C550.685 326.528 549.988 325.037 549.246 324.109C548.515 323.194 547.505 322.525 545.653 321.69L545.645 321.686C543.264 320.604 541.625 320.21 540.209 320.237C538.823 320.263 537.327 320.699 535.247 321.878Z" fill="#2B2B2B" stroke="#131313" stroke-width="6"/>
<path d="M976.367 322.235L976.359 322.241L976.352 322.247C975.088 323.245 974.253 324.147 973.597 325.399C972.91 326.71 972.323 328.591 971.879 331.681C970.979 337.941 970.777 348.238 970.777 366.745V402.04V403.281L969.901 404.159L903.527 470.689L903.524 470.692L838.029 536.188V620.06C838.029 624.127 838.028 628.005 838.027 631.705C838.019 670.758 838.015 689.882 839.047 699.789C839.618 705.264 840.46 707.215 841.234 708.156C841.594 708.595 842.05 708.948 842.812 709.361C843.334 709.644 843.814 709.867 844.406 710.142C844.86 710.353 845.38 710.594 846.037 710.917L846.068 710.933L846.099 710.949C847.759 711.815 848.415 711.934 848.974 711.902C849.706 711.861 850.735 711.537 853.114 710.427C853.23 710.372 853.344 710.317 853.455 710.264C856.063 709.02 857.168 708.493 858.053 707.358C858.975 706.175 859.869 703.967 860.492 698.62C861.703 688.225 861.703 668.259 861.702 627.374C861.702 626.304 861.702 625.22 861.702 624.121V546.814V545.574L862.578 544.696L920.203 486.914L920.206 486.911L977.832 428.973L978.712 428.089H979.959H1041.65C1059.44 428.089 1075.26 427.933 1086.93 427.66C1092.76 427.524 1097.53 427.359 1100.98 427.171C1102.71 427.077 1104.07 426.978 1105.06 426.878C1105.55 426.828 1105.92 426.781 1106.18 426.739C1106.29 426.72 1106.36 426.706 1106.39 426.699C1110.2 425.206 1112.41 421.23 1112.44 416.718C1112.47 412.196 1110.3 408.05 1106.4 406.372C1105.71 406.094 1104.5 405.785 1102.27 405.514C1100.05 405.243 1096.97 405.027 1092.66 404.862C1084.04 404.533 1070.7 404.415 1049.77 404.415H997.451H994.451V401.415V365.495C994.451 346.262 994.246 335.774 993.24 329.609C992.745 326.574 992.097 324.892 991.387 323.814C990.723 322.805 989.855 322.094 988.391 321.293C986.715 320.435 984.455 320.03 982.143 320.209C979.81 320.39 977.737 321.139 976.367 322.235Z" fill="#2B2B2B" stroke="#131313" stroke-width="6"/>
<circle cx="636" cy="86" r="39" fill="#2B2B2B"/>
<path d="M636.08 67C638.568 66.9979 641.031 67.488 643.328 68.442C645.626 69.3961 647.711 70.7953 649.465 72.559C651.249 74.2975 652.671 76.3718 653.649 78.6623C654.628 80.9529 655.143 83.4144 655.165 85.905C655.188 90.9715 653.205 95.8411 649.648 99.4498C646.092 103.058 641.252 105.113 636.185 105.164H636.03C631.016 105.086 626.228 103.063 622.678 99.5218C619.127 95.9805 617.091 91.198 617 86.184C616.983 83.6948 617.459 81.2268 618.403 78.9232C619.346 76.6195 620.737 74.526 622.495 72.764C625.984 69.191 630.731 67.1241 635.723 67.005L636.08 67ZM636.09 68C633.69 68.0139 631.316 68.5044 629.107 69.4431C626.897 70.3817 624.896 71.7498 623.219 73.468C621.552 75.1352 620.232 77.1168 619.336 79.2978C618.44 81.4789 617.986 83.8161 618 86.174C618.087 90.9236 620.015 95.454 623.378 98.8087C626.741 102.163 631.277 104.08 636.026 104.154H636.156C640.96 104.11 645.551 102.166 648.926 98.7475C652.3 95.3286 654.184 90.7128 654.165 85.909C654.144 83.5499 653.655 81.2185 652.728 79.049C651.802 76.8795 650.455 74.9148 648.765 73.268C647.107 71.5947 645.132 70.2674 642.956 69.3631C640.78 68.4588 638.447 67.9955 636.09 68ZM623.993 80.515V81.515H622.554V90.685H623.993V91.685L621.281 91.665V80.515H623.993ZM650.884 80.485V91.663H648.172V90.663H649.61V81.483H648.172V80.483L650.884 80.485ZM638.912 83.038V86.979C638.912 88.652 638.103 89.212 636.912 89.212C636.595 89.2093 636.279 89.1553 635.978 89.052L636.113 88.163C636.335 88.2323 636.565 88.2693 636.797 88.273C637.426 88.273 637.797 87.983 637.797 86.934L637.807 83.034L638.912 83.038ZM645.999 82.938C646.513 82.9167 647.025 83.0089 647.499 83.208L647.254 84.087C646.879 83.927 646.474 83.847 646.065 83.852C645.773 83.8352 645.48 83.8824 645.207 83.9902C644.934 84.0981 644.689 84.264 644.487 84.4765C644.284 84.689 644.131 84.943 644.037 85.2208C643.943 85.4986 643.911 85.7935 643.942 86.085C643.914 86.373 643.948 86.6639 644.043 86.9374C644.137 87.2109 644.291 87.4605 644.492 87.6687C644.693 87.877 644.937 88.0389 645.207 88.1433C645.477 88.2476 645.767 88.2919 646.055 88.273C646.466 88.2783 646.874 88.2018 647.255 88.048L647.415 88.917C646.919 89.115 646.387 89.207 645.852 89.187C645.442 89.2218 645.028 89.1672 644.64 89.027C644.252 88.8868 643.899 88.6643 643.605 88.3749C643.312 88.0854 643.084 87.7357 642.938 87.35C642.792 86.9642 642.732 86.5514 642.76 86.14C642.738 85.7103 642.806 85.2805 642.961 84.8792C643.117 84.4778 643.355 84.1139 643.661 83.8114C643.967 83.5089 644.334 83.2746 644.737 83.1241C645.141 82.9736 645.57 82.9101 645.999 82.938ZM627.669 82.908C628.06 82.9119 628.446 82.9961 628.803 83.1552C629.16 83.3143 629.48 83.545 629.744 83.833C630.008 84.121 630.211 84.4601 630.338 84.8295C630.466 85.1988 630.516 85.5904 630.486 85.98C630.533 86.3862 630.492 86.7977 630.366 87.1867C630.241 87.5758 630.033 87.9335 629.758 88.2357C629.482 88.538 629.146 88.7778 628.77 88.9391C628.394 89.1004 627.988 89.1795 627.579 89.171C627.188 89.1682 626.802 89.084 626.445 88.9239C626.088 88.7638 625.769 88.5311 625.507 88.2408C625.245 87.9505 625.046 87.6088 624.923 87.2375C624.8 86.8662 624.755 86.4734 624.792 86.084C624.754 85.6826 624.8 85.2775 624.927 84.8948C625.054 84.512 625.259 84.1599 625.53 83.861C625.801 83.5622 626.131 83.323 626.499 83.1589C626.868 82.9948 627.266 82.9094 627.669 82.908ZM634.769 83.368C634.966 83.4834 635.128 83.6492 635.239 83.8482C635.35 84.0472 635.406 84.2722 635.4 84.5C635.394 84.7757 635.306 85.0433 635.149 85.2698C634.992 85.4962 634.771 85.6715 634.515 85.774L634.401 85.814C634.747 85.8842 635.058 86.072 635.281 86.3454C635.504 86.6189 635.626 86.9611 635.625 87.314C635.629 87.5529 635.579 87.7895 635.478 88.0059C635.376 88.2223 635.227 88.4128 635.041 88.563C634.383 89.0118 633.586 89.2118 632.793 89.127C632.339 89.1292 631.885 89.1025 631.434 89.047L631.424 83.118C631.956 83.0262 632.494 82.9811 633.032 82.983C633.638 82.9235 634.247 83.058 634.771 83.367L634.769 83.368ZM633.069 86.325H632.52V88.3C632.714 88.32 632.909 88.3284 633.104 88.325C633.813 88.325 634.443 88.055 634.443 87.325C634.443 86.595 633.837 86.324 633.073 86.324L633.069 86.325ZM627.644 83.8C626.535 83.8 625.951 84.844 625.951 86.093L625.961 86.068C625.961 87.302 626.58 88.281 627.644 88.281C628.708 88.281 629.317 87.281 629.317 86.023C629.317 84.881 628.753 83.8 627.644 83.8ZM642.053 86.317V87.081H639.753V86.317H642.053ZM633.148 83.805C632.938 83.7979 632.727 83.813 632.519 83.85L632.524 85.508H633.088C633.852 85.508 634.282 85.148 634.282 84.634C634.282 84.12 633.852 83.807 633.148 83.807V83.805Z" fill="white"/>
<circle cx="540" cy="223" r="45" fill="#2B2B2B"/>
<circle cx="982" cy="223" r="45" fill="#2B2B2B"/>
<circle cx="886" cy="86" r="39" fill="#2B2B2B"/>
<path d="M887.05 72.343C890.338 69.481 893.594 68.284 895.585 69.432C897.661 70.632 898.269 74.266 897.339 78.78C897.282 79.0547 897.219 79.3337 897.15 79.617C897.572 79.739 897.981 79.8684 898.378 80.005C902.5 81.424 905.163 83.646 905.163 85.945C905.163 88.345 902.316 90.685 897.942 92.135C897.711 92.2117 897.475 92.2857 897.234 92.357C897.319 92.7031 897.394 93.0431 897.461 93.3771C898.325 97.7401 897.661 101.326 895.612 102.51C893.63 103.657 890.427 102.53 887.183 99.739C886.84 99.4444 886.497 99.1311 886.152 98.799C885.885 99.0564 885.619 99.3007 885.352 99.532C882.004 102.459 878.565 103.673 876.516 102.492C874.532 101.349 873.909 98.01 874.707 93.806C874.791 93.3634 874.891 92.9097 875.007 92.445C874.652 92.3424 874.308 92.2344 873.975 92.121C869.77 90.6821 867 88.31 867 85.945C867 83.655 869.58 81.445 873.621 80.039C874.073 79.8817 874.544 79.7334 875.034 79.594C874.927 79.1654 874.833 78.744 874.752 78.33C873.915 74.052 874.5 70.633 876.493 69.482C878.567 68.282 882.022 69.571 885.468 72.631C885.679 72.8177 885.89 73.0124 886.101 73.215L886.356 72.972L886.783 72.58L887.05 72.343ZM895.656 92.7701L895.23 92.8701C893.665 93.201 892.082 93.4347 890.488 93.57C889.514 94.9941 888.445 96.3508 887.288 97.6311C887.609 97.941 887.929 98.2327 888.247 98.5061C891.021 100.893 893.593 101.798 894.795 101.106C896.063 100.372 896.604 97.4531 895.861 93.7001C895.802 93.3941 895.734 93.0837 895.656 92.769V92.7701ZM876.592 92.844L876.501 93.2181L876.379 93.7771L876.313 94.1101C875.63 97.7101 876.131 100.386 877.335 101.08C878.604 101.812 881.403 100.823 884.284 98.305C884.525 98.0937 884.768 97.8704 885.012 97.635C883.832 96.3602 882.737 95.0086 881.735 93.5891C880.006 93.4569 878.288 93.2086 876.592 92.844ZM888.385 93.708L888.18 93.715C887.49 93.743 886.79 93.757 886.08 93.757C885.323 93.757 884.578 93.7427 883.847 93.7141C884.6 94.7061 885.371 95.629 886.147 96.463C886.939 95.5829 887.686 94.664 888.385 93.708ZM886.085 79.832C884.909 79.832 883.745 79.876 882.61 79.962C881.969 80.9 881.349 81.886 880.76 82.908L880.539 83.295C880.039 84.188 879.567 85.0881 879.139 85.9851C879.632 87.0091 880.177 88.039 880.768 89.06C881.359 90.081 881.986 91.075 882.633 92.019C883.745 92.091 884.901 92.128 886.089 92.128C887.277 92.128 888.452 92.0861 889.589 92.0061C890.21 91.0751 890.823 90.0861 891.419 89.052C892.015 88.018 892.564 86.983 893.06 85.9611C892.56 84.9611 892.012 83.934 891.414 82.901C890.816 81.868 890.206 80.901 889.575 79.965C888.429 79.876 887.264 79.831 886.082 79.831L886.085 79.832ZM878.268 87.9L878.061 88.4C877.661 89.378 877.319 90.34 877.031 91.2701C878.193 91.5176 879.367 91.7059 880.548 91.834C880.137 91.196 879.737 90.5427 879.348 89.8741C878.97 89.2194 878.61 88.5614 878.268 87.9ZM893.927 87.842L893.827 88.025C893.506 88.637 893.169 89.25 892.815 89.864C892.431 90.5307 892.041 91.1777 891.644 91.805C892.842 91.6661 894.033 91.4642 895.21 91.2001C894.84 90.0597 894.412 88.9393 893.927 87.8431V87.842ZM875.471 81.165L875.143 81.26C874.804 81.3614 874.475 81.4674 874.157 81.578C870.7 82.783 868.63 84.555 868.63 85.945C868.63 87.41 870.885 89.345 874.505 90.578C874.808 90.6814 875.122 90.7814 875.447 90.878C875.966 89.2088 876.596 87.5755 877.33 85.989C876.605 84.4238 875.984 82.8123 875.471 81.165ZM896.713 81.188L896.613 81.4941C896.118 83.0153 895.53 84.5045 894.851 85.953C895.604 87.5185 896.25 89.1336 896.783 90.7871L896.941 90.741L897.424 90.587C901.201 89.335 903.524 87.42 903.524 85.945C903.524 84.56 901.37 82.7631 897.838 81.545C897.479 81.4204 897.104 81.3014 896.713 81.188ZM886.082 82.537C886.756 82.537 887.415 82.7369 887.975 83.1114C888.536 83.4859 888.973 84.0181 889.231 84.6409C889.489 85.2636 889.556 85.9488 889.425 86.6099C889.293 87.271 888.968 87.8783 888.492 88.3549C888.015 88.8315 887.408 89.1561 886.747 89.2876C886.086 89.4191 885.401 89.3516 884.778 89.0936C884.155 88.8357 883.623 88.3989 883.248 87.8384C882.874 87.278 882.674 86.6191 882.674 85.945C882.674 85.0412 883.033 84.1744 883.672 83.5352C884.311 82.8961 885.178 82.537 886.082 82.537ZM891.654 80.173L891.726 80.287C892.096 80.8704 892.458 81.4684 892.813 82.081C893.199 82.7477 893.566 83.4097 893.913 84.067C894.375 82.9922 894.783 81.8948 895.135 80.779C894.037 80.531 892.871 80.3271 891.654 80.173ZM880.513 80.173L880.253 80.206C879.137 80.3531 878.064 80.541 877.053 80.767C877.385 81.837 877.791 82.944 878.265 84.067C878.606 83.4064 878.965 82.7487 879.342 82.094L879.602 81.642L879.802 81.308C880.037 80.9234 880.274 80.5444 880.513 80.171V80.173ZM894.692 70.8C893.459 70.192 890.878 71.17 888.12 73.57C887.829 73.824 887.536 74.0907 887.243 74.37C888.408 75.6394 889.485 76.9858 890.469 78.4C892.185 78.556 893.889 78.8252 895.569 79.206L895.633 78.943L895.741 78.443C896.541 74.543 896.047 71.573 894.769 70.836L894.692 70.8ZM884.2 73.69C881.292 71.165 878.557 70.169 877.306 70.89C876.106 71.584 875.631 74.349 876.348 78.014C876.423 78.398 876.511 78.79 876.61 79.19C878.29 78.8165 879.992 78.5526 881.706 78.4C882.7 76.9884 883.786 75.6441 884.958 74.376C884.767 74.1934 884.576 74.0174 884.385 73.848L884.2 73.69ZM886.1 75.541L885.707 75.975C885.076 76.681 884.45 77.443 883.837 78.252C884.578 78.218 885.329 78.2 886.083 78.2C886.837 78.2 887.601 78.2181 888.347 78.253C887.644 77.3117 886.894 76.4066 886.1 75.541Z" fill="white"/>
<circle cx="761" cy="190" r="46" fill="#2B2B2B"/>
<path d="M771.805 207.627C769.735 209.636 767.451 209.327 765.274 208.376C764.195 207.883 763.023 207.628 761.837 207.628C760.651 207.628 759.478 207.883 758.399 208.376C755.355 209.69 753.74 209.308 751.906 207.627C741.556 196.971 743.084 180.739 754.847 180.127C757.7 180.28 759.697 181.704 761.378 181.827C763.878 181.319 766.267 179.864 768.94 180.055C770.355 180.093 771.742 180.456 772.994 181.116C774.246 181.776 775.329 182.716 776.158 183.863C774.778 184.642 773.647 185.796 772.894 187.191C772.142 188.587 771.8 190.166 771.908 191.747C772.015 193.329 772.568 194.848 773.502 196.128C774.436 197.409 775.713 198.399 777.186 198.984C776.114 202.265 774.267 205.239 771.801 207.654L771.805 207.627ZM761.149 180.013C761.061 177.777 761.836 175.594 763.316 173.915C764.795 172.237 766.864 171.193 769.093 171C769.701 176.462 764.128 180.548 761.149 180.013Z" fill="white"/>
<circle cx="333" cy="417" r="39" fill="#2B2B2B"/>
<circle cx="1189" cy="417" r="39" fill="#2B2B2B"/>
<circle cx="420" cy="329" r="31" fill="#2B2B2B"/>
<circle cx="761" cy="31" r="31" fill="#2B2B2B"/>
<circle cx="1102" cy="329" r="31" fill="#2B2B2B"/>
<circle cx="1107.5" cy="196.5" r="27.5" fill="#2B2B2B"/>
<circle cx="913.5" cy="353.5" r="27.5" fill="#2B2B2B"/>
<path d="M902.571 364.371C905.629 366.448 908.849 368.277 912.2 369.839C907.593 372.623 903.707 373.6 901.939 372.07L901.807 371.947L901.683 371.814C900.491 370.435 900.822 367.768 902.346 364.477L902.539 364.387L902.571 364.371ZM925.526 364.34L925.818 364.477C927.34 367.764 927.672 370.428 926.485 371.809L926.357 371.947C924.651 373.653 920.657 372.686 915.919 369.809C919.207 368.269 922.37 366.474 925.379 364.44L925.526 364.34ZM914.082 349.508C914.801 350.164 915.518 350.849 916.232 351.561C919.728 354.964 922.722 358.846 925.125 363.091C922.125 365.203 915.096 369.144 914.025 369.144C912.954 369.144 906.051 365.274 903.008 363.144C905.415 358.877 908.42 354.976 911.932 351.56C912.644 350.847 913.361 350.163 914.082 349.508ZM915.539 339.464C920.391 336.3 924.261 335.294 925.451 336.484L928.451 339.432L928.219 339.474C925.282 340.202 922.507 341.472 920.037 343.22L918.675 344.111L919.861 345.225L920.577 345.908L921.289 346.608L921.658 346.98C929.351 354.805 933.448 363.15 931.414 365.18L928.354 368.18L928.288 367.796C927.398 363.175 923.227 356.735 917.138 350.646C916.419 349.928 915.688 349.23 914.945 348.552L914.082 347.766L913.219 348.552L912.48 349.236C911.99 349.697 911.506 350.167 911.027 350.645L910.647 351.028C904.61 357.169 900.538 363.609 899.814 368.156L899.808 368.188L896.742 365.176L896.65 365.076C894.817 362.85 899.068 354.415 906.875 346.608C907.348 346.135 907.824 345.674 908.302 345.224L909.488 344.11L907.746 342.973C905.381 341.342 902.737 340.155 899.946 339.473L899.712 339.431L902.7 336.492L902.811 336.392C903.233 336.106 903.74 335.972 904.249 336.011C906.349 336.017 909.649 337.422 913.36 339.954L914.082 340.446L914.804 339.954L915.539 339.464ZM932.18 341.307L932.319 341.436C934.248 343.365 932.764 348.209 928.963 353.764C928.716 353.402 928.459 353.038 928.192 352.671C928.119 349.963 927.906 347.61 927.552 346.997C926.425 345.838 925.131 344.854 923.714 344.076L923.769 343.976C924.15 343.299 924.487 342.642 924.782 342.005C928.1 340.459 930.79 340.113 932.18 341.307ZM903.38 342.007C903.676 342.643 904.016 343.299 904.4 343.977L904.425 344.022C902.976 344.815 901.653 345.818 900.5 347C900.139 347.626 899.924 350.06 899.856 352.836C899.631 353.148 899.413 353.458 899.202 353.766C895.479 348.325 893.979 343.569 895.727 341.561L895.844 341.435L895.977 341.312C897.366 340.112 900.061 340.456 903.383 342.007H903.38ZM906.943 343.983C907.102 344.084 907.261 344.187 907.421 344.291C906.934 344.749 906.448 345.219 905.965 345.703C904.268 347.395 902.672 349.185 901.185 351.063C901.166 349.907 901.307 348.754 901.603 347.636C901.903 347.119 904.187 345.611 906.728 344.11L906.943 343.983ZM921.158 344.018C923.758 345.549 926.134 347.109 926.439 347.636C926.726 348.703 926.865 349.804 926.85 350.908C925.397 349.086 923.843 347.347 922.194 345.7C921.71 345.216 921.225 344.746 920.738 344.288C920.88 344.198 921.021 344.108 921.162 344.018H921.158Z" fill="white"/>
<circle cx="864.5" cy="249.5" r="27.5" fill="#2B2B2B"/>
<circle cx="610.5" cy="353.5" r="27.5" fill="#2B2B2B"/>
<circle cx="416.5" cy="196.5" r="27.5" fill="#2B2B2B"/>
<circle cx="661.5" cy="249.5" r="27.5" fill="#2B2B2B"/>
<path d="M772.271 22.9007C772.279 22.9907 772.282 23.0827 772.282 23.1747V38.6527C772.283 39.0472 772.206 39.438 772.055 39.8026C771.905 40.1673 771.684 40.4987 771.405 40.7779C771.127 41.0572 770.796 41.2787 770.431 41.4298C770.067 41.581 769.676 41.6587 769.282 41.6587H769.164V47.7837C769.164 48.425 768.909 49.0401 768.456 49.4935C768.002 49.947 767.387 50.2017 766.746 50.2017C766.105 50.2017 765.49 49.947 765.036 49.4935C764.583 49.0401 764.328 48.425 764.328 47.7837V41.6577H758.255V47.7827C758.255 48.424 758 49.0391 757.547 49.4925C757.093 49.946 756.478 50.2007 755.837 50.2007C755.196 50.2007 754.581 49.946 754.127 49.4925C753.674 49.0391 753.419 48.424 753.419 47.7827V41.6577H753.3C752.538 41.6568 751.806 41.3662 751.25 40.8449C750.695 40.3237 750.359 39.6108 750.31 38.8507L750.304 38.6507V23.1697C750.304 23.0777 750.311 22.9857 750.319 22.8957L772.271 22.9007ZM746.418 24.2737C746.733 24.2714 747.046 24.3311 747.338 24.4495C747.63 24.568 747.896 24.7428 748.12 24.9639C748.345 25.1851 748.524 25.4484 748.646 25.7387C748.769 26.0289 748.834 26.3406 748.836 26.6557V36.8747C748.834 37.1899 748.769 37.5015 748.646 37.7918C748.524 38.0821 748.345 38.3454 748.12 38.5666C747.896 38.7877 747.63 38.9625 747.338 39.081C747.046 39.1994 746.733 39.2591 746.418 39.2567C746.103 39.2591 745.79 39.1994 745.498 39.081C745.206 38.9625 744.94 38.7877 744.716 38.5666C744.491 38.3454 744.312 38.0821 744.19 37.7918C744.067 37.5015 744.002 37.1899 744 36.8747V26.6567C744.002 26.3415 744.067 26.0298 744.189 25.7394C744.312 25.449 744.491 25.1856 744.715 24.9643C744.94 24.743 745.206 24.5681 745.498 24.4496C745.79 24.3311 746.103 24.2714 746.418 24.2737ZM776.168 24.2737C776.483 24.2714 776.796 24.3311 777.088 24.4495C777.38 24.568 777.646 24.7428 777.87 24.9639C778.095 25.1851 778.274 25.4484 778.396 25.7387C778.519 26.0289 778.584 26.3406 778.586 26.6557V36.8747C778.586 37.516 778.331 38.1311 777.878 38.5845C777.424 39.038 776.809 39.2927 776.168 39.2927C775.527 39.2927 774.912 39.038 774.458 38.5845C774.005 38.1311 773.75 37.516 773.75 36.8747V26.6567C773.752 26.3415 773.817 26.0298 773.939 25.7394C774.062 25.449 774.241 25.1856 774.465 24.9643C774.69 24.743 774.956 24.5681 775.248 24.4496C775.54 24.3311 775.853 24.2714 776.168 24.2737ZM771.483 12.0347C771.512 12.0509 771.537 12.0727 771.558 12.0988C771.578 12.1249 771.593 12.1548 771.601 12.1867C771.61 12.2187 771.612 12.252 771.608 12.2848C771.604 12.3176 771.593 12.3492 771.576 12.3777L769.529 15.8777C771.179 17.4453 772.14 19.6036 772.2 21.8787H750.389C750.447 19.6021 751.406 17.4414 753.056 15.8717L751.009 12.3767C750.992 12.3484 750.981 12.317 750.977 12.2843C750.973 12.2517 750.975 12.2186 750.983 12.1868C750.992 12.155 751.006 12.1252 751.026 12.0991C751.046 12.073 751.071 12.0511 751.1 12.0347C751.159 12.0007 751.228 11.9912 751.294 12.0083C751.359 12.0253 751.415 12.0675 751.45 12.1257L753.437 15.5157C755.298 13.9018 757.623 12.9197 760.078 12.7107H762.508C764.962 12.9183 767.287 13.8986 769.149 15.5107L771.136 12.1257C771.171 12.0683 771.226 12.0267 771.291 12.0097C771.356 11.9927 771.425 12.0017 771.483 12.0347ZM756.79 16.4107C756.553 16.42 756.324 16.4986 756.132 16.6369C755.94 16.7751 755.792 16.9669 755.708 17.1883C755.624 17.4098 755.606 17.6511 755.658 17.8823C755.71 18.1135 755.829 18.3243 756 18.4885C756.17 18.6527 756.386 18.7631 756.619 18.8059C756.852 18.8488 757.092 18.8221 757.31 18.7293C757.528 18.6365 757.714 18.4816 757.845 18.284C757.975 18.0864 758.045 17.8547 758.045 17.6177C758.042 17.456 758.008 17.2963 757.943 17.148C757.878 16.9996 757.785 16.8655 757.668 16.7534C757.552 16.6412 757.414 16.5532 757.263 16.4944C757.113 16.4356 756.952 16.4072 756.79 16.4107ZM766.128 16.4107C765.891 16.4198 765.662 16.4982 765.47 16.6364C765.277 16.7745 765.13 16.9663 765.045 17.1877C764.961 17.4091 764.943 17.6505 764.995 17.8817C765.047 18.113 765.166 18.3239 765.336 18.4882C765.507 18.6525 765.722 18.763 765.955 18.8059C766.188 18.8488 766.429 18.8222 766.647 18.7294C766.865 18.6366 767.051 18.4818 767.182 18.2841C767.312 18.0865 767.382 17.8547 767.382 17.6177C767.379 17.456 767.345 17.2965 767.28 17.1482C767.215 16.9999 767.122 16.8659 767.006 16.7537C766.889 16.6416 766.752 16.5535 766.601 16.4947C766.45 16.4358 766.29 16.4073 766.128 16.4107Z" fill="white"/>
<path d="M985.062 232.284L994.822 242.164H983.082L979.044 238.3L985.062 232.284ZM978.679 226.016L984.549 231.886L978.677 237.758L972.807 231.888L978.679 226.016ZM994.822 221.616L985.062 231.686L979.044 225.668L983.081 221.616H994.822ZM994.822 204L969.872 228.954L964 223.082L983.082 204H994.822Z" fill="white"/>
<path d="M1189.07 398C1192.12 397.992 1195.12 398.722 1197.82 400.126L1198.17 400.31L1197.86 400.57C1197.1 401.183 1196.49 401.976 1196.1 402.878L1196 403.138L1195.75 403.021C1192.46 401.458 1188.73 401.097 1185.2 402C1181.67 402.903 1178.56 405.013 1176.43 407.965C1174.29 410.917 1173.25 414.524 1173.5 418.159C1173.74 421.795 1175.25 425.231 1177.76 427.87C1180.28 430.509 1183.63 432.185 1187.25 432.608C1190.87 433.03 1194.53 432.172 1197.58 430.183C1200.63 428.193 1202.89 425.198 1203.97 421.716C1205.04 418.234 1204.87 414.486 1203.47 411.121L1203.37 410.861L1203.63 410.768C1204.55 410.424 1205.37 409.859 1206.02 409.122L1206.28 408.822L1206.44 409.185V409.162C1208.15 412.912 1208.6 417.116 1207.73 421.143C1206.85 425.171 1204.69 428.806 1201.58 431.505C1198.46 434.204 1194.55 435.822 1190.44 436.115C1186.33 436.409 1182.23 435.364 1178.77 433.136C1175.3 430.908 1172.65 427.616 1171.2 423.754C1169.76 419.893 1169.61 415.668 1170.77 411.712C1171.93 407.757 1174.34 404.283 1177.64 401.811C1180.94 399.34 1184.95 398.002 1189.07 398ZM1189.07 408.394C1190.79 408.394 1192.47 408.904 1193.9 409.86C1195.33 410.816 1196.45 412.175 1197.11 413.765C1197.77 415.354 1197.94 417.104 1197.6 418.791C1197.27 420.479 1196.44 422.029 1195.22 423.246C1194.01 424.463 1192.46 425.291 1190.77 425.627C1189.08 425.963 1187.33 425.79 1185.74 425.132C1184.15 424.473 1182.79 423.358 1181.84 421.928C1180.88 420.497 1180.37 418.815 1180.37 417.094C1180.37 414.787 1181.29 412.574 1182.92 410.943C1184.55 409.312 1186.77 408.395 1189.07 408.394H1189.07ZM1201.56 401.242C1202.34 401.242 1203.11 401.474 1203.76 401.91C1204.41 402.345 1204.92 402.964 1205.22 403.688C1205.52 404.412 1205.6 405.208 1205.44 405.977C1205.29 406.745 1204.91 407.451 1204.36 408.005C1203.81 408.559 1203.1 408.936 1202.33 409.088C1201.56 409.241 1200.77 409.162 1200.04 408.862C1199.32 408.561 1198.7 408.053 1198.26 407.401C1197.83 406.75 1197.6 405.984 1197.6 405.2C1197.6 404.15 1198.02 403.143 1198.76 402.401C1199.5 401.659 1200.51 401.242 1201.56 401.242Z" fill="white"/>
<path d="M342.7 398C343.539 398.036 344.376 398.117 345.207 398.243C346.028 398.391 346.82 398.664 347.557 399.055C348.326 399.428 349.022 399.936 349.612 400.555C350.801 401.773 351.592 403.323 351.88 405C352.04 405.828 352.121 406.669 352.121 407.512H352.163V426.692C352.122 427.533 352.042 428.371 351.922 429.204C351.789 430.055 351.516 430.877 351.115 431.639C350.751 432.393 350.257 433.077 349.657 433.661C349.028 434.242 348.322 434.733 347.557 435.118C346.833 435.5 346.054 435.77 345.249 435.918C344.423 436.079 343.583 436.16 342.742 436.161H323.386C322.547 436.125 321.71 436.044 320.879 435.918C320.058 435.77 319.266 435.497 318.529 435.106C317.775 434.742 317.09 434.249 316.506 433.649C315.318 432.431 314.529 430.881 314.241 429.205C314.081 428.377 314 427.536 314 426.693V407.316C314.041 406.478 314.121 405.645 314.241 404.816C314.374 403.966 314.647 403.143 315.048 402.381C315.418 401.624 315.919 400.939 316.527 400.356C316.685 400.199 316.852 400.123 317.009 399.956C317.49 399.558 318.006 399.205 318.551 398.9L319.117 398.656C319.684 398.407 320.285 398.242 320.9 398.167C321.514 398.068 322.134 398.012 322.756 398H342.7ZM336.435 405.03C339.21 408.721 340.475 413.183 339.364 417.107C339.262 417.465 339.141 417.817 339 418.161L338.486 417.861C333.669 414.811 329.191 411.256 325.128 407.256C327.566 410.74 330.27 414.03 333.217 417.096C329.172 414.587 325.33 411.766 321.725 408.658C322.18 409.412 322.71 410.119 323.307 410.767C326.734 415.212 330.705 419.21 335.128 422.667C331.787 424.682 327.028 424.776 322.279 422.667C321.119 422.168 320.024 421.527 319.021 420.759C321.154 424.029 324.224 426.58 327.83 428.078C332.43 429.987 337 429.798 340.33 427.93V427.941C341.944 427.266 345.162 426.275 346.899 429.492C347.299 430.262 348.173 426.192 344.999 422.341L344.948 422.278C345.017 422.127 345.062 421.967 345.082 421.803C346.663 415.873 342.86 408.8 336.435 405.03Z" fill="white"/>
<path d="M540.979 223.855L559.159 242.164H522.706L540.979 223.855ZM559.159 204L521 242.159V225.792L541.581 204.009L559.159 204ZM540.165 204.009L521 224.148V204.009H540.165Z" fill="white"/>
<path d="M603.012 337C602.497 337.006 601.992 337.142 601.545 337.397C601.097 337.651 600.721 338.015 600.453 338.455L592.383 352.241C592.132 352.685 592 353.186 592 353.696C592 354.206 592.132 354.707 592.383 355.151L600.453 368.937C600.721 369.377 601.097 369.741 601.545 369.995C601.992 370.25 602.497 370.386 603.012 370.392H619.152C619.667 370.386 620.172 370.25 620.62 369.995C621.067 369.741 621.443 369.377 621.711 368.937L629.781 355.151C630.032 354.707 630.164 354.206 630.164 353.696C630.164 353.186 630.032 352.685 629.781 352.241L621.71 338.455C621.442 338.016 621.066 337.652 620.619 337.397C620.172 337.143 619.667 337.006 619.152 337H603.012ZM603.158 345.065C603.181 345.063 603.203 345.063 603.226 345.065H606.01C606.071 345.068 606.13 345.085 606.182 345.116C606.235 345.147 606.279 345.191 606.31 345.243L611.033 353.519C611.057 353.56 611.072 353.605 611.078 353.652C611.084 353.605 611.099 353.56 611.123 353.519L615.834 345.243C615.867 345.189 615.913 345.144 615.969 345.112C616.024 345.081 616.086 345.065 616.15 345.065H618.934C618.994 345.069 619.051 345.088 619.102 345.119C619.153 345.15 619.196 345.193 619.227 345.244C619.258 345.295 619.276 345.353 619.28 345.413C619.284 345.472 619.274 345.532 619.25 345.587L614.643 353.7L619.253 361.8C619.279 361.855 619.291 361.916 619.288 361.977C619.285 362.038 619.267 362.097 619.236 362.15C619.205 362.203 619.161 362.247 619.109 362.279C619.057 362.31 618.998 362.329 618.937 362.333H616.153C616.088 362.332 616.025 362.314 615.97 362.281C615.914 362.248 615.869 362.2 615.837 362.144L611.126 353.868C611.102 353.827 611.087 353.782 611.081 353.735C611.075 353.782 611.06 353.827 611.036 353.868L606.313 362.144C606.283 362.198 606.24 362.244 606.187 362.277C606.135 362.31 606.075 362.329 606.013 362.333H603.226C603.165 362.329 603.106 362.31 603.054 362.279C603.002 362.247 602.958 362.203 602.927 362.15C602.896 362.097 602.878 362.038 602.875 361.977C602.872 361.916 602.884 361.855 602.91 361.8L607.52 353.7L602.91 345.587C602.886 345.537 602.874 345.482 602.874 345.427C602.874 345.372 602.886 345.317 602.91 345.267C602.933 345.217 602.968 345.173 603.011 345.138C603.054 345.103 603.104 345.078 603.158 345.065Z" fill="white"/>
<path d="M886.548 392.88V394.368H883.588V404H881.764V394.368H878.788V392.88H886.548ZM889.323 394.016C888.993 394.016 888.715 393.904 888.491 393.68C888.267 393.456 888.155 393.179 888.155 392.848C888.155 392.517 888.267 392.24 888.491 392.016C888.715 391.792 888.993 391.68 889.323 391.68C889.643 391.68 889.915 391.792 890.139 392.016C890.363 392.24 890.475 392.517 890.475 392.848C890.475 393.179 890.363 393.456 890.139 393.68C889.915 393.904 889.643 394.016 889.323 394.016ZM890.219 395.184V404H888.395V395.184H890.219ZM894.742 396.672V401.552C894.742 401.883 894.817 402.123 894.966 402.272C895.126 402.411 895.393 402.48 895.766 402.48H896.886V404H895.446C894.625 404 893.995 403.808 893.558 403.424C893.121 403.04 892.902 402.416 892.902 401.552V396.672H891.862V395.184H892.902V392.992H894.742V395.184H896.886V396.672H894.742ZM897.959 399.552C897.959 398.667 898.141 397.883 898.503 397.2C898.877 396.517 899.378 395.989 900.007 395.616C900.647 395.232 901.351 395.04 902.119 395.04C902.813 395.04 903.415 395.179 903.927 395.456C904.45 395.723 904.866 396.059 905.175 396.464V395.184H907.015V404H905.175V402.688C904.866 403.104 904.445 403.451 903.911 403.728C903.378 404.005 902.77 404.144 902.087 404.144C901.33 404.144 900.637 403.952 900.007 403.568C899.378 403.173 898.877 402.629 898.503 401.936C898.141 401.232 897.959 400.437 897.959 399.552ZM905.175 399.584C905.175 398.976 905.047 398.448 904.791 398C904.546 397.552 904.221 397.211 903.815 396.976C903.41 396.741 902.973 396.624 902.503 396.624C902.034 396.624 901.597 396.741 901.191 396.976C900.786 397.2 900.455 397.536 900.199 397.984C899.954 398.421 899.831 398.944 899.831 399.552C899.831 400.16 899.954 400.693 900.199 401.152C900.455 401.611 900.786 401.963 901.191 402.208C901.607 402.443 902.045 402.56 902.503 402.56C902.973 402.56 903.41 402.443 903.815 402.208C904.221 401.973 904.546 401.632 904.791 401.184C905.047 400.725 905.175 400.192 905.175 399.584ZM913.859 395.04C914.552 395.04 915.171 395.184 915.715 395.472C916.27 395.76 916.702 396.187 917.011 396.752C917.32 397.317 917.475 398 917.475 398.8V404H915.667V399.072C915.667 398.283 915.47 397.68 915.075 397.264C914.68 396.837 914.142 396.624 913.459 396.624C912.776 396.624 912.232 396.837 911.827 397.264C911.432 397.68 911.235 398.283 911.235 399.072V404H909.411V395.184H911.235V396.192C911.534 395.829 911.912 395.547 912.371 395.344C912.84 395.141 913.336 395.04 913.859 395.04ZM920.73 394.016C920.399 394.016 920.122 393.904 919.898 393.68C919.674 393.456 919.562 393.179 919.562 392.848C919.562 392.517 919.674 392.24 919.898 392.016C920.122 391.792 920.399 391.68 920.73 391.68C921.05 391.68 921.322 391.792 921.546 392.016C921.77 392.24 921.882 392.517 921.882 392.848C921.882 393.179 921.77 393.456 921.546 393.68C921.322 393.904 921.05 394.016 920.73 394.016ZM921.626 395.184V404H919.802V395.184H921.626ZM932.004 395.184V404H930.18V402.96C929.892 403.323 929.514 403.611 929.044 403.824C928.586 404.027 928.095 404.128 927.572 404.128C926.879 404.128 926.255 403.984 925.7 403.696C925.156 403.408 924.724 402.981 924.404 402.416C924.095 401.851 923.94 401.168 923.94 400.368V395.184H925.748V400.096C925.748 400.885 925.946 401.493 926.34 401.92C926.735 402.336 927.274 402.544 927.956 402.544C928.639 402.544 929.178 402.336 929.572 401.92C929.978 401.493 930.18 400.885 930.18 400.096V395.184H932.004ZM945.083 395.04C945.776 395.04 946.395 395.184 946.939 395.472C947.494 395.76 947.926 396.187 948.235 396.752C948.555 397.317 948.715 398 948.715 398.8V404H946.907V399.072C946.907 398.283 946.71 397.68 946.315 397.264C945.92 396.837 945.382 396.624 944.699 396.624C944.016 396.624 943.472 396.837 943.067 397.264C942.672 397.68 942.475 398.283 942.475 399.072V404H940.667V399.072C940.667 398.283 940.47 397.68 940.075 397.264C939.68 396.837 939.142 396.624 938.459 396.624C937.776 396.624 937.232 396.837 936.827 397.264C936.432 397.68 936.235 398.283 936.235 399.072V404H934.411V395.184H936.235V396.192C936.534 395.829 936.912 395.547 937.371 395.344C937.83 395.141 938.32 395.04 938.843 395.04C939.547 395.04 940.176 395.189 940.731 395.488C941.286 395.787 941.712 396.219 942.011 396.784C942.278 396.251 942.694 395.829 943.259 395.52C943.824 395.2 944.432 395.04 945.083 395.04Z" fill="white"/>
<path d="M524.773 289L520.469 284.024V289H518.645V277.88H520.469V282.952L524.789 277.88H527.077L522.245 283.448L527.157 289H524.773ZM532.594 289.144C531.762 289.144 531.01 288.957 530.338 288.584C529.666 288.2 529.138 287.667 528.754 286.984C528.37 286.291 528.178 285.491 528.178 284.584C528.178 283.688 528.376 282.893 528.77 282.2C529.165 281.507 529.704 280.973 530.386 280.6C531.069 280.227 531.832 280.04 532.674 280.04C533.517 280.04 534.28 280.227 534.962 280.6C535.645 280.973 536.184 281.507 536.578 282.2C536.973 282.893 537.17 283.688 537.17 284.584C537.17 285.48 536.968 286.275 536.562 286.968C536.157 287.661 535.602 288.2 534.898 288.584C534.205 288.957 533.437 289.144 532.594 289.144ZM532.594 287.56C533.064 287.56 533.501 287.448 533.906 287.224C534.322 287 534.658 286.664 534.914 286.216C535.17 285.768 535.298 285.224 535.298 284.584C535.298 283.944 535.176 283.405 534.93 282.968C534.685 282.52 534.36 282.184 533.954 281.96C533.549 281.736 533.112 281.624 532.642 281.624C532.173 281.624 531.736 281.736 531.33 281.96C530.936 282.184 530.621 282.52 530.386 282.968C530.152 283.405 530.034 283.944 530.034 284.584C530.034 285.533 530.274 286.269 530.754 286.792C531.245 287.304 531.858 287.56 532.594 287.56ZM541.101 281.672V286.552C541.101 286.883 541.176 287.123 541.325 287.272C541.485 287.411 541.752 287.48 542.125 287.48H543.245V289H541.805C540.984 289 540.355 288.808 539.917 288.424C539.48 288.04 539.261 287.416 539.261 286.552V281.672H538.221V280.184H539.261V277.992H541.101V280.184H543.245V281.672H541.101ZM546.751 277.16V289H544.927V277.16H546.751ZM550.073 279.016C549.743 279.016 549.465 278.904 549.241 278.68C549.017 278.456 548.905 278.179 548.905 277.848C548.905 277.517 549.017 277.24 549.241 277.016C549.465 276.792 549.743 276.68 550.073 276.68C550.393 276.68 550.665 276.792 550.889 277.016C551.113 277.24 551.225 277.517 551.225 277.848C551.225 278.179 551.113 278.456 550.889 278.68C550.665 278.904 550.393 279.016 550.073 279.016ZM550.969 280.184V289H549.145V280.184H550.969ZM557.812 280.04C558.505 280.04 559.124 280.184 559.668 280.472C560.223 280.76 560.655 281.187 560.964 281.752C561.273 282.317 561.428 283 561.428 283.8V289H559.62V284.072C559.62 283.283 559.423 282.68 559.028 282.264C558.633 281.837 558.095 281.624 557.412 281.624C556.729 281.624 556.185 281.837 555.78 282.264C555.385 282.68 555.188 283.283 555.188 284.072V289H553.364V280.184H555.188V281.192C555.487 280.829 555.865 280.547 556.324 280.344C556.793 280.141 557.289 280.04 557.812 280.04Z" fill="white"/>
<path d="M599.413 147.112C598.378 147.112 597.423 146.872 596.549 146.392C595.685 145.901 594.997 145.224 594.485 144.36C593.983 143.485 593.733 142.504 593.733 141.416C593.733 140.328 593.983 139.352 594.485 138.488C594.997 137.624 595.685 136.952 596.549 136.472C597.423 135.981 598.378 135.736 599.413 135.736C600.458 135.736 601.413 135.981 602.277 136.472C603.151 136.952 603.839 137.624 604.341 138.488C604.842 139.352 605.093 140.328 605.093 141.416C605.093 142.504 604.842 143.485 604.341 144.36C603.839 145.224 603.151 145.901 602.277 146.392C601.413 146.872 600.458 147.112 599.413 147.112ZM599.413 145.528C600.149 145.528 600.805 145.363 601.381 145.032C601.957 144.691 602.405 144.211 602.725 143.592C603.055 142.963 603.221 142.237 603.221 141.416C603.221 140.595 603.055 139.875 602.725 139.256C602.405 138.637 601.957 138.163 601.381 137.832C600.805 137.501 600.149 137.336 599.413 137.336C598.677 137.336 598.021 137.501 597.445 137.832C596.869 138.163 596.415 138.637 596.085 139.256C595.765 139.875 595.605 140.595 595.605 141.416C595.605 142.237 595.765 142.963 596.085 143.592C596.415 144.211 596.869 144.691 597.445 145.032C598.021 145.363 598.677 145.528 599.413 145.528ZM608.712 139.496C609.021 139.069 609.442 138.723 609.976 138.456C610.52 138.179 611.122 138.04 611.784 138.04C612.562 138.04 613.266 138.227 613.896 138.6C614.525 138.973 615.021 139.507 615.384 140.2C615.746 140.883 615.928 141.667 615.928 142.552C615.928 143.437 615.746 144.232 615.384 144.936C615.021 145.629 614.52 146.173 613.88 146.568C613.25 146.952 612.552 147.144 611.784 147.144C611.101 147.144 610.493 147.011 609.96 146.744C609.437 146.477 609.021 146.136 608.712 145.72V147H606.888V135.16H608.712V139.496ZM614.072 142.552C614.072 141.944 613.944 141.421 613.688 140.984C613.442 140.536 613.112 140.2 612.696 139.976C612.29 139.741 611.853 139.624 611.384 139.624C610.925 139.624 610.488 139.741 610.072 139.976C609.666 140.211 609.336 140.552 609.08 141C608.834 141.448 608.712 141.976 608.712 142.584C608.712 143.192 608.834 143.725 609.08 144.184C609.336 144.632 609.666 144.973 610.072 145.208C610.488 145.443 610.925 145.56 611.384 145.56C611.853 145.56 612.29 145.443 612.696 145.208C613.112 144.963 613.442 144.611 613.688 144.152C613.944 143.693 614.072 143.16 614.072 142.552ZM618.659 137.016C618.329 137.016 618.051 136.904 617.827 136.68C617.603 136.456 617.491 136.179 617.491 135.848C617.491 135.517 617.603 135.24 617.827 135.016C618.051 134.792 618.329 134.68 618.659 134.68C618.979 134.68 619.251 134.792 619.475 135.016C619.699 135.24 619.811 135.517 619.811 135.848C619.811 136.179 619.699 136.456 619.475 136.68C619.251 136.904 618.979 137.016 618.659 137.016ZM619.555 148.728C619.555 149.592 619.337 150.216 618.899 150.6C618.473 150.995 617.849 151.192 617.027 151.192H616.083V149.656H616.707C617.081 149.656 617.342 149.581 617.491 149.432C617.651 149.293 617.731 149.059 617.731 148.728V138.184H619.555V148.728ZM630.03 142.376C630.03 142.707 630.009 143.005 629.966 143.272H623.23C623.283 143.976 623.545 144.541 624.014 144.968C624.483 145.395 625.059 145.608 625.742 145.608C626.723 145.608 627.417 145.197 627.822 144.376H629.79C629.523 145.187 629.038 145.853 628.334 146.376C627.641 146.888 626.777 147.144 625.742 147.144C624.899 147.144 624.142 146.957 623.47 146.584C622.809 146.2 622.286 145.667 621.902 144.984C621.529 144.291 621.342 143.491 621.342 142.584C621.342 141.677 621.523 140.883 621.886 140.2C622.259 139.507 622.777 138.973 623.438 138.6C624.11 138.227 624.878 138.04 625.742 138.04C626.574 138.04 627.315 138.221 627.966 138.584C628.617 138.947 629.123 139.459 629.486 140.12C629.849 140.771 630.03 141.523 630.03 142.376ZM628.126 141.8C628.115 141.128 627.875 140.589 627.406 140.184C626.937 139.779 626.355 139.576 625.662 139.576C625.033 139.576 624.494 139.779 624.046 140.184C623.598 140.579 623.331 141.117 623.246 141.8H628.126ZM631.217 142.584C631.217 141.677 631.398 140.883 631.761 140.2C632.134 139.507 632.646 138.973 633.297 138.6C633.948 138.227 634.694 138.04 635.537 138.04C636.604 138.04 637.484 138.296 638.177 138.808C638.881 139.309 639.356 140.029 639.601 140.968H637.633C637.473 140.531 637.217 140.189 636.865 139.944C636.513 139.699 636.07 139.576 635.537 139.576C634.79 139.576 634.193 139.843 633.745 140.376C633.308 140.899 633.089 141.635 633.089 142.584C633.089 143.533 633.308 144.275 633.745 144.808C634.193 145.341 634.79 145.608 635.537 145.608C636.593 145.608 637.292 145.144 637.633 144.216H639.601C639.345 145.112 638.865 145.827 638.161 146.36C637.457 146.883 636.582 147.144 635.537 147.144C634.694 147.144 633.948 146.957 633.297 146.584C632.646 146.2 632.134 145.667 631.761 144.984C631.398 144.291 631.217 143.491 631.217 142.584ZM643.547 139.672V144.552C643.547 144.883 643.621 145.123 643.771 145.272C643.931 145.411 644.197 145.48 644.571 145.48H645.691V147H644.251C643.429 147 642.8 146.808 642.363 146.424C641.925 146.04 641.707 145.416 641.707 144.552V139.672H640.667V138.184H641.707V135.992H643.547V138.184H645.691V139.672H643.547ZM648.3 137.016C647.969 137.016 647.692 136.904 647.468 136.68C647.244 136.456 647.132 136.179 647.132 135.848C647.132 135.517 647.244 135.24 647.468 135.016C647.692 134.792 647.969 134.68 648.3 134.68C648.62 134.68 648.892 134.792 649.116 135.016C649.34 135.24 649.452 135.517 649.452 135.848C649.452 136.179 649.34 136.456 649.116 136.68C648.892 136.904 648.62 137.016 648.3 137.016ZM649.196 138.184V147H647.372V138.184H649.196ZM654.999 145.368L657.495 138.184H659.431L656.071 147H653.895L650.551 138.184H652.503L654.999 145.368ZM668.889 142.376C668.889 142.707 668.868 143.005 668.825 143.272H662.089C662.143 143.976 662.404 144.541 662.873 144.968C663.343 145.395 663.919 145.608 664.601 145.608C665.583 145.608 666.276 145.197 666.681 144.376H668.649C668.383 145.187 667.897 145.853 667.193 146.376C666.5 146.888 665.636 147.144 664.601 147.144C663.759 147.144 663.001 146.957 662.329 146.584C661.668 146.2 661.145 145.667 660.761 144.984C660.388 144.291 660.201 143.491 660.201 142.584C660.201 141.677 660.383 140.883 660.745 140.2C661.119 139.507 661.636 138.973 662.297 138.6C662.969 138.227 663.737 138.04 664.601 138.04C665.433 138.04 666.175 138.221 666.825 138.584C667.476 138.947 667.983 139.459 668.345 140.12C668.708 140.771 668.889 141.523 668.889 142.376ZM666.985 141.8C666.975 141.128 666.735 140.589 666.265 140.184C665.796 139.779 665.215 139.576 664.521 139.576C663.892 139.576 663.353 139.779 662.905 140.184C662.457 140.579 662.191 141.117 662.105 141.8H666.985ZM670.076 141.416C670.076 140.328 670.327 139.352 670.828 138.488C671.34 137.624 672.028 136.952 672.892 136.472C673.767 135.981 674.722 135.736 675.756 135.736C676.94 135.736 677.991 136.029 678.908 136.616C679.836 137.192 680.508 138.013 680.924 139.08H678.732C678.444 138.493 678.044 138.056 677.532 137.768C677.02 137.48 676.428 137.336 675.756 137.336C675.02 137.336 674.364 137.501 673.788 137.832C673.212 138.163 672.759 138.637 672.428 139.256C672.108 139.875 671.948 140.595 671.948 141.416C671.948 142.237 672.108 142.957 672.428 143.576C672.759 144.195 673.212 144.675 673.788 145.016C674.364 145.347 675.02 145.512 675.756 145.512C676.428 145.512 677.02 145.368 677.532 145.08C678.044 144.792 678.444 144.355 678.732 143.768H680.924C680.508 144.835 679.836 145.656 678.908 146.232C677.991 146.808 676.94 147.096 675.756 147.096C674.711 147.096 673.756 146.856 672.892 146.376C672.028 145.885 671.34 145.208 670.828 144.344C670.327 143.48 670.076 142.504 670.076 141.416Z" fill="white"/>
<path d="M582.492 398.448L585.948 404H583.9L581.388 399.968L579.036 404H577.004L580.46 398.448L576.988 392.88H579.036L581.564 396.944L583.932 392.88H585.964L582.492 398.448ZM587.342 399.552C587.342 398.667 587.523 397.883 587.886 397.2C588.259 396.517 588.761 395.989 589.39 395.616C590.03 395.232 590.734 395.04 591.502 395.04C592.195 395.04 592.798 395.179 593.31 395.456C593.833 395.723 594.249 396.059 594.558 396.464V395.184H596.398V404H594.558V402.688C594.249 403.104 593.827 403.451 593.294 403.728C592.761 404.005 592.153 404.144 591.47 404.144C590.713 404.144 590.019 403.952 589.39 403.568C588.761 403.173 588.259 402.629 587.886 401.936C587.523 401.232 587.342 400.437 587.342 399.552ZM594.558 399.584C594.558 398.976 594.43 398.448 594.174 398C593.929 397.552 593.603 397.211 593.198 396.976C592.793 396.741 592.355 396.624 591.886 396.624C591.417 396.624 590.979 396.741 590.574 396.976C590.169 397.2 589.838 397.536 589.582 397.984C589.337 398.421 589.214 398.944 589.214 399.552C589.214 400.16 589.337 400.693 589.582 401.152C589.838 401.611 590.169 401.963 590.574 402.208C590.99 402.443 591.427 402.56 591.886 402.56C592.355 402.56 592.793 402.443 593.198 402.208C593.603 401.973 593.929 401.632 594.174 401.184C594.43 400.725 594.558 400.192 594.558 399.584ZM609.466 395.04C610.159 395.04 610.778 395.184 611.322 395.472C611.876 395.76 612.308 396.187 612.618 396.752C612.938 397.317 613.098 398 613.098 398.8V404H611.29V399.072C611.29 398.283 611.092 397.68 610.698 397.264C610.303 396.837 609.764 396.624 609.082 396.624C608.399 396.624 607.855 396.837 607.45 397.264C607.055 397.68 606.858 398.283 606.858 399.072V404H605.05V399.072C605.05 398.283 604.852 397.68 604.458 397.264C604.063 396.837 603.524 396.624 602.842 396.624C602.159 396.624 601.615 396.837 601.21 397.264C600.815 397.68 600.618 398.283 600.618 399.072V404H598.794V395.184H600.618V396.192C600.916 395.829 601.295 395.547 601.754 395.344C602.212 395.141 602.703 395.04 603.226 395.04C603.93 395.04 604.559 395.189 605.114 395.488C605.668 395.787 606.095 396.219 606.394 396.784C606.66 396.251 607.076 395.829 607.642 395.52C608.207 395.2 608.815 395.04 609.466 395.04ZM614.811 399.552C614.811 398.667 614.992 397.883 615.355 397.2C615.728 396.517 616.229 395.989 616.859 395.616C617.499 395.232 618.203 395.04 618.971 395.04C619.664 395.04 620.267 395.179 620.779 395.456C621.301 395.723 621.717 396.059 622.027 396.464V395.184H623.867V404H622.027V402.688C621.717 403.104 621.296 403.451 620.763 403.728C620.229 404.005 619.621 404.144 618.939 404.144C618.181 404.144 617.488 403.952 616.859 403.568C616.229 403.173 615.728 402.629 615.355 401.936C614.992 401.232 614.811 400.437 614.811 399.552ZM622.027 399.584C622.027 398.976 621.899 398.448 621.643 398C621.397 397.552 621.072 397.211 620.667 396.976C620.261 396.741 619.824 396.624 619.355 396.624C618.885 396.624 618.448 396.741 618.043 396.976C617.637 397.2 617.307 397.536 617.051 397.984C616.805 398.421 616.683 398.944 616.683 399.552C616.683 400.16 616.805 400.693 617.051 401.152C617.307 401.611 617.637 401.963 618.043 402.208C618.459 402.443 618.896 402.56 619.355 402.56C619.824 402.56 620.261 402.443 620.667 402.208C621.072 401.973 621.397 401.632 621.643 401.184C621.899 400.725 622.027 400.192 622.027 399.584ZM628.087 396.464C628.353 396.016 628.705 395.669 629.143 395.424C629.591 395.168 630.119 395.04 630.727 395.04V396.928H630.263C629.548 396.928 629.004 397.109 628.631 397.472C628.268 397.835 628.087 398.464 628.087 399.36V404H626.263V395.184H628.087V396.464ZM633.331 394.016C633 394.016 632.723 393.904 632.499 393.68C632.275 393.456 632.163 393.179 632.163 392.848C632.163 392.517 632.275 392.24 632.499 392.016C632.723 391.792 633 391.68 633.331 391.68C633.651 391.68 633.923 391.792 634.147 392.016C634.371 392.24 634.483 392.517 634.483 392.848C634.483 393.179 634.371 393.456 634.147 393.68C633.923 393.904 633.651 394.016 633.331 394.016ZM634.227 395.184V404H632.403V395.184H634.227ZM641.07 395.04C641.763 395.04 642.382 395.184 642.926 395.472C643.481 395.76 643.913 396.187 644.222 396.752C644.531 397.317 644.686 398 644.686 398.8V404H642.878V399.072C642.878 398.283 642.681 397.68 642.286 397.264C641.891 396.837 641.353 396.624 640.67 396.624C639.987 396.624 639.443 396.837 639.038 397.264C638.643 397.68 638.446 398.283 638.446 399.072V404H636.622V395.184H638.446V396.192C638.745 395.829 639.123 395.547 639.582 395.344C640.051 395.141 640.547 395.04 641.07 395.04Z" fill="white"/>
<path d="M737.006 81.728H732.35L731.55 84H729.646L733.63 72.864H735.742L739.726 84H737.806L737.006 81.728ZM736.494 80.24L734.686 75.072L732.862 80.24H736.494ZM745.906 75.04C746.599 75.04 747.218 75.184 747.762 75.472C748.316 75.76 748.748 76.1867 749.058 76.752C749.367 77.3173 749.522 78 749.522 78.8V84H747.714V79.072C747.714 78.2827 747.516 77.68 747.122 77.264C746.727 76.8373 746.188 76.624 745.506 76.624C744.823 76.624 744.279 76.8373 743.874 77.264C743.479 77.68 743.282 78.2827 743.282 79.072V84H741.458V75.184H743.282V76.192C743.58 75.8293 743.959 75.5467 744.418 75.344C744.887 75.1413 745.383 75.04 745.906 75.04ZM751.24 79.552C751.24 78.6667 751.422 77.8827 751.784 77.2C752.158 76.5173 752.659 75.9893 753.288 75.616C753.928 75.232 754.638 75.04 755.416 75.04C755.992 75.04 756.558 75.168 757.112 75.424C757.678 75.6693 758.126 76 758.456 76.416V72.16H760.296V84H758.456V82.672C758.158 83.0987 757.742 83.4507 757.208 83.728C756.686 84.0053 756.083 84.144 755.4 84.144C754.632 84.144 753.928 83.952 753.288 83.568C752.659 83.1733 752.158 82.6293 751.784 81.936C751.422 81.232 751.24 80.4373 751.24 79.552ZM758.456 79.584C758.456 78.976 758.328 78.448 758.072 78C757.827 77.552 757.502 77.2107 757.096 76.976C756.691 76.7413 756.254 76.624 755.784 76.624C755.315 76.624 754.878 76.7413 754.472 76.976C754.067 77.2 753.736 77.536 753.48 77.984C753.235 78.4213 753.112 78.944 753.112 79.552C753.112 80.16 753.235 80.6933 753.48 81.152C753.736 81.6107 754.067 81.9627 754.472 82.208C754.888 82.4427 755.326 82.56 755.784 82.56C756.254 82.56 756.691 82.4427 757.096 82.208C757.502 81.9733 757.827 81.632 758.072 81.184C758.328 80.7253 758.456 80.192 758.456 79.584ZM764.516 76.464C764.783 76.016 765.135 75.6693 765.572 75.424C766.02 75.168 766.548 75.04 767.156 75.04V76.928H766.692C765.978 76.928 765.434 77.1093 765.06 77.472C764.698 77.8347 764.516 78.464 764.516 79.36V84H762.692V75.184H764.516V76.464ZM772.657 84.144C771.825 84.144 771.073 83.9573 770.401 83.584C769.729 83.2 769.201 82.6667 768.817 81.984C768.433 81.2907 768.241 80.4907 768.241 79.584C768.241 78.688 768.438 77.8933 768.833 77.2C769.227 76.5067 769.766 75.9733 770.449 75.6C771.131 75.2267 771.894 75.04 772.737 75.04C773.579 75.04 774.342 75.2267 775.025 75.6C775.707 75.9733 776.246 76.5067 776.641 77.2C777.035 77.8933 777.233 78.688 777.233 79.584C777.233 80.48 777.03 81.2747 776.625 81.968C776.219 82.6613 775.665 83.2 774.961 83.584C774.267 83.9573 773.499 84.144 772.657 84.144ZM772.657 82.56C773.126 82.56 773.563 82.448 773.969 82.224C774.385 82 774.721 81.664 774.977 81.216C775.233 80.768 775.361 80.224 775.361 79.584C775.361 78.944 775.238 78.4053 774.993 77.968C774.747 77.52 774.422 77.184 774.017 76.96C773.611 76.736 773.174 76.624 772.705 76.624C772.235 76.624 771.798 76.736 771.393 76.96C770.998 77.184 770.683 77.52 770.449 77.968C770.214 78.4053 770.097 78.944 770.097 79.584C770.097 80.5333 770.337 81.2693 770.817 81.792C771.307 82.304 771.921 82.56 772.657 82.56ZM779.964 74.016C779.633 74.016 779.356 73.904 779.132 73.68C778.908 73.456 778.796 73.1787 778.796 72.848C778.796 72.5173 778.908 72.24 779.132 72.016C779.356 71.792 779.633 71.68 779.964 71.68C780.284 71.68 780.556 71.792 780.78 72.016C781.004 72.24 781.116 72.5173 781.116 72.848C781.116 73.1787 781.004 73.456 780.78 73.68C780.556 73.904 780.284 74.016 779.964 74.016ZM780.86 75.184V84H779.036V75.184H780.86ZM782.647 79.552C782.647 78.6667 782.828 77.8827 783.191 77.2C783.564 76.5173 784.065 75.9893 784.695 75.616C785.335 75.232 786.044 75.04 786.823 75.04C787.399 75.04 787.964 75.168 788.519 75.424C789.084 75.6693 789.532 76 789.863 76.416V72.16H791.703V84H789.863V82.672C789.564 83.0987 789.148 83.4507 788.615 83.728C788.092 84.0053 787.489 84.144 786.807 84.144C786.039 84.144 785.335 83.952 784.695 83.568C784.065 83.1733 783.564 82.6293 783.191 81.936C782.828 81.232 782.647 80.4373 782.647 79.552ZM789.863 79.584C789.863 78.976 789.735 78.448 789.479 78C789.233 77.552 788.908 77.2107 788.503 76.976C788.097 76.7413 787.66 76.624 787.191 76.624C786.721 76.624 786.284 76.7413 785.879 76.976C785.473 77.2 785.143 77.536 784.887 77.984C784.641 78.4213 784.519 78.944 784.519 79.552C784.519 80.16 784.641 80.6933 784.887 81.152C785.143 81.6107 785.473 81.9627 785.879 82.208C786.295 82.4427 786.732 82.56 787.191 82.56C787.66 82.56 788.097 82.4427 788.503 82.208C788.908 81.9733 789.233 81.632 789.479 81.184C789.735 80.7253 789.863 80.192 789.863 79.584Z" fill="white"/>
<path d="M837.39 147L834.83 142.552H833.438V147H831.614V135.88H835.454C836.307 135.88 837.027 136.029 837.614 136.328C838.211 136.627 838.654 137.027 838.942 137.528C839.241 138.029 839.39 138.589 839.39 139.208C839.39 139.933 839.177 140.595 838.75 141.192C838.334 141.779 837.689 142.179 836.814 142.392L839.566 147H837.39ZM833.438 141.096H835.454C836.137 141.096 836.649 140.925 836.99 140.584C837.342 140.243 837.518 139.784 837.518 139.208C837.518 138.632 837.347 138.184 837.006 137.864C836.665 137.533 836.147 137.368 835.454 137.368H833.438V141.096ZM849.803 142.376C849.803 142.707 849.782 143.005 849.739 143.272H843.003C843.057 143.976 843.318 144.541 843.787 144.968C844.257 145.395 844.833 145.608 845.515 145.608C846.497 145.608 847.19 145.197 847.595 144.376H849.563C849.297 145.187 848.811 145.853 848.107 146.376C847.414 146.888 846.55 147.144 845.515 147.144C844.673 147.144 843.915 146.957 843.243 146.584C842.582 146.2 842.059 145.667 841.675 144.984C841.302 144.291 841.115 143.491 841.115 142.584C841.115 141.677 841.297 140.883 841.659 140.2C842.033 139.507 842.55 138.973 843.211 138.6C843.883 138.227 844.651 138.04 845.515 138.04C846.347 138.04 847.089 138.221 847.739 138.584C848.39 138.947 848.897 139.459 849.259 140.12C849.622 140.771 849.803 141.523 849.803 142.376ZM847.899 141.8C847.889 141.128 847.649 140.589 847.179 140.184C846.71 139.779 846.129 139.576 845.435 139.576C844.806 139.576 844.267 139.779 843.819 140.184C843.371 140.579 843.105 141.117 843.019 141.8H847.899ZM850.99 142.552C850.99 141.667 851.172 140.883 851.534 140.2C851.908 139.517 852.409 138.989 853.038 138.616C853.678 138.232 854.382 138.04 855.15 138.04C855.844 138.04 856.446 138.179 856.958 138.456C857.481 138.723 857.897 139.059 858.206 139.464V138.184H860.046V147H858.206V145.688C857.897 146.104 857.476 146.451 856.942 146.728C856.409 147.005 855.801 147.144 855.118 147.144C854.361 147.144 853.668 146.952 853.038 146.568C852.409 146.173 851.908 145.629 851.534 144.936C851.172 144.232 850.99 143.437 850.99 142.552ZM858.206 142.584C858.206 141.976 858.078 141.448 857.822 141C857.577 140.552 857.252 140.211 856.846 139.976C856.441 139.741 856.004 139.624 855.534 139.624C855.065 139.624 854.628 139.741 854.222 139.976C853.817 140.2 853.486 140.536 853.23 140.984C852.985 141.421 852.862 141.944 852.862 142.552C852.862 143.16 852.985 143.693 853.23 144.152C853.486 144.611 853.817 144.963 854.222 145.208C854.638 145.443 855.076 145.56 855.534 145.56C856.004 145.56 856.441 145.443 856.846 145.208C857.252 144.973 857.577 144.632 857.822 144.184C858.078 143.725 858.206 143.192 858.206 142.584ZM861.834 142.584C861.834 141.677 862.016 140.883 862.378 140.2C862.752 139.507 863.264 138.973 863.914 138.6C864.565 138.227 865.312 138.04 866.154 138.04C867.221 138.04 868.101 138.296 868.794 138.808C869.498 139.309 869.973 140.029 870.218 140.968H868.25C868.09 140.531 867.834 140.189 867.482 139.944C867.13 139.699 866.688 139.576 866.154 139.576C865.408 139.576 864.81 139.843 864.362 140.376C863.925 140.899 863.706 141.635 863.706 142.584C863.706 143.533 863.925 144.275 864.362 144.808C864.81 145.341 865.408 145.608 866.154 145.608C867.21 145.608 867.909 145.144 868.25 144.216H870.218C869.962 145.112 869.482 145.827 868.778 146.36C868.074 146.883 867.2 147.144 866.154 147.144C865.312 147.144 864.565 146.957 863.914 146.584C863.264 146.2 862.752 145.667 862.378 144.984C862.016 144.291 861.834 143.491 861.834 142.584ZM874.164 139.672V144.552C874.164 144.883 874.239 145.123 874.388 145.272C874.548 145.411 874.815 145.48 875.188 145.48H876.308V147H874.868C874.047 147 873.417 146.808 872.98 146.424C872.543 146.04 872.324 145.416 872.324 144.552V139.672H871.284V138.184H872.324V135.992H874.164V138.184H876.308V139.672H874.164ZM891.281 147H889.457L883.969 138.696V147H882.145V135.864H883.969L889.457 144.152V135.864H891.281V147ZM893.069 142.552C893.069 141.667 893.25 140.883 893.613 140.2C893.986 139.517 894.487 138.989 895.117 138.616C895.757 138.232 896.461 138.04 897.229 138.04C897.922 138.04 898.525 138.179 899.037 138.456C899.559 138.723 899.975 139.059 900.285 139.464V138.184H902.125V147H900.285V145.688C899.975 146.104 899.554 146.451 899.021 146.728C898.487 147.005 897.879 147.144 897.197 147.144C896.439 147.144 895.746 146.952 895.117 146.568C894.487 146.173 893.986 145.629 893.613 144.936C893.25 144.232 893.069 143.437 893.069 142.552ZM900.285 142.584C900.285 141.976 900.157 141.448 899.901 141C899.655 140.552 899.33 140.211 898.925 139.976C898.519 139.741 898.082 139.624 897.613 139.624C897.143 139.624 896.706 139.741 896.301 139.976C895.895 140.2 895.565 140.536 895.309 140.984C895.063 141.421 894.941 141.944 894.941 142.552C894.941 143.16 895.063 143.693 895.309 144.152C895.565 144.611 895.895 144.963 896.301 145.208C896.717 145.443 897.154 145.56 897.613 145.56C898.082 145.56 898.519 145.443 898.925 145.208C899.33 144.973 899.655 144.632 899.901 144.184C900.157 143.725 900.285 143.192 900.285 142.584ZM906.648 139.672V144.552C906.648 144.883 906.723 145.123 906.872 145.272C907.032 145.411 907.299 145.48 907.672 145.48H908.792V147H907.352C906.531 147 905.902 146.808 905.464 146.424C905.027 146.04 904.808 145.416 904.808 144.552V139.672H903.768V138.184H904.808V135.992H906.648V138.184H908.792V139.672H906.648ZM911.401 137.016C911.071 137.016 910.793 136.904 910.569 136.68C910.345 136.456 910.233 136.179 910.233 135.848C910.233 135.517 910.345 135.24 910.569 135.016C910.793 134.792 911.071 134.68 911.401 134.68C911.721 134.68 911.993 134.792 912.217 135.016C912.441 135.24 912.553 135.517 912.553 135.848C912.553 136.179 912.441 136.456 912.217 136.68C911.993 136.904 911.721 137.016 911.401 137.016ZM912.297 138.184V147H910.473V138.184H912.297ZM918.1 145.368L920.596 138.184H922.532L919.172 147H916.996L913.652 138.184H915.604L918.1 145.368ZM931.991 142.376C931.991 142.707 931.97 143.005 931.927 143.272H925.191C925.244 143.976 925.506 144.541 925.975 144.968C926.444 145.395 927.02 145.608 927.703 145.608C928.684 145.608 929.378 145.197 929.783 144.376H931.751C931.484 145.187 930.999 145.853 930.295 146.376C929.602 146.888 928.738 147.144 927.703 147.144C926.86 147.144 926.103 146.957 925.431 146.584C924.77 146.2 924.247 145.667 923.863 144.984C923.49 144.291 923.303 143.491 923.303 142.584C923.303 141.677 923.484 140.883 923.847 140.2C924.22 139.507 924.738 138.973 925.399 138.6C926.071 138.227 926.839 138.04 927.703 138.04C928.535 138.04 929.276 138.221 929.927 138.584C930.578 138.947 931.084 139.459 931.447 140.12C931.81 140.771 931.991 141.523 931.991 142.376ZM930.087 141.8C930.076 141.128 929.836 140.589 929.367 140.184C928.898 139.779 928.316 139.576 927.623 139.576C926.994 139.576 926.455 139.779 926.007 140.184C925.559 140.579 925.292 141.117 925.207 141.8H930.087Z" fill="white"/>
<path d="M964.861 277.88V279.368H960.141V282.648H963.821V284.136H960.141V289H958.317V277.88H964.861ZM968.376 277.16V289H966.552V277.16H968.376ZM978.754 280.184V289H976.93V287.96C976.642 288.323 976.264 288.611 975.794 288.824C975.336 289.027 974.845 289.128 974.322 289.128C973.629 289.128 973.005 288.984 972.45 288.696C971.906 288.408 971.474 287.981 971.154 287.416C970.845 286.851 970.69 286.168 970.69 285.368V280.184H972.498V285.096C972.498 285.885 972.696 286.493 973.09 286.92C973.485 287.336 974.024 287.544 974.706 287.544C975.389 287.544 975.928 287.336 976.322 286.92C976.728 286.493 976.93 285.885 976.93 285.096V280.184H978.754ZM983.289 281.672V286.552C983.289 286.883 983.364 287.123 983.513 287.272C983.673 287.411 983.94 287.48 984.313 287.48H985.433V289H983.993C983.172 289 982.542 288.808 982.105 288.424C981.668 288.04 981.449 287.416 981.449 286.552V281.672H980.409V280.184H981.449V277.992H983.289V280.184H985.433V281.672H983.289ZM989.242 281.672V286.552C989.242 286.883 989.317 287.123 989.466 287.272C989.626 287.411 989.893 287.48 990.266 287.48H991.386V289H989.946C989.125 289 988.495 288.808 988.058 288.424C987.621 288.04 987.402 287.416 987.402 286.552V281.672H986.362V280.184H987.402V277.992H989.242V280.184H991.386V281.672H989.242ZM1001.15 284.376C1001.15 284.707 1001.13 285.005 1001.08 285.272H994.347C994.401 285.976 994.662 286.541 995.131 286.968C995.601 287.395 996.177 287.608 996.859 287.608C997.841 287.608 998.534 287.197 998.939 286.376H1000.91C1000.64 287.187 1000.16 287.853 999.451 288.376C998.758 288.888 997.894 289.144 996.859 289.144C996.017 289.144 995.259 288.957 994.587 288.584C993.926 288.2 993.403 287.667 993.019 286.984C992.646 286.291 992.459 285.491 992.459 284.584C992.459 283.677 992.641 282.883 993.003 282.2C993.377 281.507 993.894 280.973 994.555 280.6C995.227 280.227 995.995 280.04 996.859 280.04C997.691 280.04 998.433 280.221 999.083 280.584C999.734 280.947 1000.24 281.459 1000.6 282.12C1000.97 282.771 1001.15 283.523 1001.15 284.376ZM999.243 283.8C999.233 283.128 998.993 282.589 998.523 282.184C998.054 281.779 997.473 281.576 996.779 281.576C996.15 281.576 995.611 281.779 995.163 282.184C994.715 282.579 994.449 283.117 994.363 283.8H999.243ZM1004.77 281.464C1005.03 281.016 1005.38 280.669 1005.82 280.424C1006.27 280.168 1006.8 280.04 1007.41 280.04V281.928H1006.94C1006.23 281.928 1005.68 282.109 1005.31 282.472C1004.95 282.835 1004.77 283.464 1004.77 284.36V289H1002.94V280.184H1004.77V281.464Z" fill="white"/>
<path d="M1173.21 466.88V478H1171.39V466.88H1173.21ZM1179.43 478.144C1178.6 478.144 1177.85 477.957 1177.17 477.584C1176.5 477.2 1175.97 476.667 1175.59 475.984C1175.21 475.291 1175.01 474.491 1175.01 473.584C1175.01 472.688 1175.21 471.893 1175.61 471.2C1176 470.507 1176.54 469.973 1177.22 469.6C1177.9 469.227 1178.67 469.04 1179.51 469.04C1180.35 469.04 1181.12 469.227 1181.8 469.6C1182.48 469.973 1183.02 470.507 1183.41 471.2C1183.81 471.893 1184.01 472.688 1184.01 473.584C1184.01 474.48 1183.8 475.275 1183.4 475.968C1182.99 476.661 1182.44 477.2 1181.73 477.584C1181.04 477.957 1180.27 478.144 1179.43 478.144ZM1179.43 476.56C1179.9 476.56 1180.34 476.448 1180.74 476.224C1181.16 476 1181.49 475.664 1181.75 475.216C1182.01 474.768 1182.13 474.224 1182.13 473.584C1182.13 472.944 1182.01 472.405 1181.77 471.968C1181.52 471.52 1181.2 471.184 1180.79 470.96C1180.38 470.736 1179.95 470.624 1179.48 470.624C1179.01 470.624 1178.57 470.736 1178.17 470.96C1177.77 471.184 1177.46 471.52 1177.22 471.968C1176.99 472.405 1176.87 472.944 1176.87 473.584C1176.87 474.533 1177.11 475.269 1177.59 475.792C1178.08 476.304 1178.69 476.56 1179.43 476.56ZM1190.26 469.04C1190.95 469.04 1191.57 469.184 1192.11 469.472C1192.67 469.76 1193.1 470.187 1193.41 470.752C1193.72 471.317 1193.87 472 1193.87 472.8V478H1192.07V473.072C1192.07 472.283 1191.87 471.68 1191.47 471.264C1191.08 470.837 1190.54 470.624 1189.86 470.624C1189.17 470.624 1188.63 470.837 1188.23 471.264C1187.83 471.68 1187.63 472.283 1187.63 473.072V478H1185.81V469.184H1187.63V470.192C1187.93 469.829 1188.31 469.547 1188.77 469.344C1189.24 469.141 1189.73 469.04 1190.26 469.04ZM1197.13 468.016C1196.8 468.016 1196.52 467.904 1196.3 467.68C1196.07 467.456 1195.96 467.179 1195.96 466.848C1195.96 466.517 1196.07 466.24 1196.3 466.016C1196.52 465.792 1196.8 465.68 1197.13 465.68C1197.45 465.68 1197.72 465.792 1197.94 466.016C1198.17 466.24 1198.28 466.517 1198.28 466.848C1198.28 467.179 1198.17 467.456 1197.94 467.68C1197.72 467.904 1197.45 468.016 1197.13 468.016ZM1198.02 469.184V478H1196.2V469.184H1198.02ZM1199.81 473.584C1199.81 472.677 1199.99 471.883 1200.35 471.2C1200.73 470.507 1201.24 469.973 1201.89 469.6C1202.54 469.227 1203.29 469.04 1204.13 469.04C1205.2 469.04 1206.08 469.296 1206.77 469.808C1207.47 470.309 1207.95 471.029 1208.19 471.968H1206.23C1206.07 471.531 1205.81 471.189 1205.46 470.944C1205.11 470.699 1204.66 470.576 1204.13 470.576C1203.38 470.576 1202.79 470.843 1202.34 471.376C1201.9 471.899 1201.68 472.635 1201.68 473.584C1201.68 474.533 1201.9 475.275 1202.34 475.808C1202.79 476.341 1203.38 476.608 1204.13 476.608C1205.19 476.608 1205.89 476.144 1206.23 475.216H1208.19C1207.94 476.112 1207.46 476.827 1206.75 477.36C1206.05 477.883 1205.18 478.144 1204.13 478.144C1203.29 478.144 1202.54 477.957 1201.89 477.584C1201.24 477.2 1200.73 476.667 1200.35 475.984C1199.99 475.291 1199.81 474.491 1199.81 473.584Z" fill="white"/>
<path d="M318.192 478.112C317.445 478.112 316.773 477.984 316.176 477.728C315.579 477.461 315.109 477.088 314.768 476.608C314.427 476.128 314.256 475.568 314.256 474.928H316.208C316.251 475.408 316.437 475.803 316.768 476.112C317.109 476.421 317.584 476.576 318.192 476.576C318.821 476.576 319.312 476.427 319.664 476.128C320.016 475.819 320.192 475.424 320.192 474.944C320.192 474.571 320.08 474.267 319.856 474.032C319.643 473.797 319.371 473.616 319.04 473.488C318.72 473.36 318.272 473.221 317.696 473.072C316.971 472.88 316.379 472.688 315.92 472.496C315.472 472.293 315.088 471.984 314.768 471.568C314.448 471.152 314.288 470.597 314.288 469.904C314.288 469.264 314.448 468.704 314.768 468.224C315.088 467.744 315.536 467.376 316.112 467.12C316.688 466.864 317.355 466.736 318.112 466.736C319.189 466.736 320.069 467.008 320.752 467.552C321.445 468.085 321.829 468.821 321.904 469.76H319.888C319.856 469.355 319.664 469.008 319.312 468.72C318.96 468.432 318.496 468.288 317.92 468.288C317.397 468.288 316.971 468.421 316.64 468.688C316.309 468.955 316.144 469.339 316.144 469.84C316.144 470.181 316.245 470.464 316.448 470.688C316.661 470.901 316.928 471.072 317.248 471.2C317.568 471.328 318.005 471.467 318.56 471.616C319.296 471.819 319.893 472.021 320.352 472.224C320.821 472.427 321.216 472.741 321.536 473.168C321.867 473.584 322.032 474.144 322.032 474.848C322.032 475.413 321.877 475.947 321.568 476.448C321.269 476.949 320.827 477.355 320.24 477.664C319.664 477.963 318.981 478.112 318.192 478.112ZM336.024 469.184L333.288 478H331.368L329.592 471.488L327.816 478H325.896L323.144 469.184H325L326.84 476.272L328.712 469.184H330.616L332.408 476.24L334.232 469.184H336.024ZM338.316 468.016C337.985 468.016 337.708 467.904 337.484 467.68C337.26 467.456 337.148 467.179 337.148 466.848C337.148 466.517 337.26 466.24 337.484 466.016C337.708 465.792 337.985 465.68 338.316 465.68C338.636 465.68 338.908 465.792 339.132 466.016C339.356 466.24 339.468 466.517 339.468 466.848C339.468 467.179 339.356 467.456 339.132 467.68C338.908 467.904 338.636 468.016 338.316 468.016ZM339.212 469.184V478H337.388V469.184H339.212ZM345.302 470.672H343.67V478H341.83V470.672H340.79V469.184H341.83V468.56C341.83 467.547 342.097 466.811 342.63 466.352C343.174 465.883 344.022 465.648 345.174 465.648V467.168C344.62 467.168 344.23 467.275 344.006 467.488C343.782 467.691 343.67 468.048 343.67 468.56V469.184H345.302V470.672ZM349.047 470.672V475.552C349.047 475.883 349.121 476.123 349.271 476.272C349.431 476.411 349.697 476.48 350.071 476.48H351.191V478H349.751C348.929 478 348.3 477.808 347.863 477.424C347.425 477.04 347.207 476.416 347.207 475.552V470.672H346.167V469.184H347.207V466.992H349.047V469.184H351.191V470.672H349.047Z" fill="white"/>
<path d="M750.417 249.016C750.086 249.016 749.809 248.904 749.585 248.68C749.361 248.456 749.249 248.179 749.249 247.848C749.249 247.517 749.361 247.24 749.585 247.016C749.809 246.792 750.086 246.68 750.417 246.68C750.737 246.68 751.009 246.792 751.233 247.016C751.457 247.24 751.569 247.517 751.569 247.848C751.569 248.179 751.457 248.456 751.233 248.68C751.009 248.904 750.737 249.016 750.417 249.016ZM751.313 250.184V259H749.489V250.184H751.313ZM758.78 259.112C757.745 259.112 756.79 258.872 755.916 258.392C755.052 257.901 754.364 257.224 753.852 256.36C753.35 255.485 753.1 254.504 753.1 253.416C753.1 252.328 753.35 251.352 753.852 250.488C754.364 249.624 755.052 248.952 755.916 248.472C756.79 247.981 757.745 247.736 758.78 247.736C759.825 247.736 760.78 247.981 761.644 248.472C762.518 248.952 763.206 249.624 763.708 250.488C764.209 251.352 764.46 252.328 764.46 253.416C764.46 254.504 764.209 255.485 763.708 256.36C763.206 257.224 762.518 257.901 761.644 258.392C760.78 258.872 759.825 259.112 758.78 259.112ZM758.78 257.528C759.516 257.528 760.172 257.363 760.748 257.032C761.324 256.691 761.772 256.211 762.092 255.592C762.422 254.963 762.588 254.237 762.588 253.416C762.588 252.595 762.422 251.875 762.092 251.256C761.772 250.637 761.324 250.163 760.748 249.832C760.172 249.501 759.516 249.336 758.78 249.336C758.044 249.336 757.388 249.501 756.812 249.832C756.236 250.163 755.782 250.637 755.452 251.256C755.132 251.875 754.972 252.595 754.972 253.416C754.972 254.237 755.132 254.963 755.452 255.592C755.782 256.211 756.236 256.691 756.812 257.032C757.388 257.363 758.044 257.528 758.78 257.528ZM769.919 259.112C769.172 259.112 768.5 258.984 767.903 258.728C767.305 258.461 766.836 258.088 766.495 257.608C766.153 257.128 765.983 256.568 765.983 255.928H767.935C767.977 256.408 768.164 256.803 768.495 257.112C768.836 257.421 769.311 257.576 769.919 257.576C770.548 257.576 771.039 257.427 771.391 257.128C771.743 256.819 771.919 256.424 771.919 255.944C771.919 255.571 771.807 255.267 771.583 255.032C771.369 254.797 771.097 254.616 770.767 254.488C770.447 254.36 769.999 254.221 769.423 254.072C768.697 253.88 768.105 253.688 767.647 253.496C767.199 253.293 766.815 252.984 766.495 252.568C766.175 252.152 766.015 251.597 766.015 250.904C766.015 250.264 766.175 249.704 766.495 249.224C766.815 248.744 767.263 248.376 767.839 248.12C768.415 247.864 769.081 247.736 769.839 247.736C770.916 247.736 771.796 248.008 772.479 248.552C773.172 249.085 773.556 249.821 773.631 250.76H771.615C771.583 250.355 771.391 250.008 771.039 249.72C770.687 249.432 770.223 249.288 769.647 249.288C769.124 249.288 768.697 249.421 768.367 249.688C768.036 249.955 767.871 250.339 767.871 250.84C767.871 251.181 767.972 251.464 768.175 251.688C768.388 251.901 768.655 252.072 768.975 252.2C769.295 252.328 769.732 252.467 770.287 252.616C771.023 252.819 771.62 253.021 772.079 253.224C772.548 253.427 772.943 253.741 773.263 254.168C773.593 254.584 773.759 255.144 773.759 255.848C773.759 256.413 773.604 256.947 773.295 257.448C772.996 257.949 772.553 258.355 771.967 258.664C771.391 258.963 770.708 259.112 769.919 259.112Z" fill="white"/>
</svg>
